<?xml version="1.0" encoding="UTF-8" standalone="no"?>
<!DOCTYPE svg PUBLIC "-//W3C//DTD SVG 1.1//EN" "http://www.w3.org/Graphics/SVG/1.1/DTD/svg11.dtd">
<svg width="100%" height="100%" viewBox="0 0 1353 486" version="1.1" xmlns="http://www.w3.org/2000/svg" xmlns:xlink="http://www.w3.org/1999/xlink" xml:space="preserve" xmlns:serif="http://www.serif.com/" style="fill-rule:evenodd;clip-rule:evenodd;stroke-miterlimit:10;">
    <path d="M285.72,132.78L266.25,138.08L263.81,137.54L255.9,107.93L255.49,105.47L255,103.8L254.71,102.09L254.71,101.24L254.43,96.92L253.72,92.69L253.32,91.22L252.84,88.49L252.51,87.32L251.96,84.32L251.71,83.45L251,79.51L250.07,69.61L257.12,64.92L261.35,62.77L265.58,61.24L269.79,60.24L270.91,60.12L274.02,59.36L275.62,59.17L280.32,58L284.85,56.15L289.24,53.66L293.5,50.54L293.55,50.54L315.77,55.74L318.44,56.63L319.63,70.1L320.29,73.68L320.64,74.93L321.02,77.24L321.54,79.24L322.93,88.93L322.83,90.93L323.7,94.11L324.7,96.79L325,98L328.14,122L320,125.85L315.79,127.49L311.51,128.79L307.16,129.79L306.91,129.79L303.34,130.54L302.79,130.69L298.42,131.54L293.98,132.06L289.46,132.25L288.56,132.25L285.75,132.8" style="fill:rgb(231,237,239);fill-opacity:0.53;fill-rule:nonzero;stroke:black;stroke-width:6px;"/>
    <path d="M220.78,149.15L219.84,149.4L216.72,150.02L196.83,148.13L192.77,147.51L188.66,146.65L184.5,145.56L178.82,143.76L181.56,121.58L181.78,116.58L181.59,111.69L180.99,106.89L179.99,102.18L179.99,102.12L178.99,97.47L177.54,92.85L175.48,87.85L175.2,86.23L170.89,43L176.53,38.76L179.53,37.61L184.44,36L189.15,38.56L195.5,42.45L198.82,44.76L204.4,48.17L209.87,51L215.23,53.31L230.62,58.46L231.25,58.57L250.09,69.57L251.02,79.47L251.76,83.38L252.01,84.25L252.56,87.25L252.89,88.42L253.37,91.15L253.77,92.62L254.48,96.85L254.76,101.17L254.76,102.02L255.05,103.73L255.5,105.4L255.91,107.86L263.82,137.47L252.91,142.35L248.25,144.04L243.51,145.36L239.36,146.18L238.71,146.35L235.23,147L233.9,147.34L229.07,148.19L224.07,148.68L222.68,148.68L220.81,149.04" style="fill:rgb(231,237,239);fill-opacity:0.53;fill-rule:nonzero;stroke:black;stroke-width:6px;"/>
    <path d="M129.84,156.06L115.7,143.58L111.92,139.58L108.72,135.49L106.11,131.28L104.11,126.94L102.66,122.48L102,119L94.91,107.6L92.29,104.18L90,101.73L90.2,100.65L92,83.54L92.8,79.35L93.98,75.08L95.55,70.73L98.83,63.31L102.99,45.81L115.39,44.92L115.53,44.92L126.63,44.71L134.46,43.55L138.74,43.13L143.07,42.93L147.44,42.93L161.12,43.62L170.92,43.01L175.17,86.24L175.45,87.86L177.51,92.86L178.96,97.48L179.96,102.13L179.96,102.19L180.96,106.9L181.56,111.7L181.75,116.59L181.53,121.59L178.79,143.77L160,153.28L156,155.59L152,158.14L148,160.93L147.2,161.55L143.42,160.7L138.72,159.87L134.13,159.29L133.05,159.2L129.82,156.06" style="fill:rgb(231,237,239);fill-opacity:0.53;fill-rule:nonzero;stroke:black;stroke-width:6px;"/>
    <path d="M398.65,161.11L399.94,165.42L403.56,173.56L405.85,193.16L386.14,195.38L381.44,196.38L379.44,197.04L376.83,197.62L374.94,198.24L372.18,198.86L370.44,199.44L367.53,200.11L365.94,200.64L362.88,201.35L361.44,201.83L358.23,202.59L353.65,204.15L349.25,206.15L349.03,205.55L340.25,187.21L334.18,181.55L335.77,179.55L333.31,176.69L334.69,175.17L332.5,171.85L333.55,170.85L331.7,167L332.31,166.45L331.01,162.14L330.33,157.3L333.44,154.84L336.77,146.84L339.15,134.26L339.87,125.67L342.37,125.67L345.87,125.45L352.02,124.05L356.57,123.98L360.7,123.62L364.77,122.96L366.94,122.44L370.52,121.83L374.15,121.45L384.79,121.01L388.43,132.7L394.23,143.99L395.91,148.79L396.59,152.31L397.05,153.71L397.58,156.71L398.19,158.64L398.61,161.06" style="fill:rgb(231,237,239);fill-opacity:0.53;fill-rule:nonzero;stroke:black;stroke-width:6px;"/>
    <path d="M311.15,212.52L298.41,213.52L293.87,213.46L289.2,213L288.2,212.83L285.7,196.36L282.7,190.36L281.26,186.18L280.38,181.88L279.47,177.6L279.47,177.37L278.58,173.31L278.58,172.85L277.58,168.35L266.28,138.16L285.75,132.86L288.58,132.3L289.48,132.3L294,132.11L298.44,131.59L302.81,130.74L303.36,130.59L306.93,129.84L307.18,129.84L311.53,128.84L315.81,127.54L320.02,125.9L328.17,122.03L339.97,125.72L339.25,134.31L336.87,146.89L333.54,154.89L330.43,157.35L331.11,162.19L332.41,166.5L331.8,167.05L333.61,170.85L332.56,171.9L334.75,175.22L333.37,176.74L335.83,179.6L334.24,181.6L340.31,187.26L349,205.52L349.22,206.12L338.52,214.33L335.11,217.33L334.6,217.1L329.74,215.33L325,214L320.31,213.07L315.71,212.56L311.15,212.56" style="fill:rgb(231,237,239);fill-opacity:0.53;fill-rule:nonzero;stroke:black;stroke-width:6px;"/>
    <path d="M241.53,226.77L234.27,215.13L228.06,208.45L224,207.09L223.28,202.79L223.11,202.73L222.35,198.41L222.22,198.41L221.42,194.08L221.33,194.08L220.48,189.73L220.43,189.73L219.54,185.37L215.17,164.89L216.5,154.36L216.72,150.11L219.84,149.49L220.78,149.24L222.67,148.89L224.06,148.89L229.06,148.4L233.89,147.55L235.22,147.21L238.7,146.56L239.35,146.39L243.5,145.57L248.24,144.25L252.9,142.56L263.81,137.68L266.25,138.22L277.55,168.41L278.55,172.91L278.55,173.37L279.44,177.43L279.44,177.66L280.35,181.94L281.23,186.24L282.67,190.42L285.67,196.42L288.17,212.89L285.17,214.89L284.63,215.19L273.42,219.19L270.02,220.13L268.85,220.36L264.34,221.72L259.93,223.52L255.61,225.76L254.17,226.67L250.99,226.6L246.26,226.9L241.82,227.59L241.47,226.87" style="fill:rgb(231,237,239);fill-opacity:0.53;fill-rule:nonzero;stroke:black;stroke-width:6px;"/>
    <path d="M210.64,238L193.55,242.83L192.3,241.55L189.59,238.4L189.3,238.01L183.06,223.34L182,220.15L180.92,216L179.24,211.53L179.07,211.19L163.26,195.85L159.36,192.55L156.81,190.66L152.67,187.19L147.24,161.51L148.04,160.89L151.98,158.1L155.98,155.55L159.98,153.24L178.79,143.73L184.47,145.53L188.63,146.62L192.74,147.48L196.8,148.1L216.72,150L216.5,154.25L215.17,164.78L219.54,185.26L220.43,189.62L221.28,193.97L221.37,193.97L222.17,198.3L222.3,198.3L223.06,202.62L223.23,202.68L223.95,206.98L228.03,208.34L234.24,215.02L241.5,226.66L241.86,227.37L237,230.12L232.91,231.86L228.69,233.22L226.45,233.72L224.45,234.36L222.55,234.77L220.17,235.5L218.6,235.83L215.88,236.64L214.65,236.89L211.59,237.78L210.68,237.96" style="fill:rgb(231,237,239);fill-opacity:0.53;fill-rule:nonzero;stroke:black;stroke-width:6px;"/>
    <path d="M94,246.79L90.35,242.64L78.2,225.7L75,222L71.4,218.45L67.4,215.04L50.4,202.57L71.77,186.73L75.93,184.1L80.18,181.87L84.51,180.04L88.93,178.6L93.43,177.6L94.61,177.43L99.39,176.3L104,174.7L108.6,172.7L133.07,159.24L134.15,159.33L138.74,159.91L143.44,160.74L147.22,161.59L152.65,187.27L147.57,195.19L145.74,198.49L144.8,199.89L142.4,204.1L142.06,204.58L139.29,209.28L139.07,209.75L135.69,215.21L132,219.52L128,222.74L123.61,224.83L120.73,225.42L117,227.11L116.43,227.25L112.28,229.32L108.42,232.32L96.42,245.8L94.72,247.48L93.97,246.75" style="fill:rgb(231,237,239);fill-opacity:0.53;fill-rule:nonzero;stroke:black;stroke-width:6px;"/>
    <path d="M345.4,273.48L345.27,263.39L345.13,261.49L342.33,253.21L340.48,241.9L339.4,237.45L338.03,233.25L336.93,228.7L335.11,217.37L338.52,214.37L349.22,206.16L353.62,204.16L358.2,202.6L361.41,201.84L362.85,201.36L365.91,200.65L367.5,200.12L370.41,199.45L372.15,198.87L374.91,198.25L376.8,197.63L379.41,197.05L381.41,196.39L386.11,195.39L405.82,193.17L410.95,196.51L415.03,212.88L415.39,213.95L416.23,217.15L416.35,217.49L417.35,221.02L417.43,221.42L418.69,225.67L420.3,229.81L422.3,233.81L422.77,234.6L423.7,238.01L432.54,262.48L422.69,277.18L415.84,280.38L411.62,282.04L407.39,283.4L407.31,283.4L403.01,284.79L398.73,286.18L398.61,286.18L394.21,287.62L392.75,288.2L350.66,275.35L346.28,273.77L345.42,273.41" style="fill:rgb(231,237,239);fill-opacity:0.53;fill-rule:nonzero;stroke:black;stroke-width:6px;"/>
    <path d="M204.87,390.85L202.87,391.6L200.16,392.26L198.21,392.99L195.42,393.68L193.56,394.38L190.68,395.09L188.9,395.76L184.19,396.94L179.31,397.59L174.31,397.7L163.99,396.85L162,393.71L155.84,381.39L153.53,377.57L150.88,373.85L147.88,370.24L144.53,366.73L138.35,361.03L137.89,359.03L137.09,354.03L136.6,348.97L136.45,344.54L160.45,335.03L172.27,333.03L177.03,331.67L177.36,331.53L181.69,330.25L181.76,330.25L186,329L186.5,328.9L217.6,319.05L231.44,326.59L233.73,328.16L228.35,341.7L226.72,346.7L225.5,351.6L224.69,356.37L224.29,361.02L224.34,379.32L223.88,384.32L223.5,386.4L204.91,390.87" style="fill:rgb(231,237,239);fill-opacity:0.53;fill-rule:nonzero;stroke:black;stroke-width:6px;"/>
    <path d="M301.35,295.38L286.7,297.7L285.77,297.8L276.19,279.52L269.76,272.31L267.1,268.31L265.1,264.07L264.27,261.07L263.68,259.66L263.19,257.66L262.29,255.27L262.08,254.22L261,250.78L260,244.5L254.31,226.58L255.75,225.67L260.07,223.43L264.48,221.63L268.99,220.27L270.16,220.04L273.56,219.1L284.77,215.1L285.31,214.8L288.31,212.8L289.31,212.97L293.98,213.43L298.52,213.49L311.26,212.49L315.78,212.57L320.38,213.08L325.07,214.01L329.85,215.36L334.71,217.13L335.22,217.36L337.04,228.69L338.14,233.24L339.51,237.44L340.59,241.89L342.44,253.2L345.24,261.48L345.38,263.38L345.51,273.47L328.66,287.47L320.06,292.05L319.28,292.05L314.71,292.51L310.23,293.24L305.83,294.24L302.45,295.24L301.45,295.31" style="fill:rgb(231,237,239);fill-opacity:0.53;fill-rule:nonzero;stroke:black;stroke-width:6px;"/>
    <path d="M267.09,268.28L269.75,272.28L276.18,279.49L285.76,297.77L283.56,299.46L263.79,313.15L260.35,315.84L257,318.81L253.73,322.01L251.08,324.88L250.24,325.14L245.86,326.25L241.41,327.13L236.89,327.78L233.72,328.07L231.43,326.5L217.58,319L209.8,302.71L205.89,297.51L203.37,293.46L201.28,289.28L199.62,284.97L198.91,282.38L198.25,280.58L197.77,278.71L196.51,275L195,271.51L189.81,261.94L193.62,242.76L210.71,237.93L211.6,237.75L214.66,236.86L215.89,236.61L218.61,235.8L220.18,235.47L222.56,234.74L224.46,234.33L226.46,233.69L228.7,233.19L232.92,231.83L237.01,230.09L241.92,227.46L246.36,226.77L251.09,226.47L254.27,226.54L260,244.46L261,250.74L262.14,254.12L262.35,255.12L263.25,257.51L263.74,259.51L264.33,260.92L265.16,263.92L267.1,268.19" style="fill:rgb(231,237,239);fill-opacity:0.53;fill-rule:nonzero;stroke:black;stroke-width:6px;"/>
    <path d="M192.3,241.52L193.55,242.8L189.74,262L167.93,269.12L167.05,269.28L163.47,270.46L162.47,270.65L159,271.78L157.82,272.01L154.54,273.13L153.21,273.39L150.08,274.47L148.6,274.77L144.06,276.36L139.71,278.59L116.85,294.35L115.37,292.64L112.17,288.36L109.37,283.97L106.97,279.46L104.97,274.84L103.37,270.1L102.95,268.4L101.95,265.3L101.86,264.89L99.57,260.79L97.5,256.19L95.86,251.46L95.4,249.61L94.74,247.51L96.44,245.83L108.44,232.35L112.3,229.35L116.45,227.28L117.02,227.14L120.67,225.45L123.55,224.86L127.94,222.77L131.94,219.55L135.65,215.21L139.03,209.75L139.25,209.28L142.02,204.58L142.36,204.1L144.76,199.89L145.7,198.49L147.53,195.19L152.61,187.27L156.75,190.74L159.3,192.63L163.2,195.93L179.02,211.28L179.19,211.62L180.87,216.09L181.94,220.2L183.01,223.35L189.35,238L189.64,238.39L192.3,241.54" style="fill:rgb(231,237,239);fill-opacity:0.53;fill-rule:nonzero;stroke:black;stroke-width:6px;"/>
    <path d="M127.94,330.64L125.94,326.02L124.27,321.3L123.27,317.6L122.89,316.5L121.97,313.12L121.48,311.71L120.66,308.64L120.08,306.91L119.36,304.16L118.68,302.16L117.43,297.32L116.89,294.4L139.8,278.64L144.15,276.41L148.69,274.82L150.17,274.52L153.3,273.44L154.63,273.18L157.91,272.06L159.09,271.83L162.52,270.68L163.52,270.49L167.1,269.31L167.98,269.15L189.79,262L194.98,271.57L196.54,275.1L197.8,278.73L198.28,280.6L198.94,282.4L199.65,284.99L201.31,289.3L203.4,293.48L205.92,297.48L209.83,302.68L217.61,319L186.51,328.85L186.01,328.95L181.76,330.25L181.69,330.25L177.36,331.53L177.03,331.67L172.27,333.03L160.45,335.03L136.45,344.54L136,344L133,339.67L130.32,335.24L127.94,330.69" style="fill:rgb(231,237,239);fill-opacity:0.53;fill-rule:nonzero;stroke:black;stroke-width:6px;"/>
    <path d="M288.25,87.82L314.69,172.62" style="fill:none;fill-rule:nonzero;stroke:rgb(227,46,0);stroke-width:4.5px;stroke-linecap:square;stroke-linejoin:round;stroke-miterlimit:4;"/>
    <path d="M288.25,87.82L314.69,172.62" style="fill:none;fill-rule:nonzero;stroke:rgb(227,46,0);stroke-width:4.5px;stroke-linecap:square;stroke-linejoin:round;stroke-miterlimit:4;"/>
    <path d="M288.25,87.82L243.2,189.57" style="fill:none;fill-rule:nonzero;stroke:rgb(227,46,0);stroke-width:4.5px;stroke-linecap:square;stroke-linejoin:round;stroke-miterlimit:4;"/>
    <path d="M288.25,87.82L243.2,189.57" style="fill:none;fill-rule:nonzero;stroke:rgb(227,46,0);stroke-width:4.5px;stroke-linecap:square;stroke-linejoin:round;stroke-miterlimit:4;"/>
    <path d="M220.18,98.86L131.7,101.67" style="fill:none;fill-rule:nonzero;stroke:rgb(227,46,0);stroke-width:4.5px;stroke-linecap:square;stroke-linejoin:round;stroke-miterlimit:4;"/>
    <path d="M220.18,98.86L243.18,189.57" style="fill:none;fill-rule:nonzero;stroke:rgb(227,46,0);stroke-width:4.5px;stroke-linecap:square;stroke-linejoin:round;stroke-miterlimit:4;"/>
    <path d="M220.18,98.86L208.46,196.52" style="fill:none;fill-rule:nonzero;stroke:rgb(227,46,0);stroke-width:4.5px;stroke-linecap:square;stroke-linejoin:round;stroke-miterlimit:4;"/>
    <path d="M220.18,98.86L243.18,189.57" style="fill:none;fill-rule:nonzero;stroke:rgb(227,46,0);stroke-width:4.5px;stroke-linecap:square;stroke-linejoin:round;stroke-miterlimit:4;"/>
    <path d="M220.18,98.86L208.46,196.52" style="fill:none;fill-rule:nonzero;stroke:rgb(227,46,0);stroke-width:4.5px;stroke-linecap:square;stroke-linejoin:round;stroke-miterlimit:4;"/>
    <path d="M131.7,101.67L208.47,196.52" style="fill:none;fill-rule:nonzero;stroke:rgb(227,46,0);stroke-width:4.5px;stroke-linecap:square;stroke-linejoin:round;stroke-miterlimit:4;"/>
    <path d="M131.7,101.67L109,209.83" style="fill:none;fill-rule:nonzero;stroke:rgb(227,46,0);stroke-width:4.5px;stroke-linecap:square;stroke-linejoin:round;stroke-miterlimit:4;"/>
    <path d="M131.7,101.67L208.47,196.52" style="fill:none;fill-rule:nonzero;stroke:rgb(227,46,0);stroke-width:4.5px;stroke-linecap:square;stroke-linejoin:round;stroke-miterlimit:4;"/>
    <path d="M131.7,101.67L109,209.83" style="fill:none;fill-rule:nonzero;stroke:rgb(227,46,0);stroke-width:4.5px;stroke-linecap:square;stroke-linejoin:round;stroke-miterlimit:4;"/>
    <path d="M131.7,101.67L220.18,98.86" style="fill:none;fill-rule:nonzero;stroke:rgb(227,46,0);stroke-width:4.5px;stroke-linecap:square;stroke-linejoin:round;stroke-miterlimit:4;"/>
    <path d="M131.7,101.67L109,209.83" style="fill:none;fill-rule:nonzero;stroke:rgb(227,46,0);stroke-width:4.5px;stroke-linecap:square;stroke-linejoin:round;stroke-miterlimit:4;"/>
    <path d="M357.53,165.83L314.7,172.62" style="fill:none;fill-rule:nonzero;stroke:rgb(227,46,0);stroke-width:4.5px;stroke-linecap:square;stroke-linejoin:round;stroke-miterlimit:4;"/>
    <path d="M357.53,165.83L314.7,172.62" style="fill:none;fill-rule:nonzero;stroke:rgb(227,46,0);stroke-width:4.5px;stroke-linecap:square;stroke-linejoin:round;stroke-miterlimit:4;"/>
    <path d="M357.53,165.83L383.77,236.13" style="fill:none;fill-rule:nonzero;stroke:rgb(227,46,0);stroke-width:4.5px;stroke-linecap:square;stroke-linejoin:round;stroke-miterlimit:4;"/>
    <path d="M314.69,172.62L357.52,165.83" style="fill:none;fill-rule:nonzero;stroke:rgb(227,46,0);stroke-width:4.5px;stroke-linecap:square;stroke-linejoin:round;stroke-miterlimit:4;"/>
    <path d="M314.69,172.62L357.52,165.83" style="fill:none;fill-rule:nonzero;stroke:rgb(227,46,0);stroke-width:4.5px;stroke-linecap:square;stroke-linejoin:round;stroke-miterlimit:4;"/>
    <path d="M314.69,172.62L243.19,189.57" style="fill:none;fill-rule:nonzero;stroke:rgb(227,46,0);stroke-width:4.5px;stroke-linecap:square;stroke-linejoin:round;stroke-miterlimit:4;"/>
    <path d="M314.69,172.62L293.55,249" style="fill:none;fill-rule:nonzero;stroke:rgb(227,46,0);stroke-width:4.5px;stroke-linecap:square;stroke-linejoin:round;stroke-miterlimit:4;"/>
    <path d="M314.69,172.62L243.19,189.57" style="fill:none;fill-rule:nonzero;stroke:rgb(227,46,0);stroke-width:4.5px;stroke-linecap:square;stroke-linejoin:round;stroke-miterlimit:4;"/>
    <path d="M314.69,172.62L288.25,87.82" style="fill:none;fill-rule:nonzero;stroke:rgb(227,46,0);stroke-width:4.5px;stroke-linecap:square;stroke-linejoin:round;stroke-miterlimit:4;"/>
    <path d="M314.69,172.62L383.76,236.13" style="fill:none;fill-rule:nonzero;stroke:rgb(227,46,0);stroke-width:4.5px;stroke-linecap:square;stroke-linejoin:round;stroke-miterlimit:4;"/>
    <path d="M357.53,165.83L314.7,172.62" style="fill:none;fill-rule:nonzero;stroke:rgb(227,46,0);stroke-width:4.5px;stroke-linecap:square;stroke-linejoin:round;stroke-miterlimit:4;"/>
    <path d="M357.53,165.83L314.7,172.62" style="fill:none;fill-rule:nonzero;stroke:rgb(227,46,0);stroke-width:4.5px;stroke-linecap:square;stroke-linejoin:round;stroke-miterlimit:4;"/>
    <path d="M357.53,165.83L383.77,236.13" style="fill:none;fill-rule:nonzero;stroke:rgb(227,46,0);stroke-width:4.5px;stroke-linecap:square;stroke-linejoin:round;stroke-miterlimit:4;"/>
    <path d="M314.69,172.62L357.52,165.83" style="fill:none;fill-rule:nonzero;stroke:rgb(227,46,0);stroke-width:4.5px;stroke-linecap:square;stroke-linejoin:round;stroke-miterlimit:4;"/>
    <path d="M314.69,172.62L357.52,165.83" style="fill:none;fill-rule:nonzero;stroke:rgb(227,46,0);stroke-width:4.5px;stroke-linecap:square;stroke-linejoin:round;stroke-miterlimit:4;"/>
    <path d="M314.69,172.62L243.19,189.57" style="fill:none;fill-rule:nonzero;stroke:rgb(227,46,0);stroke-width:4.5px;stroke-linecap:square;stroke-linejoin:round;stroke-miterlimit:4;"/>
    <path d="M314.69,172.62L293.55,249" style="fill:none;fill-rule:nonzero;stroke:rgb(227,46,0);stroke-width:4.5px;stroke-linecap:square;stroke-linejoin:round;stroke-miterlimit:4;"/>
    <path d="M314.69,172.62L243.19,189.57" style="fill:none;fill-rule:nonzero;stroke:rgb(227,46,0);stroke-width:4.5px;stroke-linecap:square;stroke-linejoin:round;stroke-miterlimit:4;"/>
    <path d="M314.69,172.62L288.25,87.82" style="fill:none;fill-rule:nonzero;stroke:rgb(227,46,0);stroke-width:4.5px;stroke-linecap:square;stroke-linejoin:round;stroke-miterlimit:4;"/>
    <path d="M314.69,172.62L383.76,236.13" style="fill:none;fill-rule:nonzero;stroke:rgb(227,46,0);stroke-width:4.5px;stroke-linecap:square;stroke-linejoin:round;stroke-miterlimit:4;"/>
    <path d="M243.2,189.56L208.47,196.56" style="fill:none;fill-rule:nonzero;stroke:rgb(227,46,0);stroke-width:4.5px;stroke-linecap:square;stroke-linejoin:round;stroke-miterlimit:4;"/>
    <path d="M243.2,189.56L237.05,269.34" style="fill:none;fill-rule:nonzero;stroke:rgb(227,46,0);stroke-width:4.5px;stroke-linecap:square;stroke-linejoin:round;stroke-miterlimit:4;"/>
    <path d="M243.2,189.56L314.7,172.61" style="fill:none;fill-rule:nonzero;stroke:rgb(227,46,0);stroke-width:4.5px;stroke-linecap:square;stroke-linejoin:round;stroke-miterlimit:4;"/>
    <path d="M243.2,189.56L314.7,172.61" style="fill:none;fill-rule:nonzero;stroke:rgb(227,46,0);stroke-width:4.5px;stroke-linecap:square;stroke-linejoin:round;stroke-miterlimit:4;"/>
    <path d="M243.2,189.56L293.56,249" style="fill:none;fill-rule:nonzero;stroke:rgb(227,46,0);stroke-width:4.5px;stroke-linecap:square;stroke-linejoin:round;stroke-miterlimit:4;"/>
    <path d="M243.2,189.56L208.47,196.56" style="fill:none;fill-rule:nonzero;stroke:rgb(227,46,0);stroke-width:4.5px;stroke-linecap:square;stroke-linejoin:round;stroke-miterlimit:4;"/>
    <path d="M243.2,189.56L288.25,87.81" style="fill:none;fill-rule:nonzero;stroke:rgb(227,46,0);stroke-width:4.5px;stroke-linecap:square;stroke-linejoin:round;stroke-miterlimit:4;"/>
    <path d="M243.2,189.56L220.2,98.85" style="fill:none;fill-rule:nonzero;stroke:rgb(227,46,0);stroke-width:4.5px;stroke-linecap:square;stroke-linejoin:round;stroke-miterlimit:4;"/>
    <path d="M208.47,196.52L144.05,242.83" style="fill:none;fill-rule:nonzero;stroke:rgb(227,46,0);stroke-width:4.5px;stroke-linecap:square;stroke-linejoin:round;stroke-miterlimit:4;"/>
    <path d="M208.47,196.52L131.7,101.67" style="fill:none;fill-rule:nonzero;stroke:rgb(227,46,0);stroke-width:4.5px;stroke-linecap:square;stroke-linejoin:round;stroke-miterlimit:4;"/>
    <path d="M208.47,196.52L237.05,269.34" style="fill:none;fill-rule:nonzero;stroke:rgb(227,46,0);stroke-width:4.5px;stroke-linecap:square;stroke-linejoin:round;stroke-miterlimit:4;"/>
    <path d="M208.47,196.52L243.2,189.52" style="fill:none;fill-rule:nonzero;stroke:rgb(227,46,0);stroke-width:4.5px;stroke-linecap:square;stroke-linejoin:round;stroke-miterlimit:4;"/>
    <path d="M208.47,196.52L109,209.83" style="fill:none;fill-rule:nonzero;stroke:rgb(227,46,0);stroke-width:4.5px;stroke-linecap:square;stroke-linejoin:round;stroke-miterlimit:4;"/>
    <path d="M208.47,196.52L243.2,189.52" style="fill:none;fill-rule:nonzero;stroke:rgb(227,46,0);stroke-width:4.5px;stroke-linecap:square;stroke-linejoin:round;stroke-miterlimit:4;"/>
    <path d="M208.47,196.52L109,209.83" style="fill:none;fill-rule:nonzero;stroke:rgb(227,46,0);stroke-width:4.5px;stroke-linecap:square;stroke-linejoin:round;stroke-miterlimit:4;"/>
    <path d="M208.47,196.52L220.19,98.86" style="fill:none;fill-rule:nonzero;stroke:rgb(227,46,0);stroke-width:4.5px;stroke-linecap:square;stroke-linejoin:round;stroke-miterlimit:4;"/>
    <path d="M208.47,196.52L109,209.83" style="fill:none;fill-rule:nonzero;stroke:rgb(227,46,0);stroke-width:4.5px;stroke-linecap:square;stroke-linejoin:round;stroke-miterlimit:4;"/>
    <path d="M243.2,189.56L208.47,196.56" style="fill:none;fill-rule:nonzero;stroke:rgb(227,46,0);stroke-width:4.5px;stroke-linecap:square;stroke-linejoin:round;stroke-miterlimit:4;"/>
    <path d="M243.2,189.56L314.7,172.61" style="fill:none;fill-rule:nonzero;stroke:rgb(227,46,0);stroke-width:4.5px;stroke-linecap:square;stroke-linejoin:round;stroke-miterlimit:4;"/>
    <path d="M243.2,189.56L314.7,172.61" style="fill:none;fill-rule:nonzero;stroke:rgb(227,46,0);stroke-width:4.5px;stroke-linecap:square;stroke-linejoin:round;stroke-miterlimit:4;"/>
    <path d="M243.2,189.56L293.56,249" style="fill:none;fill-rule:nonzero;stroke:rgb(227,46,0);stroke-width:4.5px;stroke-linecap:square;stroke-linejoin:round;stroke-miterlimit:4;"/>
    <path d="M243.2,189.56L237.05,269.34" style="fill:none;fill-rule:nonzero;stroke:rgb(227,46,0);stroke-width:4.5px;stroke-linecap:square;stroke-linejoin:round;stroke-miterlimit:4;"/>
    <path d="M243.2,189.56L208.47,196.56" style="fill:none;fill-rule:nonzero;stroke:rgb(227,46,0);stroke-width:4.5px;stroke-linecap:square;stroke-linejoin:round;stroke-miterlimit:4;"/>
    <path d="M243.2,189.56L220.2,98.85" style="fill:none;fill-rule:nonzero;stroke:rgb(227,46,0);stroke-width:4.5px;stroke-linecap:square;stroke-linejoin:round;stroke-miterlimit:4;"/>
    <path d="M208.47,196.52L144.05,242.83" style="fill:none;fill-rule:nonzero;stroke:rgb(227,46,0);stroke-width:4.5px;stroke-linecap:square;stroke-linejoin:round;stroke-miterlimit:4;"/>
    <path d="M208.47,196.52L237.05,269.34" style="fill:none;fill-rule:nonzero;stroke:rgb(227,46,0);stroke-width:4.5px;stroke-linecap:square;stroke-linejoin:round;stroke-miterlimit:4;"/>
    <path d="M208.47,196.52L243.2,189.52" style="fill:none;fill-rule:nonzero;stroke:rgb(227,46,0);stroke-width:4.5px;stroke-linecap:square;stroke-linejoin:round;stroke-miterlimit:4;"/>
    <path d="M208.47,196.52L109,209.83" style="fill:none;fill-rule:nonzero;stroke:rgb(227,46,0);stroke-width:4.5px;stroke-linecap:square;stroke-linejoin:round;stroke-miterlimit:4;"/>
    <path d="M208.47,196.52L243.2,189.52" style="fill:none;fill-rule:nonzero;stroke:rgb(227,46,0);stroke-width:4.5px;stroke-linecap:square;stroke-linejoin:round;stroke-miterlimit:4;"/>
    <path d="M208.47,196.52L109,209.83" style="fill:none;fill-rule:nonzero;stroke:rgb(227,46,0);stroke-width:4.5px;stroke-linecap:square;stroke-linejoin:round;stroke-miterlimit:4;"/>
    <path d="M208.47,196.52L220.19,98.86L288.26,87.86L243.26,189.61" style="fill:none;fill-rule:nonzero;stroke:rgb(227,46,0);stroke-width:4.5px;stroke-linecap:square;stroke-linejoin:round;stroke-miterlimit:4;"/>
    <path d="M208.47,196.52L109,209.83" style="fill:none;fill-rule:nonzero;stroke:rgb(227,46,0);stroke-width:4.5px;stroke-linecap:square;stroke-linejoin:round;stroke-miterlimit:4;"/>
    <path d="M109,209.83L144,242.83" style="fill:none;fill-rule:nonzero;stroke:rgb(227,46,0);stroke-width:4.5px;stroke-linecap:square;stroke-linejoin:round;stroke-miterlimit:4;"/>
    <path d="M109,209.83L131.7,101.67" style="fill:none;fill-rule:nonzero;stroke:rgb(227,46,0);stroke-width:4.5px;stroke-linecap:square;stroke-linejoin:round;stroke-miterlimit:4;"/>
    <path d="M109,209.83L208.46,196.52" style="fill:none;fill-rule:nonzero;stroke:rgb(227,46,0);stroke-width:4.5px;stroke-linecap:square;stroke-linejoin:round;stroke-miterlimit:4;"/>
    <path d="M109,209.83L208.46,196.52" style="fill:none;fill-rule:nonzero;stroke:rgb(227,46,0);stroke-width:4.5px;stroke-linecap:square;stroke-linejoin:round;stroke-miterlimit:4;"/>
    <path d="M383.77,236.12L357.53,165.82" style="fill:none;fill-rule:nonzero;stroke:rgb(227,46,0);stroke-width:4.5px;stroke-linecap:square;stroke-linejoin:round;stroke-miterlimit:4;"/>
    <path d="M383.77,236.12L314.7,172.61" style="fill:none;fill-rule:nonzero;stroke:rgb(227,46,0);stroke-width:4.5px;stroke-linecap:square;stroke-linejoin:round;stroke-miterlimit:4;"/>
    <path d="M383.77,236.12L357.53,165.82" style="fill:none;fill-rule:nonzero;stroke:rgb(227,46,0);stroke-width:4.5px;stroke-linecap:square;stroke-linejoin:round;stroke-miterlimit:4;"/>
    <path d="M383.77,236.12L314.7,172.61" style="fill:none;fill-rule:nonzero;stroke:rgb(227,46,0);stroke-width:4.5px;stroke-linecap:square;stroke-linejoin:round;stroke-miterlimit:4;"/>
    <path d="M383.77,236.12L293.56,249" style="fill:none;fill-rule:nonzero;stroke:rgb(227,46,0);stroke-width:4.5px;stroke-linecap:square;stroke-linejoin:round;stroke-miterlimit:4;"/>
    <path d="M188.77,362.5L167.64,298.65" style="fill:none;fill-rule:nonzero;stroke:rgb(227,46,0);stroke-width:4.5px;stroke-linecap:square;stroke-linejoin:round;stroke-miterlimit:4;"/>
    <path d="M188.77,362.5L237.05,269.34" style="fill:none;fill-rule:nonzero;stroke:rgb(227,46,0);stroke-width:4.5px;stroke-linecap:square;stroke-linejoin:round;stroke-miterlimit:4;"/>
    <path d="M293.56,249L243.2,189.57" style="fill:none;fill-rule:nonzero;stroke:rgb(227,46,0);stroke-width:4.5px;stroke-linecap:square;stroke-linejoin:round;stroke-miterlimit:4;"/>
    <path d="M293.56,249L314.7,172.6" style="fill:none;fill-rule:nonzero;stroke:rgb(227,46,0);stroke-width:4.5px;stroke-linecap:square;stroke-linejoin:round;stroke-miterlimit:4;"/>
    <path d="M293.56,249L314.7,172.6" style="fill:none;fill-rule:nonzero;stroke:rgb(227,46,0);stroke-width:4.5px;stroke-linecap:square;stroke-linejoin:round;stroke-miterlimit:4;"/>
    <path d="M293.56,249L243.2,189.57" style="fill:none;fill-rule:nonzero;stroke:rgb(227,46,0);stroke-width:4.5px;stroke-linecap:square;stroke-linejoin:round;stroke-miterlimit:4;"/>
    <path d="M293.56,249L237.05,269.32" style="fill:none;fill-rule:nonzero;stroke:rgb(227,46,0);stroke-width:4.5px;stroke-linecap:square;stroke-linejoin:round;stroke-miterlimit:4;"/>
    <path d="M293.56,249L383.77,236.11" style="fill:none;fill-rule:nonzero;stroke:rgb(227,46,0);stroke-width:4.5px;stroke-linecap:square;stroke-linejoin:round;stroke-miterlimit:4;"/>
    <path d="M237.05,269.34L144.05,242.83" style="fill:none;fill-rule:nonzero;stroke:rgb(227,46,0);stroke-width:4.5px;stroke-linecap:square;stroke-linejoin:round;stroke-miterlimit:4;"/>
    <path d="M237.05,269.34L167.64,298.65" style="fill:none;fill-rule:nonzero;stroke:rgb(227,46,0);stroke-width:4.5px;stroke-linecap:square;stroke-linejoin:round;stroke-miterlimit:4;"/>
    <path d="M237.05,269.34L293.56,249" style="fill:none;fill-rule:nonzero;stroke:rgb(227,46,0);stroke-width:4.5px;stroke-linecap:square;stroke-linejoin:round;stroke-miterlimit:4;"/>
    <path d="M237.05,269.34L188.77,362.5" style="fill:none;fill-rule:nonzero;stroke:rgb(227,46,0);stroke-width:4.5px;stroke-linecap:square;stroke-linejoin:round;stroke-miterlimit:4;"/>
    <path d="M237.05,269.34L243.2,189.56" style="fill:none;fill-rule:nonzero;stroke:rgb(227,46,0);stroke-width:4.5px;stroke-linecap:square;stroke-linejoin:round;stroke-miterlimit:4;"/>
    <path d="M237.05,269.34L208.47,196.52" style="fill:none;fill-rule:nonzero;stroke:rgb(227,46,0);stroke-width:4.5px;stroke-linecap:square;stroke-linejoin:round;stroke-miterlimit:4;"/>
    <path d="M237.05,269.34L243.2,189.56" style="fill:none;fill-rule:nonzero;stroke:rgb(227,46,0);stroke-width:4.5px;stroke-linecap:square;stroke-linejoin:round;stroke-miterlimit:4;"/>
    <path d="M237.05,269.34L208.47,196.52" style="fill:none;fill-rule:nonzero;stroke:rgb(227,46,0);stroke-width:4.5px;stroke-linecap:square;stroke-linejoin:round;stroke-miterlimit:4;"/>
    <path d="M109,209.83L144,242.83" style="fill:none;fill-rule:nonzero;stroke:rgb(227,46,0);stroke-width:4.5px;stroke-linecap:square;stroke-linejoin:round;stroke-miterlimit:4;"/>
    <path d="M109,209.83L131.7,101.67" style="fill:none;fill-rule:nonzero;stroke:rgb(227,46,0);stroke-width:4.5px;stroke-linecap:square;stroke-linejoin:round;stroke-miterlimit:4;"/>
    <path d="M109,209.83L208.46,196.52" style="fill:none;fill-rule:nonzero;stroke:rgb(227,46,0);stroke-width:4.5px;stroke-linecap:square;stroke-linejoin:round;stroke-miterlimit:4;"/>
    <path d="M109,209.83L208.46,196.52" style="fill:none;fill-rule:nonzero;stroke:rgb(227,46,0);stroke-width:4.5px;stroke-linecap:square;stroke-linejoin:round;stroke-miterlimit:4;"/>
    <path d="M144.05,242.83L208.47,196.52" style="fill:none;fill-rule:nonzero;stroke:rgb(227,46,0);stroke-width:4.5px;stroke-linecap:square;stroke-linejoin:round;stroke-miterlimit:4;"/>
    <path d="M144.05,242.83L167.64,298.65" style="fill:none;fill-rule:nonzero;stroke:rgb(227,46,0);stroke-width:4.5px;stroke-linecap:square;stroke-linejoin:round;stroke-miterlimit:4;"/>
    <path d="M144.05,242.83L109.05,209.83" style="fill:none;fill-rule:nonzero;stroke:rgb(227,46,0);stroke-width:4.5px;stroke-linecap:square;stroke-linejoin:round;stroke-miterlimit:4;"/>
    <path d="M144.05,242.83L237.05,269.34" style="fill:none;fill-rule:nonzero;stroke:rgb(227,46,0);stroke-width:4.5px;stroke-linecap:square;stroke-linejoin:round;stroke-miterlimit:4;"/>
    <path d="M144.05,242.83L208.47,196.52" style="fill:none;fill-rule:nonzero;stroke:rgb(227,46,0);stroke-width:4.5px;stroke-linecap:square;stroke-linejoin:round;stroke-miterlimit:4;"/>
    <path d="M144.05,242.83L109.05,209.83" style="fill:none;fill-rule:nonzero;stroke:rgb(227,46,0);stroke-width:4.5px;stroke-linecap:square;stroke-linejoin:round;stroke-miterlimit:4;"/>
    <path d="M144.05,242.83L109.05,209.83" style="fill:none;fill-rule:nonzero;stroke:rgb(227,46,0);stroke-width:4.5px;stroke-linecap:square;stroke-linejoin:round;stroke-miterlimit:4;"/>
    <path d="M167.64,298.65L144.05,242.83" style="fill:none;fill-rule:nonzero;stroke:rgb(227,46,0);stroke-width:4.5px;stroke-linecap:square;stroke-linejoin:round;stroke-miterlimit:4;"/>
    <path d="M167.64,298.65L237.05,269.34" style="fill:none;fill-rule:nonzero;stroke:rgb(227,46,0);stroke-width:4.5px;stroke-linecap:square;stroke-linejoin:round;stroke-miterlimit:4;"/>
    <path d="M167.64,298.65L188.77,362.5" style="fill:none;fill-rule:nonzero;stroke:rgb(227,46,0);stroke-width:4.5px;stroke-linecap:square;stroke-linejoin:round;stroke-miterlimit:4;"/>
    <path d="M109,209.83L144,242.83" style="fill:none;fill-rule:nonzero;stroke:rgb(227,46,0);stroke-width:4.5px;stroke-linecap:square;stroke-linejoin:round;stroke-miterlimit:4;"/>
    <path d="M109,209.83L131.7,101.67" style="fill:none;fill-rule:nonzero;stroke:rgb(227,46,0);stroke-width:4.5px;stroke-linecap:square;stroke-linejoin:round;stroke-miterlimit:4;"/>
    <path d="M109,209.83L208.46,196.52" style="fill:none;fill-rule:nonzero;stroke:rgb(227,46,0);stroke-width:4.5px;stroke-linecap:square;stroke-linejoin:round;stroke-miterlimit:4;"/>
    <path d="M109,209.83L208.46,196.52" style="fill:none;fill-rule:nonzero;stroke:rgb(227,46,0);stroke-width:4.5px;stroke-linecap:square;stroke-linejoin:round;stroke-miterlimit:4;"/>
    <g id="Layer_1-2">
        <g>
            <path d="M317.8,337.51L317.8,364C317.8,368.667 316.39,372.333 313.57,375C310.74,377.67 306.87,379 301.93,379C296.99,379 293.18,377.65 290.48,375C287.78,372.35 286.43,368.61 286.43,363.9L286.43,337.5L291.2,337.5L291.2,364.24C291.2,367.66 292.13,370.24 294,372.12C295.87,374 298.62,374.86 302.24,374.86C305.7,374.86 308.367,373.94 310.24,372.1C312.113,370.26 313.047,367.62 313.04,364.18L313.04,337.51L317.8,337.51Z" style="fill:white;fill-rule:nonzero;"/>
            <path d="M342,347.21C343.231,347.197 344.461,347.308 345.67,347.54L345.03,351.86C343.928,351.6 342.802,351.46 341.67,351.44C339.201,351.425 336.853,352.529 335.29,354.44C333.474,356.531 332.513,359.232 332.6,362L332.6,378.48L328,378.48L328,347.77L331.84,347.77L332.37,353.46L332.59,353.46C333.59,351.621 335,350.037 336.71,348.83C338.269,347.767 340.114,347.202 342,347.21Z" style="fill:white;fill-rule:nonzero;"/>
            <path d="M365.68,347.26C369.68,347.26 372.813,348.64 375.08,351.4C377.347,354.16 378.463,358.06 378.43,363.1C378.43,368.147 377.303,372.067 375.05,374.86C372.771,377.664 369.289,379.221 365.68,379.05C363.795,379.074 361.927,378.696 360.2,377.94C358.533,377.196 357.094,376.023 356.03,374.54L355.7,374.54L354.7,378.49L351.36,378.49L351.36,334.87L356,334.87L356,345.47C356,347.837 355.927,349.967 355.78,351.86L356,351.86C358.193,348.793 361.42,347.26 365.68,347.26ZM365,351.16C361.833,351.16 359.543,352.07 358.13,353.89C356.717,355.71 356.007,358.78 356,363.1C356,367.42 356.72,370.5 358.16,372.36C359.6,374.22 361.91,375.15 365.09,375.15C367.618,375.308 370.05,374.12 371.48,372.03C372.88,369.94 373.58,366.95 373.58,363.03C373.58,359.11 372.88,356.03 371.48,354.09C370.08,352.15 367.94,351.16 365,351.16Z" style="fill:white;fill-rule:nonzero;"/>
            <path d="M405.45,378.49L404.53,374.12L404.3,374.12C403.099,375.762 401.53,377.101 399.72,378.03C397.907,378.758 395.962,379.099 394.01,379.03C391.411,379.179 388.851,378.335 386.85,376.67C385.05,374.928 384.102,372.48 384.26,369.98C384.26,363.773 389.22,360.52 399.14,360.22L404.36,360.05L404.36,358.15C404.36,355.73 403.84,353.96 402.8,352.81C401.76,351.66 400.11,351.08 397.8,351.08C394.763,351.206 391.793,352.012 389.11,353.44L387.68,349.88C390.879,348.163 394.45,347.257 398.08,347.24C401.74,347.24 404.45,348.06 406.22,349.68C407.99,351.3 408.87,353.91 408.87,357.5L408.87,378.5L405.45,378.49ZM394.94,375.21C397.441,375.354 399.9,374.497 401.77,372.83C403.494,371.053 404.394,368.631 404.25,366.16L404.25,363.38L399.59,363.58C395.89,363.707 393.223,364.28 391.59,365.3C389.961,366.307 389.016,368.138 389.14,370.05C389.043,371.495 389.606,372.908 390.67,373.89C391.884,374.836 393.404,375.306 394.94,375.21Z" style="fill:white;fill-rule:nonzero;"/>
            <path d="M439.51,378.49L439.51,358.61C439.51,356.11 438.94,354.243 437.8,353.01C436.66,351.77 434.88,351.16 432.45,351.16C429.23,351.16 426.88,352.03 425.38,353.76C423.88,355.49 423.14,358.37 423.14,362.37L423.14,378.49L418.49,378.49L418.49,347.77L422.27,347.77L423,352L423.22,352C424.193,350.472 425.58,349.251 427.22,348.48C429.017,347.633 430.984,347.209 432.97,347.24C436.67,347.24 439.453,348.13 441.32,349.91C443.19,351.7 444.12,354.55 444.12,358.48L444.12,378.48L439.51,378.49Z" style="fill:white;fill-rule:nonzero;"/>
            <path d="M487.47,378.49L473.57,342.16L473.34,342.16C473.6,345.04 473.74,348.46 473.74,352.42L473.74,378.49L469.33,378.49L469.33,337.49L476.51,337.49L489.51,371.29L489.73,371.29L502.82,337.49L509.94,337.49L509.94,378.49L505.18,378.49L505.18,352.08C505.18,349.06 505.31,345.773 505.57,342.22L505.35,342.22L491.35,378.49L487.47,378.49Z" style="fill:white;fill-rule:nonzero;"/>
            <path d="M547,363.1C547,368.107 545.74,372.017 543.22,374.83C540.7,377.643 537.213,379.05 532.76,379.05C530.188,379.099 527.653,378.43 525.44,377.12C523.284,375.799 521.568,373.867 520.51,371.57C519.299,368.914 518.704,366.018 518.77,363.1C518.77,358.087 520.023,354.187 522.53,351.4C525.037,348.613 528.513,347.217 532.96,347.21C536.841,347.037 540.601,348.613 543.2,351.5C545.733,354.353 547,358.22 547,363.1ZM523.59,363.1C523.59,367.02 524.377,370.02 525.95,372.1C527.722,374.056 530.241,375.173 532.88,375.173C535.519,375.173 538.038,374.056 539.81,372.1C541.39,370.1 542.18,367.1 542.18,363.1C542.18,359.1 541.39,356.23 539.81,354.2C538.23,352.17 535.9,351.2 532.81,351.2C529.72,351.2 527.46,352.2 525.91,354.2C524.36,356.2 523.57,359.14 523.57,363.1L523.59,363.1Z" style="fill:white;fill-rule:nonzero;"/>
            <path d="M569.15,347.21C570.381,347.197 571.611,347.308 572.82,347.54L572.18,351.86C571.078,351.6 569.952,351.46 568.82,351.44C566.351,351.425 564.003,352.529 562.44,354.44C560.643,356.532 559.697,359.224 559.79,361.98L559.79,378.46L555.14,378.46L555.14,347.77L559,347.77L559.53,353.46L559.75,353.46C560.75,351.621 562.16,350.037 563.87,348.83C565.426,347.769 567.267,347.204 569.15,347.21Z" style="fill:white;fill-rule:nonzero;"/>
            <path d="M592.87,379.05C590.985,379.074 589.117,378.696 587.39,377.94C585.723,377.196 584.284,376.023 583.22,374.54L582.89,374.54C583.104,376.232 583.214,377.935 583.22,379.64L583.22,392.28L578.57,392.28L578.57,347.77L582.35,347.77L583,352L583.22,352C584.275,350.446 585.715,349.191 587.4,348.36C589.117,347.585 590.986,347.202 592.87,347.24C596.943,347.24 600.087,348.63 602.3,351.41C604.513,354.19 605.62,358.097 605.62,363.13C605.62,368.177 604.493,372.097 602.24,374.89C599.955,377.683 596.474,379.228 592.87,379.05ZM592.19,351.16C589.05,351.16 586.78,352.027 585.38,353.76C583.98,355.493 583.26,358.26 583.22,362.06L583.22,363.06C583.22,367.38 583.94,370.46 585.38,372.32C586.82,374.18 589.13,375.11 592.31,375.11C594.802,375.193 597.166,373.971 598.54,371.89C600.047,369.737 600.8,366.773 600.8,363C600.8,359.227 600.047,356.29 598.54,354.19C597.07,352.177 594.679,351.037 592.19,351.16Z" style="fill:white;fill-rule:nonzero;"/>
            <path d="M634.77,378.49L634.77,358.61C634.77,356.11 634.2,354.243 633.06,353.01C631.92,351.77 630.14,351.16 627.71,351.16C624.47,351.16 622.12,352.04 620.63,353.79C619.14,355.54 618.4,358.43 618.4,362.43L618.4,378.49L613.75,378.49L613.75,334.87L618.4,334.87L618.4,348.08C618.417,349.4 618.344,350.72 618.18,352.03L618.46,352.03C619.407,350.521 620.763,349.31 622.37,348.54C624.172,347.663 626.156,347.224 628.16,347.26C631.91,347.26 634.73,348.16 636.61,349.94C638.49,351.72 639.43,354.56 639.43,358.45L639.43,378.45L634.77,378.49Z" style="fill:white;fill-rule:nonzero;"/>
            <path d="M675.5,363.1C675.5,368.107 674.24,372.017 671.72,374.83C669.2,377.643 665.713,379.05 661.26,379.05C658.691,379.099 656.159,378.431 653.95,377.12C651.791,375.799 650.072,373.867 649.01,371.57C647.799,368.914 647.204,366.018 647.27,363.1C647.27,358.087 648.523,354.187 651.03,351.4C653.537,348.613 657.013,347.217 661.46,347.21C665.341,347.037 669.101,348.613 671.7,351.5C674.24,354.353 675.507,358.22 675.5,363.1ZM652.1,363.1C652.1,367.02 652.883,370.02 654.45,372.1C656.222,374.056 658.741,375.173 661.38,375.173C664.019,375.173 666.538,374.056 668.31,372.1C669.89,370.1 670.68,367.1 670.68,363.1C670.68,359.1 669.89,356.23 668.31,354.2C666.73,352.17 664.4,351.2 661.31,351.2C658.22,351.2 655.96,352.2 654.41,354.2C652.86,356.2 652.1,359.14 652.1,363.1Z" style="fill:white;fill-rule:nonzero;"/>
            <rect x="683.66" y="334.87" width="4.65" height="43.62" style="fill:white;fill-rule:nonzero;"/>
            <path d="M724.69,363.1C724.69,368.107 723.43,372.017 720.91,374.83C718.39,377.643 714.907,379.05 710.46,379.05C707.888,379.099 705.353,378.43 703.14,377.12C700.981,375.802 699.264,373.869 698.21,371.57C696.999,368.914 696.404,366.018 696.47,363.1C696.47,358.087 697.72,354.187 700.22,351.4C702.72,348.613 706.197,347.217 710.65,347.21C714.534,347.034 718.299,348.61 720.9,351.5C723.433,354.353 724.697,358.22 724.69,363.1ZM701.29,363.1C701.29,367.02 702.073,370.02 703.64,372.1C705.413,374.056 707.934,375.174 710.575,375.174C713.216,375.174 715.737,374.056 717.51,372.1C719.08,370.1 719.87,367.1 719.87,363.1C719.87,359.1 719.08,356.23 717.51,354.2C715.94,352.17 713.59,351.2 710.51,351.2C707.43,351.2 705.17,352.2 703.62,354.2C702.07,356.2 701.29,359.14 701.29,363.1Z" style="fill:white;fill-rule:nonzero;"/>
            <path d="M758,347.77L758,350.71L752.31,351.38C752.901,352.163 753.373,353.029 753.71,353.95C754.134,355.091 754.341,356.302 754.32,357.52C754.437,360.264 753.303,362.918 751.24,364.73C749.18,366.517 746.36,367.413 742.78,367.42C741.915,367.423 741.051,367.346 740.2,367.19C738.2,368.237 737.2,369.57 737.2,371.19C737.152,371.949 737.541,372.671 738.2,373.05C739.321,373.533 740.542,373.738 741.76,373.65L747.2,373.65C750.53,373.65 753.08,374.35 754.87,375.75C756.69,377.241 757.685,379.521 757.54,381.87C757.679,385.004 756.113,387.981 753.45,389.64C750.717,391.427 746.737,392.32 741.51,392.32C737.51,392.32 734.413,391.573 732.22,390.08C730.103,388.668 728.878,386.242 729,383.7C728.97,381.915 729.613,380.183 730.8,378.85C732.124,377.412 733.879,376.44 735.8,376.08C734.996,375.717 734.305,375.143 733.8,374.42C733.258,373.663 732.978,372.75 733,371.82C732.979,370.768 733.29,369.735 733.89,368.87C734.666,367.88 735.627,367.051 736.72,366.43C735.109,365.756 733.751,364.59 732.84,363.1C731.828,361.491 731.307,359.621 731.34,357.72C731.34,354.347 732.34,351.753 734.34,349.94C736.34,348.127 739.2,347.217 742.92,347.21C744.386,347.189 745.847,347.377 747.26,347.77L758,347.77ZM733.5,383.65C733.441,385.201 734.252,386.661 735.6,387.43C737.448,388.391 739.521,388.836 741.6,388.72C745.5,388.72 748.39,388.137 750.27,386.97C752.014,386.032 753.101,384.2 753.09,382.22C753.235,380.873 752.646,379.547 751.55,378.75C750.55,378.11 748.55,377.75 745.74,377.75L740.2,377.75C738.426,377.641 736.67,378.177 735.26,379.26C734.035,380.378 733.387,381.996 733.5,383.65ZM736.02,357.65C735.892,359.459 736.557,361.238 737.84,362.52C739.26,363.699 741.078,364.293 742.92,364.18C747.46,364.18 749.73,361.973 749.73,357.56C749.73,352.953 747.43,350.647 742.83,350.64C740.995,350.529 739.191,351.164 737.83,352.4C736.544,353.819 735.884,355.699 736,357.61L736.02,357.65Z" style="fill:white;fill-rule:nonzero;"/>
            <path d="M759.43,347.77L764.43,347.77L771.15,365.29C772.262,368.111 773.181,371.004 773.9,373.95L774.12,373.95C774.37,373 774.88,371.36 775.65,369.06C776.42,366.76 778.96,359.65 783.26,347.77L788.26,347.77L775.06,382.77C773.727,386.23 772.2,388.683 770.48,390.13C768.663,391.601 766.377,392.371 764.04,392.3C762.626,392.301 761.217,392.14 759.84,391.82L759.84,388.1C760.975,388.331 762.132,388.442 763.29,388.43C766.483,388.43 768.76,386.637 770.12,383.05L771.83,378.68L759.43,347.77Z" style="fill:white;fill-rule:nonzero;"/>
            <path d="M827,378.49L813.1,342.16L812.87,342.16C813.13,345.04 813.27,348.46 813.27,352.42L813.27,378.49L808.86,378.49L808.86,337.49L816,337.49L829,371.29L829.22,371.29L842.31,337.49L849.43,337.49L849.43,378.49L844.67,378.49L844.67,352.08C844.67,349.06 844.8,345.773 845.06,342.22L844.84,342.22L830.84,378.49L827,378.49Z" style="fill:white;fill-rule:nonzero;"/>
            <path d="M873,379.05C868.46,379.05 864.877,377.667 862.25,374.9C859.623,372.133 858.31,368.293 858.31,363.38C858.31,358.433 859.53,354.5 861.97,351.58C864.384,348.673 868.024,347.055 871.8,347.21C875.255,347.046 878.607,348.437 880.93,351C883.183,353.54 884.307,356.873 884.3,361L884.3,364L863.08,364C863.18,367.61 864.08,370.34 865.82,372.21C867.732,374.156 870.396,375.182 873.12,375.02C876.497,375.002 879.836,374.295 882.93,372.94L882.93,377.09C881.428,377.754 879.864,378.267 878.26,378.62C876.526,378.941 874.763,379.085 873,379.05ZM871.74,351.1C869.517,351.003 867.359,351.884 865.84,353.51C864.264,355.386 863.353,357.732 863.25,360.18L879.31,360.18C879.31,357.25 878.65,355 877.31,353.44C875.9,351.835 873.823,350.97 871.69,351.1L871.74,351.1Z" style="fill:white;fill-rule:nonzero;"/>
            <path d="M911.07,378.49L910.15,374.12L909.92,374.12C908.719,375.762 907.15,377.101 905.34,378.03C903.53,378.757 901.589,379.097 899.64,379.03C897.038,379.181 894.474,378.337 892.47,376.67C890.673,374.925 889.726,372.48 889.88,369.98C889.88,363.773 894.843,360.52 904.77,360.22L909.98,360.05L909.98,358.15C909.98,355.73 909.46,353.96 908.42,352.81C907.38,351.66 905.73,351.08 903.42,351.08C900.383,351.206 897.413,352.012 894.73,353.44L893.3,349.88C896.499,348.163 900.07,347.257 903.7,347.24C907.36,347.24 910.08,348.06 911.84,349.68C913.6,351.3 914.49,353.91 914.49,357.5L914.49,378.5L911.07,378.49ZM900.56,375.21C903.061,375.354 905.52,374.497 907.39,372.83C909.114,371.053 910.014,368.631 909.87,366.16L909.87,363.38L905.21,363.58C901.51,363.71 898.85,364.28 897.21,365.3C895.582,366.309 894.638,368.139 894.76,370.05C894.663,371.495 895.226,372.908 896.29,373.89C897.504,374.836 899.024,375.306 900.56,375.21Z" style="fill:white;fill-rule:nonzero;"/>
            <path d="M943.93,370.11C944.052,372.711 942.846,375.203 940.73,376.72C938.603,378.267 935.603,379.043 931.73,379.05C927.663,379.05 924.487,378.407 922.2,377.12L922.2,372.8C923.712,373.564 925.305,374.154 926.95,374.56C928.546,374.984 930.189,375.203 931.84,375.21C933.779,375.318 935.713,374.918 937.45,374.05C938.668,373.331 939.417,372.019 939.417,370.605C939.417,369.361 938.837,368.186 937.85,367.43C935.979,366.154 933.939,365.145 931.79,364.43C929.669,363.705 927.625,362.771 925.69,361.64C924.594,360.959 923.673,360.031 923,358.93C922.387,357.828 922.083,356.581 922.12,355.32C922.047,352.952 923.201,350.708 925.17,349.39C927.21,347.943 930.003,347.22 933.55,347.22C936.885,347.222 940.186,347.903 943.25,349.22L941.63,353C938.987,351.827 936.141,351.178 933.25,351.09C931.524,350.969 929.797,351.314 928.25,352.09C927.197,352.651 926.543,353.757 926.56,354.95C926.537,355.701 926.762,356.439 927.2,357.05C927.741,357.737 928.423,358.3 929.2,358.7C930.94,359.579 932.738,360.341 934.58,360.98C938.22,362.3 940.68,363.64 941.97,364.98C943.285,366.357 943.992,368.207 943.93,370.11Z" style="fill:white;fill-rule:nonzero;"/>
            <path d="M955.87,347.77L955.87,367.7C955.87,370.2 956.44,372.067 957.58,373.3C958.72,374.54 960.5,375.15 962.93,375.15C966.143,375.15 968.493,374.273 969.98,372.52C971.467,370.767 972.21,367.897 972.21,363.91L972.21,347.77L976.86,347.77L976.86,378.49L973,378.49L972.33,374.37L972.08,374.37C971.11,375.889 969.721,377.094 968.08,377.84C966.266,378.675 964.286,379.088 962.29,379.05C958.55,379.05 955.753,378.163 953.9,376.39C952.047,374.617 951.117,371.773 951.11,367.86L951.11,347.77L955.87,347.77Z" style="fill:white;fill-rule:nonzero;"/>
            <path d="M1000.74,347.21C1001.98,347.198 1003.21,347.308 1004.42,347.54L1003.77,351.86C1002.67,351.6 1001.54,351.46 1000.41,351.44C997.941,351.427 995.594,352.53 994.03,354.44C992.233,356.532 991.287,359.224 991.38,361.98L991.38,378.46L986.73,378.46L986.73,347.77L990.57,347.77L991.1,353.46L991.32,353.46C992.321,351.619 993.734,350.034 995.45,348.83C997.007,347.764 998.853,347.199 1000.74,347.21Z" style="fill:white;fill-rule:nonzero;"/>
            <path d="M1009.77,339.44C1009.7,338.586 1009.98,337.739 1010.55,337.1C1011.09,336.597 1011.81,336.331 1012.55,336.36C1013.27,336.349 1013.96,336.618 1014.48,337.11C1015.56,338.475 1015.56,340.415 1014.48,341.78C1013.39,342.803 1011.67,342.803 1010.58,341.78C1010,341.144 1009.71,340.297 1009.77,339.44ZM1014.82,378.49L1010.16,378.49L1010.16,347.77L1014.82,347.77L1014.82,378.49Z" style="fill:white;fill-rule:nonzero;"/>
            <path d="M1045.71,378.49L1045.71,358.61C1045.71,356.11 1045.13,354.24 1044,353.01C1042.87,351.78 1041.07,351.16 1038.64,351.16C1035.43,351.16 1033.07,352.03 1031.58,353.76C1030.09,355.49 1029.34,358.37 1029.34,362.37L1029.34,378.49L1024.68,378.49L1024.68,347.77L1028.47,347.77L1029.22,351.97L1029.45,351.97C1030.42,350.442 1031.81,349.221 1033.45,348.45C1035.24,347.604 1037.21,347.18 1039.19,347.21C1042.89,347.21 1045.68,348.1 1047.54,349.88C1049.4,351.66 1050.35,354.52 1050.35,358.45L1050.35,378.45L1045.71,378.49Z" style="fill:white;fill-rule:nonzero;"/>
            <path d="M1085.06,347.77L1085.06,350.71L1079.37,351.38C1079.96,352.163 1080.43,353.029 1080.77,353.95C1081.2,355.091 1081.41,356.302 1081.39,357.52C1081.5,360.265 1080.37,362.919 1078.3,364.73C1076.25,366.517 1073.43,367.413 1069.84,367.42C1068.97,367.423 1068.11,367.346 1067.26,367.19C1065.26,368.237 1064.26,369.57 1064.26,371.19C1064.21,371.949 1064.6,372.671 1065.26,373.05C1066.38,373.533 1067.6,373.738 1068.82,373.65L1074.25,373.65C1077.58,373.65 1080.14,374.35 1081.92,375.75C1083.75,377.237 1084.75,379.519 1084.6,381.87C1084.74,385.004 1083.17,387.978 1080.51,389.64C1077.78,391.427 1073.79,392.32 1068.56,392.32C1064.56,392.32 1061.46,391.573 1059.27,390.08C1057.15,388.684 1055.91,386.275 1056.01,383.74C1055.98,381.957 1056.62,380.226 1057.8,378.89C1059.14,377.447 1060.91,376.475 1062.85,376.12C1062.05,375.759 1061.35,375.185 1060.85,374.46C1060.31,373.701 1060.03,372.79 1060.05,371.86C1060.03,370.807 1060.35,369.774 1060.95,368.91C1061.72,367.918 1062.68,367.089 1063.78,366.47C1062.17,365.799 1060.81,364.633 1059.9,363.14C1058.89,361.531 1058.37,359.661 1058.4,357.76C1058.4,354.387 1059.4,351.793 1061.4,349.98C1063.4,348.167 1066.26,347.257 1069.98,347.25C1071.45,347.228 1072.91,347.417 1074.33,347.81L1085.06,347.77ZM1060.56,383.65C1060.5,385.201 1061.31,386.661 1062.66,387.43C1064.51,388.39 1066.58,388.835 1068.66,388.72C1072.57,388.72 1075.46,388.137 1077.34,386.97C1079.08,386.027 1080.16,384.198 1080.15,382.22C1080.3,380.872 1079.71,379.544 1078.61,378.75C1077.58,378.083 1075.64,377.75 1072.81,377.75L1067.23,377.75C1065.46,377.641 1063.71,378.177 1062.3,379.26C1061.08,380.379 1060.44,381.999 1060.56,383.65ZM1063.08,357.65C1062.95,359.462 1063.62,361.242 1064.91,362.52C1066.33,363.7 1068.14,364.294 1069.98,364.18C1074.52,364.18 1076.79,361.973 1076.79,357.56C1076.79,352.953 1074.49,350.647 1069.9,350.64C1068.05,350.519 1066.22,351.155 1064.85,352.4C1063.59,353.829 1062.95,355.707 1063.08,357.61L1063.08,357.65Z" style="fill:white;fill-rule:nonzero;"/>
            <path d="M1119.59,378.49L1114.83,378.49L1114.83,341.74L1101.83,341.74L1101.83,337.51L1132.55,337.51L1132.55,341.74L1119.55,341.74L1119.59,378.49Z" style="fill:white;fill-rule:nonzero;"/>
            <path d="M1164.56,363.1C1164.56,368.107 1163.3,372.017 1160.77,374.83C1158.24,377.643 1154.76,379.05 1150.32,379.05C1147.75,379.099 1145.21,378.43 1143,377.12C1140.84,375.799 1139.13,373.867 1138.07,371.57C1136.86,368.914 1136.26,366.018 1136.33,363.1C1136.33,358.087 1137.58,354.187 1140.09,351.4C1142.6,348.613 1146.07,347.217 1150.51,347.21C1154.39,347.034 1158.16,348.61 1160.76,351.5C1163.29,354.353 1164.55,358.22 1164.56,363.1ZM1141.15,363.1C1141.15,367.02 1141.94,370.02 1143.51,372.1C1145.17,374.201 1147.76,375.354 1150.43,375.18C1153.1,375.348 1155.7,374.201 1157.37,372.11C1158.95,370.11 1159.73,367.11 1159.73,363.11C1159.73,359.11 1158.95,356.24 1157.37,354.21C1155.79,352.18 1153.46,351.21 1150.37,351.21C1147.28,351.21 1145.03,352.21 1143.48,354.21C1141.93,356.21 1141.15,359.14 1141.15,363.1Z" style="fill:white;fill-rule:nonzero;"/>
            <path d="M1199.23,363.1C1199.23,368.107 1197.97,372.017 1195.45,374.83C1192.93,377.643 1189.45,379.05 1185,379.05C1182.43,379.099 1179.89,378.43 1177.68,377.12C1175.52,375.799 1173.81,373.867 1172.75,371.57C1171.54,368.914 1170.94,366.018 1171.01,363.1C1171.01,358.087 1172.26,354.187 1174.77,351.4C1177.28,348.613 1180.75,347.217 1185.2,347.21C1189.08,347.037 1192.84,348.613 1195.44,351.5C1197.96,354.353 1199.22,358.22 1199.23,363.1ZM1175.82,363.1C1175.82,367.02 1176.61,370.02 1178.18,372.1C1179.95,374.056 1182.47,375.173 1185.11,375.173C1187.75,375.173 1190.27,374.056 1192.04,372.1C1193.62,370.1 1194.41,367.1 1194.41,363.1C1194.41,359.1 1193.62,356.23 1192.04,354.2C1190.46,352.17 1188.13,351.2 1185.04,351.2C1181.95,351.2 1179.69,352.2 1178.14,354.2C1176.59,356.2 1175.82,359.14 1175.82,363.1Z" style="fill:white;fill-rule:nonzero;"/>
            <rect x="1207.35" y="334.87" width="4.65" height="43.62" style="fill:white;fill-rule:nonzero;"/>
            <path d="M1226.5,362.76C1227.65,361.203 1228.88,359.708 1230.18,358.28L1240.1,347.77L1245.62,347.77L1233.18,360.86L1246.49,378.49L1240.86,378.49L1230,364L1226.49,367L1226.49,378.49L1221.9,378.49L1221.9,334.87L1226.49,334.87L1226.49,358C1226.49,359 1226.42,360.61 1226.27,362.76L1226.5,362.76Z" style="fill:white;fill-rule:nonzero;"/>
            <path d="M1251.65,339.44C1251.58,338.586 1251.86,337.739 1252.43,337.1C1253.53,336.11 1255.23,336.11 1256.33,337.1C1257.41,338.465 1257.41,340.405 1256.33,341.77C1255.24,342.793 1253.52,342.793 1252.43,341.77C1251.87,341.131 1251.58,340.29 1251.65,339.44ZM1256.65,378.49L1252,378.49L1252,347.77L1256.65,347.77L1256.65,378.49Z" style="fill:white;fill-rule:nonzero;"/>
            <path d="M1276.48,375.21C1277.9,375.208 1279.32,375.019 1280.69,374.65L1280.69,378.21C1279.98,378.507 1279.23,378.709 1278.46,378.81C1277.59,378.961 1276.7,379.041 1275.81,379.05C1269.87,379.05 1266.9,375.92 1266.9,369.66L1266.9,351.38L1262.5,351.38L1262.5,349.14L1266.9,347.21L1268.9,340.65L1271.59,340.65L1271.59,347.77L1280.5,347.77L1280.5,351.38L1271.59,351.38L1271.59,369.46C1271.49,370.994 1271.96,372.513 1272.91,373.72C1273.82,374.719 1275.13,375.265 1276.48,375.21Z" style="fill:white;fill-rule:nonzero;"/>
        </g>
    </g>
    <g id="Layer_7">
        <g>
            <path d="M669.82,261.15L669.82,198C669.82,190.267 668.153,184.467 664.82,180.6C661.487,176.733 656.347,174.8 649.4,174.8C640.247,174.8 633.487,177.427 629.12,182.68C624.753,187.933 622.567,196.023 622.56,206.95L622.56,261.16L607.9,261.16L607.9,198C607.9,190.267 606.233,184.467 602.9,180.6C599.567,176.733 594.4,174.8 587.4,174.8C578.18,174.8 571.433,177.56 567.16,183.08C562.887,188.6 560.743,197.65 560.73,210.23L560.73,261.16L546.03,261.16L546.03,164.07L558.03,164.07L560.42,177.36L561.13,177.36C563.909,172.626 567.983,168.781 572.87,166.28C578.121,163.569 583.961,162.195 589.87,162.28C605.05,162.28 614.97,167.77 619.63,178.75L620.34,178.75C623.299,173.629 627.666,169.464 632.92,166.75C638.709,163.721 645.168,162.198 651.7,162.32C662.68,162.32 670.903,165.14 676.37,170.78C681.837,176.42 684.567,185.44 684.56,197.84L684.56,261.17L669.82,261.15Z" style="fill:white;fill-rule:nonzero;"/>
            <path d="M798.61,212.52C798.61,228.347 794.61,240.703 786.61,249.59C778.61,258.477 767.61,262.92 753.61,262.92C745.486,263.072 737.478,260.956 730.49,256.81C723.67,252.639 718.242,246.533 714.9,239.27C711.24,231.65 709.41,222.733 709.41,212.52C709.41,196.7 713.367,184.367 721.28,175.52C729.193,166.673 740.193,162.26 754.28,162.28C767.86,162.28 778.653,166.797 786.66,175.83C794.667,184.863 798.65,197.093 798.61,212.52ZM724.61,212.52C724.61,224.92 727.09,234.37 732.05,240.87C737.01,247.37 744.327,250.617 754,250.61C763.62,250.61 770.927,247.377 775.92,240.91C780.913,234.443 783.407,224.98 783.4,212.52C783.4,200.18 780.907,190.807 775.92,184.4C770.933,177.993 763.567,174.79 753.82,174.79C744.193,174.79 736.93,177.947 732.03,184.26C727.13,190.573 724.67,199.993 724.65,212.52L724.61,212.52Z" style="fill:white;fill-rule:nonzero;"/>
            <path d="M948.13,261.15L948.13,198C948.13,190.267 946.463,184.467 943.13,180.6C939.797,176.733 934.66,174.8 927.72,174.8C918.56,174.8 911.797,177.427 907.43,182.68C903.063,187.933 900.88,196.023 900.88,206.95L900.88,261.16L886.21,261.16L886.21,198C886.21,190.267 884.543,184.467 881.21,180.6C877.877,176.733 872.71,174.8 865.71,174.8C856.497,174.8 849.75,177.56 845.47,183.08C841.19,188.6 839.05,197.65 839.05,210.23L839.05,261.16L824.35,261.16L824.35,164.07L836.35,164.07L838.75,177.36L839.45,177.36C842.232,172.628 846.305,168.784 851.19,166.28C856.441,163.569 862.281,162.195 868.19,162.28C883.37,162.28 893.293,167.77 897.96,178.75L898.67,178.75C901.625,173.63 905.988,169.464 911.24,166.75C917.022,163.72 923.473,162.19 930,162.3C940.993,162.3 949.217,165.12 954.67,170.76C960.123,176.4 962.857,185.42 962.87,197.82L962.87,261.15L948.13,261.15Z" style="fill:white;fill-rule:nonzero;"/>
            <path d="M1034.14,262.92C1019.79,262.92 1008.45,258.55 1000.14,249.81C991.827,241.07 987.68,228.937 987.7,213.41C987.7,197.763 991.553,185.33 999.26,176.11C1006.97,166.89 1017.3,162.287 1030.26,162.3C1042.43,162.3 1052.06,166.3 1059.14,174.3C1066.22,182.3 1069.79,192.867 1069.84,206L1069.84,215.3L1003,215.3C1003.3,226.687 1006.18,235.337 1011.64,241.25C1017.1,247.163 1024.79,250.117 1034.71,250.11C1045.38,250.061 1055.93,247.829 1065.71,243.55L1065.71,256.66C1060.97,258.761 1056.03,260.379 1050.96,261.49C1045.42,262.535 1039.78,263.014 1034.14,262.92ZM1030.14,174.61C1022.34,174.61 1016.12,177.15 1011.49,182.23C1006.86,187.31 1004.13,194.337 1003.3,203.31L1054.05,203.31C1054.05,194.037 1051.98,186.937 1047.85,182.01C1043.72,177.083 1037.82,174.617 1030.16,174.61L1030.14,174.61Z" style="fill:white;fill-rule:nonzero;"/>
            <path d="M1140.08,262.92C1134.12,262.992 1128.22,261.799 1122.76,259.42C1117.5,257.06 1112.96,253.347 1109.61,248.66L1108.55,248.66C1109.24,254.006 1109.59,259.39 1109.61,264.78L1109.61,304.78L1094.91,304.78L1094.91,164.07L1106.86,164.07L1108.86,177.36L1109.57,177.36C1112.89,172.437 1117.44,168.465 1122.77,165.84C1128.19,163.396 1134.09,162.186 1140.04,162.3C1152.92,162.3 1162.86,166.697 1169.85,175.49C1176.84,184.283 1180.34,196.617 1180.34,212.49C1180.34,228.437 1176.78,240.823 1169.67,249.65C1162.56,258.477 1152.69,262.9 1140.08,262.92ZM1138,174.79C1128.08,174.79 1120.9,177.533 1116.47,183.02C1112.04,188.507 1109.76,197.247 1109.65,209.24L1109.65,212.52C1109.65,226.16 1111.92,235.92 1116.47,241.8C1121.02,247.68 1128.31,250.617 1138.35,250.61C1146.21,250.843 1153.66,246.982 1158,240.42C1162.75,233.633 1165.13,224.273 1165.13,212.34C1165.13,200.24 1162.75,190.957 1158,184.49C1153.25,178.023 1146.58,174.79 1138,174.79Z" style="fill:white;fill-rule:nonzero;"/>
            <path d="M1190.66,164.07L1206.43,164.07L1227.69,219.43C1232.36,232.097 1235.25,241.22 1236.37,246.8L1237.08,246.8C1237.84,243.787 1239.45,238.633 1241.9,231.34C1244.35,224.047 1252.35,201.623 1265.9,164.07L1281.67,164.07L1240,274.61C1235.87,285.537 1231.04,293.29 1225.52,297.87C1220,302.45 1213.22,304.737 1205.19,304.73C1200.72,304.732 1196.26,304.229 1191.9,303.23L1191.9,291.44C1195.49,292.186 1199.14,292.544 1202.8,292.51C1212.89,292.51 1220.1,286.843 1224.41,275.51L1229.81,261.69L1190.66,164.07Z" style="fill:white;fill-rule:nonzero;"/>
        </g>
    </g>
</svg>
