<svg id="Layer_1" data-name="Layer 1" xmlns="http://www.w3.org/2000/svg" viewBox="0 0 1352.24 485.59"><defs><style>.cls-1{fill:#e7edef;stroke:#fff;stroke-miterlimit:10;stroke-width:6px;}.cls-2{fill:none;stroke:#e32e00;stroke-linecap:square;stroke-linejoin:round;stroke-width:4.5px;}.cls-3{isolation:isolate;}.cls-4{fill:#0b4c63;}</style></defs><path class="cls-1" d="M285.72,132.78l-19.47,5.3-2.44-.54-7.91-29.61-.41-2.46L255,103.8l-.29-1.71,0-.85-.28-4.32-.71-4.23-.4-1.47-.48-2.73-.33-1.17-.55-3-.25-.87L251,79.51l-.93-9.9,7.05-4.69,4.23-2.15,4.23-1.53,4.21-1,1.12-.12,3.11-.76,1.6-.19L280.32,58l4.53-1.85,4.39-2.49,4.26-3.12.05,0,22.22,5.2,2.67.89,1.19,13.47.66,3.58.35,1.25.38,2.31.52,2,1.39,9.69-.1,2,.87,3.18,1,2.68L325,98l3.14,24L320,125.85l-4.21,1.64-4.28,1.3-4.35,1-.25,0-3.57.75-.55.15-4.37.85-4.44.52-4.52.19-.9,0-2.81.55"/><path class="cls-1" d="M220.78,149.15l-.94.25-3.12.62-19.89-1.89-4.06-.62-4.11-.86-4.16-1.09-5.68-1.8,2.74-22.18.22-5-.19-4.89-.6-4.8-1-4.71,0-.06-1-4.65-1.45-4.62-2.06-5-.28-1.62L170.89,43l5.64-4.24,3-1.15L184.44,36l4.71,2.56,6.35,3.89,3.32,2.31,5.58,3.41L209.87,51l5.36,2.31,15.39,5.15.63.11,18.84,11,.93,9.9.74,3.91.25.87.55,3,.33,1.17.48,2.73.4,1.47.71,4.23.28,4.32,0,.85.29,1.71.45,1.67.41,2.46,7.91,29.61-10.91,4.88-4.66,1.69-4.74,1.32-4.15.82-.65.17-3.48.65-1.33.34-4.83.85-5,.49-1.39,0-1.87.36"/><path class="cls-1" d="M129.84,156.06,115.7,143.58l-3.78-4-3.2-4.09-2.61-4.21-2-4.34-1.45-4.46L102,119,94.91,107.6l-2.62-3.42L90,101.73l.2-1.08L92,83.54l.8-4.19,1.18-4.27,1.57-4.35,3.28-7.42,4.16-17.5,12.4-.89.14,0,11.1-.21,7.83-1.16,4.28-.42,4.33-.2h4.37l13.68.69,9.8-.61,4.25,43.23.28,1.62,2.06,5,1.45,4.62,1,4.65,0,.06,1,4.71.6,4.8.19,4.89-.22,5-2.74,22.18L160,153.28l-4,2.31-4,2.55L148,160.93l-.8.62-3.78-.85-4.7-.83-4.59-.58-1.08-.09-3.23-3.14"/><path class="cls-1" d="M398.65,161.11l1.29,4.31,3.62,8.14,2.29,19.6-19.71,2.22-4.7,1-2,.66-2.61.58-1.89.62-2.76.62-1.74.58-2.91.67-1.59.53-3.06.71-1.44.48-3.21.76-4.58,1.56-4.4,2-.22-.6-8.78-18.34-6.07-5.66,1.59-2-2.46-2.86,1.38-1.52-2.19-3.32,1.05-1L331.7,167l.61-.55-1.3-4.31,0,0-.68-4.84,3.11-2.46,3.33-8,2.38-12.58.72-8.59,2.5,0,3.5-.22,6.15-1.4,4.55-.07,4.13-.36,4.07-.66,2.17-.52,3.58-.61,3.63-.38,10.64-.44,3.64,11.69,5.8,11.29,1.68,4.8.68,3.52.46,1.4.53,3,.61,1.93.42,2.42"/><path class="cls-1" d="M311.15,212.52l-12.74,1-4.54-.06L289.2,213l-1-.17-2.5-16.47-3-6-1.44-4.18-.88-4.3h0l-.91-4.28,0-.23-.89-4.06,0-.46-1-4.5-11.3-30.19,19.47-5.3,2.83-.56.9,0,4.52-.19,4.44-.52,4.37-.85.55-.15,3.57-.75.25,0,4.35-1,4.28-1.3,4.21-1.64,8.15-3.87,11.8,3.69-.72,8.59-2.38,12.58-3.33,8-3.11,2.46.68,4.84,0,0,1.3,4.31-.61.55,1.81,3.8-1.05,1.05,2.19,3.32-1.38,1.52,2.46,2.86-1.59,2,6.07,5.66L349,205.52l.22.6-10.7,8.21-3.41,3-.51-.23-4.86-1.77L325,214l-4.69-.93-4.6-.51-4.56,0"/><path class="cls-1" d="M398.65,161.11l1.29,4.31,3.62,8.14,2.29,19.6-19.71,2.22-4.7,1-2,.66-2.61.58-1.89.62-2.76.62-1.74.58-2.91.67-1.59.53-3.06.71-1.44.48-3.21.76-4.58,1.56-4.4,2-.22-.6-8.78-18.34-6.07-5.66,1.59-2-2.46-2.86,1.38-1.52-2.19-3.32,1.05-1L331.7,167l.61-.55-1.3-4.31,0,0-.68-4.84,3.11-2.46,3.33-8,2.38-12.58.72-8.59,2.5,0,3.5-.22,6.15-1.4,4.55-.07,4.13-.36,4.07-.66,2.17-.52,3.58-.61,3.63-.38,10.64-.44,3.64,11.69,5.8,11.29,1.68,4.8.68,3.52.46,1.4.53,3,.61,1.93.42,2.42"/><path class="cls-1" d="M311.15,212.52l-12.74,1-4.54-.06L289.2,213l-1-.17-2.5-16.47-3-6-1.44-4.18-.88-4.3h0l-.91-4.28,0-.23-.89-4.06,0-.46-1-4.5-11.3-30.19,19.47-5.3,2.83-.56.9,0,4.52-.19,4.44-.52,4.37-.85.55-.15,3.57-.75.25,0,4.35-1,4.28-1.3,4.21-1.64,8.15-3.87,11.8,3.69-.72,8.59-2.38,12.58-3.33,8-3.11,2.46.68,4.84,0,0,1.3,4.31-.61.55,1.81,3.8-1.05,1.05,2.19,3.32-1.38,1.52,2.46,2.86-1.59,2,6.07,5.66L349,205.52l.22.6-10.7,8.21-3.41,3-.51-.23-4.86-1.77L325,214l-4.69-.93-4.6-.51-4.56,0"/><path class="cls-1" d="M241.53,226.77l-7.26-11.64-6.21-6.68L224,207.09l-.72-4.3-.17-.06-.76-4.32-.13,0-.8-4.33-.09,0-.85-4.35-.05,0-.89-4.36h0l-4.37-20.48,1.33-10.53.22-4.25,3.12-.62.94-.25,1.89-.35,1.39,0,5-.49,4.83-.85,1.33-.34,3.48-.65.65-.17,4.15-.82,4.74-1.32,4.66-1.69,10.91-4.88,2.44.54,11.3,30.19,1,4.5,0,.46.89,4.06,0,.23.91,4.28h0l.88,4.3,1.44,4.18,3,6,2.5,16.47-3,2-.54.3-11.21,4-3.4.94-1.17.23-4.51,1.36-4.41,1.8-4.32,2.24-1.44.91-3.18-.07-4.73.3-4.44.69-.35-.72"/><path class="cls-1" d="M210.64,238l-17.09,4.83-1.25-1.28-2.71-3.15-.29-.39-6.24-14.67L182,220.15,180.92,216l-1.68-4.47-.17-.34-15.81-15.34-3.9-3.3-2.55-1.89-4.14-3.47-5.43-25.68.8-.62,3.94-2.79,4-2.55,4-2.31,18.81-9.51,5.68,1.8,4.16,1.09,4.11.86,4.06.62L216.72,150l-.22,4.25-1.33,10.53,4.37,20.48h0l.89,4.36,0,0,.85,4.35.09,0,.8,4.33.13,0,.76,4.32.17.06.72,4.3,4.08,1.36,6.21,6.68,7.26,11.64.36.71L237,230.12l-4.09,1.74-4.22,1.36-2.24.5-2,.64-1.9.41-2.38.73-1.57.33-2.72.81-1.23.25-3.06.89-.91.18"/><path class="cls-1" d="M241.53,226.77l-7.26-11.64-6.21-6.68L224,207.09l-.72-4.3-.17-.06-.76-4.32-.13,0-.8-4.33-.09,0-.85-4.35-.05,0-.89-4.36h0l-4.37-20.48,1.33-10.53.22-4.25,3.12-.62.94-.25,1.89-.35,1.39,0,5-.49,4.83-.85,1.33-.34,3.48-.65.65-.17,4.15-.82,4.74-1.32,4.66-1.69,10.91-4.88,2.44.54,11.3,30.19,1,4.5,0,.46.89,4.06,0,.23.91,4.28h0l.88,4.3,1.44,4.18,3,6,2.5,16.47-3,2-.54.3-11.21,4-3.4.94-1.17.23-4.51,1.36-4.41,1.8-4.32,2.24-1.44.91-3.18-.07-4.73.3-4.44.69-.35-.72"/><path class="cls-1" d="M210.64,238l-17.09,4.83-1.25-1.28-2.71-3.15-.29-.39-6.24-14.67L182,220.15,180.92,216l-1.68-4.47-.17-.34-15.81-15.34-3.9-3.3-2.55-1.89-4.14-3.47-5.43-25.68.8-.62,3.94-2.79,4-2.55,4-2.31,18.81-9.51,5.68,1.8,4.16,1.09,4.11.86,4.06.62L216.72,150l-.22,4.25-1.33,10.53,4.37,20.48h0l.89,4.36,0,0,.85,4.35.09,0,.8,4.33.13,0,.76,4.32.17.06.72,4.3,4.08,1.36,6.21,6.68,7.26,11.64.36.71L237,230.12l-4.09,1.74-4.22,1.36-2.24.5-2,.64-1.9.41-2.38.73-1.57.33-2.72.81-1.23.25-3.06.89-.91.18"/><path class="cls-1" d="M94,246.79l-3.65-4.15L78.2,225.7,75,222l-3.6-3.55-4-3.41-17-12.47,21.37-15.84,4.16-2.63,4.25-2.23,4.33-1.83,4.42-1.44,4.5-1,1.18-.17,4.78-1.13L104,174.7l4.6-2,24.47-13.46,1.08.09,4.59.58,4.7.83,3.78.85,5.43,25.68-5.08,7.92-1.83,3.3-.94,1.4-2.4,4.21-.34.48-2.77,4.7-.22.47-3.38,5.46L132,219.52l-4,3.22-4.39,2.09-2.88.59L117,227.11l-.57.14-4.15,2.07-3.86,3-12,13.48-1.7,1.68-.75-.73"/><path class="cls-1" d="M345.4,273.48l-.13-10.09-.14-1.9-2.8-8.28-1.85-11.31-1.08-4.45-1.37-4.2-1.1-4.55-1.82-11.33,3.41-3,10.7-8.21,4.4-2,4.58-1.56,3.21-.76,1.44-.48,3.06-.71,1.59-.53,2.91-.67,1.74-.58,2.76-.62,1.89-.62,2.61-.58,2-.66,4.7-1,19.71-2.22,5.13,3.34,4.08,16.37.36,1.07.84,3.2.12.34,1,3.53.08.4,1.26,4.25,1.61,4.14,2,4,.47.79.93,3.41,8.84,24.47-9.85,14.7-6.85,3.2-4.22,1.66-4.23,1.36-.08,0-4.3,1.39h0l-4.28,1.39-.12,0-4.4,1.44-1.46.58-42.09-12.85-4.38-1.58-.86-.36"/><path class="cls-1" d="M204.87,390.85l-2,.75-2.71.66-1.95.73-2.79.69-1.86.7-2.88.71-1.78.67-4.71,1.18-4.88.65-5,.11-10.32-.85L162,393.71l-6.16-12.32-2.31-3.82-2.65-3.72-3-3.61-3.35-3.51-6.18-5.7-.46-2-.8-5-.49-5.06-.15-4.43,24-9.51,11.82-2,4.76-1.36.33-.14,4.33-1.28h.07L186,329l.5-.1,31.1-9.85,13.84,7.54,2.29,1.57-5.38,13.54-1.63,5-1.22,4.9-.81,4.77-.4,4.65.05,18.3-.46,5-.38,2.08-18.59,4.47"/><path class="cls-1" d="M301.35,295.38,286.7,297.7l-.93.1-9.58-18.28-6.43-7.21-2.66-4-2-4.24-.83-3-.59-1.41-.49-2-.9-2.39-.21-1.05L261,250.78l-1-6.28-5.69-17.92,1.44-.91,4.32-2.24,4.41-1.8,4.51-1.36,1.17-.23,3.4-.94,11.21-4,.54-.3,3-2,1,.17,4.67.46,4.54.06,12.74-1,4.52.08,4.6.51,4.69.93,4.78,1.35,4.86,1.77.51.23,1.82,11.33,1.1,4.55,1.37,4.2,1.08,4.45,1.85,11.31,2.8,8.28.14,1.9.13,10.09-16.85,14-8.6,4.58-.78,0-4.57.46-4.48.73-4.4,1-3.38,1-1,.07"/><path class="cls-1" d="M267.09,268.28l2.66,4,6.43,7.21,9.58,18.28-2.2,1.69-19.77,13.69-3.44,2.69L257,318.81l-3.27,3.2-2.65,2.87-.84.26-4.38,1.11-4.45.88-4.52.65-3.17.29-2.29-1.57L217.58,319l-7.78-16.29-3.91-5.2-2.52-4.05-2.09-4.18-1.66-4.31-.71-2.59-.66-1.8-.48-1.87L196.51,275,195,271.51l-5.19-9.57,3.81-19.18,17.09-4.83.89-.18,3.06-.89,1.23-.25,2.72-.81,1.57-.33,2.38-.73,1.9-.41,2-.64,2.24-.5,4.22-1.36,4.09-1.74,4.91-2.63,4.44-.69,4.73-.3,3.18.07L260,244.46l1,6.28,1.14,3.38.21,1,.9,2.39.49,2,.59,1.41.83,3,1.94,4.27"/><path class="cls-1" d="M94,246.79l-3.65-4.15L78.2,225.7,75,222l-3.6-3.55-4-3.41-17-12.47,21.37-15.84,4.16-2.63,4.25-2.23,4.33-1.83,4.42-1.44,4.5-1,1.18-.17,4.78-1.13L104,174.7l4.6-2,24.47-13.46,1.08.09,4.59.58,4.7.83,3.78.85,5.43,25.68-5.08,7.92-1.83,3.3-.94,1.4-2.4,4.21-.34.48-2.77,4.7-.22.47-3.38,5.46L132,219.52l-4,3.22-4.39,2.09-2.88.59L117,227.11l-.57.14-4.15,2.07-3.86,3-12,13.48-1.7,1.68-.75-.73"/><path class="cls-1" d="M192.3,241.52l1.25,1.28L189.74,262l-21.81,7.12-.88.16-3.58,1.18-1,.19L159,271.78l-1.18.23-3.28,1.12-1.33.26-3.13,1.08-1.48.3-4.54,1.59-4.35,2.23-22.86,15.76-1.48-1.71-3.2-4.28-2.8-4.39-2.4-4.51-2-4.62-1.6-4.74-.42-1.7-1-3.1-.09-.41-2.29-4.1-2.07-4.6-1.64-4.73-.46-1.85-.66-2.1,1.7-1.68,12-13.48,3.86-3,4.15-2.07.57-.14,3.65-1.69,2.88-.59,4.39-2.09,4-3.22,3.71-4.34,3.38-5.46.22-.47,2.77-4.7.34-.48,2.4-4.21.94-1.4,1.83-3.3,5.08-7.92,4.14,3.47,2.55,1.89,3.9,3.3,15.82,15.35.17.34,1.68,4.47,1.07,4.11,1.07,3.15L189.35,238l.29.39,2.66,3.15"/><path class="cls-1" d="M127.94,330.64l-2-4.62-1.67-4.72-1-3.7-.38-1.1-.92-3.38-.49-1.41-.82-3.07-.58-1.73-.72-2.75-.68-2-1.25-4.84-.54-2.92,22.91-15.76,4.35-2.23,4.54-1.59,1.48-.3,3.13-1.08,1.33-.26,3.28-1.12,1.18-.23,3.43-1.15,1-.19,3.58-1.18.88-.16L189.79,262l5.19,9.57,1.56,3.53,1.26,3.63.48,1.87.66,1.8.71,2.59,1.66,4.31,2.09,4.18,2.52,4,3.91,5.2L217.61,319l-31.1,9.85-.5.1-4.25,1.3h-.07l-4.33,1.28-.33.14-4.76,1.36-11.82,2-24,9.51L136,344l-3-4.33-2.68-4.43-2.38-4.55"/><path class="cls-1" d="M94,246.79l-3.65-4.15L78.2,225.7,75,222l-3.6-3.55-4-3.41-17-12.47,21.37-15.84,4.16-2.63,4.25-2.23,4.33-1.83,4.42-1.44,4.5-1,1.18-.17,4.78-1.13L104,174.7l4.6-2,24.47-13.46,1.08.09,4.59.58,4.7.83,3.78.85,5.43,25.68-5.08,7.92-1.83,3.3-.94,1.4-2.4,4.21-.34.48-2.77,4.7-.22.47-3.38,5.46L132,219.52l-4,3.22-4.39,2.09-2.88.59L117,227.11l-.57.14-4.15,2.07-3.86,3-12,13.48-1.7,1.68-.75-.73"/><path class="cls-2" d="M288.25,87.82l26.44,84.8"/><path class="cls-2" d="M288.25,87.82l26.44,84.8"/><path class="cls-2" d="M288.25,87.82,243.2,189.57"/><path class="cls-2" d="M288.25,87.82,243.2,189.57"/><path class="cls-2" d="M220.18,98.86l-88.48,2.81"/><path class="cls-2" d="M220.18,98.86l23,90.71"/><path class="cls-2" d="M220.18,98.86l-11.72,97.66"/><path class="cls-2" d="M220.18,98.86l23,90.71"/><path class="cls-2" d="M220.18,98.86l-11.72,97.66"/><path class="cls-2" d="M131.7,101.67l76.77,94.85"/><path class="cls-2" d="M131.7,101.67,109,209.83"/><path class="cls-2" d="M131.7,101.67l76.77,94.85"/><path class="cls-2" d="M131.7,101.67,109,209.83"/><path class="cls-2" d="M131.7,101.67l88.48-2.81"/><path class="cls-2" d="M131.7,101.67,109,209.83"/><path class="cls-2" d="M357.53,165.83l-42.83,6.79"/><path class="cls-2" d="M357.53,165.83h0"/><path class="cls-2" d="M357.53,165.83l-42.83,6.79"/><path class="cls-2" d="M357.53,165.83l26.24,70.3"/><path class="cls-2" d="M314.69,172.62l42.83-6.79"/><path class="cls-2" d="M314.69,172.62l42.83-6.79"/><path class="cls-2" d="M314.69,172.62h0"/><path class="cls-2" d="M314.69,172.62l-71.5,16.95"/><path class="cls-2" d="M314.69,172.62,293.55,249"/><path class="cls-2" d="M314.69,172.62l-71.5,16.95"/><path class="cls-2" d="M314.69,172.62l-26.44-84.8"/><path class="cls-2" d="M314.69,172.62l69.07,63.51"/><path class="cls-2" d="M357.53,165.83h0"/><path class="cls-2" d="M357.53,165.83l-42.83,6.79"/><path class="cls-2" d="M357.53,165.83l-42.83,6.79"/><path class="cls-2" d="M357.53,165.83l26.24,70.3"/><path class="cls-2" d="M314.69,172.62l42.83-6.79"/><path class="cls-2" d="M314.69,172.62h0"/><path class="cls-2" d="M314.69,172.62l42.83-6.79"/><path class="cls-2" d="M314.69,172.62l-71.5,16.95"/><path class="cls-2" d="M314.69,172.62,293.55,249"/><path class="cls-2" d="M314.69,172.62l-71.5,16.95"/><path class="cls-2" d="M314.69,172.62l-26.44-84.8"/><path class="cls-2" d="M314.69,172.62l69.07,63.51"/><path class="cls-2" d="M243.2,189.56l-34.73,7"/><path class="cls-2" d="M243.2,189.56l-6.15,79.78"/><path class="cls-2" d="M243.2,189.56l71.5-16.95"/><path class="cls-2" d="M243.2,189.56l71.5-16.95"/><path class="cls-2" d="M243.2,189.56,293.56,249"/><path class="cls-2" d="M243.2,189.56h0"/><path class="cls-2" d="M243.2,189.56l-34.73,7"/><path class="cls-2" d="M243.2,189.56,288.25,87.81"/><path class="cls-2" d="M243.2,189.56l-23-90.71"/><path class="cls-2" d="M208.47,196.52l-64.42,46.31"/><path class="cls-2" d="M208.47,196.52,131.7,101.67"/><path class="cls-2" d="M208.47,196.52l28.58,72.82"/><path class="cls-2" d="M208.47,196.52l34.73-7"/><path class="cls-2" d="M208.47,196.52,109,209.83"/><path class="cls-2" d="M208.47,196.52l34.73-7"/><path class="cls-2" d="M208.47,196.52h0"/><path class="cls-2" d="M208.47,196.52,109,209.83"/><path class="cls-2" d="M208.47,196.52l11.72-97.66"/><path class="cls-2" d="M208.47,196.52,109,209.83"/><path class="cls-2" d="M243.2,189.56l-34.73,7"/><path class="cls-2" d="M243.2,189.56l71.5-16.95"/><path class="cls-2" d="M243.2,189.56l71.5-16.95"/><path class="cls-2" d="M243.2,189.56h0"/><path class="cls-2" d="M243.2,189.56,293.56,249"/><path class="cls-2" d="M243.2,189.56l-6.15,79.78"/><path class="cls-2" d="M243.2,189.56l-34.73,7"/><path class="cls-2" d="M243.2,189.56l-23-90.71"/><path class="cls-2" d="M208.47,196.52l-64.42,46.31"/><path class="cls-2" d="M208.47,196.52h0"/><path class="cls-2" d="M208.47,196.52,131.7,101.67"/><path class="cls-2" d="M208.47,196.52l28.58,72.82"/><path class="cls-2" d="M208.47,196.52l34.73-7"/><path class="cls-2" d="M208.47,196.52,109,209.83"/><path class="cls-2" d="M208.47,196.52l34.73-7"/><path class="cls-2" d="M208.47,196.52,109,209.83"/><path class="cls-2" d="M208.47,196.52l11.72-97.66,68.07-11-45,101.75"/><path class="cls-2" d="M208.47,196.52,109,209.83"/><path class="cls-2" d="M109,209.83l35,33"/><path class="cls-2" d="M109,209.83,131.7,101.67"/><path class="cls-2" d="M109,209.83l99.46-13.31"/><path class="cls-2" d="M109,209.83l99.46-13.31"/><path class="cls-2" d="M383.77,236.12l-26.24-70.3"/><path class="cls-2" d="M383.77,236.12,314.7,172.61"/><path class="cls-2" d="M383.77,236.12l-26.24-70.3"/><path class="cls-2" d="M383.77,236.12,314.7,172.61"/><path class="cls-2" d="M383.77,236.12,293.56,249"/><path class="cls-2" d="M188.77,362.5l-21.13-63.85"/><path class="cls-2" d="M188.77,362.5l48.28-93.16"/><path class="cls-2" d="M293.56,249,243.2,189.57"/><path class="cls-2" d="M293.56,249l21.14-76.4"/><path class="cls-2" d="M293.56,249l21.14-76.4"/><path class="cls-2" d="M293.56,249,243.2,189.57"/><path class="cls-2" d="M293.56,249l-56.51,20.32"/><path class="cls-2" d="M293.56,249l90.21-12.89"/><path class="cls-2" d="M237.05,269.34l-93-26.51"/><path class="cls-2" d="M237.05,269.34l-69.41,29.31"/><path class="cls-2" d="M237.05,269.34,293.56,249"/><path class="cls-2" d="M237.05,269.34,188.77,362.5"/><path class="cls-2" d="M237.05,269.34l6.15-79.78"/><path class="cls-2" d="M237.05,269.34l-28.58-72.82"/><path class="cls-2" d="M237.05,269.34l6.15-79.78"/><path class="cls-2" d="M237.05,269.34l-28.58-72.82"/><path class="cls-2" d="M109,209.83l35,33"/><path class="cls-2" d="M109,209.83,131.7,101.67"/><path class="cls-2" d="M109,209.83l99.46-13.31"/><path class="cls-2" d="M109,209.83l99.46-13.31"/><path class="cls-2" d="M144.05,242.83l64.42-46.31"/><path class="cls-2" d="M144.05,242.83l23.59,55.82"/><path class="cls-2" d="M144.05,242.83l-35-33"/><path class="cls-2" d="M144.05,242.83l93,26.51"/><path class="cls-2" d="M144.05,242.83l64.42-46.31"/><path class="cls-2" d="M144.05,242.83l-35-33"/><path class="cls-2" d="M144.05,242.83l-35-33"/><path class="cls-2" d="M167.64,298.65l-23.59-55.82"/><path class="cls-2" d="M167.64,298.65l69.41-29.31"/><path class="cls-2" d="M167.64,298.65l21.13,63.85"/><path class="cls-2" d="M109,209.83l35,33"/><path class="cls-2" d="M109,209.83,131.7,101.67"/><path class="cls-2" d="M109,209.83l99.46-13.31"/><path class="cls-2" d="M109,209.83l99.46-13.31"/><g id="Layer_1-2" data-name="Layer 1"><g class="cls-3"><path class="cls-4" d="M317.8,337.51V364q0,7-4.23,11c-2.83,2.67-6.7,4-11.64,4s-8.75-1.35-11.45-4-4.05-6.39-4.05-11.1v-26.4h4.77v26.74c0,3.42.93,6,2.8,7.88s4.62,2.74,8.24,2.74q5.19,0,8-2.76t2.8-7.92V337.51Z"/><path class="cls-4" d="M342,347.21a18.46,18.46,0,0,1,3.67.33l-.64,4.32a15.84,15.84,0,0,0-3.36-.42,8.18,8.18,0,0,0-6.38,3A11,11,0,0,0,332.6,362v16.48H328V347.77h3.84l.53,5.69h.22a13.65,13.65,0,0,1,4.12-4.63A9.32,9.32,0,0,1,342,347.21Z"/><path class="cls-4" d="M365.68,347.26q6,0,9.4,4.14t3.35,11.7q0,7.57-3.38,11.76a11.38,11.38,0,0,1-9.37,4.19,13.25,13.25,0,0,1-5.48-1.11,10.3,10.3,0,0,1-4.17-3.4h-.33l-1,3.95h-3.34V334.87H356v10.6q0,3.55-.22,6.39H356Q359.29,347.26,365.68,347.26Zm-.68,3.9q-4.75,0-6.87,2.73T356,363.1c0,4.32.72,7.4,2.16,9.26s3.75,2.79,6.93,2.79a7.2,7.2,0,0,0,6.39-3.12c1.4-2.09,2.1-5.08,2.1-9s-.7-7-2.1-8.94S367.94,351.16,365,351.16Z"/><path class="cls-4" d="M405.45,378.49l-.92-4.37h-.23a13.06,13.06,0,0,1-4.58,3.91,14,14,0,0,1-5.71,1,10.27,10.27,0,0,1-7.16-2.36,8.56,8.56,0,0,1-2.59-6.69q0-9.31,14.88-9.76l5.22-.17v-1.9c0-2.42-.52-4.19-1.56-5.34s-2.69-1.73-5-1.73a20.28,20.28,0,0,0-8.69,2.36l-1.43-3.56a22.21,22.21,0,0,1,10.4-2.64c3.66,0,6.37.82,8.14,2.44s2.65,4.23,2.65,7.82v21Zm-10.51-3.28a9.45,9.45,0,0,0,6.83-2.38,8.84,8.84,0,0,0,2.48-6.67v-2.78l-4.66.2q-5.55.19-8,1.72a5.19,5.19,0,0,0-2.45,4.75,4.79,4.79,0,0,0,1.53,3.84A6.31,6.31,0,0,0,394.94,375.21Z"/><path class="cls-4" d="M439.51,378.49V358.61q0-3.75-1.71-5.6c-1.14-1.24-2.92-1.85-5.35-1.85-3.22,0-5.57.87-7.07,2.6s-2.24,4.61-2.24,8.61v16.12h-4.65V347.77h3.78L423,352h.22a9.57,9.57,0,0,1,4-3.52,13,13,0,0,1,5.75-1.24q5.55,0,8.35,2.67c1.87,1.79,2.8,4.64,2.8,8.57v20Z"/><path class="cls-4" d="M487.47,378.49l-13.9-36.33h-.23c.26,2.88.4,6.3.4,10.26v26.07h-4.41v-41h7.18l13,33.8h.22l13.09-33.8h7.12v41h-4.76V352.08q0-4.53.39-9.86h-.22l-14,36.27Z"/><path class="cls-4" d="M547,363.1q0,7.51-3.78,11.73t-10.46,4.22a13.85,13.85,0,0,1-7.32-1.93,12.78,12.78,0,0,1-4.93-5.55,19.35,19.35,0,0,1-1.74-8.47q0-7.52,3.76-11.7t10.43-4.19a13,13,0,0,1,10.24,4.29Q547,355.78,547,363.1Zm-23.41,0q0,5.88,2.36,9a9.35,9.35,0,0,0,13.86,0c1.58-2,2.37-5,2.37-9s-.79-6.87-2.37-8.9-3.91-3-7-3-5.35,1-6.9,3S523.57,359.14,523.57,363.1Z"/><path class="cls-4" d="M569.15,347.21a18.46,18.46,0,0,1,3.67.33l-.64,4.32a15.84,15.84,0,0,0-3.36-.42,8.18,8.18,0,0,0-6.38,3,11,11,0,0,0-2.65,7.54v16.48h-4.65V347.77H559l.53,5.69h.22a13.65,13.65,0,0,1,4.12-4.63A9.32,9.32,0,0,1,569.15,347.21Z"/><path class="cls-4" d="M592.87,379.05a13.25,13.25,0,0,1-5.48-1.11,10.3,10.3,0,0,1-4.17-3.4h-.33a41.88,41.88,0,0,1,.33,5.1v12.64h-4.65V347.77h3.78L583,352h.22a10.86,10.86,0,0,1,4.18-3.64,12.67,12.67,0,0,1,5.47-1.12q6.11,0,9.43,4.17t3.32,11.72q0,7.57-3.38,11.76A11.38,11.38,0,0,1,592.87,379.05Zm-.68-27.89q-4.71,0-6.81,2.6t-2.16,8.3v1c0,4.32.72,7.4,2.16,9.26s3.75,2.79,6.93,2.79a7.18,7.18,0,0,0,6.23-3.22q2.26-3.23,2.26-8.89t-2.26-8.81A7.41,7.41,0,0,0,592.19,351.16Z"/><path class="cls-4" d="M634.77,378.49V358.61q0-3.75-1.71-5.6c-1.14-1.24-2.92-1.85-5.35-1.85-3.24,0-5.59.88-7.08,2.63s-2.23,4.64-2.23,8.64v16.06h-4.65V334.87h4.65v13.21a28.86,28.86,0,0,1-.22,3.95h.28a9.43,9.43,0,0,1,3.91-3.49,12.71,12.71,0,0,1,5.79-1.28c3.75,0,6.57.9,8.45,2.68s2.82,4.62,2.82,8.51v20Z"/><path class="cls-4" d="M675.5,363.1q0,7.51-3.78,11.73t-10.46,4.22a13.81,13.81,0,0,1-7.31-1.93,12.8,12.8,0,0,1-4.94-5.55,19.35,19.35,0,0,1-1.74-8.47q0-7.52,3.76-11.7t10.43-4.19a13,13,0,0,1,10.24,4.29Q675.51,355.78,675.5,363.1Zm-23.4,0q0,5.88,2.35,9a9.35,9.35,0,0,0,13.86,0c1.58-2,2.37-5,2.37-9s-.79-6.87-2.37-8.9-3.91-3-7-3-5.35,1-6.9,3S652.1,359.14,652.1,363.1Z"/><path class="cls-4" d="M688.31,378.49h-4.65V334.87h4.65Z"/><path class="cls-4" d="M724.69,363.1q0,7.51-3.78,11.73t-10.45,4.22a13.85,13.85,0,0,1-7.32-1.93,12.71,12.71,0,0,1-4.93-5.55,19.35,19.35,0,0,1-1.74-8.47q0-7.52,3.75-11.7t10.43-4.19a13,13,0,0,1,10.25,4.29Q724.7,355.78,724.69,363.1Zm-23.4,0q0,5.88,2.35,9a9.36,9.36,0,0,0,13.87,0c1.57-2,2.36-5,2.36-9s-.79-6.87-2.36-8.9-3.92-3-7-3-5.34,1-6.89,3S701.29,359.14,701.29,363.1Z"/><path class="cls-4" d="M758,347.77v2.94l-5.69.67a9.91,9.91,0,0,1,1.4,2.57,9.76,9.76,0,0,1,.61,3.57,9.08,9.08,0,0,1-3.08,7.21q-3.09,2.68-8.46,2.69a14,14,0,0,1-2.58-.23q-3,1.57-3,4a2,2,0,0,0,1,1.86,7.61,7.61,0,0,0,3.56.6h5.44c3.33,0,5.88.7,7.67,2.1a7.33,7.33,0,0,1,2.67,6.12,8.7,8.7,0,0,1-4.09,7.77q-4.1,2.68-11.94,2.68-6,0-9.29-2.24A7.25,7.25,0,0,1,729,383.7a7.11,7.11,0,0,1,1.8-4.85,9.07,9.07,0,0,1,5-2.77,4.9,4.9,0,0,1-2-1.66,4.29,4.29,0,0,1-.8-2.6,5,5,0,0,1,.89-2.95,9.66,9.66,0,0,1,2.83-2.44,8.3,8.3,0,0,1-3.88-3.33,9.79,9.79,0,0,1-1.5-5.38q0-5.06,3-7.78t8.58-2.73a15.37,15.37,0,0,1,4.34.56Zm-24.5,35.88a4.17,4.17,0,0,0,2.1,3.78,11.6,11.6,0,0,0,6,1.29q5.85,0,8.67-1.75a5.36,5.36,0,0,0,2.82-4.75,3.79,3.79,0,0,0-1.54-3.47c-1-.64-3-1-5.81-1H740.2a7.37,7.37,0,0,0-4.94,1.51A5.44,5.44,0,0,0,733.5,383.65Zm2.52-26a6.26,6.26,0,0,0,1.82,4.87,7.26,7.26,0,0,0,5.08,1.66q6.81,0,6.81-6.62,0-6.91-6.9-6.92a6.82,6.82,0,0,0-5,1.76A7.12,7.12,0,0,0,736,357.61Z"/><path class="cls-4" d="M759.43,347.77h5l6.72,17.52a66.79,66.79,0,0,1,2.75,8.66h.22c.25-.95.76-2.59,1.53-4.89s3.31-9.41,7.61-21.29h5l-13.2,35q-2,5.19-4.58,7.36a9.76,9.76,0,0,1-6.44,2.17,18.53,18.53,0,0,1-4.2-.48v-3.72a16.43,16.43,0,0,0,3.45.33q4.79,0,6.83-5.38l1.71-4.37Z"/><path class="cls-4" d="M827,378.49l-13.9-36.33h-.23c.26,2.88.4,6.3.4,10.26v26.07h-4.41v-41H816l13,33.8h.22l13.09-33.8h7.12v41h-4.76V352.08q0-4.53.39-9.86h-.22l-14,36.27Z"/><path class="cls-4" d="M873,379.05q-6.81,0-10.75-4.15t-3.94-11.52q0-7.42,3.66-11.8a12.13,12.13,0,0,1,9.83-4.37,11.58,11.58,0,0,1,9.13,3.79q3.38,3.81,3.37,10V364H863.08c.1,3.61,1,6.34,2.74,8.21a9.45,9.45,0,0,0,7.3,2.81,24.78,24.78,0,0,0,9.81-2.08v4.15a24.62,24.62,0,0,1-4.67,1.53A26,26,0,0,1,873,379.05Zm-1.26-27.95a7.62,7.62,0,0,0-5.9,2.41,11.09,11.09,0,0,0-2.59,6.67h16.06c0-2.93-.66-5.18-2-6.74A6.92,6.92,0,0,0,871.69,351.1Z"/><path class="cls-4" d="M911.07,378.49l-.92-4.37h-.23a13.06,13.06,0,0,1-4.58,3.91,14,14,0,0,1-5.7,1,10.28,10.28,0,0,1-7.17-2.36,8.59,8.59,0,0,1-2.59-6.69q0-9.31,14.89-9.76l5.21-.17v-1.9c0-2.42-.52-4.19-1.56-5.34s-2.69-1.73-5-1.73a20.28,20.28,0,0,0-8.69,2.36l-1.43-3.56a22.21,22.21,0,0,1,10.4-2.64c3.66,0,6.38.82,8.14,2.44s2.65,4.23,2.65,7.82v21Zm-10.51-3.28a9.45,9.45,0,0,0,6.83-2.38,8.84,8.84,0,0,0,2.48-6.67v-2.78l-4.66.2c-3.7.13-6.36.7-8,1.72a5.2,5.2,0,0,0-2.45,4.75,4.79,4.79,0,0,0,1.53,3.84A6.31,6.31,0,0,0,900.56,375.21Z"/><path class="cls-4" d="M943.93,370.11a7.69,7.69,0,0,1-3.2,6.61q-3.19,2.32-9,2.33-6.1,0-9.53-1.93V372.8a22.44,22.44,0,0,0,4.75,1.76,19.36,19.36,0,0,0,4.89.65,11.17,11.17,0,0,0,5.61-1.16,4,4,0,0,0,.4-6.62,24.48,24.48,0,0,0-6.06-3,33.7,33.7,0,0,1-6.1-2.79,8.26,8.26,0,0,1-2.69-2.71,7,7,0,0,1-.88-3.61,6.88,6.88,0,0,1,3.05-5.93q3.06-2.17,8.38-2.17a24.61,24.61,0,0,1,9.7,2L941.63,353a22.33,22.33,0,0,0-8.38-1.91,9.64,9.64,0,0,0-5,1,3.19,3.19,0,0,0-1.69,2.86,3.42,3.42,0,0,0,.64,2.1,6.1,6.1,0,0,0,2,1.65,43.66,43.66,0,0,0,5.38,2.28c3.64,1.32,6.1,2.66,7.39,4A7.09,7.09,0,0,1,943.93,370.11Z"/><path class="cls-4" d="M955.87,347.77V367.7q0,3.75,1.71,5.6c1.14,1.24,2.92,1.85,5.35,1.85q4.82,0,7.05-2.63t2.23-8.61V347.77h4.65v30.72H973l-.67-4.12h-.25a9.32,9.32,0,0,1-4,3.47,13.24,13.24,0,0,1-5.79,1.21q-5.61,0-8.39-2.66t-2.79-8.53V347.77Z"/><path class="cls-4" d="M1000.74,347.21a18.63,18.63,0,0,1,3.68.33l-.65,4.32a15.84,15.84,0,0,0-3.36-.42,8.19,8.19,0,0,0-6.38,3,11,11,0,0,0-2.65,7.54v16.48h-4.65V347.77h3.84l.53,5.69h.22a13.57,13.57,0,0,1,4.13-4.63A9.27,9.27,0,0,1,1000.74,347.21Z"/><path class="cls-4" d="M1009.77,339.44a3.12,3.12,0,0,1,.78-2.34,2.78,2.78,0,0,1,2-.74,2.75,2.75,0,0,1,1.93.75,3.77,3.77,0,0,1,0,4.67,2.85,2.85,0,0,1-3.9,0A3.15,3.15,0,0,1,1009.77,339.44Zm5.05,39.05h-4.66V347.77h4.66Z"/><path class="cls-4" d="M1045.71,378.49V358.61c0-2.5-.58-4.37-1.71-5.6s-2.93-1.85-5.36-1.85c-3.21,0-5.57.87-7.06,2.6s-2.24,4.61-2.24,8.61v16.12h-4.66V347.77h3.79l.75,4.2h.23a9.57,9.57,0,0,1,4-3.52,13,13,0,0,1,5.74-1.24c3.7,0,6.49.89,8.35,2.67s2.81,4.64,2.81,8.57v20Z"/><path class="cls-4" d="M1085.06,347.77v2.94l-5.69.67a9.91,9.91,0,0,1,1.4,2.57,9.75,9.75,0,0,1,.62,3.57,9.09,9.09,0,0,1-3.09,7.21q-3.08,2.68-8.46,2.69a14,14,0,0,1-2.58-.23q-3,1.57-3,4a2,2,0,0,0,1,1.86,7.61,7.61,0,0,0,3.56.6h5.43q5,0,7.67,2.1a7.31,7.31,0,0,1,2.68,6.12,8.72,8.72,0,0,1-4.09,7.77q-4.1,2.68-11.95,2.68-6,0-9.29-2.24a7.26,7.26,0,0,1-3.26-6.34,7.15,7.15,0,0,1,1.79-4.85,9.14,9.14,0,0,1,5.05-2.77,4.86,4.86,0,0,1-2-1.66,4.36,4.36,0,0,1-.8-2.6,5,5,0,0,1,.9-2.95,9.53,9.53,0,0,1,2.83-2.44,8.25,8.25,0,0,1-3.88-3.33,9.79,9.79,0,0,1-1.5-5.38q0-5.06,3-7.78t8.58-2.73a15.4,15.4,0,0,1,4.35.56Zm-24.5,35.88a4.17,4.17,0,0,0,2.1,3.78,11.62,11.62,0,0,0,6,1.29q5.86,0,8.68-1.75a5.37,5.37,0,0,0,2.81-4.75,3.77,3.77,0,0,0-1.54-3.47q-1.55-1-5.8-1h-5.58a7.34,7.34,0,0,0-4.93,1.51A5.41,5.41,0,0,0,1060.56,383.65Zm2.52-26a6.23,6.23,0,0,0,1.83,4.87,7.22,7.22,0,0,0,5.07,1.66q6.81,0,6.81-6.62,0-6.91-6.89-6.92a6.86,6.86,0,0,0-5.05,1.76A7.12,7.12,0,0,0,1063.08,357.61Z"/><path class="cls-4" d="M1119.59,378.49h-4.76V341.74h-13v-4.23h30.72v4.23h-13Z"/><path class="cls-4" d="M1164.56,363.1q0,7.51-3.79,11.73t-10.45,4.22a13.85,13.85,0,0,1-7.32-1.93,12.78,12.78,0,0,1-4.93-5.55,19.35,19.35,0,0,1-1.74-8.47q0-7.52,3.76-11.7t10.42-4.19a13,13,0,0,1,10.25,4.29Q1164.55,355.78,1164.56,363.1Zm-23.41,0q0,5.88,2.36,9a8.14,8.14,0,0,0,6.92,3.08,8.23,8.23,0,0,0,6.94-3.07c1.58-2,2.36-5,2.36-9s-.78-6.87-2.36-8.9-3.91-3-7-3-5.34,1-6.89,3S1141.15,359.14,1141.15,363.1Z"/><path class="cls-4" d="M1199.23,363.1q0,7.51-3.78,11.73T1185,379.05a13.85,13.85,0,0,1-7.32-1.93,12.78,12.78,0,0,1-4.93-5.55,19.35,19.35,0,0,1-1.74-8.47q0-7.52,3.76-11.7t10.43-4.19a13,13,0,0,1,10.24,4.29Q1199.22,355.78,1199.23,363.1Zm-23.41,0q0,5.88,2.36,9a9.35,9.35,0,0,0,13.86,0c1.58-2,2.37-5,2.37-9s-.79-6.87-2.37-8.9-3.91-3-7-3-5.35,1-6.9,3S1175.82,359.14,1175.82,363.1Z"/><path class="cls-4" d="M1212,378.49h-4.65V334.87H1212Z"/><path class="cls-4" d="M1226.5,362.76a55.4,55.4,0,0,1,3.68-4.48l9.92-10.51h5.52l-12.44,13.09,13.31,17.63h-5.63L1230,364l-3.51,3v11.49h-4.59V334.87h4.59V358c0,1-.07,2.61-.22,4.76Z"/><path class="cls-4" d="M1251.65,339.44a3.12,3.12,0,0,1,.78-2.34,2.92,2.92,0,0,1,3.9,0,3.77,3.77,0,0,1,0,4.67,2.85,2.85,0,0,1-3.9,0A3.15,3.15,0,0,1,1251.65,339.44Zm5,39.05H1252V347.77h4.65Z"/><path class="cls-4" d="M1276.48,375.21a16.3,16.3,0,0,0,4.21-.56v3.56a8.78,8.78,0,0,1-2.23.6,16.57,16.57,0,0,1-2.65.24q-8.91,0-8.91-9.39V351.38h-4.4v-2.24l4.4-1.93,2-6.56h2.69v7.12h8.91v3.61h-8.91v18.08a6.21,6.21,0,0,0,1.32,4.26A4.58,4.58,0,0,0,1276.48,375.21Z"/></g></g><g id="Layer_7" data-name="Layer 7"><g class="cls-3"><path class="cls-4" d="M669.82,261.15V198q0-11.6-5-17.4t-15.42-5.8q-13.73,0-20.28,7.88t-6.56,24.27v54.21H607.9V198q0-11.6-5-17.4t-15.5-5.8q-13.83,0-20.24,8.28t-6.43,27.15v50.93h-14.7V164.07h12l2.39,13.29h.71a28.86,28.86,0,0,1,11.74-11.08,35.93,35.93,0,0,1,17-4q22.77,0,29.76,16.47h.71a30.91,30.91,0,0,1,12.58-12,38.94,38.94,0,0,1,18.78-4.43q16.47,0,24.67,8.46t8.19,27.06v63.33Z"/><path class="cls-4" d="M798.61,212.52q0,23.74-12,37.07t-33,13.33a43.71,43.71,0,0,1-23.12-6.11,40.31,40.31,0,0,1-15.59-17.54q-5.49-11.43-5.49-26.75,0-23.73,11.87-37t33-13.24q20.37,0,32.38,13.55T798.61,212.52Zm-74,0q0,18.6,7.44,28.35T754,250.61q14.43,0,21.92-9.7t7.48-28.39q0-18.51-7.48-28.12t-22.1-9.61q-14.44,0-21.79,9.47T724.65,212.52Z"/><path class="cls-4" d="M948.13,261.15V198q0-11.6-5-17.4t-15.41-5.8q-13.74,0-20.29,7.88t-6.55,24.27v54.21H886.21V198q0-11.6-5-17.4t-15.5-5.8q-13.82,0-20.24,8.28t-6.42,27.15v50.93h-14.7V164.07h12l2.4,13.29h.7a28.93,28.93,0,0,1,11.74-11.08,35.93,35.93,0,0,1,17-4q22.77,0,29.77,16.47h.71a30.88,30.88,0,0,1,12.57-12A39,39,0,0,1,930,162.3q16.49,0,24.67,8.46t8.2,27.06v63.33Z"/><path class="cls-4" d="M1034.14,262.92q-21.53,0-34-13.11t-12.44-36.4q0-23.47,11.56-37.3t31-13.81q18.26,0,28.88,12T1069.84,206v9.3H1003q.45,17.08,8.64,25.95t23.07,8.86a78.22,78.22,0,0,0,31-6.56v13.11a77.31,77.31,0,0,1-14.75,4.83A83.25,83.25,0,0,1,1034.14,262.92Zm-4-88.31q-11.7,0-18.65,7.62t-8.19,21.08h50.75q0-13.91-6.2-21.3T1030.16,174.61Z"/><path class="cls-4" d="M1140.08,262.92a42.08,42.08,0,0,1-17.32-3.5,32.57,32.57,0,0,1-13.15-10.76h-1.06a129.9,129.9,0,0,1,1.06,16.12v40h-14.7V164.07h11.95l2,13.29h.71a34.11,34.11,0,0,1,13.2-11.52,40.16,40.16,0,0,1,17.27-3.54q19.32,0,29.81,13.19t10.49,37q0,23.92-10.67,37.16T1140.08,262.92ZM1138,174.79q-14.88,0-21.53,8.23t-6.82,26.22v3.28q0,20.46,6.82,29.28t21.88,8.81A22.75,22.75,0,0,0,1158,240.42q7.13-10.18,7.13-28.08,0-18.15-7.13-27.85T1138,174.79Z"/><path class="cls-4" d="M1190.66,164.07h15.77l21.26,55.36q7,19,8.68,27.37h.71q1.14-4.52,4.82-15.46t24-67.27h15.77L1240,274.61q-6.2,16.39-14.48,23.26t-20.33,6.86a59.39,59.39,0,0,1-13.29-1.5V291.44a51.17,51.17,0,0,0,10.9,1.07q15.14,0,21.61-17l5.4-13.82Z"/></g></g></svg>