<?xml version="1.0" encoding="UTF-8" standalone="no"?>
<!DOCTYPE svg PUBLIC "-//W3C//DTD SVG 1.1//EN" "http://www.w3.org/Graphics/SVG/1.1/DTD/svg11.dtd">
<svg width="100%" height="100%" viewBox="0 0 621 512" version="1.1" xmlns="http://www.w3.org/2000/svg" xmlns:xlink="http://www.w3.org/1999/xlink" xml:space="preserve" xmlns:serif="http://www.serif.com/" style="fill-rule:evenodd;clip-rule:evenodd;stroke-miterlimit:10;">
    <g id="Layer_1_1_">
        <g>
            <g>
                <path d="M144.2,422.5L144.2,433C144.2,434.9 143.6,436.3 142.5,437.4C141.4,438.5 139.8,439 137.9,439C136,439 134.4,438.5 133.4,437.4C132.3,436.3 131.8,434.9 131.8,433L131.8,422.5L133.7,422.5L133.7,433.1C133.7,434.5 134.1,435.5 134.8,436.2C135.5,436.9 136.6,437.3 138.1,437.3C139.5,437.3 140.5,436.9 141.3,436.2C142.1,435.5 142.4,434.4 142.4,433.1L142.4,422.5L144.2,422.5Z" style="fill:white;fill-rule:nonzero;"/>
                <path d="M153.8,426.3C154.3,426.3 154.8,426.3 155.3,426.4L155,428.1C154.5,428 154.1,427.9 153.7,427.9C152.7,427.9 151.9,428.3 151.2,429.1C150.5,429.9 150.1,430.9 150.1,432.1L150.1,438.6L148.3,438.6L148.3,426.4L149.8,426.4L150,428.7L150.1,428.7C150.6,427.9 151.1,427.3 151.7,426.9C152.3,426.5 153,426.3 153.8,426.3Z" style="fill:white;fill-rule:nonzero;"/>
                <path d="M163.2,426.3C164.8,426.3 166,426.8 166.9,427.9C167.8,429 168.2,430.5 168.2,432.5C168.2,434.5 167.8,436.1 166.9,437.2C166,438.3 164.8,438.9 163.2,438.9C162.4,438.9 161.7,438.8 161,438.5C160.3,438.2 159.8,437.8 159.3,437.1L159.2,437.1L158.8,438.7L157.5,438.7L157.5,421.4L159.3,421.4L159.3,425.6C159.3,426.5 159.3,427.4 159.2,428.1L159.3,428.1C160.2,427 161.5,426.3 163.2,426.3ZM162.9,427.9C161.6,427.9 160.7,428.3 160.2,429C159.6,429.7 159.4,430.9 159.4,432.7C159.4,434.4 159.7,435.6 160.3,436.4C160.9,437.1 161.8,437.5 163,437.5C164.1,437.5 165,437.1 165.5,436.3C166,435.5 166.3,434.3 166.3,432.7C166.3,431.1 166,429.9 165.5,429.2C165,428.3 164.1,427.9 162.9,427.9Z" style="fill:white;fill-rule:nonzero;"/>
                <path d="M179,438.7L178.6,437L178.5,437C177.9,437.8 177.3,438.3 176.7,438.6C176.1,438.9 175.3,439 174.4,439C173.2,439 172.2,438.7 171.6,438.1C171,437.5 170.6,436.6 170.6,435.4C170.6,432.9 172.6,431.6 176.5,431.5L178.6,431.4L178.6,430.6C178.6,429.6 178.4,428.9 178,428.5C177.6,428 176.9,427.8 176,427.8C175,427.8 173.8,428.1 172.6,428.7L172,427.3C172.6,427 173.3,426.7 174,426.5C174.7,426.3 175.4,426.2 176.2,426.2C177.7,426.2 178.7,426.5 179.4,427.2C180.1,427.8 180.5,428.9 180.5,430.3L180.5,438.6L179,438.6L179,438.7ZM174.8,437.4C175.9,437.4 176.9,437.1 177.5,436.5C178.2,435.9 178.5,435 178.5,433.9L178.5,432.8L176.7,432.9C175.2,433 174.2,433.2 173.5,433.6C172.8,434 172.5,434.6 172.5,435.5C172.5,436.2 172.7,436.7 173.1,437C173.5,437.3 174.1,437.4 174.8,437.4Z" style="fill:white;fill-rule:nonzero;"/>
                <path d="M192.5,438.7L192.5,430.8C192.5,429.8 192.3,429.1 191.8,428.6C191.3,428.1 190.6,427.9 189.7,427.9C188.4,427.9 187.5,428.2 186.9,428.9C186.3,429.6 186,430.7 186,432.3L186,438.7L184.2,438.7L184.2,426.5L185.7,426.5L186,428.2L186.1,428.2C186.5,427.6 187,427.1 187.7,426.8C188.4,426.5 189.1,426.3 190,426.3C191.5,426.3 192.6,426.7 193.3,427.4C194,428.1 194.4,429.2 194.4,430.8L194.4,438.8L192.5,438.7Z" style="fill:white;fill-rule:nonzero;"/>
                <path d="M211.5,438.7L206,424.3L205.9,424.3C206,425.4 206.1,426.8 206.1,428.4L206.1,438.7L204.4,438.7L204.4,422.4L207.2,422.4L212.4,435.8L212.5,435.8L217.7,422.4L220.5,422.4L220.5,438.7L218.6,438.7L218.6,428.2C218.6,427 218.7,425.7 218.8,424.3L218.7,424.3L213.1,438.7L211.5,438.7Z" style="fill:white;fill-rule:nonzero;"/>
                <path d="M235.2,432.6C235.2,434.6 234.7,436.1 233.7,437.3C232.7,438.4 231.3,439 229.6,439C228.5,439 227.5,438.7 226.7,438.2C225.9,437.7 225.2,437 224.7,436C224.2,435 224,433.9 224,432.6C224,430.6 224.5,429.1 225.5,428C226.5,426.9 227.9,426.3 229.6,426.3C231.3,426.3 232.7,426.9 233.7,428C234.7,429.2 235.2,430.7 235.2,432.6ZM225.9,432.6C225.9,434.2 226.2,435.3 226.8,436.2C227.4,437 228.3,437.4 229.5,437.4C230.7,437.4 231.6,437 232.3,436.2C232.9,435.4 233.2,434.2 233.2,432.6C233.2,431 232.9,429.9 232.3,429.1C231.7,428.3 230.7,427.9 229.5,427.9C228.3,427.9 227.4,428.3 226.8,429.1C226.2,429.9 225.9,431.1 225.9,432.6Z" style="fill:white;fill-rule:nonzero;"/>
                <path d="M244,426.3C244.5,426.3 245,426.3 245.5,426.4L245.2,428.1C244.7,428 244.3,427.9 243.9,427.9C242.9,427.9 242.1,428.3 241.4,429.1C240.7,429.9 240.3,430.9 240.3,432.1L240.3,438.6L238.5,438.6L238.5,426.4L240,426.4L240.2,428.7L240.3,428.7C240.8,427.9 241.3,427.3 241.9,426.9C242.5,426.5 243.2,426.3 244,426.3Z" style="fill:white;fill-rule:nonzero;"/>
                <path d="M253.4,439C252.6,439 251.9,438.9 251.2,438.6C250.5,438.3 250,437.9 249.5,437.2L249.4,437.2C249.5,437.9 249.5,438.6 249.5,439.2L249.5,444.2L247.7,444.2L247.7,426.5L249.2,426.5L249.5,428.2L249.6,428.2C250.1,427.5 250.6,427.1 251.3,426.8C252,426.5 252.7,426.4 253.5,426.4C255.1,426.4 256.4,427 257.2,428.1C258.1,429.2 258.5,430.8 258.5,432.8C258.5,434.8 258.1,436.4 257.2,437.5C256.2,438.4 255,439 253.4,439ZM253.1,427.9C251.9,427.9 251,428.2 250.4,428.9C249.8,429.6 249.6,430.7 249.5,432.2L249.5,432.6C249.5,434.3 249.8,435.5 250.4,436.3C251,437 251.9,437.4 253.1,437.4C254.2,437.4 255,437 255.6,436.1C256.2,435.2 256.5,434.1 256.5,432.6C256.5,431.1 256.2,429.9 255.6,429.1C255,428.3 254.2,427.9 253.1,427.9Z" style="fill:white;fill-rule:nonzero;"/>
                <path d="M270,438.8L270,430.8C270,429.8 269.8,429.1 269.3,428.6C268.8,428.1 268.1,427.9 267.2,427.9C265.9,427.9 265,428.2 264.4,428.9C263.8,429.6 263.5,430.7 263.5,432.3L263.5,438.7L261.7,438.7L261.7,421.4L263.5,421.4L263.5,426.6C263.5,427.2 263.5,427.8 263.4,428.2L263.5,428.2C263.9,427.6 264.4,427.2 265.1,426.8C265.8,426.5 266.5,426.3 267.4,426.3C268.9,426.3 270,426.7 270.8,427.4C271.5,428.1 271.9,429.2 271.9,430.8L271.9,438.8L270,438.8Z" style="fill:white;fill-rule:nonzero;"/>
                <path d="M286.2,432.6C286.2,434.6 285.7,436.1 284.7,437.3C283.7,438.4 282.3,439 280.6,439C279.5,439 278.5,438.7 277.7,438.2C276.9,437.7 276.2,437 275.7,436C275.2,435 275,433.9 275,432.6C275,430.6 275.5,429.1 276.5,428C277.5,426.9 278.9,426.3 280.6,426.3C282.3,426.3 283.7,426.9 284.7,428C285.7,429.2 286.2,430.7 286.2,432.6ZM276.9,432.6C276.9,434.2 277.2,435.3 277.8,436.2C278.4,437 279.3,437.4 280.5,437.4C281.7,437.4 282.6,437 283.3,436.2C283.9,435.4 284.2,434.2 284.2,432.6C284.2,431 283.9,429.9 283.3,429.1C282.7,428.3 281.7,427.9 280.5,427.9C279.3,427.9 278.4,428.3 277.8,429.1C277.2,429.9 276.9,431.1 276.9,432.6Z" style="fill:white;fill-rule:nonzero;"/>
                <rect x="289.5" y="421.4" width="1.8" height="17.3" style="fill:white;fill-rule:nonzero;"/>
                <path d="M305.7,432.6C305.7,434.6 305.2,436.1 304.2,437.3C303.2,438.4 301.8,439 300.1,439C299,439 298,438.7 297.2,438.2C296.4,437.7 295.7,437 295.2,436C294.7,435 294.5,433.9 294.5,432.6C294.5,430.6 295,429.1 296,428C297,426.9 298.4,426.3 300.1,426.3C301.8,426.3 303.2,426.9 304.2,428C305.2,429.2 305.7,430.7 305.7,432.6ZM296.4,432.6C296.4,434.2 296.7,435.3 297.3,436.2C297.9,437 298.8,437.4 300,437.4C301.2,437.4 302.1,437 302.8,436.2C303.4,435.4 303.7,434.2 303.7,432.6C303.7,431 303.4,429.9 302.8,429.1C302.2,428.3 301.2,427.9 300,427.9C298.8,427.9 297.9,428.3 297.3,429.1C296.7,429.9 296.4,431.1 296.4,432.6Z" style="fill:white;fill-rule:nonzero;"/>
                <path d="M318.9,426.5L318.9,427.7L316.6,428C316.8,428.3 317,428.6 317.2,429C317.4,429.4 317.4,429.9 317.4,430.4C317.4,431.6 317,432.5 316.2,433.3C315.4,434 314.3,434.4 312.8,434.4C312.4,434.4 312.1,434.4 311.8,434.3C311,434.7 310.6,435.2 310.6,435.9C310.6,436.2 310.7,436.5 311,436.6C311.3,436.7 311.7,436.8 312.4,436.8L314.6,436.8C315.9,436.8 316.9,437.1 317.6,437.6C318.3,438.2 318.7,439 318.7,440C318.7,441.3 318.2,442.4 317.1,443.1C316,443.8 314.4,444.2 312.4,444.2C310.8,444.2 309.6,443.9 308.7,443.3C307.8,442.7 307.4,441.9 307.4,440.8C307.4,440.1 307.6,439.4 308.1,438.9C308.6,438.4 309.2,438 310.1,437.8C309.8,437.7 309.5,437.4 309.3,437.1C309.1,436.8 309,436.5 309,436.1C309,435.7 309.1,435.3 309.4,434.9C309.6,434.6 310,434.2 310.5,433.9C309.9,433.6 309.4,433.2 309,432.6C308.6,432 308.4,431.3 308.4,430.5C308.4,429.2 308.8,428.1 309.6,427.4C310.4,426.7 311.5,426.3 313,426.3C313.6,426.3 314.2,426.4 314.7,426.5L318.9,426.5ZM309.2,440.8C309.2,441.5 309.5,442 310,442.3C310.5,442.6 311.4,442.8 312.4,442.8C313.9,442.8 315.1,442.6 315.8,442.1C316.5,441.6 316.9,441 316.9,440.2C316.9,439.5 316.7,439.1 316.3,438.8C315.9,438.5 315.1,438.4 314,438.4L311.8,438.4C311,438.4 310.3,438.6 309.8,439C309.4,439.5 309.2,440 309.2,440.8ZM310.2,430.4C310.2,431.3 310.4,431.9 310.9,432.3C311.4,432.7 312.1,433 312.9,433C314.7,433 315.6,432.1 315.6,430.4C315.6,428.6 314.7,427.7 312.9,427.7C312,427.7 311.4,427.9 310.9,428.4C310.4,428.8 310.2,429.5 310.2,430.4Z" style="fill:white;fill-rule:nonzero;"/>
                <path d="M319.5,426.5L321.5,426.5L324.2,433.5C324.8,435.1 325.1,436.2 325.3,436.9L325.4,436.9C325.5,436.5 325.7,435.9 326,435C326.3,434.1 327.3,431.3 329,426.5L331,426.5L325.8,440.4C325.3,441.8 324.7,442.7 324,443.3C323.3,443.9 322.5,444.2 321.4,444.2C320.8,444.2 320.3,444.1 319.7,444L319.7,442.5C320.1,442.6 320.6,442.6 321.1,442.6C322.4,442.6 323.3,441.9 323.8,440.5L324.5,438.8L319.5,426.5Z" style="fill:white;fill-rule:nonzero;"/>
                <path d="M346.3,438.7L340.8,424.3L340.7,424.3C340.8,425.4 340.9,426.8 340.9,428.4L340.9,438.7L339.2,438.7L339.2,422.4L342,422.4L347.2,435.8L347.3,435.8L352.5,422.4L355.3,422.4L355.3,438.7L353.4,438.7L353.4,428.2C353.4,427 353.5,425.7 353.6,424.3L353.5,424.3L347.9,438.7L346.3,438.7Z" style="fill:white;fill-rule:nonzero;"/>
                <path d="M364.5,439C362.7,439 361.3,438.5 360.2,437.4C359.1,436.3 358.6,434.8 358.6,432.8C358.6,430.8 359.1,429.3 360.1,428.1C361.1,426.9 362.4,426.4 364,426.4C365.5,426.4 366.7,426.9 367.6,427.9C368.5,428.9 368.9,430.2 368.9,431.9L368.9,433.1L360.5,433.1C360.5,434.5 360.9,435.6 361.6,436.4C362.3,437.1 363.3,437.5 364.5,437.5C365.8,437.5 367.1,437.2 368.4,436.7L368.4,438.3C367.7,438.6 367.1,438.8 366.5,438.9C365.9,439 365.4,439 364.5,439ZM364,427.9C363,427.9 362.2,428.2 361.7,428.9C361.1,429.5 360.8,430.4 360.7,431.5L367.1,431.5C367.1,430.3 366.8,429.4 366.3,428.8C365.8,428.2 365,427.9 364,427.9Z" style="fill:white;fill-rule:nonzero;"/>
                <path d="M379.7,438.7L379.3,437L379.2,437C378.6,437.8 378,438.3 377.4,438.6C376.8,438.9 376,439 375.1,439C373.9,439 372.9,438.7 372.3,438.1C371.6,437.5 371.3,436.6 371.3,435.4C371.3,432.9 373.3,431.6 377.2,431.5L379.3,431.4L379.3,430.6C379.3,429.6 379.1,428.9 378.7,428.5C378.3,428 377.6,427.8 376.7,427.8C375.7,427.8 374.5,428.1 373.3,428.7L372.7,427.3C373.3,427 374,426.7 374.7,426.5C375.4,426.3 376.1,426.2 376.9,426.2C378.4,426.2 379.4,426.5 380.1,427.2C380.8,427.9 381.2,428.9 381.2,430.3L381.2,438.6L379.7,438.6L379.7,438.7ZM375.5,437.4C376.6,437.4 377.6,437.1 378.2,436.5C378.9,435.9 379.2,435 379.2,433.9L379.2,432.8L377.4,432.9C375.9,433 374.9,433.2 374.2,433.6C373.6,434 373.2,434.6 373.2,435.5C373.2,436.2 373.4,436.7 373.8,437C374.2,437.3 374.8,437.4 375.5,437.4Z" style="fill:white;fill-rule:nonzero;"/>
                <path d="M392.7,435.4C392.7,436.5 392.3,437.4 391.4,438C390.6,438.6 389.4,438.9 387.8,438.9C386.2,438.9 384.9,438.6 384,438.1L384,436.4C384.6,436.7 385.2,436.9 385.9,437.1C386.6,437.3 387.2,437.4 387.8,437.4C388.8,437.4 389.5,437.2 390,436.9C390.5,436.6 390.8,436.1 390.8,435.5C390.8,435 390.6,434.6 390.2,434.3C389.8,434 389,433.6 387.8,433.1C386.7,432.7 385.9,432.3 385.4,432C384.9,431.7 384.6,431.3 384.3,430.9C384.1,430.5 383.9,430 383.9,429.5C383.9,428.5 384.3,427.7 385.1,427.1C385.9,426.5 387,426.2 388.4,426.2C389.7,426.2 391,426.5 392.2,427L391.5,428.5C390.3,428 389.2,427.7 388.2,427.7C387.3,427.7 386.7,427.8 386.2,428.1C385.8,428.4 385.5,428.8 385.5,429.2C385.5,429.5 385.6,429.8 385.7,430C385.9,430.2 386.1,430.4 386.5,430.7C386.9,431 387.6,431.2 388.6,431.6C390,432.1 391,432.7 391.5,433.2C392,433.7 392.7,434.6 392.7,435.4Z" style="fill:white;fill-rule:nonzero;"/>
                <path d="M397.4,426.5L397.4,434.4C397.4,435.4 397.6,436.1 398.1,436.6C398.6,437.1 399.3,437.3 400.2,437.3C401.5,437.3 402.4,437 403,436.3C403.6,435.6 403.9,434.5 403.9,432.9L403.9,426.5L405.7,426.5L405.7,438.7L404.2,438.7L403.9,437.1L403.8,437.1C403.4,437.7 402.9,438.2 402.2,438.5C401.5,438.8 400.8,439 399.9,439C398.4,439 397.3,438.6 396.6,437.9C395.9,437.2 395.5,436.1 395.5,434.5L395.5,426.5L397.4,426.5Z" style="fill:white;fill-rule:nonzero;"/>
                <path d="M415.3,426.3C415.8,426.3 416.3,426.3 416.8,426.4L416.5,428.1C416,428 415.5,427.9 415.2,427.9C414.2,427.9 413.4,428.3 412.7,429.1C412,429.9 411.6,430.9 411.6,432.1L411.6,438.6L409.8,438.6L409.8,426.4L411.3,426.4L411.5,428.7L411.6,428.7C412.1,427.9 412.6,427.3 413.2,426.9C413.8,426.5 414.5,426.3 415.3,426.3Z" style="fill:white;fill-rule:nonzero;"/>
                <path d="M418.8,423.2C418.8,422.8 418.9,422.5 419.1,422.3C419.3,422.1 419.6,422 419.9,422C420.2,422 420.5,422.1 420.7,422.3C420.9,422.5 421,422.8 421,423.2C421,423.6 420.9,423.9 420.7,424.1C420.5,424.3 420.2,424.4 419.9,424.4C419.6,424.4 419.3,424.3 419.1,424.1C418.9,424 418.8,423.7 418.8,423.2ZM420.8,438.7L419,438.7L419,426.5L420.8,426.5L420.8,438.7Z" style="fill:white;fill-rule:nonzero;"/>
                <path d="M433.1,438.7L433.1,430.8C433.1,429.8 432.9,429.1 432.4,428.6C431.9,428.1 431.2,427.9 430.3,427.9C429,427.9 428.1,428.2 427.5,428.9C426.9,429.6 426.6,430.7 426.6,432.3L426.6,438.7L424.8,438.7L424.8,426.5L426.3,426.5L426.6,428.2L426.7,428.2C427.1,427.6 427.6,427.1 428.3,426.8C429,426.5 429.7,426.3 430.6,426.3C432.1,426.3 433.2,426.7 433.9,427.4C434.6,428.1 435,429.2 435,430.8L435,438.8L433.1,438.7Z" style="fill:white;fill-rule:nonzero;"/>
                <path d="M448.7,426.5L448.7,427.7L446.4,428C446.6,428.3 446.8,428.6 447,429C447.2,429.4 447.2,429.9 447.2,430.4C447.2,431.6 446.8,432.5 446,433.3C445.2,434 444.1,434.4 442.6,434.4C442.2,434.4 441.9,434.4 441.6,434.3C440.8,434.7 440.4,435.2 440.4,435.9C440.4,436.2 440.5,436.5 440.8,436.6C441.1,436.7 441.5,436.8 442.2,436.8L444.4,436.8C445.7,436.8 446.7,437.1 447.4,437.6C448.1,438.2 448.5,439 448.5,440C448.5,441.3 448,442.4 446.9,443.1C445.8,443.8 444.2,444.2 442.2,444.2C440.6,444.2 439.4,443.9 438.5,443.3C437.6,442.7 437.2,441.9 437.2,440.8C437.2,440.1 437.4,439.4 437.9,438.9C438.4,438.4 439,438 439.9,437.8C439.6,437.7 439.3,437.4 439.1,437.1C438.9,436.8 438.8,436.5 438.8,436.1C438.8,435.7 438.9,435.3 439.2,434.9C439.4,434.6 439.8,434.2 440.3,433.9C439.7,433.6 439.2,433.2 438.8,432.6C438.4,432 438.2,431.3 438.2,430.5C438.2,429.2 438.6,428.1 439.4,427.4C440.2,426.7 441.3,426.3 442.8,426.3C443.4,426.3 444,426.4 444.5,426.5L448.7,426.5ZM439,440.8C439,441.5 439.3,442 439.8,442.3C440.4,442.6 441.2,442.8 442.2,442.8C443.7,442.8 444.9,442.6 445.6,442.1C446.3,441.6 446.7,441 446.7,440.2C446.7,439.5 446.5,439.1 446.1,438.8C445.7,438.5 444.9,438.4 443.8,438.4L441.6,438.4C440.8,438.4 440.1,438.6 439.6,439C439.2,439.5 439,440 439,440.8ZM440,430.4C440,431.3 440.2,431.9 440.7,432.3C441.2,432.7 441.9,433 442.7,433C444.5,433 445.4,432.1 445.4,430.4C445.4,428.6 444.5,427.7 442.7,427.7C441.8,427.7 441.2,427.9 440.7,428.4C440.2,428.8 440,429.5 440,430.4Z" style="fill:white;fill-rule:nonzero;"/>
                <path d="M462.4,438.7L460.5,438.7L460.5,424.1L455.3,424.1L455.3,422.4L467.5,422.4L467.5,424.1L462.3,424.1L462.3,438.7L462.4,438.7Z" style="fill:white;fill-rule:nonzero;"/>
                <path d="M480.3,432.6C480.3,434.6 479.8,436.1 478.8,437.3C477.8,438.5 476.4,439 474.7,439C473.6,439 472.6,438.7 471.8,438.2C471,437.7 470.3,437 469.8,436C469.3,435 469.1,433.9 469.1,432.6C469.1,430.6 469.6,429.1 470.6,428C471.6,426.9 473,426.3 474.7,426.3C476.4,426.3 477.8,426.9 478.8,428C479.8,429.1 480.3,430.7 480.3,432.6ZM471,432.6C471,434.2 471.3,435.3 471.9,436.2C472.5,437 473.4,437.4 474.6,437.4C475.8,437.4 476.7,437 477.4,436.2C478.1,435.4 478.3,434.2 478.3,432.6C478.3,431 478,429.9 477.4,429.1C476.8,428.3 475.8,427.9 474.6,427.9C473.4,427.9 472.5,428.3 471.9,429.1C471.3,429.9 471,431.1 471,432.6Z" style="fill:white;fill-rule:nonzero;"/>
                <path d="M494,432.6C494,434.6 493.5,436.1 492.5,437.3C491.5,438.5 490.1,439 488.4,439C487.3,439 486.3,438.7 485.5,438.2C484.7,437.7 484,437 483.5,436C483,435 482.8,433.9 482.8,432.6C482.8,430.6 483.3,429.1 484.3,428C485.3,426.9 486.7,426.3 488.4,426.3C490.1,426.3 491.5,426.9 492.5,428C493.5,429.1 494,430.7 494,432.6ZM484.7,432.6C484.7,434.2 485,435.3 485.6,436.2C486.2,437 487.1,437.4 488.3,437.4C489.5,437.4 490.4,437 491.1,436.2C491.8,435.4 492,434.2 492,432.6C492,431 491.7,429.9 491.1,429.1C490.5,428.3 489.5,427.9 488.3,427.9C487.1,427.9 486.2,428.3 485.6,429.1C485.1,429.9 484.7,431.1 484.7,432.6Z" style="fill:white;fill-rule:nonzero;"/>
                <rect x="497.3" y="421.4" width="1.8" height="17.3" style="fill:white;fill-rule:nonzero;"/>
                <path d="M504.9,432.5C505.2,432 505.7,431.5 506.4,430.7L510.3,426.5L512.5,426.5L507.6,431.7L512.9,438.7L510.7,438.7L506.4,432.9L505,434.1L505,438.7L503,438.7L503,421.4L504.8,421.4L504.8,430.6C504.9,431 504.8,431.6 504.9,432.5Z" style="fill:white;fill-rule:nonzero;"/>
                <path d="M514.8,423.2C514.8,422.8 514.9,422.5 515.1,422.3C515.3,422.1 515.6,422 515.9,422C516.2,422 516.5,422.1 516.7,422.3C516.9,422.5 517,422.8 517,423.2C517,423.6 516.9,423.9 516.7,424.1C516.5,424.3 516.2,424.4 515.9,424.4C515.6,424.4 515.3,424.3 515.1,424.1C514.9,424 514.8,423.7 514.8,423.2ZM516.8,438.7L515,438.7L515,426.5L516.8,426.5L516.8,438.7Z" style="fill:white;fill-rule:nonzero;"/>
                <path d="M524.7,437.4C525,437.4 525.3,437.4 525.6,437.3C525.9,437.3 526.1,437.2 526.3,437.1L526.3,438.5C526.1,438.6 525.8,438.7 525.4,438.7C525,438.8 524.7,438.8 524.3,438.8C521.9,438.8 520.8,437.6 520.8,435.1L520.8,428L519.1,428L519.1,427.1L520.8,426.3L521.6,423.7L522.7,423.7L522.7,426.5L526.2,426.5L526.2,427.9L522.7,427.9L522.7,435.1C522.7,435.8 522.9,436.4 523.2,436.8C523.6,437.2 524.1,437.4 524.7,437.4Z" style="fill:white;fill-rule:nonzero;"/>
            </g>
        </g>
    </g>
    <g id="cells">
        <path d="M244.4,133.6L224.9,138.9L222.5,138.4L214.6,108.8L214.2,106.3L213.8,104.6L213.5,102.9L213.5,102.1L213.2,97.8L212.5,93.6L212,92L211.5,89.3L211.2,88.1L210.6,85.1L210.4,84.2L209.7,80.3L208.8,70.4L215.9,65.7L220.1,63.5L224.3,62L228.5,61L229.6,60.9L232.7,60.1L234.3,59.9L239,58.7L243.5,56.9L247.9,54.4L252.2,51.3L252.3,51.3L274.5,56.5L277.2,57.4L278.4,70.9L279.1,74.5L279.5,75.7L279.9,78L280.4,80L281.8,89.7L281.7,91.7L282.6,94.9L283.6,97.6L283.8,98.8L286.9,122.8L278.8,126.7L274.6,128.3L270.3,129.6L265.9,130.6L265.7,130.6L262.1,131.4L261.6,131.5L257.2,132.4L252.8,132.9L248.3,133.1L247.4,133.1L244.4,133.6" style="fill:rgb(231,237,239);fill-rule:nonzero;stroke:black;stroke-width:6px;"/>
        <path d="M179.4,150L178.5,150.2L175.4,150.8L155.5,148.9L151.4,148.3L147.3,147.4L143.1,146.3L137.4,144.5L140.1,122.3L140.3,117.3L140.1,112.4L139.5,107.6L138.5,102.9L138.5,102.8L137.5,98.1L136.1,93.5L134,88.5L133.7,86.9L129.5,43.7L135.1,39.5L138.1,38.3L143,36.7L147.7,39.3L154.1,43.2L157.4,45.5L163,48.9L168.5,51.8L173.9,54.1L189.3,59.3L189.9,59.4L208.7,70.5L209.6,80.4L210.3,84.3L210.5,85.2L211.1,88.2L211.4,89.4L212,92L212.4,93.5L213.1,97.7L213.4,102L213.4,102.8L213.7,104.5L214.1,106.2L214.5,108.7L222.4,138.3L211.5,143.2L206.8,144.9L202.1,146.2L198,147L197.4,147.2L193.9,147.8L192.6,148.1L187.8,149L182.8,149.5L181.4,149.5L179.4,150" style="fill:rgb(231,237,239);fill-rule:nonzero;stroke:black;stroke-width:6px;"/>
        <path d="M88.5,156.9L74.4,144.4L70.6,140.4L67.4,136.3L64.8,132.1L62.8,127.8L61.3,123.3L60.6,119.8L53.5,108.4L50.9,105L48.6,102.6L48.8,101.5L50.5,84.4L51.3,80.2L52.5,75.9L54.1,71.6L57.4,64.2L61.6,46.7L74,45.7L74.1,45.7L85.2,45.5L93,44.3L97.3,43.9L101.6,43.7L106,43.7L119.7,44.4L129.5,43.8L133.7,87L134,88.6L136.1,93.6L137.5,98.2L138.5,102.9L138.5,103L139.5,107.7L140.1,112.5L140.3,117.4L140.1,122.4L137.4,144.6L118.6,154.1L114.6,156.4L110.6,159L106.7,161.8L105.9,162.4L102.1,161.5L97.4,160.7L92.8,160.1L91.7,160L88.5,156.9" style="fill:rgb(231,237,239);fill-rule:nonzero;stroke:black;stroke-width:6px;"/>
        <path d="M357.3,161.9L358.6,166.2L362.2,174.3L364.5,193.9L344.8,196.1L340.1,197.1L338.1,197.8L335.5,198.4L333.6,199L330.8,199.6L329.1,200.2L326.2,200.9L324.6,201.4L321.5,202.1L320.1,202.6L316.9,203.4L312.3,205L307.9,207L307.7,206.4L298.9,188.1L292.8,182.4L294.4,180.4L291.9,177.5L293.3,176L291.1,172.7L292.1,171.6L290.3,167.8L290.9,167.2L289.6,162.9L288.9,158.1L292,155.6L295.3,147.6L297.7,135L298.4,126.4L300.9,126.4L304.4,126.2L310.5,124.8L315,124.7L319.1,124.3L323.2,123.6L325.4,123.1L329,122.5L332.6,122.1L343.2,121.7L346.8,133.4L352.6,144.7L354.3,149.5L355,153L355.5,154.4L356,157.4L356.6,159.3L357.3,161.9" style="fill:rgb(231,237,239);fill-rule:nonzero;stroke:black;stroke-width:6px;"/>
        <path d="M269.8,213.3L257.1,214.3L252.6,214.2L247.9,213.7L246.9,213.5L244.4,197L241.4,191L240,186.8L238.2,178.2L238.2,178L237.3,173.9L237.3,173.4L236.3,168.9L225,138.7L244.5,133.4L247.3,132.8L248.2,132.8L252.7,132.6L257.1,132.1L261.5,131.2L262,131.1L265.6,130.3L265.8,130.3L270.2,129.3L274.5,128L278.7,126.4L286.8,122.5L298.6,126.2L297.9,134.8L295.5,147.4L292.2,155.4L289.1,157.9L289.8,162.7L291.1,167L290.5,167.6L292.3,171.4L291.3,172.5L293.5,175.8L292.1,177.3L294.6,180.2L293,182.2L299.1,187.9L307.9,206.2L308.1,206.8L297.4,215L294,218L293.5,217.8L288.6,216L283.8,214.6L279.1,213.7L274.5,213.2L269.8,213.3" style="fill:rgb(231,237,239);fill-rule:nonzero;stroke:black;stroke-width:6px;"/>
        <path d="M357.3,161.9L358.6,166.2L362.2,174.3L364.5,193.9L344.8,196.1L340.1,197.1L338.1,197.8L335.5,198.4L333.6,199L330.8,199.6L329.1,200.2L326.2,200.9L324.6,201.4L321.5,202.1L320.1,202.6L316.9,203.4L312.3,205L307.9,207L307.7,206.4L298.9,188.1L292.8,182.4L294.4,180.4L291.9,177.5L293.3,176L291.1,172.7L292.1,171.6L290.3,167.8L290.9,167.2L289.6,162.9L288.9,158.1L292,155.6L295.3,147.6L297.7,135L298.4,126.4L300.9,126.4L304.4,126.2L310.5,124.8L315,124.7L319.1,124.3L323.2,123.6L325.4,123.1L329,122.5L332.6,122.1L343.2,121.7L346.8,133.4L352.6,144.7L354.3,149.5L355,153L355.5,154.4L356,157.4L356.6,159.3L357.3,161.9" style="fill:rgb(231,237,239);fill-rule:nonzero;stroke:black;stroke-width:6px;"/>
        <path d="M269.8,213.3L257.1,214.3L252.6,214.2L247.9,213.7L246.9,213.5L244.4,197L241.4,191L240,186.8L238.2,178.2L238.2,178L237.3,173.9L237.3,173.4L236.3,168.9L225,138.7L244.5,133.4L247.3,132.8L248.2,132.8L252.7,132.6L257.1,132.1L261.5,131.2L262,131.1L265.6,130.3L265.8,130.3L270.2,129.3L274.5,128L278.7,126.4L286.8,122.5L298.6,126.2L297.9,134.8L295.5,147.4L292.2,155.4L289.1,157.9L289.8,162.7L291.1,167L290.5,167.6L292.3,171.4L291.3,172.5L293.5,175.8L292.1,177.3L294.6,180.2L293,182.2L299.1,187.9L307.9,206.2L308.1,206.8L297.4,215L294,218L293.5,217.8L288.6,216L283.8,214.6L279.1,213.7L274.5,213.2L269.8,213.3" style="fill:rgb(231,237,239);fill-rule:nonzero;stroke:black;stroke-width:6px;"/>
        <path d="M200.2,227.6L192.9,216L186.7,209.3L182.6,207.9L181.9,203.6L181.7,203.5L180.9,199.2L180.8,199.2L180,194.9L179.9,194.9L179,190.5L178.9,190.5L178,186.1L173.6,165.6L174.9,155.1L175.1,150.9L178.2,150.3L179.1,150.1L181,149.7L182.4,149.7L187.4,149.2L192.2,148.3L193.5,148L197,147.4L197.6,147.2L201.7,146.4L206.4,145.1L211.1,143.4L222,138.5L224.4,139L235.7,169.2L236.7,173.7L236.7,174.2L237.6,178.3L237.6,178.5L239.4,187.1L240.8,191.3L243.8,197.3L246.3,213.8L243.3,215.8L242.8,216.1L231.6,220.1L228.2,221L227,221.2L222.5,222.6L218.1,224.4L213.8,226.6L212.4,227.5L209.2,227.4L204.5,227.7L200.1,228.4L200.2,227.6" style="fill:rgb(231,237,239);fill-rule:nonzero;stroke:black;stroke-width:6px;"/>
        <path d="M169.3,238.8L152.2,243.6L151,242.3L148.3,239.2L148,238.8L141.8,224.1L140.7,221L139.6,216.9L137.9,212.4L137.7,212.1L121.9,196.8L118,193.5L115.4,191.6L111.3,188.1L105.9,162.4L106.7,161.8L110.6,159L114.6,156.4L118.6,154.1L137.4,144.6L143.1,146.4L147.3,147.5L151.4,148.4L155.5,149L175.4,150.9L175.2,155.1L173.9,165.6L178.3,186.1L179.2,190.5L179.3,190.5L180.2,194.9L180.3,194.9L181.1,199.2L181.2,199.2L182,203.5L182.2,203.6L182.9,207.9L187,209.3L193.2,216L200.5,227.6L200.9,228.3L196,230.9L191.9,232.6L187.7,234L185.5,234.5L183.5,235.1L181.6,235.5L179.2,236.2L177.6,236.5L174.9,237.3L173.7,237.5L170.6,238.4L169.3,238.8" style="fill:rgb(231,237,239);fill-rule:nonzero;stroke:black;stroke-width:6px;"/>
        <path d="M200.2,227.6L192.9,216L186.7,209.3L182.6,207.9L181.9,203.6L181.7,203.5L180.9,199.2L180.8,199.2L180,194.9L179.9,194.9L179,190.5L178.9,190.5L178,186.1L173.6,165.6L174.9,155.1L175.1,150.9L178.2,150.3L179.1,150.1L181,149.7L182.4,149.7L187.4,149.2L192.2,148.3L193.5,148L197,147.4L197.6,147.2L201.7,146.4L206.4,145.1L211.1,143.4L222,138.5L224.4,139L235.7,169.2L236.7,173.7L236.7,174.2L237.6,178.3L237.6,178.5L239.4,187.1L240.8,191.3L243.8,197.3L246.3,213.8L243.3,215.8L242.8,216.1L231.6,220.1L228.2,221L227,221.2L222.5,222.6L218.1,224.4L213.8,226.6L212.4,227.5L209.2,227.4L204.5,227.7L200.1,228.4L200.2,227.6" style="fill:rgb(231,237,239);fill-rule:nonzero;stroke:black;stroke-width:6px;"/>
        <path d="M169.3,238.8L152.2,243.6L151,242.3L148.3,239.2L148,238.8L141.8,224.1L140.7,221L139.6,216.9L137.9,212.4L137.7,212.1L121.9,196.8L118,193.5L115.4,191.6L111.3,188.1L105.9,162.4L106.7,161.8L110.6,159L114.6,156.4L118.6,154.1L137.4,144.6L143.1,146.4L147.3,147.5L151.4,148.4L155.5,149L175.4,150.9L175.2,155.1L173.9,165.6L178.3,186.1L179.2,190.5L179.3,190.5L180.2,194.9L180.3,194.9L181.1,199.2L181.2,199.2L182,203.5L182.2,203.6L182.9,207.9L187,209.3L193.2,216L200.5,227.6L200.9,228.3L196,230.9L191.9,232.6L187.7,234L185.5,234.5L183.5,235.1L181.6,235.5L179.2,236.2L177.6,236.5L174.9,237.3L173.7,237.5L170.6,238.4L169.3,238.8" style="fill:rgb(231,237,239);fill-rule:nonzero;stroke:black;stroke-width:6px;"/>
        <path d="M52.6,247.6L48.9,243.5L36.8,226.6L33.6,222.9L30,219.3L26,215.9L9,203.4L30.4,187.6L34.6,185L38.8,182.8L43.1,181L47.5,179.6L52,178.6L53.2,178.4L58,177.3L62.7,175.7L67.3,173.7L91.7,160L92.8,160.1L97.4,160.7L102.1,161.5L105.9,162.4L111.3,188.1L106.2,196L104.4,199.3L103.5,200.7L101.1,204.9L100.8,205.4L98,210.1L97.8,210.6L94.4,216.1L90.7,220.4L86.6,223.6L82.2,225.7L79.3,226.3L75.6,228L75,228.1L70.8,230.2L66.9,233.2L54.9,246.7L53.2,248.4L52.6,247.6" style="fill:rgb(231,237,239);fill-rule:nonzero;stroke:black;stroke-width:6px;"/>
        <path d="M304,274.3L303.9,264.2L303.8,262.3L301,254L299.1,242.7L298,238.3L296.6,234.1L295.5,229.5L293.7,218.2L297.1,215.2L307.8,207L312.2,205L316.8,203.4L320,202.6L321.4,202.1L324.5,201.4L326.1,200.9L329,200.2L330.7,199.6L333.5,199L335.4,198.4L338,197.8L340,197.1L344.7,196.1L364.4,193.9L369.5,197.2L373.6,213.6L374,214.7L374.8,217.9L374.9,218.2L375.9,221.7L376,222.1L377.3,226.3L378.9,230.4L380.9,234.4L381.4,235.2L382.3,238.6L391.1,263.1L381.3,277.8L374.4,281L370.2,282.7L366,284.1L365.9,284.1L357.3,286.9L357.2,286.9L352.8,288.3L351.3,288.9L309.2,276L304.8,274.4L304,274.3" style="fill:rgb(231,237,239);fill-rule:nonzero;stroke:black;stroke-width:6px;"/>
        <path d="M163.5,391.7L161.5,392.5L158.8,393.2L156.9,393.9L154.1,394.6L152.2,395.3L149.3,396L147.5,396.7L142.8,397.9L137.9,398.5L132.9,398.6L122.6,397.7L120.7,394.6L114.5,382.3L112.2,378.5L109.5,374.8L106.5,371.2L103.2,367.7L97,362L96.5,360L95.7,355L95.2,349.9L95,345.5L119,336L130.8,334L135.6,332.6L135.9,332.5L140.2,331.2L140.3,331.2L144.5,329.9L145,329.8L176.1,319.9L189.9,327.4L192.2,329L186.8,342.5L185.2,347.5L184,352.4L183.2,357.2L182.8,361.8L182.9,380.1L182.4,385.1L182,387.2L163.5,391.7" style="fill:rgb(231,237,239);fill-rule:nonzero;stroke:black;stroke-width:6px;"/>
        <path d="M260,296.2L245.4,298.5L244.5,298.6L234.9,280.3L228.5,273.1L225.8,269.1L223.9,264.9L223.1,261.9L222.5,260.5L222,258.5L221,256L220.8,254.9L219.7,251.5L218.7,245.2L213,227.3L214.4,226.4L218.7,224.2L223.1,222.4L227.6,221L228.8,220.8L232.2,219.9L243.4,215.9L243.9,215.6L246.9,213.6L247.9,213.8L252.6,214.3L257.1,214.4L269.8,213.4L274.3,213.5L278.9,214L283.6,214.9L288.4,216.3L293.3,218.1L293.8,218.3L295.6,229.6L296.7,234.2L298.1,238.4L299.2,242.8L301,254L303.8,262.3L303.9,264.2L304,274.3L287.1,288.3L278.5,292.9L277.7,292.9L273.1,293.4L268.6,294.1L264.2,295.1L260.8,296.1L260,296.2" style="fill:rgb(231,237,239);fill-rule:nonzero;stroke:black;stroke-width:6px;"/>
        <path d="M225.7,269.1L228.4,273.1L234.8,280.3L244.4,298.6L242.2,300.3L222.4,314L219,316.7L215.6,319.7L212.3,322.9L209.7,325.8L208.9,326.1L204.5,327.2L200.1,328.1L195.6,328.7L192.4,329L190.1,327.4L176.3,319.9L168.5,303.6L164.6,298.4L162.1,294.4L160,290.2L158.3,285.9L157.6,283.3L156.9,281.5L156.4,279.6L155.1,276L153.5,272.5L148.3,262.9L152.1,243.7L169.2,238.9L170.1,238.7L173.2,237.8L174.4,237.6L177.1,236.8L178.7,236.5L181.1,235.8L183,235.4L185,234.8L187.2,234.3L191.4,232.9L195.5,231.2L200.4,228.6L204.8,227.9L209.5,227.6L212.7,227.7L218.4,245.6L219.4,251.9L220.5,255.3L220.7,256.4L221.6,258.8L222.1,260.8L222.7,262.2L223.5,265.2L225.7,269.1" style="fill:rgb(231,237,239);fill-rule:nonzero;stroke:black;stroke-width:6px;"/>
        <path d="M52.6,247.6L48.9,243.5L36.8,226.6L33.6,222.9L30,219.3L26,215.9L9,203.4L30.4,187.6L34.6,185L38.8,182.8L43.1,181L47.5,179.6L52,178.6L53.2,178.4L58,177.3L62.7,175.7L67.3,173.7L91.7,160L92.8,160.1L97.4,160.7L102.1,161.5L105.9,162.4L111.3,188.1L106.2,196L104.4,199.3L103.5,200.7L101.1,204.9L100.8,205.4L98,210.1L97.8,210.6L94.4,216.1L90.7,220.4L86.6,223.6L82.2,225.7L79.3,226.3L75.6,228L75,228.1L70.8,230.2L66.9,233.2L54.9,246.7L53.2,248.4L52.6,247.6" style="fill:rgb(231,237,239);fill-rule:nonzero;stroke:black;stroke-width:6px;"/>
        <path d="M150.9,242.3L152.1,243.6L148.3,262.8L126.5,269.9L125.6,270.1L122,271.3L121,271.5L117.6,272.6L116.4,272.8L113.1,273.9L111.8,274.2L108.7,275.3L107.2,275.6L102.7,277.2L98.4,279.4L75.5,295.2L74,293.5L70.8,289.2L68,284.8L65.6,280.3L63.6,275.7L62,271L61.6,269.3L60.6,266.2L60.5,265.8L58.2,261.7L56.1,257.1L54.5,252.4L54,250.5L53.3,248.4L55,246.7L67,233.2L70.9,230.2L75.1,228.1L75.7,228L79.4,226.3L82.3,225.7L86.7,223.6L90.8,220.4L94.5,216.1L97.9,210.6L98,210L100.8,205.3L101.1,204.8L103.5,200.6L104.4,199.2L106.2,195.9L111.3,188L115.4,191.5L118,193.4L121.9,196.7L137.7,212.1L137.9,212.4L139.6,216.9L140.7,221L141.8,224.1L148,238.8L148.3,239.2L150.9,242.3" style="fill:rgb(231,237,239);fill-rule:nonzero;stroke:black;stroke-width:6px;"/>
        <path d="M86.6,331.5L84.6,326.9L82.9,322.2L81.9,318.5L81.5,317.4L80.6,314L80.1,312.6L79.3,309.5L78.7,307.8L78,305L77.3,303L76.1,298.2L75.6,295.3L98.5,279.5L102.8,277.3L107.3,275.7L108.8,275.4L111.9,274.3L113.2,274L116.5,272.9L117.7,272.7L121.1,271.6L122.1,271.4L125.7,270.2L126.6,270L148.4,262.9L153.6,272.5L155.2,276L156.5,279.6L157,281.5L157.7,283.3L158.4,285.9L160.1,290.2L162.2,294.4L164.7,298.4L168.6,303.6L176.4,319.9L145.3,329.8L144.8,329.9L140.6,331.2L140.5,331.2L136.2,332.5L135.9,332.6L131.1,334L119.3,336L95.3,345.5L94.8,344.9L91.8,340.6L89,336L86.6,331.5" style="fill:rgb(231,237,239);fill-rule:nonzero;stroke:black;stroke-width:6px;"/>
        <path d="M52.6,247.6L48.9,243.5L36.8,226.6L33.6,222.9L30,219.3L26,215.9L9,203.4L30.4,187.6L34.6,185L38.8,182.8L43.1,181L47.5,179.6L52,178.6L53.2,178.4L58,177.3L62.7,175.7L67.3,173.7L91.7,160L92.8,160.1L97.4,160.7L102.1,161.5L105.9,162.4L111.3,188.1L106.2,196L104.4,199.3L103.5,200.7L101.1,204.9L100.8,205.4L98,210.1L97.8,210.6L94.4,216.1L90.7,220.4L86.6,223.6L82.2,225.7L79.3,226.3L75.6,228L75,228.1L70.8,230.2L66.9,233.2L54.9,246.7L53.2,248.4L52.6,247.6" style="fill:rgb(231,237,239);fill-rule:nonzero;stroke:black;stroke-width:6px;"/>
    </g>
    <path d="M246.9,88.6L273.3,173.4" style="fill:none;fill-rule:nonzero;stroke:rgb(227,46,0);stroke-width:4.5px;stroke-linecap:square;stroke-linejoin:round;stroke-miterlimit:4;"/>
    <path d="M246.9,88.6L273.3,173.4" style="fill:none;fill-rule:nonzero;stroke:rgb(227,46,0);stroke-width:4.5px;stroke-linecap:square;stroke-linejoin:round;stroke-miterlimit:4;"/>
    <path d="M246.9,88.6L201.8,190.4" style="fill:none;fill-rule:nonzero;stroke:rgb(227,46,0);stroke-width:4.5px;stroke-linecap:square;stroke-linejoin:round;stroke-miterlimit:4;"/>
    <path d="M246.9,88.6L201.8,190.4" style="fill:none;fill-rule:nonzero;stroke:rgb(227,46,0);stroke-width:4.5px;stroke-linecap:square;stroke-linejoin:round;stroke-miterlimit:4;"/>
    <path d="M178.8,99.7L90.3,102.5" style="fill:none;fill-rule:nonzero;stroke:rgb(227,46,0);stroke-width:4.5px;stroke-linecap:square;stroke-linejoin:round;stroke-miterlimit:4;"/>
    <path d="M178.8,99.7L201.8,190.4" style="fill:none;fill-rule:nonzero;stroke:rgb(227,46,0);stroke-width:4.5px;stroke-linecap:square;stroke-linejoin:round;stroke-miterlimit:4;"/>
    <path d="M178.8,99.7L167.1,197.4" style="fill:none;fill-rule:nonzero;stroke:rgb(227,46,0);stroke-width:4.5px;stroke-linecap:square;stroke-linejoin:round;stroke-miterlimit:4;"/>
    <path d="M178.8,99.7L201.8,190.4" style="fill:none;fill-rule:nonzero;stroke:rgb(227,46,0);stroke-width:4.5px;stroke-linecap:square;stroke-linejoin:round;stroke-miterlimit:4;"/>
    <path d="M178.8,99.7L167.1,197.4" style="fill:none;fill-rule:nonzero;stroke:rgb(227,46,0);stroke-width:4.5px;stroke-linecap:square;stroke-linejoin:round;stroke-miterlimit:4;"/>
    <path d="M90.3,102.5L167.1,197.4" style="fill:none;fill-rule:nonzero;stroke:rgb(227,46,0);stroke-width:4.5px;stroke-linecap:square;stroke-linejoin:round;stroke-miterlimit:4;"/>
    <path d="M90.3,102.5L67.7,210.6" style="fill:none;fill-rule:nonzero;stroke:rgb(227,46,0);stroke-width:4.5px;stroke-linecap:square;stroke-linejoin:round;stroke-miterlimit:4;"/>
    <path d="M90.3,102.5L167.1,197.4" style="fill:none;fill-rule:nonzero;stroke:rgb(227,46,0);stroke-width:4.5px;stroke-linecap:square;stroke-linejoin:round;stroke-miterlimit:4;"/>
    <path d="M90.3,102.5L67.7,210.6" style="fill:none;fill-rule:nonzero;stroke:rgb(227,46,0);stroke-width:4.5px;stroke-linecap:square;stroke-linejoin:round;stroke-miterlimit:4;"/>
    <path d="M90.3,102.5L178.8,99.7" style="fill:none;fill-rule:nonzero;stroke:rgb(227,46,0);stroke-width:4.5px;stroke-linecap:square;stroke-linejoin:round;stroke-miterlimit:4;"/>
    <path d="M90.3,102.5L67.7,210.6" style="fill:none;fill-rule:nonzero;stroke:rgb(227,46,0);stroke-width:4.5px;stroke-linecap:square;stroke-linejoin:round;stroke-miterlimit:4;"/>
    <path d="M316.2,166.6L273.4,173.4" style="fill:none;fill-rule:nonzero;stroke:rgb(227,46,0);stroke-width:4.5px;stroke-linecap:square;stroke-linejoin:round;stroke-miterlimit:4;"/>
    <path d="M316.2,166.6L273.4,173.4" style="fill:none;fill-rule:nonzero;stroke:rgb(227,46,0);stroke-width:4.5px;stroke-linecap:square;stroke-linejoin:round;stroke-miterlimit:4;"/>
    <path d="M316.2,166.6L342.4,236.9" style="fill:none;fill-rule:nonzero;stroke:rgb(227,46,0);stroke-width:4.5px;stroke-linecap:square;stroke-linejoin:round;stroke-miterlimit:4;"/>
    <path d="M273.3,173.4L316.1,166.6" style="fill:none;fill-rule:nonzero;stroke:rgb(227,46,0);stroke-width:4.5px;stroke-linecap:square;stroke-linejoin:round;stroke-miterlimit:4;"/>
    <path d="M273.3,173.4L316.1,166.6" style="fill:none;fill-rule:nonzero;stroke:rgb(227,46,0);stroke-width:4.5px;stroke-linecap:square;stroke-linejoin:round;stroke-miterlimit:4;"/>
    <path d="M273.3,173.4L201.8,190.3" style="fill:none;fill-rule:nonzero;stroke:rgb(227,46,0);stroke-width:4.5px;stroke-linecap:square;stroke-linejoin:round;stroke-miterlimit:4;"/>
    <path d="M273.3,173.4L252.2,249.8" style="fill:none;fill-rule:nonzero;stroke:rgb(227,46,0);stroke-width:4.5px;stroke-linecap:square;stroke-linejoin:round;stroke-miterlimit:4;"/>
    <path d="M273.3,173.4L201.8,190.3" style="fill:none;fill-rule:nonzero;stroke:rgb(227,46,0);stroke-width:4.5px;stroke-linecap:square;stroke-linejoin:round;stroke-miterlimit:4;"/>
    <path d="M273.3,173.4L246.9,88.6" style="fill:none;fill-rule:nonzero;stroke:rgb(227,46,0);stroke-width:4.5px;stroke-linecap:square;stroke-linejoin:round;stroke-miterlimit:4;"/>
    <path d="M273.3,173.4L342.4,236.9" style="fill:none;fill-rule:nonzero;stroke:rgb(227,46,0);stroke-width:4.5px;stroke-linecap:square;stroke-linejoin:round;stroke-miterlimit:4;"/>
    <path d="M316.2,166.6L273.4,173.4" style="fill:none;fill-rule:nonzero;stroke:rgb(227,46,0);stroke-width:4.5px;stroke-linecap:square;stroke-linejoin:round;stroke-miterlimit:4;"/>
    <path d="M316.2,166.6L273.4,173.4" style="fill:none;fill-rule:nonzero;stroke:rgb(227,46,0);stroke-width:4.5px;stroke-linecap:square;stroke-linejoin:round;stroke-miterlimit:4;"/>
    <path d="M316.2,166.6L342.4,236.9" style="fill:none;fill-rule:nonzero;stroke:rgb(227,46,0);stroke-width:4.5px;stroke-linecap:square;stroke-linejoin:round;stroke-miterlimit:4;"/>
    <path d="M273.3,173.4L316.1,166.6" style="fill:none;fill-rule:nonzero;stroke:rgb(227,46,0);stroke-width:4.5px;stroke-linecap:square;stroke-linejoin:round;stroke-miterlimit:4;"/>
    <path d="M273.3,173.4L316.1,166.6" style="fill:none;fill-rule:nonzero;stroke:rgb(227,46,0);stroke-width:4.5px;stroke-linecap:square;stroke-linejoin:round;stroke-miterlimit:4;"/>
    <path d="M273.3,173.4L201.8,190.3" style="fill:none;fill-rule:nonzero;stroke:rgb(227,46,0);stroke-width:4.5px;stroke-linecap:square;stroke-linejoin:round;stroke-miterlimit:4;"/>
    <path d="M273.3,173.4L252.2,249.8" style="fill:none;fill-rule:nonzero;stroke:rgb(227,46,0);stroke-width:4.5px;stroke-linecap:square;stroke-linejoin:round;stroke-miterlimit:4;"/>
    <path d="M273.3,173.4L201.8,190.3" style="fill:none;fill-rule:nonzero;stroke:rgb(227,46,0);stroke-width:4.5px;stroke-linecap:square;stroke-linejoin:round;stroke-miterlimit:4;"/>
    <path d="M273.3,173.4L246.9,88.6" style="fill:none;fill-rule:nonzero;stroke:rgb(227,46,0);stroke-width:4.5px;stroke-linecap:square;stroke-linejoin:round;stroke-miterlimit:4;"/>
    <path d="M273.3,173.4L342.4,236.9" style="fill:none;fill-rule:nonzero;stroke:rgb(227,46,0);stroke-width:4.5px;stroke-linecap:square;stroke-linejoin:round;stroke-miterlimit:4;"/>
    <path d="M201.8,190.4L167.1,197.4" style="fill:none;fill-rule:nonzero;stroke:rgb(227,46,0);stroke-width:4.5px;stroke-linecap:square;stroke-linejoin:round;stroke-miterlimit:4;"/>
    <path d="M201.8,190.4L195.7,270.2" style="fill:none;fill-rule:nonzero;stroke:rgb(227,46,0);stroke-width:4.5px;stroke-linecap:square;stroke-linejoin:round;stroke-miterlimit:4;"/>
    <path d="M201.8,190.4L273.3,173.5" style="fill:none;fill-rule:nonzero;stroke:rgb(227,46,0);stroke-width:4.5px;stroke-linecap:square;stroke-linejoin:round;stroke-miterlimit:4;"/>
    <path d="M201.8,190.4L273.3,173.5" style="fill:none;fill-rule:nonzero;stroke:rgb(227,46,0);stroke-width:4.5px;stroke-linecap:square;stroke-linejoin:round;stroke-miterlimit:4;"/>
    <path d="M201.8,190.4L252.2,249.8" style="fill:none;fill-rule:nonzero;stroke:rgb(227,46,0);stroke-width:4.5px;stroke-linecap:square;stroke-linejoin:round;stroke-miterlimit:4;"/>
    <path d="M201.8,190.4L167.1,197.4" style="fill:none;fill-rule:nonzero;stroke:rgb(227,46,0);stroke-width:4.5px;stroke-linecap:square;stroke-linejoin:round;stroke-miterlimit:4;"/>
    <path d="M201.8,190.4L246.9,88.6" style="fill:none;fill-rule:nonzero;stroke:rgb(227,46,0);stroke-width:4.5px;stroke-linecap:square;stroke-linejoin:round;stroke-miterlimit:4;"/>
    <path d="M201.8,190.4L178.8,99.7" style="fill:none;fill-rule:nonzero;stroke:rgb(227,46,0);stroke-width:4.5px;stroke-linecap:square;stroke-linejoin:round;stroke-miterlimit:4;"/>
    <path d="M167.1,197.3L102.7,243.6" style="fill:none;fill-rule:nonzero;stroke:rgb(227,46,0);stroke-width:4.5px;stroke-linecap:square;stroke-linejoin:round;stroke-miterlimit:4;"/>
    <path d="M167.1,197.3L90.3,102.4" style="fill:none;fill-rule:nonzero;stroke:rgb(227,46,0);stroke-width:4.5px;stroke-linecap:square;stroke-linejoin:round;stroke-miterlimit:4;"/>
    <path d="M167.1,197.3L195.7,270.1" style="fill:none;fill-rule:nonzero;stroke:rgb(227,46,0);stroke-width:4.5px;stroke-linecap:square;stroke-linejoin:round;stroke-miterlimit:4;"/>
    <path d="M167.1,197.3L201.8,190.3" style="fill:none;fill-rule:nonzero;stroke:rgb(227,46,0);stroke-width:4.5px;stroke-linecap:square;stroke-linejoin:round;stroke-miterlimit:4;"/>
    <path d="M167.1,197.3L67.6,210.6" style="fill:none;fill-rule:nonzero;stroke:rgb(227,46,0);stroke-width:4.5px;stroke-linecap:square;stroke-linejoin:round;stroke-miterlimit:4;"/>
    <path d="M167.1,197.3L201.8,190.3" style="fill:none;fill-rule:nonzero;stroke:rgb(227,46,0);stroke-width:4.5px;stroke-linecap:square;stroke-linejoin:round;stroke-miterlimit:4;"/>
    <path d="M167.1,197.3L67.6,210.6" style="fill:none;fill-rule:nonzero;stroke:rgb(227,46,0);stroke-width:4.5px;stroke-linecap:square;stroke-linejoin:round;stroke-miterlimit:4;"/>
    <path d="M167.1,197.3L178.8,99.6" style="fill:none;fill-rule:nonzero;stroke:rgb(227,46,0);stroke-width:4.5px;stroke-linecap:square;stroke-linejoin:round;stroke-miterlimit:4;"/>
    <path d="M167.1,197.3L67.6,210.6" style="fill:none;fill-rule:nonzero;stroke:rgb(227,46,0);stroke-width:4.5px;stroke-linecap:square;stroke-linejoin:round;stroke-miterlimit:4;"/>
    <path d="M201.8,190.4L167.1,197.4" style="fill:none;fill-rule:nonzero;stroke:rgb(227,46,0);stroke-width:4.5px;stroke-linecap:square;stroke-linejoin:round;stroke-miterlimit:4;"/>
    <path d="M201.8,190.4L273.3,173.5" style="fill:none;fill-rule:nonzero;stroke:rgb(227,46,0);stroke-width:4.5px;stroke-linecap:square;stroke-linejoin:round;stroke-miterlimit:4;"/>
    <path d="M201.8,190.4L273.3,173.5" style="fill:none;fill-rule:nonzero;stroke:rgb(227,46,0);stroke-width:4.5px;stroke-linecap:square;stroke-linejoin:round;stroke-miterlimit:4;"/>
    <path d="M201.8,190.4L252.2,249.8" style="fill:none;fill-rule:nonzero;stroke:rgb(227,46,0);stroke-width:4.5px;stroke-linecap:square;stroke-linejoin:round;stroke-miterlimit:4;"/>
    <path d="M201.8,190.4L195.7,270.2" style="fill:none;fill-rule:nonzero;stroke:rgb(227,46,0);stroke-width:4.5px;stroke-linecap:square;stroke-linejoin:round;stroke-miterlimit:4;"/>
    <path d="M201.8,190.4L167.1,197.4" style="fill:none;fill-rule:nonzero;stroke:rgb(227,46,0);stroke-width:4.5px;stroke-linecap:square;stroke-linejoin:round;stroke-miterlimit:4;"/>
    <path d="M201.8,190.4L178.8,99.7" style="fill:none;fill-rule:nonzero;stroke:rgb(227,46,0);stroke-width:4.5px;stroke-linecap:square;stroke-linejoin:round;stroke-miterlimit:4;"/>
    <path d="M167.1,197.3L102.7,243.6" style="fill:none;fill-rule:nonzero;stroke:rgb(227,46,0);stroke-width:4.5px;stroke-linecap:square;stroke-linejoin:round;stroke-miterlimit:4;"/>
    <path d="M167.1,197.3L90.3,102.4" style="fill:none;fill-rule:nonzero;stroke:rgb(227,46,0);stroke-width:4.5px;stroke-linecap:square;stroke-linejoin:round;stroke-miterlimit:4;"/>
    <path d="M167.1,197.3L195.7,270.1" style="fill:none;fill-rule:nonzero;stroke:rgb(227,46,0);stroke-width:4.5px;stroke-linecap:square;stroke-linejoin:round;stroke-miterlimit:4;"/>
    <path d="M167.1,197.3L201.8,190.3" style="fill:none;fill-rule:nonzero;stroke:rgb(227,46,0);stroke-width:4.5px;stroke-linecap:square;stroke-linejoin:round;stroke-miterlimit:4;"/>
    <path d="M167.1,197.3L67.6,210.6" style="fill:none;fill-rule:nonzero;stroke:rgb(227,46,0);stroke-width:4.5px;stroke-linecap:square;stroke-linejoin:round;stroke-miterlimit:4;"/>
    <path d="M167.1,197.3L201.8,190.3" style="fill:none;fill-rule:nonzero;stroke:rgb(227,46,0);stroke-width:4.5px;stroke-linecap:square;stroke-linejoin:round;stroke-miterlimit:4;"/>
    <path d="M167.1,197.3L67.6,210.6" style="fill:none;fill-rule:nonzero;stroke:rgb(227,46,0);stroke-width:4.5px;stroke-linecap:square;stroke-linejoin:round;stroke-miterlimit:4;"/>
    <path d="M167.1,197.3L178.8,99.6L246.9,88.6L201.8,190.4" style="fill:none;fill-rule:nonzero;stroke:rgb(227,46,0);stroke-width:4.5px;stroke-linecap:square;stroke-linejoin:round;stroke-miterlimit:4;"/>
    <path d="M167.1,197.3L67.6,210.6" style="fill:none;fill-rule:nonzero;stroke:rgb(227,46,0);stroke-width:4.5px;stroke-linecap:square;stroke-linejoin:round;stroke-miterlimit:4;"/>
    <path d="M67.7,210.6L102.7,243.6" style="fill:none;fill-rule:nonzero;stroke:rgb(227,46,0);stroke-width:4.5px;stroke-linecap:square;stroke-linejoin:round;stroke-miterlimit:4;"/>
    <path d="M67.7,210.6L90.4,102.4" style="fill:none;fill-rule:nonzero;stroke:rgb(227,46,0);stroke-width:4.5px;stroke-linecap:square;stroke-linejoin:round;stroke-miterlimit:4;"/>
    <path d="M67.7,210.6L167.2,197.3" style="fill:none;fill-rule:nonzero;stroke:rgb(227,46,0);stroke-width:4.5px;stroke-linecap:square;stroke-linejoin:round;stroke-miterlimit:4;"/>
    <path d="M67.7,210.6L167.2,197.3" style="fill:none;fill-rule:nonzero;stroke:rgb(227,46,0);stroke-width:4.5px;stroke-linecap:square;stroke-linejoin:round;stroke-miterlimit:4;"/>
    <path d="M342.4,236.9L316.2,166.6" style="fill:none;fill-rule:nonzero;stroke:rgb(227,46,0);stroke-width:4.5px;stroke-linecap:square;stroke-linejoin:round;stroke-miterlimit:4;"/>
    <path d="M342.4,236.9L273.3,173.4" style="fill:none;fill-rule:nonzero;stroke:rgb(227,46,0);stroke-width:4.5px;stroke-linecap:square;stroke-linejoin:round;stroke-miterlimit:4;"/>
    <path d="M342.4,236.9L316.2,166.6" style="fill:none;fill-rule:nonzero;stroke:rgb(227,46,0);stroke-width:4.5px;stroke-linecap:square;stroke-linejoin:round;stroke-miterlimit:4;"/>
    <path d="M342.4,236.9L273.3,173.4" style="fill:none;fill-rule:nonzero;stroke:rgb(227,46,0);stroke-width:4.5px;stroke-linecap:square;stroke-linejoin:round;stroke-miterlimit:4;"/>
    <path d="M342.4,236.9L252.2,249.8" style="fill:none;fill-rule:nonzero;stroke:rgb(227,46,0);stroke-width:4.5px;stroke-linecap:square;stroke-linejoin:round;stroke-miterlimit:4;"/>
    <path d="M147.4,363.3L126.3,299.4" style="fill:none;fill-rule:nonzero;stroke:rgb(227,46,0);stroke-width:4.5px;stroke-linecap:square;stroke-linejoin:round;stroke-miterlimit:4;"/>
    <path d="M147.4,363.3L195.7,270.1" style="fill:none;fill-rule:nonzero;stroke:rgb(227,46,0);stroke-width:4.5px;stroke-linecap:square;stroke-linejoin:round;stroke-miterlimit:4;"/>
    <path d="M252.2,249.8L201.8,190.4" style="fill:none;fill-rule:nonzero;stroke:rgb(227,46,0);stroke-width:4.5px;stroke-linecap:square;stroke-linejoin:round;stroke-miterlimit:4;"/>
    <path d="M252.2,249.8L273.3,173.4" style="fill:none;fill-rule:nonzero;stroke:rgb(227,46,0);stroke-width:4.5px;stroke-linecap:square;stroke-linejoin:round;stroke-miterlimit:4;"/>
    <path d="M252.2,249.8L273.3,173.4" style="fill:none;fill-rule:nonzero;stroke:rgb(227,46,0);stroke-width:4.5px;stroke-linecap:square;stroke-linejoin:round;stroke-miterlimit:4;"/>
    <path d="M252.2,249.8L201.8,190.4" style="fill:none;fill-rule:nonzero;stroke:rgb(227,46,0);stroke-width:4.5px;stroke-linecap:square;stroke-linejoin:round;stroke-miterlimit:4;"/>
    <path d="M252.2,249.8L195.7,270.1" style="fill:none;fill-rule:nonzero;stroke:rgb(227,46,0);stroke-width:4.5px;stroke-linecap:square;stroke-linejoin:round;stroke-miterlimit:4;"/>
    <path d="M252.2,249.8L342.4,236.9" style="fill:none;fill-rule:nonzero;stroke:rgb(227,46,0);stroke-width:4.5px;stroke-linecap:square;stroke-linejoin:round;stroke-miterlimit:4;"/>
    <path d="M195.7,270.1L102.7,243.6" style="fill:none;fill-rule:nonzero;stroke:rgb(227,46,0);stroke-width:4.5px;stroke-linecap:square;stroke-linejoin:round;stroke-miterlimit:4;"/>
    <path d="M195.7,270.1L126.3,299.4" style="fill:none;fill-rule:nonzero;stroke:rgb(227,46,0);stroke-width:4.5px;stroke-linecap:square;stroke-linejoin:round;stroke-miterlimit:4;"/>
    <path d="M195.7,270.1L252.2,249.8" style="fill:none;fill-rule:nonzero;stroke:rgb(227,46,0);stroke-width:4.5px;stroke-linecap:square;stroke-linejoin:round;stroke-miterlimit:4;"/>
    <path d="M195.7,270.1L147.4,363.3" style="fill:none;fill-rule:nonzero;stroke:rgb(227,46,0);stroke-width:4.5px;stroke-linecap:square;stroke-linejoin:round;stroke-miterlimit:4;"/>
    <path d="M195.7,270.1L201.8,190.3" style="fill:none;fill-rule:nonzero;stroke:rgb(227,46,0);stroke-width:4.5px;stroke-linecap:square;stroke-linejoin:round;stroke-miterlimit:4;"/>
    <path d="M195.7,270.1L167.1,197.3" style="fill:none;fill-rule:nonzero;stroke:rgb(227,46,0);stroke-width:4.5px;stroke-linecap:square;stroke-linejoin:round;stroke-miterlimit:4;"/>
    <path d="M195.7,270.1L201.8,190.3" style="fill:none;fill-rule:nonzero;stroke:rgb(227,46,0);stroke-width:4.5px;stroke-linecap:square;stroke-linejoin:round;stroke-miterlimit:4;"/>
    <path d="M195.7,270.1L167.1,197.3" style="fill:none;fill-rule:nonzero;stroke:rgb(227,46,0);stroke-width:4.5px;stroke-linecap:square;stroke-linejoin:round;stroke-miterlimit:4;"/>
    <path d="M67.7,210.6L102.7,243.6" style="fill:none;fill-rule:nonzero;stroke:rgb(227,46,0);stroke-width:4.5px;stroke-linecap:square;stroke-linejoin:round;stroke-miterlimit:4;"/>
    <path d="M67.7,210.6L90.4,102.4" style="fill:none;fill-rule:nonzero;stroke:rgb(227,46,0);stroke-width:4.5px;stroke-linecap:square;stroke-linejoin:round;stroke-miterlimit:4;"/>
    <path d="M67.7,210.6L167.2,197.3" style="fill:none;fill-rule:nonzero;stroke:rgb(227,46,0);stroke-width:4.5px;stroke-linecap:square;stroke-linejoin:round;stroke-miterlimit:4;"/>
    <path d="M67.7,210.6L167.2,197.3" style="fill:none;fill-rule:nonzero;stroke:rgb(227,46,0);stroke-width:4.5px;stroke-linecap:square;stroke-linejoin:round;stroke-miterlimit:4;"/>
    <path d="M102.7,243.6L167.1,197.3" style="fill:none;fill-rule:nonzero;stroke:rgb(227,46,0);stroke-width:4.5px;stroke-linecap:square;stroke-linejoin:round;stroke-miterlimit:4;"/>
    <path d="M102.7,243.6L126.3,299.4" style="fill:none;fill-rule:nonzero;stroke:rgb(227,46,0);stroke-width:4.5px;stroke-linecap:square;stroke-linejoin:round;stroke-miterlimit:4;"/>
    <path d="M102.7,243.6L67.7,210.6" style="fill:none;fill-rule:nonzero;stroke:rgb(227,46,0);stroke-width:4.5px;stroke-linecap:square;stroke-linejoin:round;stroke-miterlimit:4;"/>
    <path d="M102.7,243.6L195.7,270.1" style="fill:none;fill-rule:nonzero;stroke:rgb(227,46,0);stroke-width:4.5px;stroke-linecap:square;stroke-linejoin:round;stroke-miterlimit:4;"/>
    <path d="M102.7,243.6L167.1,197.3" style="fill:none;fill-rule:nonzero;stroke:rgb(227,46,0);stroke-width:4.5px;stroke-linecap:square;stroke-linejoin:round;stroke-miterlimit:4;"/>
    <path d="M102.7,243.6L67.7,210.6" style="fill:none;fill-rule:nonzero;stroke:rgb(227,46,0);stroke-width:4.5px;stroke-linecap:square;stroke-linejoin:round;stroke-miterlimit:4;"/>
    <path d="M102.7,243.6L67.7,210.6" style="fill:none;fill-rule:nonzero;stroke:rgb(227,46,0);stroke-width:4.5px;stroke-linecap:square;stroke-linejoin:round;stroke-miterlimit:4;"/>
    <path d="M126.3,299.5L102.7,243.7" style="fill:none;fill-rule:nonzero;stroke:rgb(227,46,0);stroke-width:4.5px;stroke-linecap:square;stroke-linejoin:round;stroke-miterlimit:4;"/>
    <path d="M126.3,299.5L195.7,270.2" style="fill:none;fill-rule:nonzero;stroke:rgb(227,46,0);stroke-width:4.5px;stroke-linecap:square;stroke-linejoin:round;stroke-miterlimit:4;"/>
    <path d="M126.3,299.5L147.4,363.4" style="fill:none;fill-rule:nonzero;stroke:rgb(227,46,0);stroke-width:4.5px;stroke-linecap:square;stroke-linejoin:round;stroke-miterlimit:4;"/>
    <path d="M67.7,210.6L102.7,243.6" style="fill:none;fill-rule:nonzero;stroke:rgb(227,46,0);stroke-width:4.5px;stroke-linecap:square;stroke-linejoin:round;stroke-miterlimit:4;"/>
    <path d="M67.7,210.6L90.4,102.4" style="fill:none;fill-rule:nonzero;stroke:rgb(227,46,0);stroke-width:4.5px;stroke-linecap:square;stroke-linejoin:round;stroke-miterlimit:4;"/>
    <path d="M67.7,210.6L167.2,197.3" style="fill:none;fill-rule:nonzero;stroke:rgb(227,46,0);stroke-width:4.5px;stroke-linecap:square;stroke-linejoin:round;stroke-miterlimit:4;"/>
    <path d="M67.7,210.6L167.2,197.3" style="fill:none;fill-rule:nonzero;stroke:rgb(227,46,0);stroke-width:4.5px;stroke-linecap:square;stroke-linejoin:round;stroke-miterlimit:4;"/>
    <g id="Layer_7">
        <g>
            <path d="M283.9,392.2L283.9,367.1C283.9,364 283.2,361.7 281.9,360.2C280.6,358.7 278.5,357.9 275.8,357.9C272.2,357.9 269.5,358.9 267.7,361C266,363.1 265.1,366.3 265.1,370.6L265.1,392.1L259.3,392.1L259.3,367C259.3,363.9 258.6,361.6 257.3,360.1C256,358.6 253.9,357.8 251.1,357.8C247.4,357.8 244.8,358.9 243.1,361.1C241.4,363.3 240.6,366.9 240.6,371.9L240.6,392.1L234.8,392.1L234.8,353.6L239.5,353.6L240.4,358.9L240.7,358.9C241.8,357 243.4,355.6 245.4,354.5C247.4,353.4 249.6,352.9 252.1,352.9C258.1,352.9 262.1,355.1 263.9,359.4L264.2,359.4C265.3,357.4 267,355.8 269.2,354.6C271.4,353.4 273.9,352.8 276.7,352.8C281.1,352.8 284.3,353.9 286.5,356.2C288.7,358.4 289.8,362 289.8,366.9L289.8,392L283.9,392L283.9,392.2Z" style="fill:white;fill-rule:nonzero;"/>
            <path d="M335,372.9C335,379.2 333.4,384.1 330.3,387.6C327.2,391.1 322.8,392.9 317.2,392.9C313.8,392.9 310.7,392.1 308,390.5C305.3,388.9 303.3,386.6 301.8,383.5C300.3,380.5 299.6,376.9 299.6,372.9C299.6,366.6 301.2,361.7 304.3,358.2C307.4,354.7 311.8,352.9 317.4,352.9C322.8,352.9 327.1,354.7 330.2,358.3C333.4,361.9 335,366.7 335,372.9ZM305.7,372.9C305.7,377.8 306.7,381.6 308.7,384.1C310.7,386.6 313.6,388 317.4,388C321.2,388 324.1,386.7 326.1,384.2C328.1,381.6 329.1,377.9 329.1,372.9C329.1,368 328.1,364.3 326.1,361.7C324.1,359.2 321.2,357.9 317.3,357.9C313.5,357.9 310.6,359.2 308.7,361.7C306.7,364.2 305.7,367.9 305.7,372.9Z" style="fill:white;fill-rule:nonzero;"/>
            <path d="M394.4,392.2L394.4,367.1C394.4,364 393.7,361.7 392.4,360.2C391.1,358.7 389,357.9 386.3,357.9C382.7,357.9 380,358.9 378.2,361C376.5,363.1 375.6,366.3 375.6,370.6L375.6,392.1L369.8,392.1L369.8,367C369.8,363.9 369.1,361.6 367.8,360.1C366.5,358.6 364.4,357.8 361.6,357.8C357.9,357.8 355.3,358.9 353.6,361.1C351.9,363.3 351.1,366.9 351.1,371.9L351.1,392.1L345.3,392.1L345.3,353.6L350,353.6L350.9,358.9L351.2,358.9C352.3,357 353.9,355.6 355.9,354.5C357.9,353.4 360.1,352.9 362.6,352.9C368.6,352.9 372.6,355.1 374.4,359.4L374.7,359.4C375.8,357.4 377.5,355.8 379.7,354.6C381.9,353.4 384.4,352.8 387.2,352.8C391.6,352.8 394.8,353.9 397,356.2C399.2,358.4 400.3,362 400.3,366.9L400.3,392L394.4,392L394.4,392.2Z" style="fill:white;fill-rule:nonzero;"/>
            <path d="M428.5,392.9C422.8,392.9 418.3,391.2 415,387.7C411.7,384.2 410.1,379.4 410.1,373.3C410.1,367.1 411.6,362.2 414.7,358.5C417.8,354.8 421.9,353 427,353C431.8,353 435.6,354.6 438.5,357.8C441.4,361 442.7,365.2 442.7,370.4L442.7,374.1L416.2,374.1C416.3,378.6 417.5,382.1 419.6,384.4C421.8,386.7 424.8,387.9 428.8,387.9C432.9,387.9 437,387 441.1,385.3L441.1,390.5C439,391.4 437.1,392 435.2,392.4C433.3,392.7 431.1,392.9 428.5,392.9ZM426.9,357.8C423.8,357.8 421.3,358.8 419.5,360.8C417.7,362.8 416.6,365.6 416.2,369.2L436.3,369.2C436.3,365.5 435.5,362.7 433.8,360.7C432.3,358.8 430,357.8 426.9,357.8Z" style="fill:white;fill-rule:nonzero;"/>
            <path d="M470.6,392.9C468.1,392.9 465.8,392.4 463.7,391.5C461.6,390.6 459.9,389.2 458.5,387.2L458,387.2C458.3,389.4 458.4,391.6 458.4,393.6L458.4,409.5L452.6,409.5L452.6,353.7L457.3,353.7L458.1,359L458.4,359C459.9,356.9 461.6,355.4 463.6,354.4C465.6,353.5 467.9,353 470.5,353C475.6,353 479.6,354.7 482.3,358.2C485,361.7 486.5,366.6 486.5,372.9C486.5,379.2 485.1,384.1 482.3,387.6C479.5,391.1 475.6,392.9 470.6,392.9ZM469.7,357.9C465.8,357.9 462.9,359 461.2,361.2C459.5,363.4 458.5,366.8 458.5,371.6L458.5,372.9C458.5,378.3 459.4,382.2 461.2,384.5C463,386.8 465.9,388 469.9,388C473.2,388 475.8,386.7 477.7,384C479.6,381.3 480.5,377.6 480.5,372.9C480.5,368.1 479.6,364.4 477.7,361.8C475.8,359.2 473.1,357.9 469.7,357.9Z" style="fill:white;fill-rule:nonzero;"/>
            <path d="M490.6,353.6L496.9,353.6L505.3,375.6C507.2,380.6 508.3,384.2 508.7,386.5L509,386.5C509.3,385.3 509.9,383.3 510.9,380.4C511.9,377.5 515.1,368.6 520.4,353.7L526.7,353.7L510.1,397.6C508.5,401.9 506.5,405 504.4,406.8C502.2,408.6 499.5,409.5 496.3,409.5C494.5,409.5 492.8,409.3 491,408.9L491,404.2C492.3,404.5 493.7,404.6 495.3,404.6C499.3,404.6 502.2,402.4 503.9,397.8L506,392.3L490.6,353.6Z" style="fill:white;fill-rule:nonzero;"/>
        </g>
    </g>
</svg>
