<?xml version="1.0" encoding="utf-8"?>
<!-- Generator: Adobe Illustrator 24.1.2, SVG Export Plug-In . SVG Version: 6.00 Build 0)  -->
<svg version="1.1" id="Layer_1" xmlns="http://www.w3.org/2000/svg" xmlns:xlink="http://www.w3.org/1999/xlink" x="0px" y="0px"
	 viewBox="0 0 621 512" style="enable-background:new 0 0 621 512;" xml:space="preserve">
<style type="text/css">
	.st0{fill:#0B4C63;}
	.st1{font-family:'OpenSans';}
	.st2{font-size:22.7844px;}
	.st3{fill:#E7EDEF;stroke:#FFFFFF;stroke-width:6;stroke-miterlimit:10;}
	.st4{fill:#E7EDEF;stroke:#FFFFFF;stroke-width:7.8;stroke-miterlimit:10;}
	.st5{fill:none;stroke:#E32E00;stroke-width:4.5;stroke-linecap:square;stroke-linejoin:round;}
	.st6{fill:none;stroke:#E32E00;stroke-width:5.85;stroke-linecap:round;stroke-linejoin:round;}
	.st7{font-size:72px;}
</style>
<g id="Layer_1_1_">
	<g>
		<text transform="matrix(1 0 0 1 129.687 438.7374)" class="st0 st1 st2">Urban Morphology Measuring Toolkit</text>
	</g>
</g>
<g id="cells">
	<path class="st3" d="M244.4,133.6l-19.5,5.3l-2.4-0.5l-7.9-29.6l-0.4-2.5l-0.4-1.7l-0.3-1.7l0-0.8l-0.3-4.3l-0.7-4.2L212,92
		l-0.5-2.7l-0.3-1.2l-0.6-3l-0.2-0.9l-0.7-3.9l-0.9-9.9l7.1-4.7l4.2-2.2l4.2-1.5l4.2-1l1.1-0.1l3.1-0.8l1.6-0.2l4.7-1.2l4.5-1.8
		l4.4-2.5l4.3-3.1l0.1,0l22.2,5.2l2.7,0.9l1.2,13.5l0.7,3.6l0.4,1.2l0.4,2.3l0.5,2l1.4,9.7l-0.1,2l0.9,3.2l1,2.7l0.2,1.2l3.1,24
		l-8.1,3.9l-4.2,1.6l-4.3,1.3l-4.4,1l-0.2,0l-3.6,0.8l-0.5,0.1l-4.4,0.9l-4.4,0.5l-4.5,0.2l-0.9,0L244.4,133.6"/>
	<path class="st3" d="M179.4,150l-0.9,0.2l-3.1,0.6l-19.9-1.9l-4.1-0.6l-4.1-0.9l-4.2-1.1l-5.7-1.8l2.7-22.2l0.2-5l-0.2-4.9
		l-0.6-4.8l-1-4.7l0-0.1l-1-4.7l-1.4-4.6l-2.1-5l-0.3-1.6l-4.2-43.2l5.6-4.2l3-1.2l4.9-1.6l4.7,2.6l6.4,3.9l3.3,2.3l5.6,3.4l5.5,2.9
		l5.4,2.3l15.4,5.2l0.6,0.1l18.8,11.1l0.9,9.9l0.7,3.9l0.2,0.9l0.6,3l0.3,1.2L212,92l0.4,1.5l0.7,4.2l0.3,4.3l0,0.8l0.3,1.7l0.4,1.7
		l0.4,2.5l7.9,29.6l-10.9,4.9l-4.7,1.7l-4.7,1.3l-4.1,0.8l-0.6,0.2l-3.5,0.6l-1.3,0.3l-4.8,0.9l-5,0.5l-1.4,0L179.4,150"/>
	<path class="st3" d="M88.5,156.9l-14.1-12.5l-3.8-4l-3.2-4.1l-2.6-4.2l-2-4.3l-1.5-4.5l-0.7-3.5l-7.1-11.4l-2.6-3.4l-2.3-2.4
		l0.2-1.1l1.7-17.1l0.8-4.2l1.2-4.3l1.6-4.3l3.3-7.4l4.2-17.5L74,45.7l0.1,0l11.1-0.2l7.8-1.2l4.3-0.4l4.3-0.2l4.4,0l13.7,0.7
		l9.8-0.6l4.2,43.2l0.3,1.6l2.1,5l1.4,4.6l1,4.7l0,0.1l1,4.7l0.6,4.8l0.2,4.9l-0.2,5l-2.7,22.2l-18.8,9.5l-4,2.3l-4,2.6l-3.9,2.8
		l-0.8,0.6l-3.8-0.9l-4.7-0.8l-4.6-0.6l-1.1-0.1L88.5,156.9"/>
	<path class="st3" d="M357.3,161.9l1.3,4.3l3.6,8.1l2.3,19.6l-19.7,2.2l-4.7,1l-2,0.7l-2.6,0.6l-1.9,0.6l-2.8,0.6l-1.7,0.6l-2.9,0.7
		l-1.6,0.5l-3.1,0.7l-1.4,0.5l-3.2,0.8l-4.6,1.6l-4.4,2l-0.2-0.6l-8.8-18.3l-6.1-5.7l1.6-2l-2.5-2.9l1.4-1.5l-2.2-3.3l1-1.1
		l-1.8-3.8l0.6-0.6l-1.3-4.3l0,0l-0.7-4.8l3.1-2.5l3.3-8l2.4-12.6l0.7-8.6l2.5,0l3.5-0.2l6.1-1.4l4.5-0.1l4.1-0.4l4.1-0.7l2.2-0.5
		l3.6-0.6l3.6-0.4l10.6-0.4l3.6,11.7l5.8,11.3l1.7,4.8l0.7,3.5l0.5,1.4l0.5,3l0.6,1.9L357.3,161.9"/>
	<path class="st3" d="M269.8,213.3l-12.7,1l-4.5-0.1l-4.7-0.5l-1-0.2l-2.5-16.5l-3-6l-1.4-4.2l-0.9-4.3v0l-0.9-4.3l0-0.2l-0.9-4.1
		l0-0.5l-1-4.5l-11.3-30.2l19.5-5.3l2.8-0.6l0.9,0l4.5-0.2l4.4-0.5l4.4-0.9l0.5-0.1l3.6-0.8l0.2,0l4.4-1l4.3-1.3l4.2-1.6l8.1-3.9
		l11.8,3.7l-0.7,8.6l-2.4,12.6l-3.3,8l-3.1,2.5l0.7,4.8l0,0l1.3,4.3l-0.6,0.6l1.8,3.8l-1,1.1l2.2,3.3l-1.4,1.5l2.5,2.9l-1.6,2
		l6.1,5.7l8.8,18.3l0.2,0.6l-10.7,8.2l-3.4,3l-0.5-0.2l-4.9-1.8l-4.8-1.4l-4.7-0.9l-4.6-0.5L269.8,213.3"/>
	<path class="st3" d="M357.3,161.9l1.3,4.3l3.6,8.1l2.3,19.6l-19.7,2.2l-4.7,1l-2,0.7l-2.6,0.6l-1.9,0.6l-2.8,0.6l-1.7,0.6l-2.9,0.7
		l-1.6,0.5l-3.1,0.7l-1.4,0.5l-3.2,0.8l-4.6,1.6l-4.4,2l-0.2-0.6l-8.8-18.3l-6.1-5.7l1.6-2l-2.5-2.9l1.4-1.5l-2.2-3.3l1-1.1
		l-1.8-3.8l0.6-0.6l-1.3-4.3l0,0l-0.7-4.8l3.1-2.5l3.3-8l2.4-12.6l0.7-8.6l2.5,0l3.5-0.2l6.1-1.4l4.5-0.1l4.1-0.4l4.1-0.7l2.2-0.5
		l3.6-0.6l3.6-0.4l10.6-0.4l3.6,11.7l5.8,11.3l1.7,4.8l0.7,3.5l0.5,1.4l0.5,3l0.6,1.9L357.3,161.9"/>
	<path class="st3" d="M269.8,213.3l-12.7,1l-4.5-0.1l-4.7-0.5l-1-0.2l-2.5-16.5l-3-6l-1.4-4.2l-0.9-4.3v0l-0.9-4.3l0-0.2l-0.9-4.1
		l0-0.5l-1-4.5l-11.3-30.2l19.5-5.3l2.8-0.6l0.9,0l4.5-0.2l4.4-0.5l4.4-0.9l0.5-0.1l3.6-0.8l0.2,0l4.4-1l4.3-1.3l4.2-1.6l8.1-3.9
		l11.8,3.7l-0.7,8.6l-2.4,12.6l-3.3,8l-3.1,2.5l0.7,4.8l0,0l1.3,4.3l-0.6,0.6l1.8,3.8l-1,1.1l2.2,3.3l-1.4,1.5l2.5,2.9l-1.6,2
		l6.1,5.7l8.8,18.3l0.2,0.6l-10.7,8.2l-3.4,3l-0.5-0.2l-4.9-1.8l-4.8-1.4l-4.7-0.9l-4.6-0.5L269.8,213.3"/>
	<path class="st3" d="M200.2,227.6l-7.3-11.6l-6.2-6.7l-4.1-1.4l-0.7-4.3l-0.2-0.1l-0.8-4.3l-0.1,0l-0.8-4.3l-0.1,0l-0.9-4.4l-0.1,0
		l-0.9-4.4l0,0l-4.4-20.5l1.3-10.5l0.2-4.2l3.1-0.6l0.9-0.2l1.9-0.4l1.4,0l5-0.5l4.8-0.9l1.3-0.3l3.5-0.6l0.6-0.2l4.1-0.8l4.7-1.3
		l4.7-1.7l10.9-4.9l2.4,0.5l11.3,30.2l1,4.5l0,0.5l0.9,4.1l0,0.2l0.9,4.3v0l0.9,4.3l1.4,4.2l3,6l2.5,16.5l-3,2l-0.5,0.3l-11.2,4
		l-3.4,0.9l-1.2,0.2l-4.5,1.4l-4.4,1.8l-4.3,2.2l-1.4,0.9l-3.2-0.1l-4.7,0.3l-4.4,0.7L200.2,227.6"/>
	<path class="st3" d="M169.3,238.8l-17.1,4.8l-1.2-1.3l-2.7-3.1l-0.3-0.4l-6.2-14.7l-1.1-3.1l-1.1-4.1l-1.7-4.5l-0.2-0.3l-15.8-15.3
		l-3.9-3.3l-2.6-1.9l-4.1-3.5l-5.4-25.7l0.8-0.6l3.9-2.8l4-2.6l4-2.3l18.8-9.5l5.7,1.8l4.2,1.1l4.1,0.9l4.1,0.6l19.9,1.9l-0.2,4.2
		l-1.3,10.5l4.4,20.5l0,0l0.9,4.4l0.1,0l0.9,4.4l0.1,0l0.8,4.3l0.1,0l0.8,4.3l0.2,0.1l0.7,4.3l4.1,1.4l6.2,6.7l7.3,11.6l0.4,0.7
		l-4.9,2.6l-4.1,1.7l-4.2,1.4l-2.2,0.5l-2,0.6l-1.9,0.4l-2.4,0.7l-1.6,0.3l-2.7,0.8l-1.2,0.2l-3.1,0.9L169.3,238.8"/>
	<path class="st3" d="M200.2,227.6l-7.3-11.6l-6.2-6.7l-4.1-1.4l-0.7-4.3l-0.2-0.1l-0.8-4.3l-0.1,0l-0.8-4.3l-0.1,0l-0.9-4.4l-0.1,0
		l-0.9-4.4l0,0l-4.4-20.5l1.3-10.5l0.2-4.2l3.1-0.6l0.9-0.2l1.9-0.4l1.4,0l5-0.5l4.8-0.9l1.3-0.3l3.5-0.6l0.6-0.2l4.1-0.8l4.7-1.3
		l4.7-1.7l10.9-4.9l2.4,0.5l11.3,30.2l1,4.5l0,0.5l0.9,4.1l0,0.2l0.9,4.3v0l0.9,4.3l1.4,4.2l3,6l2.5,16.5l-3,2l-0.5,0.3l-11.2,4
		l-3.4,0.9l-1.2,0.2l-4.5,1.4l-4.4,1.8l-4.3,2.2l-1.4,0.9l-3.2-0.1l-4.7,0.3l-4.4,0.7L200.2,227.6"/>
	<path class="st3" d="M169.3,238.8l-17.1,4.8l-1.2-1.3l-2.7-3.1l-0.3-0.4l-6.2-14.7l-1.1-3.1l-1.1-4.1l-1.7-4.5l-0.2-0.3l-15.8-15.3
		l-3.9-3.3l-2.6-1.9l-4.1-3.5l-5.4-25.7l0.8-0.6l3.9-2.8l4-2.6l4-2.3l18.8-9.5l5.7,1.8l4.2,1.1l4.1,0.9l4.1,0.6l19.9,1.9l-0.2,4.2
		l-1.3,10.5l4.4,20.5l0,0l0.9,4.4l0.1,0l0.9,4.4l0.1,0l0.8,4.3l0.1,0l0.8,4.3l0.2,0.1l0.7,4.3l4.1,1.4l6.2,6.7l7.3,11.6l0.4,0.7
		l-4.9,2.6l-4.1,1.7l-4.2,1.4l-2.2,0.5l-2,0.6l-1.9,0.4l-2.4,0.7l-1.6,0.3l-2.7,0.8l-1.2,0.2l-3.1,0.9L169.3,238.8"/>
	<path class="st3" d="M52.6,247.6l-3.7-4.1l-12.1-16.9l-3.2-3.7l-3.6-3.6l-4-3.4L9,203.4l21.4-15.8l4.2-2.6l4.2-2.2l4.3-1.8l4.4-1.4
		l4.5-1l1.2-0.2l4.8-1.1l4.7-1.6l4.6-2L91.7,160l1.1,0.1l4.6,0.6l4.7,0.8l3.8,0.9l5.4,25.7l-5.1,7.9l-1.8,3.3l-0.9,1.4l-2.4,4.2
		l-0.3,0.5l-2.8,4.7l-0.2,0.5l-3.4,5.5l-3.7,4.3l-4.1,3.2l-4.4,2.1l-2.9,0.6l-3.7,1.7l-0.6,0.1l-4.2,2.1l-3.9,3l-12,13.5l-1.7,1.7
		L52.6,247.6"/>
	<path class="st3" d="M304,274.3l-0.1-10.1l-0.1-1.9L301,254l-1.9-11.3l-1.1-4.4l-1.4-4.2l-1.1-4.6l-1.8-11.3l3.4-3l10.7-8.2l4.4-2
		l4.6-1.6l3.2-0.8l1.4-0.5l3.1-0.7l1.6-0.5l2.9-0.7l1.7-0.6l2.8-0.6l1.9-0.6l2.6-0.6l2-0.7l4.7-1l19.7-2.2l5.1,3.3l4.1,16.4l0.4,1.1
		l0.8,3.2l0.1,0.3l1,3.5l0.1,0.4l1.3,4.2l1.6,4.1l2,4l0.5,0.8l0.9,3.4l8.8,24.5l-9.8,14.7l-6.9,3.2l-4.2,1.7l-4.2,1.4l-0.1,0
		l-4.3,1.4h0l-4.3,1.4l-0.1,0l-4.4,1.4l-1.5,0.6l-42.1-12.9l-4.4-1.6L304,274.3"/>
	<path class="st3" d="M163.5,391.7l-2,0.8l-2.7,0.7l-1.9,0.7l-2.8,0.7l-1.9,0.7l-2.9,0.7l-1.8,0.7l-4.7,1.2l-4.9,0.6l-5,0.1
		l-10.3-0.9l-1.9-3.1l-6.2-12.3l-2.3-3.8l-2.7-3.7l-3-3.6l-3.3-3.5l-6.2-5.7l-0.5-2l-0.8-5l-0.5-5.1l-0.2-4.4l24-9.5l11.8-2l4.8-1.4
		l0.3-0.1l4.3-1.3l0.1,0l4.2-1.3l0.5-0.1l31.1-9.9l13.8,7.5l2.3,1.6l-5.4,13.5l-1.6,5l-1.2,4.9l-0.8,4.8l-0.4,4.6l0.1,18.3l-0.5,5
		l-0.4,2.1L163.5,391.7"/>
	<path class="st3" d="M260,296.2l-14.6,2.3l-0.9,0.1l-9.6-18.3l-6.4-7.2l-2.7-4l-1.9-4.2l-0.8-3l-0.6-1.4l-0.5-2L221,256l-0.2-1.1
		l-1.1-3.4l-1-6.3l-5.7-17.9l1.4-0.9l4.3-2.2l4.4-1.8l4.5-1.4l1.2-0.2l3.4-0.9l11.2-4l0.5-0.3l3-2l1,0.2l4.7,0.5l4.5,0.1l12.7-1
		l4.5,0.1l4.6,0.5l4.7,0.9l4.8,1.4l4.9,1.8l0.5,0.2l1.8,11.3l1.1,4.6l1.4,4.2l1.1,4.4L301,254l2.8,8.3l0.1,1.9l0.1,10.1l-16.9,14
		l-8.6,4.6l-0.8,0l-4.6,0.5l-4.5,0.7l-4.4,1l-3.4,1L260,296.2"/>
	<path class="st3" d="M225.7,269.1l2.7,4l6.4,7.2l9.6,18.3l-2.2,1.7L222.4,314l-3.4,2.7l-3.4,3l-3.3,3.2l-2.6,2.9l-0.8,0.3l-4.4,1.1
		l-4.4,0.9l-4.5,0.6l-3.2,0.3l-2.3-1.6l-13.8-7.5l-7.8-16.3l-3.9-5.2l-2.5-4l-2.1-4.2l-1.7-4.3l-0.7-2.6l-0.7-1.8l-0.5-1.9l-1.3-3.6
		l-1.6-3.5l-5.2-9.6l3.8-19.2l17.1-4.8l0.9-0.2l3.1-0.9l1.2-0.2l2.7-0.8l1.6-0.3l2.4-0.7l1.9-0.4l2-0.6l2.2-0.5l4.2-1.4l4.1-1.7
		l4.9-2.6l4.4-0.7l4.7-0.3l3.2,0.1l5.7,17.9l1,6.3l1.1,3.4l0.2,1.1l0.9,2.4l0.5,2l0.6,1.4l0.8,3L225.7,269.1"/>
	<path class="st3" d="M52.6,247.6l-3.7-4.1l-12.1-16.9l-3.2-3.7l-3.6-3.6l-4-3.4L9,203.4l21.4-15.8l4.2-2.6l4.2-2.2l4.3-1.8l4.4-1.4
		l4.5-1l1.2-0.2l4.8-1.1l4.7-1.6l4.6-2L91.7,160l1.1,0.1l4.6,0.6l4.7,0.8l3.8,0.9l5.4,25.7l-5.1,7.9l-1.8,3.3l-0.9,1.4l-2.4,4.2
		l-0.3,0.5l-2.8,4.7l-0.2,0.5l-3.4,5.5l-3.7,4.3l-4.1,3.2l-4.4,2.1l-2.9,0.6l-3.7,1.7l-0.6,0.1l-4.2,2.1l-3.9,3l-12,13.5l-1.7,1.7
		L52.6,247.6"/>
	<path class="st3" d="M150.9,242.3l1.2,1.3l-3.8,19.2l-21.8,7.1l-0.9,0.2l-3.6,1.2l-1,0.2l-3.4,1.1l-1.2,0.2l-3.3,1.1l-1.3,0.3
		l-3.1,1.1l-1.5,0.3l-4.5,1.6l-4.3,2.2l-22.9,15.8l-1.5-1.7l-3.2-4.3l-2.8-4.4l-2.4-4.5l-2-4.6l-1.6-4.7l-0.4-1.7l-1-3.1l-0.1-0.4
		l-2.3-4.1l-2.1-4.6l-1.6-4.7l-0.5-1.9l-0.7-2.1l1.7-1.7l12-13.5l3.9-3l4.2-2.1l0.6-0.1l3.7-1.7l2.9-0.6l4.4-2.1l4.1-3.2l3.7-4.3
		l3.4-5.5L98,210l2.8-4.7l0.3-0.5l2.4-4.2l0.9-1.4l1.8-3.3l5.1-7.9l4.1,3.5l2.6,1.9l3.9,3.3l15.8,15.4l0.2,0.3l1.7,4.5l1.1,4.1
		l1.1,3.1l6.2,14.7l0.3,0.4L150.9,242.3"/>
	<path class="st3" d="M86.6,331.5l-2-4.6l-1.7-4.7l-1-3.7l-0.4-1.1l-0.9-3.4l-0.5-1.4l-0.8-3.1l-0.6-1.7L78,305l-0.7-2l-1.2-4.8
		l-0.5-2.9l22.9-15.8l4.3-2.2l4.5-1.6l1.5-0.3l3.1-1.1l1.3-0.3l3.3-1.1l1.2-0.2l3.4-1.1l1-0.2l3.6-1.2l0.9-0.2l21.8-7.1l5.2,9.6
		l1.6,3.5l1.3,3.6l0.5,1.9l0.7,1.8l0.7,2.6l1.7,4.3l2.1,4.2l2.5,4l3.9,5.2l7.8,16.3l-31.1,9.9l-0.5,0.1l-4.2,1.3l-0.1,0l-4.3,1.3
		l-0.3,0.1l-4.8,1.4l-11.8,2l-24,9.5l-0.5-0.6l-3-4.3L89,336L86.6,331.5"/>
	<path class="st3" d="M52.6,247.6l-3.7-4.1l-12.1-16.9l-3.2-3.7l-3.6-3.6l-4-3.4L9,203.4l21.4-15.8l4.2-2.6l4.2-2.2l4.3-1.8l4.4-1.4
		l4.5-1l1.2-0.2l4.8-1.1l4.7-1.6l4.6-2L91.7,160l1.1,0.1l4.6,0.6l4.7,0.8l3.8,0.9l5.4,25.7l-5.1,7.9l-1.8,3.3l-0.9,1.4l-2.4,4.2
		l-0.3,0.5l-2.8,4.7l-0.2,0.5l-3.4,5.5l-3.7,4.3l-4.1,3.2l-4.4,2.1l-2.9,0.6l-3.7,1.7l-0.6,0.1l-4.2,2.1l-3.9,3l-12,13.5l-1.7,1.7
		L52.6,247.6"/>
	<path class="st4" d="M-302.4,138.4l-25.3,6.9l-3.2-0.7l-10.3-38.5l-0.5-3.2l-0.6-2.2l-0.4-2.2l0-1.1l-0.4-5.6l-0.9-5.5l-0.5-1.9
		l-0.6-3.5l-0.4-1.5l-0.7-3.9l-0.3-1.1l-1-5.1l-1.2-12.9l9.2-6.1l5.5-2.8l5.5-2l5.5-1.3l1.5-0.2l4-1l2.1-0.2l6-1.6l5.9-2.4l5.7-3.2
		l5.5-4.1l0.1-0.1l28.9,6.8l3.5,1.2l1.5,17.5l0.9,4.7l0.5,1.6l0.5,3l0.7,2.6l1.8,12.6l-0.1,2.7l1.1,4.1l1.3,3.5l0.3,1.5l4.1,31.2
		l-10.6,5l-5.5,2.1l-5.6,1.7l-5.6,1.3l-0.3,0.1l-4.6,1l-0.7,0.2l-5.7,1.1l-5.8,0.7l-5.9,0.2l-1.2,0L-302.4,138.4"/>
	<path class="st4" d="M-386.8,159.6l-1.2,0.3l-4.1,0.8l-25.9-2.5l-5.3-0.8l-5.3-1.1l-5.4-1.4l-7.4-2.3l3.6-28.8l0.3-6.5l-0.2-6.4
		l-0.8-6.2l-1.3-6.1l0-0.1l-1.3-6l-1.9-6l-2.7-6.5l-0.4-2.1l-5.5-56.2l7.3-5.5l3.9-1.5l6.4-2.1l6.1,3.3l8.3,5l4.3,3l7.3,4.4l7.1,3.7
		l7,3l20,6.7l0.8,0.2l24.5,14.4l1.2,12.9l1,5.1l0.3,1.1l0.7,3.9l0.4,1.5l0.6,3.6l0.5,1.9l0.9,5.5l0.4,5.6l0,1.1l0.4,2.2l0.6,2.2
		l0.5,3.2l10.3,38.5l-14.2,6.3l-6.1,2.2l-6.2,1.7l-5.4,1.1l-0.9,0.2l-4.5,0.8l-1.7,0.4l-6.3,1.1l-6.5,0.6l-1.8,0.1L-386.8,159.6"/>
	<path class="st4" d="M-505,168.6l-18.4-16.2l-4.9-5.2l-4.2-5.3l-3.4-5.5l-2.6-5.6l-1.9-5.8l-0.8-4.5l-9.2-14.9l-3.4-4.4l-2.9-3.2
		l0.3-1.4l2.2-22.2l1-5.4l1.5-5.5l2-5.7l4.3-9.6l5.4-22.8l16.1-1.2l0.2,0l14.4-0.3l10.2-1.5l5.6-0.5l5.6-0.3l5.7,0l17.8,0.9
		l12.7-0.8l5.5,56.2l0.4,2.1l2.7,6.5l1.9,6l1.3,6l0,0.1l1.3,6.1l0.8,6.2l0.2,6.4l-0.3,6.5l-3.6,28.8l-24.5,12.4l-5.3,3l-5.2,3.3
		l-5.1,3.6l-1,0.8l-4.9-1.1l-6.1-1.1l-6-0.8l-1.4-0.1L-505,168.6"/>
	<path class="st4" d="M-155.6,175.2l1.7,5.6l4.7,10.6l3,25.5l-25.6,2.9l-6.1,1.3l-2.6,0.9l-3.4,0.8l-2.4,0.8l-3.6,0.8l-2.3,0.8
		l-3.8,0.9l-2.1,0.7l-4,0.9l-1.9,0.6l-4.2,1l-6,2l-5.7,2.6l-0.3-0.8l-11.4-23.9l-7.9-7.4l2.1-2.6l-3.2-3.7l1.8-2l-2.9-4.3l1.4-1.4
		l-2.4-4.9l0.8-0.7l-1.7-5.6l0.1,0l-0.9-6.3l4-3.2l4.3-10.4l3.1-16.4l0.9-11.2l3.2,0.1l4.6-0.3l8-1.8l5.9-0.1l5.4-0.5l5.3-0.9
		l2.8-0.7l4.7-0.8l4.7-0.5l13.8-0.6l4.7,15.2l7.5,14.7l2.2,6.2l0.9,4.6l0.6,1.8l0.7,3.9l0.8,2.5L-155.6,175.2"/>
	<path class="st4" d="M-269.3,242l-16.6,1.3l-5.9-0.1l-6.1-0.6l-1.2-0.2l-3.2-21.4l-3.9-7.8l-1.9-5.4l-1.1-5.6v0l-1.2-5.6l0-0.3
		l-1.2-5.3l0-0.6l-1.3-5.8l-14.7-39.2l25.3-6.9l3.7-0.7l1.2,0l5.9-0.2l5.8-0.7l5.7-1.1l0.7-0.2l4.6-1l0.3-0.1l5.6-1.3l5.6-1.7
		l5.5-2.1l10.6-5l15.3,4.8l-0.9,11.2l-3.1,16.4l-4.3,10.4l-4,3.2l0.9,6.3l-0.1,0l1.7,5.6l-0.8,0.7l2.4,4.9l-1.4,1.4l2.9,4.3l-1.8,2
		l3.2,3.7l-2.1,2.6l7.9,7.4l11.4,23.9l0.3,0.8l-13.9,10.7l-4.4,3.9l-0.7-0.3l-6.3-2.3l-6.2-1.8l-6.1-1.2l-6-0.7L-269.3,242"/>
	<path class="st4" d="M-155.6,175.2l1.7,5.6l4.7,10.6l3,25.5l-25.6,2.9l-6.1,1.3l-2.6,0.9l-3.4,0.8l-2.4,0.8l-3.6,0.8l-2.3,0.8
		l-3.8,0.9l-2.1,0.7l-4,0.9l-1.9,0.6l-4.2,1l-6,2l-5.7,2.6l-0.3-0.8l-11.4-23.9l-7.9-7.4l2.1-2.6l-3.2-3.7l1.8-2l-2.9-4.3l1.4-1.4
		l-2.4-4.9l0.8-0.7l-1.7-5.6l0.1,0l-0.9-6.3l4-3.2l4.3-10.4l3.1-16.4l0.9-11.2l3.2,0.1l4.6-0.3l8-1.8l5.9-0.1l5.4-0.5l5.3-0.9
		l2.8-0.7l4.7-0.8l4.7-0.5l13.8-0.6l4.7,15.2l7.5,14.7l2.2,6.2l0.9,4.6l0.6,1.8l0.7,3.9l0.8,2.5L-155.6,175.2"/>
	<path class="st4" d="M-269.3,242l-16.6,1.3l-5.9-0.1l-6.1-0.6l-1.2-0.2l-3.2-21.4l-3.9-7.8l-1.9-5.4l-1.1-5.6v0l-1.2-5.6l0-0.3
		l-1.2-5.3l0-0.6l-1.3-5.8l-14.7-39.2l25.3-6.9l3.7-0.7l1.2,0l5.9-0.2l5.8-0.7l5.7-1.1l0.7-0.2l4.6-1l0.3-0.1l5.6-1.3l5.6-1.7
		l5.5-2.1l10.6-5l15.3,4.8l-0.9,11.2l-3.1,16.4l-4.3,10.4l-4,3.2l0.9,6.3l-0.1,0l1.7,5.6l-0.8,0.7l2.4,4.9l-1.4,1.4l2.9,4.3l-1.8,2
		l3.2,3.7l-2.1,2.6l7.9,7.4l11.4,23.9l0.3,0.8l-13.9,10.7l-4.4,3.9l-0.7-0.3l-6.3-2.3l-6.2-1.8l-6.1-1.2l-6-0.7L-269.3,242"/>
	<path class="st4" d="M-359.8,260.6l-9.4-15.1l-8.1-8.7l-5.3-1.8l-0.9-5.6l-0.2-0.1l-1-5.6l-0.2-0.1l-1-5.6l-0.1,0l-1.1-5.6l-0.1,0
		l-1.2-5.7l0,0l-5.7-26.6l1.7-13.7l0.3-5.5l4.1-0.8l1.2-0.3l2.5-0.5l1.8-0.1l6.5-0.6l6.3-1.1l1.7-0.4l4.5-0.8l0.9-0.2l5.4-1.1
		l6.2-1.7l6.1-2.2l14.2-6.3l3.2,0.7l14.7,39.2l1.3,5.8l0,0.6l1.2,5.3l0,0.3l1.2,5.6v0l1.1,5.6l1.9,5.4l3.9,7.8l3.2,21.4l-3.9,2.6
		l-0.7,0.4l-14.6,5.2l-4.4,1.2l-1.5,0.3l-5.9,1.8l-5.7,2.3l-5.6,2.9l-1.9,1.2l-4.1-0.1l-6.1,0.4l-5.8,0.9L-359.8,260.6"/>
	<path class="st4" d="M-400,275.1l-22.2,6.3l-1.6-1.7l-3.5-4.1l-0.4-0.5l-8.1-19.1l-1.4-4.1l-1.4-5.4l-2.2-5.8l-0.2-0.4l-20.6-20
		l-5.1-4.3l-3.3-2.5l-5.4-4.5l-7.1-33.4l1-0.8l5.1-3.6l5.2-3.3l5.3-3l24.5-12.4l7.4,2.3l5.4,1.4l5.3,1.1l5.3,0.8l25.9,2.5l-0.3,5.5
		l-1.7,13.7l5.7,26.6l0,0l1.2,5.7l0.1,0l1.1,5.6l0.1,0l1,5.6l0.2,0.1l1,5.6l0.2,0.1l0.9,5.6l5.3,1.8l8.1,8.7l9.4,15.1l0.5,0.9
		l-6.4,3.4l-5.3,2.3l-5.5,1.8l-2.9,0.6l-2.7,0.8l-2.5,0.5l-3.1,1l-2,0.4l-3.5,1l-1.6,0.3l-4,1.1L-400,275.1"/>
	<path class="st4" d="M-359.8,260.6l-9.4-15.1l-8.1-8.7l-5.3-1.8l-0.9-5.6l-0.2-0.1l-1-5.6l-0.2-0.1l-1-5.6l-0.1,0l-1.1-5.6l-0.1,0
		l-1.2-5.7l0,0l-5.7-26.6l1.7-13.7l0.3-5.5l4.1-0.8l1.2-0.3l2.5-0.5l1.8-0.1l6.5-0.6l6.3-1.1l1.7-0.4l4.5-0.8l0.9-0.2l5.4-1.1
		l6.2-1.7l6.1-2.2l14.2-6.3l3.2,0.7l14.7,39.2l1.3,5.8l0,0.6l1.2,5.3l0,0.3l1.2,5.6v0l1.1,5.6l1.9,5.4l3.9,7.8l3.2,21.4l-3.9,2.6
		l-0.7,0.4l-14.6,5.2l-4.4,1.2l-1.5,0.3l-5.9,1.8l-5.7,2.3l-5.6,2.9l-1.9,1.2l-4.1-0.1l-6.1,0.4l-5.8,0.9L-359.8,260.6"/>
	<path class="st4" d="M-400,275.1l-22.2,6.3l-1.6-1.7l-3.5-4.1l-0.4-0.5l-8.1-19.1l-1.4-4.1l-1.4-5.4l-2.2-5.8l-0.2-0.4l-20.6-20
		l-5.1-4.3l-3.3-2.5l-5.4-4.5l-7.1-33.4l1-0.8l5.1-3.6l5.2-3.3l5.3-3l24.5-12.4l7.4,2.3l5.4,1.4l5.3,1.1l5.3,0.8l25.9,2.5l-0.3,5.5
		l-1.7,13.7l5.7,26.6l0,0l1.2,5.7l0.1,0l1.1,5.6l0.1,0l1,5.6l0.2,0.1l1,5.6l0.2,0.1l0.9,5.6l5.3,1.8l8.1,8.7l9.4,15.1l0.5,0.9
		l-6.4,3.4l-5.3,2.3l-5.5,1.8l-2.9,0.6l-2.7,0.8l-2.5,0.5l-3.1,1l-2,0.4l-3.5,1l-1.6,0.3l-4,1.1L-400,275.1"/>
	<path class="st4" d="M-551.6,286.6l-4.7-5.4l-15.8-22l-4.1-4.8l-4.7-4.6l-5.3-4.4l-22.2-16.2l27.8-20.6l5.4-3.4l5.5-2.9l5.6-2.4
		l5.7-1.9l5.8-1.4l1.5-0.2l6.2-1.5l6.1-2.1l6-2.6l31.8-17.5l1.4,0.1l6,0.8l6.1,1.1l4.9,1.1l7.1,33.4l-6.6,10.3l-2.4,4.3l-1.2,1.8
		l-3.1,5.5l-0.4,0.6l-3.6,6.1l-0.3,0.6l-4.4,7.1l-4.8,5.6l-5.3,4.2l-5.7,2.7l-3.8,0.8l-4.7,2.2l-0.8,0.2l-5.4,2.7l-5,4l-15.6,17.5
		l-2.2,2.2L-551.6,286.6"/>
	<path class="st4" d="M-224.8,321.3l-0.2-13.1l-0.2-2.5l-3.6-10.8l-2.4-14.7l-1.4-5.8l-1.8-5.5l-1.4-5.9l-2.4-14.7l4.4-3.9
		l13.9-10.7l5.7-2.6l6-2l4.2-1l1.9-0.6l4-0.9l2.1-0.7l3.8-0.9l2.3-0.8l3.6-0.8l2.4-0.8l3.4-0.8l2.6-0.9l6.1-1.3l25.6-2.9l6.7,4.3
		l5.3,21.3l0.5,1.4l1.1,4.2l0.2,0.4l1.3,4.6l0.1,0.5l1.6,5.5l2.1,5.4l2.6,5.2l0.6,1l1.2,4.4l11.5,31.8l-12.8,19.1l-8.9,4.2l-5.5,2.1
		l-5.5,1.8l-0.1,0l-5.6,1.8l0,0l-5.6,1.8l-0.1,0l-5.7,1.9l-1.9,0.8l-54.7-16.7l-5.7-2L-224.8,321.3"/>
	<path class="st4" d="M-407.5,473.9l-2.6,1l-3.5,0.9l-2.5,0.9l-3.6,0.9l-2.4,0.9l-3.7,0.9l-2.3,0.9l-6.1,1.5l-6.3,0.8l-6.5,0.1
		l-13.4-1.1l-2.5-4.1l-8-16l-3-5l-3.5-4.8l-3.9-4.7l-4.4-4.6l-8-7.4l-0.6-2.6l-1-6.5l-0.6-6.6l-0.2-5.8l31.2-12.4l15.4-2.6l6.2-1.8
		l0.4-0.2l5.6-1.7l0.1,0l5.5-1.7l0.6-0.1l40.4-12.8l18,9.8l3,2l-7,17.6l-2.1,6.5l-1.6,6.4l-1,6.2l-0.5,6l0.1,23.8l-0.6,6.5l-0.5,2.7
		L-407.5,473.9"/>
	<path class="st4" d="M-282,349.8l-19,3l-1.2,0.1l-12.5-23.8l-8.4-9.4l-3.5-5.2l-2.5-5.5l-1.1-3.9l-0.8-1.8l-0.6-2.6l-1.2-3.1
		l-0.3-1.4l-1.5-4.4l-1.4-8.2l-7.4-23.3l1.9-1.2l5.6-2.9l5.7-2.3l5.9-1.8l1.5-0.3l4.4-1.2l14.6-5.2l0.7-0.4l3.9-2.6l1.2,0.2l6.1,0.6
		l5.9,0.1l16.6-1.3l5.9,0.1l6,0.7l6.1,1.2l6.2,1.8l6.3,2.3l0.7,0.3l2.4,14.7l1.4,5.9l1.8,5.5l1.4,5.8l2.4,14.7l3.6,10.8l0.2,2.5
		l0.2,13.1l-21.9,18.2l-11.2,6l-1,0l-5.9,0.6l-5.8,1l-5.7,1.3l-4.4,1.3L-282,349.8"/>
	<path class="st4" d="M-326.6,314.5l3.5,5.2l8.4,9.4l12.5,23.8l-2.9,2.2l-25.7,17.8l-4.5,3.5l-4.4,3.8l-4.3,4.2l-3.4,3.7l-1.1,0.3
		l-5.7,1.5l-5.8,1.1l-5.9,0.8l-4.1,0.4l-3-2l-18-9.8l-10.1-21.2l-5.1-6.8l-3.3-5.3l-2.7-5.4l-2.1-5.6l-0.9-3.4l-0.9-2.3l-0.6-2.4
		l-1.6-4.7l-2-4.6l-6.8-12.4l5-24.9l22.2-6.3l1.2-0.2l4-1.1l1.6-0.3l3.5-1l2-0.4l3.1-1l2.5-0.5l2.7-0.8l2.9-0.6l5.5-1.8l5.3-2.3
		l6.4-3.4l5.8-0.9l6.1-0.4l4.1,0.1l7.4,23.3l1.4,8.2l1.5,4.4l0.3,1.4l1.2,3.1l0.6,2.6l0.8,1.8l1.1,3.9L-326.6,314.5"/>
	<path class="st4" d="M-551.6,286.6l-4.7-5.4l-15.8-22l-4.1-4.8l-4.7-4.6l-5.3-4.4l-22.2-16.2l27.8-20.6l5.4-3.4l5.5-2.9l5.6-2.4
		l5.7-1.9l5.8-1.4l1.5-0.2l6.2-1.5l6.1-2.1l6-2.6l31.8-17.5l1.4,0.1l6,0.8l6.1,1.1l4.9,1.1l7.1,33.4l-6.6,10.3l-2.4,4.3l-1.2,1.8
		l-3.1,5.5l-0.4,0.6l-3.6,6.1l-0.3,0.6l-4.4,7.1l-4.8,5.6l-5.3,4.2l-5.7,2.7l-3.8,0.8l-4.7,2.2l-0.8,0.2l-5.4,2.7l-5,4l-15.6,17.5
		l-2.2,2.2L-551.6,286.6"/>
	<path class="st4" d="M-423.8,279.7l1.6,1.7l-5,24.9l-28.4,9.2l-1.1,0.2l-4.6,1.5l-1.3,0.2l-4.5,1.5l-1.5,0.3l-4.3,1.5l-1.7,0.3
		l-4.1,1.4l-1.9,0.4l-5.9,2.1l-5.6,2.9l-29.8,20.5l-1.9-2.2l-4.2-5.6l-3.6-5.7l-3.1-5.9l-2.6-6l-2.1-6.2l-0.5-2.2l-1.3-4l-0.1-0.5
		l-3-5.3l-2.7-6l-2.1-6.1l-0.6-2.4l-0.9-2.7l2.2-2.2l15.6-17.5l5-4l5.4-2.7l0.8-0.2l4.7-2.2l3.8-0.8l5.7-2.7l5.3-4.2l4.8-5.6
		l4.4-7.1l0.3-0.6l3.6-6.1l0.4-0.6l3.1-5.5l1.2-1.8l2.4-4.3l6.6-10.3l5.4,4.5l3.3,2.5l5.1,4.3l20.6,20l0.2,0.4l2.2,5.8l1.4,5.4
		l1.4,4.1l8.1,19.1l0.4,0.5L-423.8,279.7"/>
	<path class="st4" d="M-507.5,395.6l-2.6-6l-2.2-6.1l-1.3-4.8l-0.5-1.4l-1.2-4.4l-0.6-1.8l-1.1-4l-0.8-2.2l-0.9-3.6l-0.9-2.7
		l-1.6-6.3l-0.7-3.8l29.8-20.5l5.6-2.9l5.9-2.1l1.9-0.4l4.1-1.4l1.7-0.3l4.3-1.5l1.5-0.3l4.5-1.5l1.3-0.2l4.6-1.5l1.1-0.2l28.4-9.2
		l6.8,12.4l2,4.6l1.6,4.7l0.6,2.4l0.9,2.3l0.9,3.4l2.1,5.6l2.7,5.4l3.3,5.3l5.1,6.8l10.1,21.2l-40.4,12.8l-0.6,0.1l-5.5,1.7l-0.1,0
		l-5.6,1.7l-0.4,0.2l-6.2,1.8l-15.4,2.6l-31.2,12.4l-0.6-0.8l-3.9-5.6l-3.5-5.8L-507.5,395.6"/>
	<path class="st4" d="M-551.6,286.6l-4.7-5.4l-15.8-22l-4.1-4.8l-4.7-4.6l-5.3-4.4l-22.2-16.2l27.8-20.6l5.4-3.4l5.5-2.9l5.6-2.4
		l5.7-1.9l5.8-1.4l1.5-0.2l6.2-1.5l6.1-2.1l6-2.6l31.8-17.5l1.4,0.1l6,0.8l6.1,1.1l4.9,1.1l7.1,33.4l-6.6,10.3l-2.4,4.3l-1.2,1.8
		l-3.1,5.5l-0.4,0.6l-3.6,6.1l-0.3,0.6l-4.4,7.1l-4.8,5.6l-5.3,4.2l-5.7,2.7l-3.8,0.8l-4.7,2.2l-0.8,0.2l-5.4,2.7l-5,4l-15.6,17.5
		l-2.2,2.2L-551.6,286.6"/>
</g>
<path class="st5" d="M246.9,88.6l26.4,84.8"/>
<path class="st5" d="M246.9,88.6l26.4,84.8"/>
<path class="st5" d="M246.9,88.6l-45.1,101.8"/>
<path class="st5" d="M246.9,88.6l-45.1,101.8"/>
<path class="st5" d="M178.8,99.7l-88.5,2.8"/>
<path class="st5" d="M178.8,99.7l23,90.7"/>
<path class="st5" d="M178.8,99.7l-11.7,97.7"/>
<path class="st5" d="M178.8,99.7l23,90.7"/>
<path class="st5" d="M178.8,99.7l-11.7,97.7"/>
<path class="st5" d="M90.3,102.5l76.8,94.9"/>
<path class="st5" d="M90.3,102.5L67.7,210.6"/>
<path class="st5" d="M90.3,102.5l76.8,94.9"/>
<path class="st5" d="M90.3,102.5L67.7,210.6"/>
<path class="st5" d="M90.3,102.5l88.5-2.8"/>
<path class="st5" d="M90.3,102.5L67.7,210.6"/>
<path class="st5" d="M316.2,166.6l-42.8,6.8"/>
<path class="st5" d="M316.2,166.6L316.2,166.6"/>
<path class="st5" d="M316.2,166.6l-42.8,6.8"/>
<path class="st5" d="M316.2,166.6l26.2,70.3"/>
<path class="st5" d="M273.3,173.4l42.8-6.8"/>
<path class="st5" d="M273.3,173.4l42.8-6.8"/>
<path class="st5" d="M273.3,173.4L273.3,173.4"/>
<path class="st5" d="M273.3,173.4l-71.5,16.9"/>
<path class="st5" d="M273.3,173.4l-21.1,76.4"/>
<path class="st5" d="M273.3,173.4l-71.5,16.9"/>
<path class="st5" d="M273.3,173.4l-26.4-84.8"/>
<path class="st5" d="M273.3,173.4l69.1,63.5"/>
<path class="st5" d="M316.2,166.6L316.2,166.6"/>
<path class="st5" d="M316.2,166.6l-42.8,6.8"/>
<path class="st5" d="M316.2,166.6l-42.8,6.8"/>
<path class="st5" d="M316.2,166.6l26.2,70.3"/>
<path class="st5" d="M273.3,173.4l42.8-6.8"/>
<path class="st5" d="M273.3,173.4L273.3,173.4"/>
<path class="st5" d="M273.3,173.4l42.8-6.8"/>
<path class="st5" d="M273.3,173.4l-71.5,16.9"/>
<path class="st5" d="M273.3,173.4l-21.1,76.4"/>
<path class="st5" d="M273.3,173.4l-71.5,16.9"/>
<path class="st5" d="M273.3,173.4l-26.4-84.8"/>
<path class="st5" d="M273.3,173.4l69.1,63.5"/>
<path class="st5" d="M201.8,190.4l-34.7,7"/>
<path class="st5" d="M201.8,190.4l-6.1,79.8"/>
<path class="st5" d="M201.8,190.4l71.5-16.9"/>
<path class="st5" d="M201.8,190.4l71.5-16.9"/>
<path class="st5" d="M201.8,190.4l50.4,59.4"/>
<path class="st5" d="M201.8,190.4L201.8,190.4"/>
<path class="st5" d="M201.8,190.4l-34.7,7"/>
<path class="st5" d="M201.8,190.4l45.1-101.8"/>
<path class="st5" d="M201.8,190.4l-23-90.7"/>
<path class="st5" d="M167.1,197.3l-64.4,46.3"/>
<path class="st5" d="M167.1,197.3l-76.8-94.9"/>
<path class="st5" d="M167.1,197.3l28.6,72.8"/>
<path class="st5" d="M167.1,197.3l34.7-7"/>
<path class="st5" d="M167.1,197.3l-99.5,13.3"/>
<path class="st5" d="M167.1,197.3l34.7-7"/>
<path class="st5" d="M167.1,197.3L167.1,197.3"/>
<path class="st5" d="M167.1,197.3l-99.5,13.3"/>
<path class="st5" d="M167.1,197.3l11.7-97.7"/>
<path class="st5" d="M167.1,197.3l-99.5,13.3"/>
<path class="st5" d="M201.8,190.4l-34.7,7"/>
<path class="st5" d="M201.8,190.4l71.5-16.9"/>
<path class="st5" d="M201.8,190.4l71.5-16.9"/>
<path class="st5" d="M201.8,190.4L201.8,190.4"/>
<path class="st5" d="M201.8,190.4l50.4,59.4"/>
<path class="st5" d="M201.8,190.4l-6.1,79.8"/>
<path class="st5" d="M201.8,190.4l-34.7,7"/>
<path class="st5" d="M201.8,190.4l-23-90.7"/>
<path class="st5" d="M167.1,197.3l-64.4,46.3"/>
<path class="st5" d="M167.1,197.3L167.1,197.3"/>
<path class="st5" d="M167.1,197.3l-76.8-94.9"/>
<path class="st5" d="M167.1,197.3l28.6,72.8"/>
<path class="st5" d="M167.1,197.3l34.7-7"/>
<path class="st5" d="M167.1,197.3l-99.5,13.3"/>
<path class="st5" d="M167.1,197.3l34.7-7"/>
<path class="st5" d="M167.1,197.3l-99.5,13.3"/>
<path class="st5" d="M167.1,197.3l11.7-97.7l68.1-11l-45.1,101.8"/>
<path class="st5" d="M167.1,197.3l-99.5,13.3"/>
<path class="st5" d="M67.7,210.6l35,33"/>
<path class="st5" d="M67.7,210.6l22.7-108.2"/>
<path class="st5" d="M67.7,210.6l99.5-13.3"/>
<path class="st5" d="M67.7,210.6l99.5-13.3"/>
<path class="st5" d="M342.4,236.9l-26.2-70.3"/>
<path class="st5" d="M342.4,236.9l-69.1-63.5"/>
<path class="st5" d="M342.4,236.9l-26.2-70.3"/>
<path class="st5" d="M342.4,236.9l-69.1-63.5"/>
<path class="st5" d="M342.4,236.9l-90.2,12.9"/>
<path class="st5" d="M147.4,363.3l-21.1-63.9"/>
<path class="st5" d="M147.4,363.3l48.3-93.2"/>
<path class="st5" d="M252.2,249.8l-50.4-59.4"/>
<path class="st5" d="M252.2,249.8l21.1-76.4"/>
<path class="st5" d="M252.2,249.8l21.1-76.4"/>
<path class="st5" d="M252.2,249.8l-50.4-59.4"/>
<path class="st5" d="M252.2,249.8l-56.5,20.3"/>
<path class="st5" d="M252.2,249.8l90.2-12.9"/>
<path class="st5" d="M195.7,270.1l-93-26.5"/>
<path class="st5" d="M195.7,270.1l-69.4,29.3"/>
<path class="st5" d="M195.7,270.1l56.5-20.3"/>
<path class="st5" d="M195.7,270.1l-48.3,93.2"/>
<path class="st5" d="M195.7,270.1l6.1-79.8"/>
<path class="st5" d="M195.7,270.1l-28.6-72.8"/>
<path class="st5" d="M195.7,270.1l6.1-79.8"/>
<path class="st5" d="M195.7,270.1l-28.6-72.8"/>
<path class="st5" d="M67.7,210.6l35,33"/>
<path class="st5" d="M67.7,210.6l22.7-108.2"/>
<path class="st5" d="M67.7,210.6l99.5-13.3"/>
<path class="st5" d="M67.7,210.6l99.5-13.3"/>
<path class="st5" d="M102.7,243.6l64.4-46.3"/>
<path class="st5" d="M102.7,243.6l23.6,55.8"/>
<path class="st5" d="M102.7,243.6l-35-33"/>
<path class="st5" d="M102.7,243.6l93,26.5"/>
<path class="st5" d="M102.7,243.6l64.4-46.3"/>
<path class="st5" d="M102.7,243.6l-35-33"/>
<path class="st5" d="M102.7,243.6l-35-33"/>
<path class="st5" d="M126.3,299.5l-23.6-55.8"/>
<path class="st5" d="M126.3,299.5l69.4-29.3"/>
<path class="st5" d="M126.3,299.5l21.1,63.9"/>
<path class="st5" d="M67.7,210.6l35,33"/>
<path class="st5" d="M67.7,210.6l22.7-108.2"/>
<path class="st5" d="M67.7,210.6l99.5-13.3"/>
<path class="st5" d="M67.7,210.6l99.5-13.3"/>
<path class="st6" d="M-299.1,79.9l34.4,110.2"/>
<path class="st6" d="M-299.1,79.9l34.4,110.2"/>
<path class="st6" d="M-299.1,79.9l-58.6,132.3"/>
<path class="st6" d="M-299.1,79.9l-58.6,132.3"/>
<path class="st6" d="M-387.5,94.3l-115,3.7"/>
<path class="st6" d="M-387.5,94.3l29.9,117.9"/>
<path class="st6" d="M-387.5,94.3l-15.2,127"/>
<path class="st6" d="M-387.5,94.3l29.9,117.9"/>
<path class="st6" d="M-387.5,94.3l-15.2,127"/>
<path class="st6" d="M-502.6,97.9l99.8,123.3"/>
<path class="st6" d="M-502.6,97.9l-29.5,140.6"/>
<path class="st6" d="M-502.6,97.9l99.8,123.3"/>
<path class="st6" d="M-502.6,97.9l-29.5,140.6"/>
<path class="st6" d="M-502.6,97.9l115-3.7"/>
<path class="st6" d="M-502.6,97.9l-29.5,140.6"/>
<path class="st6" d="M-209,181.3l-55.7,8.8"/>
<path class="st6" d="M-209,181.3L-209,181.3"/>
<path class="st6" d="M-209,181.3l-55.7,8.8"/>
<path class="st6" d="M-209,181.3l34.1,91.4"/>
<path class="st6" d="M-264.7,190.2l55.7-8.8"/>
<path class="st6" d="M-264.7,190.2l55.7-8.8"/>
<path class="st6" d="M-264.7,190.2L-264.7,190.2"/>
<path class="st6" d="M-264.7,190.2l-93,22"/>
<path class="st6" d="M-264.7,190.2l-27.5,99.3"/>
<path class="st6" d="M-264.7,190.2l-93,22"/>
<path class="st6" d="M-264.7,190.2l-34.4-110.2"/>
<path class="st6" d="M-264.7,190.2l89.8,82.6"/>
<path class="st6" d="M-209,181.3L-209,181.3"/>
<path class="st6" d="M-209,181.3l-55.7,8.8"/>
<path class="st6" d="M-209,181.3l-55.7,8.8"/>
<path class="st6" d="M-209,181.3l34.1,91.4"/>
<path class="st6" d="M-264.7,190.2l55.7-8.8"/>
<path class="st6" d="M-264.7,190.2L-264.7,190.2"/>
<path class="st6" d="M-264.7,190.2l55.7-8.8"/>
<path class="st6" d="M-264.7,190.2l-93,22"/>
<path class="st6" d="M-264.7,190.2l-27.5,99.3"/>
<path class="st6" d="M-264.7,190.2l-93,22"/>
<path class="st6" d="M-264.7,190.2l-34.4-110.2"/>
<path class="st6" d="M-264.7,190.2l89.8,82.6"/>
<path class="st6" d="M-357.6,212.2l-45.1,9"/>
<path class="st6" d="M-357.6,212.2l-8,103.7"/>
<path class="st6" d="M-357.6,212.2l93-22"/>
<path class="st6" d="M-357.6,212.2l93-22"/>
<path class="st6" d="M-357.6,212.2l65.5,77.3"/>
<path class="st6" d="M-357.6,212.2L-357.6,212.2"/>
<path class="st6" d="M-357.6,212.2l-45.1,9"/>
<path class="st6" d="M-357.6,212.2l58.6-132.3"/>
<path class="st6" d="M-357.6,212.2l-29.9-117.9"/>
<path class="st6" d="M-402.8,221.2l-83.7,60.2"/>
<path class="st6" d="M-402.8,221.2l-99.8-123.3"/>
<path class="st6" d="M-402.8,221.2l37.2,94.7"/>
<path class="st6" d="M-402.8,221.2l45.1-9"/>
<path class="st6" d="M-402.8,221.2l-129.3,17.3"/>
<path class="st6" d="M-402.8,221.2l45.1-9"/>
<path class="st6" d="M-402.8,221.2L-402.8,221.2"/>
<path class="st6" d="M-402.8,221.2l-129.3,17.3"/>
<path class="st6" d="M-402.8,221.2l15.2-127"/>
<path class="st6" d="M-402.8,221.2l-129.3,17.3"/>
<path class="st6" d="M-357.6,212.2l-45.1,9"/>
<path class="st6" d="M-357.6,212.2l93-22"/>
<path class="st6" d="M-357.6,212.2l93-22"/>
<path class="st6" d="M-357.6,212.2L-357.6,212.2"/>
<path class="st6" d="M-357.6,212.2l65.5,77.3"/>
<path class="st6" d="M-357.6,212.2l-8,103.7"/>
<path class="st6" d="M-357.6,212.2l-45.1,9"/>
<path class="st6" d="M-357.6,212.2l-29.9-117.9"/>
<path class="st6" d="M-402.8,221.2l-83.7,60.2"/>
<path class="st6" d="M-402.8,221.2L-402.8,221.2"/>
<path class="st6" d="M-402.8,221.2l-99.8-123.3"/>
<path class="st6" d="M-402.8,221.2l37.2,94.7"/>
<path class="st6" d="M-402.8,221.2l45.1-9"/>
<path class="st6" d="M-402.8,221.2l-129.3,17.3"/>
<path class="st6" d="M-402.8,221.2l45.1-9"/>
<path class="st6" d="M-402.8,221.2l-129.3,17.3"/>
<path class="st6" d="M-402.8,221.2l15.2-127l88.5-14.3l-58.6,132.3"/>
<path class="st6" d="M-402.8,221.2l-129.3,17.3"/>
<path class="st6" d="M-532.1,238.6l45.5,42.9"/>
<path class="st6" d="M-532.1,238.6l29.5-140.6"/>
<path class="st6" d="M-532.1,238.6l129.3-17.3"/>
<path class="st6" d="M-532.1,238.6l129.3-17.3"/>
<path class="st6" d="M-174.9,272.7l-34.1-91.4"/>
<path class="st6" d="M-174.9,272.7l-89.8-82.6"/>
<path class="st6" d="M-174.9,272.7l-34.1-91.4"/>
<path class="st6" d="M-174.9,272.7l-89.8-82.6"/>
<path class="st6" d="M-174.9,272.7l-117.3,16.8"/>
<path class="st6" d="M-428.4,437l-27.5-83"/>
<path class="st6" d="M-428.4,437l62.8-121.1"/>
<path class="st6" d="M-292.2,289.5l-65.5-77.3"/>
<path class="st6" d="M-292.2,289.5l27.5-99.3"/>
<path class="st6" d="M-292.2,289.5l27.5-99.3"/>
<path class="st6" d="M-292.2,289.5l-65.5-77.3"/>
<path class="st6" d="M-292.2,289.5l-73.5,26.4"/>
<path class="st6" d="M-292.2,289.5l117.3-16.8"/>
<path class="st6" d="M-365.6,315.9l-120.9-34.5"/>
<path class="st6" d="M-365.6,315.9l-90.2,38.1"/>
<path class="st6" d="M-365.6,315.9l73.5-26.4"/>
<path class="st6" d="M-365.6,315.9L-428.4,437"/>
<path class="st6" d="M-365.6,315.9l8-103.7"/>
<path class="st6" d="M-365.6,315.9l-37.2-94.7"/>
<path class="st6" d="M-365.6,315.9l8-103.7"/>
<path class="st6" d="M-365.6,315.9l-37.2-94.7"/>
<path class="st6" d="M-532.1,238.6l45.5,42.9"/>
<path class="st6" d="M-532.1,238.6l29.5-140.6"/>
<path class="st6" d="M-532.1,238.6l129.3-17.3"/>
<path class="st6" d="M-532.1,238.6l129.3-17.3"/>
<path class="st6" d="M-486.5,281.4l83.7-60.2"/>
<path class="st6" d="M-486.5,281.4l30.7,72.6"/>
<path class="st6" d="M-486.5,281.4l-45.6-42.9"/>
<path class="st6" d="M-486.5,281.4l120.9,34.5"/>
<path class="st6" d="M-486.5,281.4l83.7-60.2"/>
<path class="st6" d="M-486.5,281.4l-45.6-42.9"/>
<path class="st6" d="M-486.5,281.4l-45.6-42.9"/>
<path class="st6" d="M-455.9,354l-30.7-72.6"/>
<path class="st6" d="M-455.9,354l90.2-38.1"/>
<path class="st6" d="M-455.9,354l27.5,83"/>
<path class="st6" d="M-532.1,238.6l45.5,42.9"/>
<path class="st6" d="M-532.1,238.6l29.5-140.6"/>
<path class="st6" d="M-532.1,238.6l129.3-17.3"/>
<path class="st6" d="M-532.1,238.6l129.3-17.3"/>
<g id="Layer_7">
	<text transform="matrix(1 0 0 1 228.6167 392.1671)" class="st0 st1 st7">momepy</text>
</g>
<path class="st3" d="M975.7,132.8l-19.5,5.3l-2.4-0.5l-7.9-29.6l-0.4-2.5l-0.5-1.7l-0.3-1.7l0-0.8l-0.3-4.3l-0.7-4.2l-0.4-1.5
	l-0.5-2.7l-0.3-1.2l-0.5-3l-0.2-0.9l-0.7-3.9l-0.9-9.9l7.1-4.7l4.2-2.2l4.2-1.5l4.2-1l1.1-0.1l3.1-0.8l1.6-0.2l4.7-1.2l4.5-1.8
	l4.4-2.5l4.3-3.1l0,0l22.2,5.2l2.7,0.9l1.2,13.5l0.7,3.6l0.3,1.2l0.4,2.3l0.5,2l1.4,9.7l-0.1,2l0.9,3.2l1,2.7l0.2,1.2l3.1,24
	l-8.2,3.9l-4.2,1.6l-4.3,1.3l-4.3,1l-0.2,0l-3.6,0.8l-0.5,0.1l-4.4,0.9l-4.4,0.5l-4.5,0.2l-0.9,0L975.7,132.8"/>
<path class="st3" d="M910.7,149.1l-0.9,0.2l-3.1,0.6l-19.9-1.9l-4.1-0.6l-4.1-0.9l-4.2-1.1l-5.7-1.8l2.7-22.2l0.2-5l-0.2-4.9
	l-0.6-4.8l-1-4.7l0-0.1l-1-4.7l-1.4-4.6l-2.1-5l-0.3-1.6L860.8,43l5.6-4.2l3-1.2l4.9-1.6l4.7,2.6l6.4,3.9l3.3,2.3l5.6,3.4l5.5,2.9
	l5.4,2.3l15.4,5.2l0.6,0.1L940,69.6l0.9,9.9l0.7,3.9l0.2,0.9l0.5,3l0.3,1.2l0.5,2.7l0.4,1.5l0.7,4.2l0.3,4.3l0,0.8l0.3,1.7l0.5,1.7
	l0.4,2.5l7.9,29.6l-10.9,4.9l-4.7,1.7l-4.7,1.3l-4.2,0.8l-0.6,0.2l-3.5,0.6l-1.3,0.3l-4.8,0.9l-5,0.5l-1.4,0L910.7,149.1"/>
<path class="st3" d="M819.8,156.1l-14.1-12.5l-3.8-4l-3.2-4.1l-2.6-4.2l-2-4.3l-1.5-4.5l-0.7-3.5l-7.1-11.4l-2.6-3.4l-2.3-2.4
	l0.2-1.1l1.7-17.1l0.8-4.2l1.2-4.3l1.6-4.3l3.3-7.4l4.2-17.5l12.4-0.9l0.1,0l11.1-0.2l7.8-1.2l4.3-0.4l4.3-0.2l4.4,0l13.7,0.7
	l9.8-0.6l4.2,43.2l0.3,1.6l2.1,5l1.5,4.6l1,4.7l0,0.1l1,4.7l0.6,4.8l0.2,4.9l-0.2,5l-2.7,22.2l-18.8,9.5l-4,2.3l-4,2.6l-3.9,2.8
	l-0.8,0.6l-3.8-0.9l-4.7-0.8l-4.6-0.6l-1.1-0.1L819.8,156.1"/>
<path class="st3" d="M1088.6,161.1l1.3,4.3l3.6,8.1l2.3,19.6l-19.7,2.2l-4.7,1l-2,0.7l-2.6,0.6l-1.9,0.6l-2.8,0.6l-1.7,0.6l-2.9,0.7
	l-1.6,0.5l-3.1,0.7l-1.4,0.5l-3.2,0.8l-4.6,1.6l-4.4,2l-0.2-0.6l-8.8-18.3l-6.1-5.7l1.6-2l-2.5-2.9l1.4-1.5l-2.2-3.3l1-1.1l-1.8-3.8
	l0.6-0.6l-1.3-4.3l0,0l-0.7-4.8l3.1-2.5l3.3-8l2.4-12.6l0.7-8.6l2.5,0l3.5-0.2l6.2-1.4l4.6-0.1l4.1-0.4l4.1-0.7l2.2-0.5l3.6-0.6
	l3.6-0.4l10.6-0.4l3.6,11.7l5.8,11.3l1.7,4.8l0.7,3.5l0.5,1.4l0.5,3l0.6,1.9L1088.6,161.1"/>
<path class="st3" d="M1001.1,212.5l-12.7,1l-4.5-0.1l-4.7-0.5l-1-0.2l-2.5-16.5l-3-6l-1.4-4.2l-0.9-4.3v0l-0.9-4.3l0-0.2l-0.9-4.1
	l0-0.5l-1-4.5l-11.3-30.2l19.5-5.3l2.8-0.6l0.9,0l4.5-0.2l4.4-0.5l4.4-0.9l0.5-0.1l3.6-0.8l0.2,0l4.4-1l4.3-1.3l4.2-1.6l8.1-3.9
	l11.8,3.7l-0.7,8.6l-2.4,12.6l-3.3,8l-3.1,2.5l0.7,4.8l0,0l1.3,4.3l-0.6,0.6l1.8,3.8l-1,1.1l2.2,3.3l-1.4,1.5l2.5,2.9l-1.6,2
	l6.1,5.7l8.8,18.3l0.2,0.6l-10.7,8.2l-3.4,3l-0.5-0.2l-4.9-1.8l-4.8-1.4l-4.7-0.9l-4.6-0.5L1001.1,212.5"/>
<path class="st3" d="M1088.6,161.1l1.3,4.3l3.6,8.1l2.3,19.6l-19.7,2.2l-4.7,1l-2,0.7l-2.6,0.6l-1.9,0.6l-2.8,0.6l-1.7,0.6l-2.9,0.7
	l-1.6,0.5l-3.1,0.7l-1.4,0.5l-3.2,0.8l-4.6,1.6l-4.4,2l-0.2-0.6l-8.8-18.3l-6.1-5.7l1.6-2l-2.5-2.9l1.4-1.5l-2.2-3.3l1-1.1l-1.8-3.8
	l0.6-0.6l-1.3-4.3l0,0l-0.7-4.8l3.1-2.5l3.3-8l2.4-12.6l0.7-8.6l2.5,0l3.5-0.2l6.2-1.4l4.6-0.1l4.1-0.4l4.1-0.7l2.2-0.5l3.6-0.6
	l3.6-0.4l10.6-0.4l3.6,11.7l5.8,11.3l1.7,4.8l0.7,3.5l0.5,1.4l0.5,3l0.6,1.9L1088.6,161.1"/>
<path class="st3" d="M1001.1,212.5l-12.7,1l-4.5-0.1l-4.7-0.5l-1-0.2l-2.5-16.5l-3-6l-1.4-4.2l-0.9-4.3v0l-0.9-4.3l0-0.2l-0.9-4.1
	l0-0.5l-1-4.5l-11.3-30.2l19.5-5.3l2.8-0.6l0.9,0l4.5-0.2l4.4-0.5l4.4-0.9l0.5-0.1l3.6-0.8l0.2,0l4.4-1l4.3-1.3l4.2-1.6l8.1-3.9
	l11.8,3.7l-0.7,8.6l-2.4,12.6l-3.3,8l-3.1,2.5l0.7,4.8l0,0l1.3,4.3l-0.6,0.6l1.8,3.8l-1,1.1l2.2,3.3l-1.4,1.5l2.5,2.9l-1.6,2
	l6.1,5.7l8.8,18.3l0.2,0.6l-10.7,8.2l-3.4,3l-0.5-0.2l-4.9-1.8l-4.8-1.4l-4.7-0.9l-4.6-0.5L1001.1,212.5"/>
<path class="st3" d="M931.5,226.8l-7.3-11.6l-6.2-6.7l-4.1-1.4l-0.7-4.3l-0.2-0.1l-0.8-4.3l-0.1,0l-0.8-4.3l-0.1,0l-0.8-4.4l-0.1,0
	l-0.9-4.4l0,0l-4.4-20.5l1.3-10.5l0.2-4.2l3.1-0.6l0.9-0.2l1.9-0.4l1.4,0l5-0.5l4.8-0.9l1.3-0.3l3.5-0.6l0.7-0.2l4.1-0.8l4.7-1.3
	l4.7-1.7l10.9-4.9l2.4,0.5l11.3,30.2l1,4.5l0,0.5l0.9,4.1l0,0.2l0.9,4.3v0l0.9,4.3l1.4,4.2l3,6l2.5,16.5l-3,2l-0.5,0.3l-11.2,4
	L960,220l-1.2,0.2l-4.5,1.4l-4.4,1.8l-4.3,2.2l-1.4,0.9l-3.2-0.1l-4.7,0.3l-4.4,0.7L931.5,226.8"/>
<path class="st3" d="M900.6,238l-17.1,4.8l-1.2-1.3l-2.7-3.1l-0.3-0.4l-6.2-14.7l-1.1-3.1l-1.1-4.1l-1.7-4.5l-0.2-0.3l-15.8-15.3
	l-3.9-3.3l-2.5-1.9l-4.1-3.5l-5.4-25.7l0.8-0.6l3.9-2.8l4-2.6l4-2.3l18.8-9.5l5.7,1.8l4.2,1.1l4.1,0.9l4.1,0.6l19.9,1.9l-0.2,4.2
	l-1.3,10.5l4.4,20.5l0,0l0.9,4.4l0,0l0.9,4.4l0.1,0l0.8,4.3l0.1,0l0.8,4.3l0.2,0.1l0.7,4.3l4.1,1.4l6.2,6.7l7.3,11.6l0.4,0.7
	l-4.9,2.6l-4.1,1.7l-4.2,1.4l-2.2,0.5l-2,0.6l-1.9,0.4l-2.4,0.7l-1.6,0.3l-2.7,0.8l-1.2,0.2l-3.1,0.9L900.6,238"/>
<path class="st3" d="M931.5,226.8l-7.3-11.6l-6.2-6.7l-4.1-1.4l-0.7-4.3l-0.2-0.1l-0.8-4.3l-0.1,0l-0.8-4.3l-0.1,0l-0.8-4.4l-0.1,0
	l-0.9-4.4l0,0l-4.4-20.5l1.3-10.5l0.2-4.2l3.1-0.6l0.9-0.2l1.9-0.4l1.4,0l5-0.5l4.8-0.9l1.3-0.3l3.5-0.6l0.7-0.2l4.1-0.8l4.7-1.3
	l4.7-1.7l10.9-4.9l2.4,0.5l11.3,30.2l1,4.5l0,0.5l0.9,4.1l0,0.2l0.9,4.3v0l0.9,4.3l1.4,4.2l3,6l2.5,16.5l-3,2l-0.5,0.3l-11.2,4
	L960,220l-1.2,0.2l-4.5,1.4l-4.4,1.8l-4.3,2.2l-1.4,0.9l-3.2-0.1l-4.7,0.3l-4.4,0.7L931.5,226.8"/>
<path class="st3" d="M900.6,238l-17.1,4.8l-1.2-1.3l-2.7-3.1l-0.3-0.4l-6.2-14.7l-1.1-3.1l-1.1-4.1l-1.7-4.5l-0.2-0.3l-15.8-15.3
	l-3.9-3.3l-2.5-1.9l-4.1-3.5l-5.4-25.7l0.8-0.6l3.9-2.8l4-2.6l4-2.3l18.8-9.5l5.7,1.8l4.2,1.1l4.1,0.9l4.1,0.6l19.9,1.9l-0.2,4.2
	l-1.3,10.5l4.4,20.5l0,0l0.9,4.4l0,0l0.9,4.4l0.1,0l0.8,4.3l0.1,0l0.8,4.3l0.2,0.1l0.7,4.3l4.1,1.4l6.2,6.7l7.3,11.6l0.4,0.7
	l-4.9,2.6l-4.1,1.7l-4.2,1.4l-2.2,0.5l-2,0.6l-1.9,0.4l-2.4,0.7l-1.6,0.3l-2.7,0.8l-1.2,0.2l-3.1,0.9L900.6,238"/>
<path class="st3" d="M783.9,246.8l-3.6-4.1l-12.1-16.9L765,222l-3.6-3.6l-4-3.4l-17-12.5l21.4-15.8l4.2-2.6l4.2-2.2l4.3-1.8l4.4-1.4
	l4.5-1l1.2-0.2l4.8-1.1l4.7-1.6l4.6-2l24.5-13.5l1.1,0.1l4.6,0.6l4.7,0.8l3.8,0.9l5.4,25.7l-5.1,7.9l-1.8,3.3l-0.9,1.4l-2.4,4.2
	l-0.3,0.5l-2.8,4.7l-0.2,0.5l-3.4,5.5l-3.7,4.3l-4,3.2l-4.4,2.1l-2.9,0.6l-3.6,1.7l-0.6,0.1l-4.2,2.1l-3.9,3l-12,13.5l-1.7,1.7
	L783.9,246.8"/>
<path class="st3" d="M1035.3,273.5l-0.1-10.1l-0.1-1.9l-2.8-8.3l-1.8-11.3l-1.1-4.4l-1.4-4.2l-1.1-4.6l-1.8-11.3l3.4-3l10.7-8.2
	l4.4-2l4.6-1.6l3.2-0.8l1.4-0.5l3.1-0.7l1.6-0.5l2.9-0.7l1.7-0.6l2.8-0.6l1.9-0.6l2.6-0.6l2-0.7l4.7-1l19.7-2.2l5.1,3.3l4.1,16.4
	l0.4,1.1l0.8,3.2l0.1,0.3l1,3.5l0.1,0.4l1.3,4.2l1.6,4.1l2,4l0.5,0.8l0.9,3.4l8.8,24.5l-9.8,14.7l-6.8,3.2l-4.2,1.7l-4.2,1.4l-0.1,0
	l-4.3,1.4h0l-4.3,1.4l-0.1,0l-4.4,1.4l-1.5,0.6l-42.1-12.9l-4.4-1.6L1035.3,273.5"/>
<path class="st3" d="M894.8,390.8l-2,0.8l-2.7,0.7l-2,0.7l-2.8,0.7l-1.9,0.7l-2.9,0.7l-1.8,0.7l-4.7,1.2l-4.9,0.6l-5,0.1l-10.3-0.9
	l-1.9-3.1l-6.2-12.3l-2.3-3.8l-2.7-3.7l-3-3.6l-3.3-3.5l-6.2-5.7l-0.5-2l-0.8-5l-0.5-5.1l-0.2-4.4l24-9.5l11.8-2l4.8-1.4l0.3-0.1
	l4.3-1.3l0.1,0l4.2-1.3l0.5-0.1l31.1-9.9l13.8,7.5l2.3,1.6l-5.4,13.5l-1.6,5l-1.2,4.9l-0.8,4.8l-0.4,4.6l0,18.3l-0.5,5l-0.4,2.1
	L894.8,390.8"/>
<path class="st3" d="M991.3,295.4l-14.6,2.3l-0.9,0.1l-9.6-18.3l-6.4-7.2l-2.7-4l-2-4.2l-0.8-3l-0.6-1.4l-0.5-2l-0.9-2.4l-0.2-1.1
	l-1.1-3.4l-1-6.3l-5.7-17.9l1.4-0.9l4.3-2.2l4.4-1.8l4.5-1.4l1.2-0.2l3.4-0.9l11.2-4l0.5-0.3l3-2l1,0.2l4.7,0.5l4.5,0.1l12.7-1
	l4.5,0.1l4.6,0.5l4.7,0.9l4.8,1.4l4.9,1.8l0.5,0.2l1.8,11.3l1.1,4.6l1.4,4.2l1.1,4.4l1.8,11.3l2.8,8.3l0.1,1.9l0.1,10.1l-16.8,14
	l-8.6,4.6l-0.8,0l-4.6,0.5l-4.5,0.7l-4.4,1l-3.4,1L991.3,295.4"/>
<path class="st3" d="M957,268.3l2.7,4l6.4,7.2l9.6,18.3l-2.2,1.7l-19.8,13.7l-3.4,2.7l-3.4,3l-3.3,3.2l-2.6,2.9l-0.8,0.3l-4.4,1.1
	l-4.4,0.9l-4.5,0.6l-3.2,0.3l-2.3-1.6l-13.8-7.5l-7.8-16.3l-3.9-5.2l-2.5-4l-2.1-4.2l-1.7-4.3l-0.7-2.6l-0.7-1.8l-0.5-1.9l-1.3-3.6
	l-1.6-3.5l-5.2-9.6l3.8-19.2l17.1-4.8l0.9-0.2l3.1-0.9l1.2-0.2l2.7-0.8l1.6-0.3l2.4-0.7l1.9-0.4l2-0.6l2.2-0.5l4.2-1.4l4.1-1.7
	l4.9-2.6l4.4-0.7l4.7-0.3l3.2,0.1l5.7,17.9l1,6.3l1.1,3.4l0.2,1.1l0.9,2.4l0.5,2l0.6,1.4l0.8,3L957,268.3"/>
<path class="st3" d="M783.9,246.8l-3.6-4.1l-12.1-16.9L765,222l-3.6-3.6l-4-3.4l-17-12.5l21.4-15.8l4.2-2.6l4.2-2.2l4.3-1.8l4.4-1.4
	l4.5-1l1.2-0.2l4.8-1.1l4.7-1.6l4.6-2l24.5-13.5l1.1,0.1l4.6,0.6l4.7,0.8l3.8,0.9l5.4,25.7l-5.1,7.9l-1.8,3.3l-0.9,1.4l-2.4,4.2
	l-0.3,0.5l-2.8,4.7l-0.2,0.5l-3.4,5.5l-3.7,4.3l-4,3.2l-4.4,2.1l-2.9,0.6l-3.6,1.7l-0.6,0.1l-4.2,2.1l-3.9,3l-12,13.5l-1.7,1.7
	L783.9,246.8"/>
<path class="st3" d="M882.2,241.5l1.2,1.3l-3.8,19.2l-21.8,7.1l-0.9,0.2l-3.6,1.2l-1,0.2l-3.4,1.1l-1.2,0.2l-3.3,1.1l-1.3,0.3
	l-3.1,1.1l-1.5,0.3l-4.5,1.6l-4.3,2.2l-22.9,15.8l-1.5-1.7l-3.2-4.3l-2.8-4.4l-2.4-4.5l-2-4.6l-1.6-4.7l-0.4-1.7l-1-3.1l-0.1-0.4
	l-2.3-4.1l-2.1-4.6l-1.6-4.7l-0.5-1.9l-0.7-2.1l1.7-1.7l12-13.5l3.9-3l4.1-2.1l0.6-0.1l3.7-1.7l2.9-0.6l4.4-2.1l4.1-3.2l3.7-4.3
	l3.4-5.5l0.2-0.5l2.8-4.7l0.3-0.5l2.4-4.2l0.9-1.4l1.8-3.3l5.1-7.9l4.1,3.5l2.5,1.9l3.9,3.3l15.8,15.4l0.2,0.3l1.7,4.5l1.1,4.1
	l1.1,3.1l6.2,14.7l0.3,0.4L882.2,241.5"/>
<path class="st3" d="M817.9,330.6l-2-4.6l-1.7-4.7l-1-3.7l-0.4-1.1l-0.9-3.4l-0.5-1.4l-0.8-3.1l-0.6-1.7l-0.7-2.8l-0.7-2l-1.2-4.8
	l-0.5-2.9l22.9-15.8l4.3-2.2l4.5-1.6l1.5-0.3l3.1-1.1l1.3-0.3l3.3-1.1l1.2-0.2l3.4-1.1l1-0.2l3.6-1.2l0.9-0.2l21.8-7.1l5.2,9.6
	l1.6,3.5l1.3,3.6l0.5,1.9l0.7,1.8l0.7,2.6l1.7,4.3l2.1,4.2l2.5,4l3.9,5.2l7.8,16.3l-31.1,9.9L876,329l-4.2,1.3l-0.1,0l-4.3,1.3
	l-0.3,0.1l-4.8,1.4l-11.8,2l-24,9.5l-0.5-0.6l-3-4.3l-2.7-4.4L817.9,330.6"/>
<path class="st3" d="M783.9,246.8l-3.6-4.1l-12.1-16.9L765,222l-3.6-3.6l-4-3.4l-17-12.5l21.4-15.8l4.2-2.6l4.2-2.2l4.3-1.8l4.4-1.4
	l4.5-1l1.2-0.2l4.8-1.1l4.7-1.6l4.6-2l24.5-13.5l1.1,0.1l4.6,0.6l4.7,0.8l3.8,0.9l5.4,25.7l-5.1,7.9l-1.8,3.3l-0.9,1.4l-2.4,4.2
	l-0.3,0.5l-2.8,4.7l-0.2,0.5l-3.4,5.5l-3.7,4.3l-4,3.2l-4.4,2.1l-2.9,0.6l-3.6,1.7l-0.6,0.1l-4.2,2.1l-3.9,3l-12,13.5l-1.7,1.7
	L783.9,246.8"/>
<path class="st5" d="M978.2,87.8l26.4,84.8"/>
<path class="st5" d="M978.2,87.8l26.4,84.8"/>
<path class="st5" d="M978.2,87.8l-45,101.8"/>
<path class="st5" d="M978.2,87.8l-45,101.8"/>
<path class="st5" d="M910.1,98.9l-88.5,2.8"/>
<path class="st5" d="M910.1,98.9l23,90.7"/>
<path class="st5" d="M910.1,98.9l-11.7,97.7"/>
<path class="st5" d="M910.1,98.9l23,90.7"/>
<path class="st5" d="M910.1,98.9l-11.7,97.7"/>
<path class="st5" d="M821.6,101.7l76.8,94.8"/>
<path class="st5" d="M821.6,101.7L799,209.8"/>
<path class="st5" d="M821.6,101.7l76.8,94.8"/>
<path class="st5" d="M821.6,101.7L799,209.8"/>
<path class="st5" d="M821.6,101.7l88.5-2.8"/>
<path class="st5" d="M821.6,101.7L799,209.8"/>
<path class="st5" d="M1047.5,165.8l-42.8,6.8"/>
<path class="st5" d="M1047.5,165.8L1047.5,165.8"/>
<path class="st5" d="M1047.5,165.8l-42.8,6.8"/>
<path class="st5" d="M1047.5,165.8l26.2,70.3"/>
<path class="st5" d="M1004.6,172.6l42.8-6.8"/>
<path class="st5" d="M1004.6,172.6l42.8-6.8"/>
<path class="st5" d="M1004.6,172.6L1004.6,172.6"/>
<path class="st5" d="M1004.6,172.6l-71.5,16.9"/>
<path class="st5" d="M1004.6,172.6L983.5,249"/>
<path class="st5" d="M1004.6,172.6l-71.5,16.9"/>
<path class="st5" d="M1004.6,172.6l-26.4-84.8"/>
<path class="st5" d="M1004.6,172.6l69.1,63.5"/>
<path class="st5" d="M1047.5,165.8L1047.5,165.8"/>
<path class="st5" d="M1047.5,165.8l-42.8,6.8"/>
<path class="st5" d="M1047.5,165.8l-42.8,6.8"/>
<path class="st5" d="M1047.5,165.8l26.2,70.3"/>
<path class="st5" d="M1004.6,172.6l42.8-6.8"/>
<path class="st5" d="M1004.6,172.6L1004.6,172.6"/>
<path class="st5" d="M1004.6,172.6l42.8-6.8"/>
<path class="st5" d="M1004.6,172.6l-71.5,16.9"/>
<path class="st5" d="M1004.6,172.6L983.5,249"/>
<path class="st5" d="M1004.6,172.6l-71.5,16.9"/>
<path class="st5" d="M1004.6,172.6l-26.4-84.8"/>
<path class="st5" d="M1004.6,172.6l69.1,63.5"/>
<path class="st5" d="M933.1,189.6l-34.7,7"/>
<path class="st5" d="M933.1,189.6l-6.2,79.8"/>
<path class="st5" d="M933.1,189.6l71.5-16.9"/>
<path class="st5" d="M933.1,189.6l71.5-16.9"/>
<path class="st5" d="M933.1,189.6l50.4,59.4"/>
<path class="st5" d="M933.1,189.6L933.1,189.6"/>
<path class="st5" d="M933.1,189.6l-34.7,7"/>
<path class="st5" d="M933.1,189.6l45-101.8"/>
<path class="st5" d="M933.1,189.6l-23-90.7"/>
<path class="st5" d="M898.4,196.5L834,242.8"/>
<path class="st5" d="M898.4,196.5l-76.8-94.8"/>
<path class="st5" d="M898.4,196.5l28.6,72.8"/>
<path class="st5" d="M898.4,196.5l34.7-7"/>
<path class="st5" d="M898.4,196.5L799,209.8"/>
<path class="st5" d="M898.4,196.5l34.7-7"/>
<path class="st5" d="M898.4,196.5L898.4,196.5"/>
<path class="st5" d="M898.4,196.5L799,209.8"/>
<path class="st5" d="M898.4,196.5l11.7-97.7"/>
<path class="st5" d="M898.4,196.5L799,209.8"/>
<path class="st5" d="M933.1,189.6l-34.7,7"/>
<path class="st5" d="M933.1,189.6l71.5-16.9"/>
<path class="st5" d="M933.1,189.6l71.5-16.9"/>
<path class="st5" d="M933.1,189.6L933.1,189.6"/>
<path class="st5" d="M933.1,189.6l50.4,59.4"/>
<path class="st5" d="M933.1,189.6l-6.2,79.8"/>
<path class="st5" d="M933.1,189.6l-34.7,7"/>
<path class="st5" d="M933.1,189.6l-23-90.7"/>
<path class="st5" d="M898.4,196.5L834,242.8"/>
<path class="st5" d="M898.4,196.5L898.4,196.5"/>
<path class="st5" d="M898.4,196.5l-76.8-94.8"/>
<path class="st5" d="M898.4,196.5l28.6,72.8"/>
<path class="st5" d="M898.4,196.5l34.7-7"/>
<path class="st5" d="M898.4,196.5L799,209.8"/>
<path class="st5" d="M898.4,196.5l34.7-7"/>
<path class="st5" d="M898.4,196.5L799,209.8"/>
<path class="st5" d="M898.4,196.5l11.7-97.7l68.1-11l-45,101.8"/>
<path class="st5" d="M898.4,196.5L799,209.8"/>
<path class="st5" d="M799,209.8l35,33"/>
<path class="st5" d="M799,209.8l22.7-108.2"/>
<path class="st5" d="M799,209.8l99.5-13.3"/>
<path class="st5" d="M799,209.8l99.5-13.3"/>
<path class="st5" d="M1073.7,236.1l-26.2-70.3"/>
<path class="st5" d="M1073.7,236.1l-69.1-63.5"/>
<path class="st5" d="M1073.7,236.1l-26.2-70.3"/>
<path class="st5" d="M1073.7,236.1l-69.1-63.5"/>
<path class="st5" d="M1073.7,236.1L983.5,249"/>
<path class="st5" d="M878.7,362.5l-21.1-63.9"/>
<path class="st5" d="M878.7,362.5l48.3-93.2"/>
<path class="st5" d="M983.5,249l-50.4-59.4"/>
<path class="st5" d="M983.5,249l21.1-76.4"/>
<path class="st5" d="M983.5,249l21.1-76.4"/>
<path class="st5" d="M983.5,249l-50.4-59.4"/>
<path class="st5" d="M983.5,249L927,269.3"/>
<path class="st5" d="M983.5,249l90.2-12.9"/>
<path class="st5" d="M927,269.3l-93-26.5"/>
<path class="st5" d="M927,269.3l-69.4,29.3"/>
<path class="st5" d="M927,269.3l56.5-20.3"/>
<path class="st5" d="M927,269.3l-48.3,93.2"/>
<path class="st5" d="M927,269.3l6.2-79.8"/>
<path class="st5" d="M927,269.3l-28.6-72.8"/>
<path class="st5" d="M927,269.3l6.2-79.8"/>
<path class="st5" d="M927,269.3l-28.6-72.8"/>
<path class="st5" d="M799,209.8l35,33"/>
<path class="st5" d="M799,209.8l22.7-108.2"/>
<path class="st5" d="M799,209.8l99.5-13.3"/>
<path class="st5" d="M799,209.8l99.5-13.3"/>
<path class="st5" d="M834,242.8l64.4-46.3"/>
<path class="st5" d="M834,242.8l23.6,55.8"/>
<path class="st5" d="M834,242.8l-35-33"/>
<path class="st5" d="M834,242.8l93,26.5"/>
<path class="st5" d="M834,242.8l64.4-46.3"/>
<path class="st5" d="M834,242.8l-35-33"/>
<path class="st5" d="M834,242.8l-35-33"/>
<path class="st5" d="M857.6,298.6L834,242.8"/>
<path class="st5" d="M857.6,298.6l69.4-29.3"/>
<path class="st5" d="M857.6,298.6l21.1,63.9"/>
<path class="st5" d="M799,209.8l35,33"/>
<path class="st5" d="M799,209.8l22.7-108.2"/>
<path class="st5" d="M799,209.8l99.5-13.3"/>
<path class="st5" d="M799,209.8l99.5-13.3"/>
<g>
	<g id="Layer_1_2_">
		<g>
			<text transform="matrix(1 0 0 1 971.1642 378.4889)" class="st0 st1" style="font-size:57.4072px;">Urban Morphology Measuring Toolkit</text>
		</g>
	</g>
	<g id="Layer_7_1_">
		<text transform="matrix(1 0 0 1 1220.4259 261.151)" class="st0 st1" style="font-size:181.4101px;">momepy</text>
	</g>
</g>
</svg>
