<?xml version="1.0" encoding="utf-8"?>
<!-- Generator: Adobe Illustrator 23.0.4, SVG Export Plug-In . SVG Version: 6.00 Build 0)  -->
<svg version="1.1" xmlns="http://www.w3.org/2000/svg" xmlns:xlink="http://www.w3.org/1999/xlink" x="0px" y="0px"
	 viewBox="0 0 621 512" style="enable-background:new 0 0 621 512;" xml:space="preserve">
<style type="text/css">
	.st0{fill:#3C6CB0;}
	.st1{font-family:'OpenSans';}
	.st2{font-size:22.7844px;}
	.st3{fill:#E7EDEF;stroke:#FFFFFF;stroke-width:6;stroke-miterlimit:10;}
	.st4{fill:#E7EDEF;stroke:#FFFFFF;stroke-width:7.8;stroke-miterlimit:10;}
	.st5{fill:none;stroke:#FFA29C;stroke-width:4.5;stroke-linecap:square;stroke-linejoin:round;}
	.st6{fill:none;stroke:#FFA29C;stroke-width:5.85;stroke-linecap:square;stroke-linejoin:round;}
	.st7{font-size:72px;}
</style>
<g id="Layer_1">
	<g>
		<text transform="matrix(1 0 0 1 129.687 438.7374)" class="st0 st1 st2">Urban Morphology Measuring Toolkit</text>
	</g>
</g>
<g id="cells">
	<path class="st3" d="M244.36,133.59l-19.47,5.3l-2.44-0.54l-7.91-29.61l-0.41-2.46l-0.45-1.67l-0.29-1.71l0.03-0.85l-0.28-4.32
		l-0.71-4.23l-0.4-1.47l-0.48-2.73l-0.33-1.17l-0.55-3.03l-0.25-0.87l-0.74-3.91l-0.93-9.9l7.05-4.69l4.23-2.15l4.23-1.53l4.21-0.97
		l1.12-0.12l3.11-0.76l1.6-0.19l4.66-1.21l4.53-1.85l4.39-2.49l4.26-3.12l0.05-0.04l22.22,5.2l2.67,0.89l1.19,13.47l0.66,3.58
		l0.35,1.25l0.38,2.31l0.52,2l1.39,9.69l-0.1,2.04l0.87,3.18l1.03,2.68l0.25,1.19l3.14,24.01l-8.15,3.87l-4.21,1.64l-4.28,1.3
		l-4.35,0.97l-0.25,0.04l-3.57,0.75l-0.55,0.15l-4.37,0.85l-4.44,0.52l-4.52,0.19l-0.9-0.03L244.36,133.59"/>
	<path class="st3" d="M179.42,149.96l-0.94,0.25l-3.12,0.62l-19.89-1.89l-4.06-0.62l-4.11-0.86l-4.16-1.09l-5.68-1.8l2.74-22.18
		l0.22-4.98l-0.19-4.89l-0.6-4.8l-1.01-4.71l-0.02-0.06l-1.03-4.65l-1.45-4.62l-2.06-5.03l-0.28-1.62l-4.25-43.23l5.64-4.24l3-1.15
		l4.91-1.64l4.71,2.56l6.35,3.89l3.32,2.31l5.58,3.41l5.47,2.86l5.36,2.31l15.39,5.15l0.63,0.11l18.84,11.05l0.93,9.9l0.74,3.91
		l0.25,0.87l0.55,3.03l0.33,1.17l0.48,2.73l0.4,1.47l0.71,4.23l0.28,4.32l-0.03,0.85l0.29,1.71l0.45,1.67l0.41,2.46l7.91,29.61
		l-10.91,4.88l-4.66,1.69l-4.74,1.32l-4.15,0.82l-0.65,0.17l-3.48,0.65l-1.33,0.34l-4.83,0.85l-5,0.49l-1.39,0.04L179.42,149.96"/>
	<path class="st3" d="M88.48,156.87l-14.14-12.48l-3.78-3.97l-3.2-4.09l-2.61-4.21l-2.03-4.34l-1.45-4.46l-0.66-3.48l-7.06-11.43
		l-2.62-3.42l-2.26-2.45l0.2-1.08l1.72-17.11l0.8-4.19l1.18-4.27l1.57-4.35l3.28-7.42l4.16-17.5l12.4-0.89l0.14-0.02l11.1-0.21
		l7.83-1.16l4.28-0.42l4.33-0.2l4.37,0.01l13.68,0.69l9.8-0.61l4.25,43.23l0.28,1.62l2.06,5.03l1.45,4.62l1.03,4.65l0.02,0.06
		l1.01,4.71l0.6,4.8l0.19,4.89l-0.22,4.98l-2.74,22.18l-18.81,9.51l-4.04,2.31l-3.99,2.55l-3.94,2.79l-0.8,0.62l-3.78-0.85
		l-4.7-0.83l-4.59-0.58l-1.08-0.09L88.48,156.87"/>
	<path class="st3" d="M357.29,161.92l1.29,4.31l3.62,8.14l2.29,19.6l-19.71,2.22l-4.7,1.02l-2.04,0.66l-2.61,0.58l-1.89,0.62
		l-2.76,0.62l-1.74,0.58l-2.91,0.67l-1.59,0.53l-3.06,0.71l-1.44,0.48l-3.21,0.76l-4.58,1.56l-4.4,1.97l-0.22-0.6l-8.78-18.34
		l-6.07-5.66l1.59-1.96l-2.46-2.86l1.38-1.52l-2.19-3.32l1.05-1.05l-1.81-3.8l0.61-0.55l-1.3-4.31l0.04-0.03l-0.68-4.84l3.11-2.46
		l3.33-7.98l2.38-12.58l0.72-8.59l2.5,0.04l3.5-0.22l6.15-1.4l4.55-0.07l4.13-0.36l4.07-0.66l2.17-0.52l3.58-0.61l3.63-0.38
		l10.64-0.44l3.64,11.69l5.8,11.29l1.68,4.8l0.68,3.52l0.46,1.4l0.53,2.99l0.61,1.93L357.29,161.92"/>
	<path class="st3" d="M269.79,213.33l-12.74,0.97l-4.54-0.06l-4.67-0.46l-0.96-0.17l-2.5-16.47l-2.97-6.03l-1.44-4.18l-0.88-4.3
		l0-0.01l-0.91-4.28l-0.02-0.23l-0.89-4.06l-0.04-0.46l-1.02-4.5l-11.3-30.19l19.47-5.3l2.83-0.56l0.9,0.03l4.52-0.19l4.44-0.52
		l4.37-0.85l0.55-0.15l3.57-0.75l0.25-0.04l4.35-0.97l4.28-1.3l4.21-1.64l8.15-3.87l11.8,3.69l-0.72,8.59l-2.38,12.58l-3.33,7.98
		l-3.11,2.46l0.68,4.84l-0.04,0.03l1.3,4.31l-0.61,0.55l1.81,3.8l-1.05,1.05l2.19,3.32l-1.38,1.52l2.46,2.86l-1.59,1.96l6.07,5.66
		l8.78,18.34l0.22,0.6l-10.7,8.21l-3.41,3.03l-0.51-0.23l-4.86-1.77l-4.78-1.35l-4.69-0.93l-4.6-0.51L269.79,213.33"/>
	<path class="st3" d="M357.29,161.92l1.29,4.31l3.62,8.14l2.29,19.6l-19.71,2.22l-4.7,1.02l-2.04,0.66l-2.61,0.58l-1.89,0.62
		l-2.76,0.62l-1.74,0.58l-2.91,0.67l-1.59,0.53l-3.06,0.71l-1.44,0.48l-3.21,0.76l-4.58,1.56l-4.4,1.97l-0.22-0.6l-8.78-18.34
		l-6.07-5.66l1.59-1.96l-2.46-2.86l1.38-1.52l-2.19-3.32l1.05-1.05l-1.81-3.8l0.61-0.55l-1.3-4.31l0.04-0.03l-0.68-4.84l3.11-2.46
		l3.33-7.98l2.38-12.58l0.72-8.59l2.5,0.04l3.5-0.22l6.15-1.4l4.55-0.07l4.13-0.36l4.07-0.66l2.17-0.52l3.58-0.61l3.63-0.38
		l10.64-0.44l3.64,11.69l5.8,11.29l1.68,4.8l0.68,3.52l0.46,1.4l0.53,2.99l0.61,1.93L357.29,161.92"/>
	<path class="st3" d="M269.79,213.33l-12.74,0.97l-4.54-0.06l-4.67-0.46l-0.96-0.17l-2.5-16.47l-2.97-6.03l-1.44-4.18l-0.88-4.3
		l0-0.01l-0.91-4.28l-0.02-0.23l-0.89-4.06l-0.04-0.46l-1.02-4.5l-11.3-30.19l19.47-5.3l2.83-0.56l0.9,0.03l4.52-0.19l4.44-0.52
		l4.37-0.85l0.55-0.15l3.57-0.75l0.25-0.04l4.35-0.97l4.28-1.3l4.21-1.64l8.15-3.87l11.8,3.69l-0.72,8.59l-2.38,12.58l-3.33,7.98
		l-3.11,2.46l0.68,4.84l-0.04,0.03l1.3,4.31l-0.61,0.55l1.81,3.8l-1.05,1.05l2.19,3.32l-1.38,1.52l2.46,2.86l-1.59,1.96l6.07,5.66
		l8.78,18.34l0.22,0.6l-10.7,8.21l-3.41,3.03l-0.51-0.23l-4.86-1.77l-4.78-1.35l-4.69-0.93l-4.6-0.51L269.79,213.33"/>
	<path class="st3" d="M200.17,227.58l-7.26-11.64l-6.21-6.68l-4.08-1.36l-0.72-4.3l-0.17-0.06l-0.76-4.32l-0.13-0.04l-0.8-4.33
		l-0.09-0.03l-0.85-4.35l-0.05-0.02l-0.89-4.36l0,0l-4.37-20.48l1.33-10.53l0.22-4.25l3.12-0.62l0.94-0.25l1.89-0.35l1.39-0.04
		l5-0.49l4.83-0.85l1.33-0.34l3.48-0.65l0.65-0.17l4.15-0.82l4.74-1.32l4.66-1.69l10.91-4.88l2.44,0.54l11.3,30.19l1.02,4.5
		l0.04,0.46l0.89,4.06l0.02,0.23l0.91,4.28l0,0.01l0.88,4.3l1.44,4.18l2.97,6.03l2.5,16.47l-2.97,2l-0.54,0.3l-11.21,3.99l-3.4,0.94
		l-1.17,0.23l-4.51,1.36l-4.41,1.8l-4.32,2.24l-1.44,0.91l-3.18-0.07l-4.73,0.3l-4.44,0.69L200.17,227.58"/>
	<path class="st3" d="M169.28,238.77l-17.09,4.83l-1.25-1.28l-2.71-3.15l-0.29-0.39l-6.24-14.67l-1.07-3.15l-1.07-4.11l-1.68-4.47
		l-0.17-0.34L121.9,196.7l-3.9-3.3l-2.55-1.89l-4.14-3.47l-5.43-25.68l0.8-0.62l3.94-2.79l3.99-2.55l4.04-2.31l18.81-9.51l5.68,1.8
		l4.16,1.09l4.11,0.86l4.06,0.62l19.89,1.89l-0.22,4.25l-1.33,10.53l4.37,20.48l0,0l0.89,4.36l0.05,0.02l0.85,4.35l0.09,0.03
		l0.8,4.33l0.13,0.04l0.76,4.32l0.17,0.06l0.72,4.3l4.08,1.36l6.21,6.68l7.26,11.64l0.36,0.71l-4.91,2.63l-4.09,1.74l-4.22,1.36
		l-2.24,0.5l-2.04,0.64l-1.9,0.41l-2.38,0.73l-1.57,0.33l-2.72,0.81l-1.23,0.25l-3.06,0.89L169.28,238.77"/>
	<path class="st3" d="M200.17,227.58l-7.26-11.64l-6.21-6.68l-4.08-1.36l-0.72-4.3l-0.17-0.06l-0.76-4.32l-0.13-0.04l-0.8-4.33
		l-0.09-0.03l-0.85-4.35l-0.05-0.02l-0.89-4.36l0,0l-4.37-20.48l1.33-10.53l0.22-4.25l3.12-0.62l0.94-0.25l1.89-0.35l1.39-0.04
		l5-0.49l4.83-0.85l1.33-0.34l3.48-0.65l0.65-0.17l4.15-0.82l4.74-1.32l4.66-1.69l10.91-4.88l2.44,0.54l11.3,30.19l1.02,4.5
		l0.04,0.46l0.89,4.06l0.02,0.23l0.91,4.28l0,0.01l0.88,4.3l1.44,4.18l2.97,6.03l2.5,16.47l-2.97,2l-0.54,0.3l-11.21,3.99l-3.4,0.94
		l-1.17,0.23l-4.51,1.36l-4.41,1.8l-4.32,2.24l-1.44,0.91l-3.18-0.07l-4.73,0.3l-4.44,0.69L200.17,227.58"/>
	<path class="st3" d="M169.28,238.77l-17.09,4.83l-1.25-1.28l-2.71-3.15l-0.29-0.39l-6.24-14.67l-1.07-3.15l-1.07-4.11l-1.68-4.47
		l-0.17-0.34L121.9,196.7l-3.9-3.3l-2.55-1.89l-4.14-3.47l-5.43-25.68l0.8-0.62l3.94-2.79l3.99-2.55l4.04-2.31l18.81-9.51l5.68,1.8
		l4.16,1.09l4.11,0.86l4.06,0.62l19.89,1.89l-0.22,4.25l-1.33,10.53l4.37,20.48l0,0l0.89,4.36l0.05,0.02l0.85,4.35l0.09,0.03
		l0.8,4.33l0.13,0.04l0.76,4.32l0.17,0.06l0.72,4.3l4.08,1.36l6.21,6.68l7.26,11.64l0.36,0.71l-4.91,2.63l-4.09,1.74l-4.22,1.36
		l-2.24,0.5l-2.04,0.64l-1.9,0.41l-2.38,0.73l-1.57,0.33l-2.72,0.81l-1.23,0.25l-3.06,0.89L169.28,238.77"/>
	<path class="st3" d="M52.63,247.6l-3.65-4.15l-12.14-16.94l-3.17-3.68l-3.6-3.55l-4.04-3.41L8.99,203.4l21.37-15.84l4.16-2.63
		l4.25-2.23l4.33-1.83l4.42-1.44l4.5-1.04l1.18-0.17l4.78-1.13l4.69-1.58l4.6-2.03l24.47-13.46l1.08,0.09l4.59,0.58l4.7,0.83
		l3.78,0.85l5.43,25.68l-5.08,7.92l-1.83,3.3l-0.94,1.4l-2.4,4.21l-0.34,0.48l-2.77,4.7l-0.22,0.47l-3.38,5.46l-3.71,4.34
		l-4.05,3.22l-4.39,2.09l-2.88,0.59l-3.65,1.69l-0.57,0.14l-4.15,2.07l-3.86,3.04l-12.02,13.48l-1.7,1.68L52.63,247.6"/>
	<path class="st3" d="M304.04,274.29l-0.13-10.09l-0.14-1.9l-2.8-8.28l-1.85-11.31l-1.08-4.45l-1.37-4.2l-1.1-4.55l-1.82-11.33
		l3.41-3.03l10.7-8.21l4.4-1.97l4.58-1.56l3.21-0.76l1.44-0.48l3.06-0.71l1.59-0.53l2.91-0.67l1.74-0.58l2.76-0.62l1.89-0.62
		l2.61-0.58l2.04-0.66l4.7-1.02l19.71-2.22l5.13,3.34l4.08,16.37l0.36,1.07l0.84,3.2l0.12,0.34l0.99,3.53l0.08,0.4l1.26,4.25
		l1.61,4.14l1.97,4.03l0.47,0.79l0.93,3.41l8.84,24.47L381.33,278l-6.85,3.2l-4.22,1.66l-4.23,1.36l-0.08,0.03l-4.3,1.39l-0.02,0
		l-4.28,1.39l-0.12,0.03l-4.4,1.44l-1.46,0.58l-42.09-12.85l-4.38-1.58L304.04,274.29"/>
	<path class="st3" d="M163.51,391.66l-2.03,0.75l-2.71,0.66l-1.95,0.73l-2.79,0.69l-1.86,0.7l-2.88,0.71l-1.78,0.67l-4.71,1.18
		l-4.88,0.65l-5.04,0.11l-10.32-0.85l-1.94-3.14l-6.16-12.32l-2.31-3.82l-2.65-3.72l-3-3.61l-3.35-3.51l-6.18-5.7l-0.46-2.03
		l-0.8-4.97l-0.49-5.06l-0.15-4.43l23.97-9.51l11.82-1.98l4.76-1.36l0.33-0.14l4.33-1.28l0.07-0.01l4.25-1.3l0.5-0.1l31.1-9.85
		l13.84,7.54l2.29,1.57l-5.38,13.54l-1.63,5.02l-1.22,4.9l-0.81,4.77l-0.4,4.65l0.05,18.3l-0.46,5l-0.38,2.08L163.51,391.66"/>
	<path class="st3" d="M259.99,296.19l-14.65,2.32l-0.93,0.1l-9.58-18.28l-6.43-7.21l-2.66-4.02l-1.95-4.24l-0.83-3l-0.59-1.41
		l-0.49-2.04l-0.9-2.39l-0.21-1.05l-1.14-3.38l-1.04-6.28l-5.69-17.92l1.44-0.91l4.32-2.24l4.41-1.8l4.51-1.36l1.17-0.23l3.4-0.94
		l11.21-3.99l0.54-0.3l2.97-2l0.96,0.17l4.67,0.46l4.54,0.06l12.74-0.97l4.52,0.08l4.6,0.51l4.69,0.93l4.78,1.35l4.86,1.77
		l0.51,0.23l1.82,11.33l1.1,4.55l1.37,4.2l1.08,4.45l1.85,11.31l2.8,8.28l0.14,1.9l0.13,10.09l-16.85,14.02l-8.6,4.58l-0.78,0.03
		l-4.57,0.46l-4.48,0.73l-4.4,0.99l-3.38,0.99L259.99,296.19"/>
	<path class="st3" d="M225.73,269.09l2.66,4.02l6.43,7.21l9.58,18.28l-2.2,1.69l-19.77,13.69l-3.44,2.69l-3.36,2.95l-3.27,3.2
		l-2.65,2.87l-0.84,0.26l-4.38,1.11l-4.45,0.88l-4.52,0.65l-3.17,0.29l-2.29-1.57l-13.84-7.54l-7.78-16.29l-3.91-5.2l-2.52-4.05
		l-2.09-4.18l-1.66-4.31l-0.71-2.59l-0.66-1.8l-0.48-1.87l-1.26-3.63l-1.56-3.53l-5.19-9.57l3.81-19.18l17.09-4.83l0.89-0.18
		l3.06-0.89l1.23-0.25l2.72-0.81l1.57-0.33l2.38-0.73l1.9-0.41l2.04-0.64l2.24-0.5l4.22-1.36l4.09-1.74l4.91-2.63l4.44-0.69
		l4.73-0.3l3.18,0.07l5.69,17.92l1.04,6.28l1.14,3.38l0.21,1.05l0.9,2.39l0.49,2.04l0.59,1.41l0.83,3L225.73,269.09"/>
	<path class="st3" d="M52.63,247.6l-3.65-4.15l-12.14-16.94l-3.17-3.68l-3.6-3.55l-4.04-3.41L8.99,203.4l21.37-15.84l4.16-2.63
		l4.25-2.23l4.33-1.83l4.42-1.44l4.5-1.04l1.18-0.17l4.78-1.13l4.69-1.58l4.6-2.03l24.47-13.46l1.08,0.09l4.59,0.58l4.7,0.83
		l3.78,0.85l5.43,25.68l-5.08,7.92l-1.83,3.3l-0.94,1.4l-2.4,4.21l-0.34,0.48l-2.77,4.7l-0.22,0.47l-3.38,5.46l-3.71,4.34
		l-4.05,3.22l-4.39,2.09l-2.88,0.59l-3.65,1.69l-0.57,0.14l-4.15,2.07l-3.86,3.04l-12.02,13.48l-1.7,1.68L52.63,247.6"/>
	<path class="st3" d="M150.94,242.33l1.25,1.28l-3.81,19.18l-21.81,7.12l-0.88,0.16l-3.58,1.18l-1.03,0.19l-3.43,1.15l-1.18,0.23
		l-3.28,1.12l-1.33,0.26l-3.13,1.08l-1.48,0.3l-4.54,1.59l-4.35,2.23L75.5,295.16l-1.48-1.71l-3.2-4.28l-2.8-4.39l-2.4-4.51l-2-4.62
		l-1.6-4.74l-0.42-1.7l-0.98-3.1l-0.09-0.41l-2.29-4.1l-2.07-4.6l-1.64-4.73l-0.46-1.85l-0.66-2.1l1.7-1.68l12.02-13.48l3.86-3.04
		l4.15-2.07l0.57-0.14l3.65-1.69l2.88-0.59l4.39-2.09l4.05-3.22l3.71-4.34l3.38-5.46l0.22-0.47l2.77-4.7l0.34-0.48l2.4-4.21
		l0.94-1.4l1.83-3.3l5.08-7.92l4.14,3.47l2.55,1.89l3.9,3.3l15.82,15.35l0.17,0.34l1.68,4.47l1.07,4.11l1.07,3.15l6.24,14.67
		l0.29,0.39L150.94,242.33"/>
	<path class="st3" d="M86.58,331.45l-2.01-4.62l-1.67-4.72l-1.02-3.7l-0.38-1.1l-0.92-3.38l-0.49-1.41l-0.82-3.07l-0.58-1.73
		l-0.72-2.75l-0.68-2.04l-1.25-4.84l-0.54-2.92l22.91-15.76l4.35-2.23l4.54-1.59l1.48-0.3l3.13-1.08l1.33-0.26l3.28-1.12l1.18-0.23
		l3.43-1.15l1.03-0.19l3.58-1.18l0.88-0.16l21.81-7.12l5.19,9.57l1.56,3.53l1.26,3.63l0.48,1.87l0.66,1.8l0.71,2.59l1.66,4.31
		l2.09,4.18l2.52,4.05l3.91,5.2l7.78,16.29l-31.1,9.85l-0.5,0.1l-4.25,1.3l-0.07,0.01l-4.33,1.28l-0.33,0.14l-4.76,1.36l-11.82,1.98
		l-23.97,9.51l-0.47-0.59l-3.01-4.33l-2.68-4.43L86.58,331.45"/>
	<path class="st3" d="M52.63,247.6l-3.65-4.15l-12.14-16.94l-3.17-3.68l-3.6-3.55l-4.04-3.41L8.99,203.4l21.37-15.84l4.16-2.63
		l4.25-2.23l4.33-1.83l4.42-1.44l4.5-1.04l1.18-0.17l4.78-1.13l4.69-1.58l4.6-2.03l24.47-13.46l1.08,0.09l4.59,0.58l4.7,0.83
		l3.78,0.85l5.43,25.68l-5.08,7.92l-1.83,3.3l-0.94,1.4l-2.4,4.21l-0.34,0.48l-2.77,4.7l-0.22,0.47l-3.38,5.46l-3.71,4.34
		l-4.05,3.22l-4.39,2.09l-2.88,0.59l-3.65,1.69l-0.57,0.14l-4.15,2.07l-3.86,3.04l-12.02,13.48l-1.7,1.68L52.63,247.6"/>
	<path class="st4" d="M-302.36,138.38l-25.31,6.9l-3.17-0.7l-10.28-38.5l-0.53-3.19l-0.59-2.18l-0.37-2.23l0.04-1.1l-0.36-5.62
		l-0.92-5.5l-0.52-1.91L-345,80.8l-0.43-1.52l-0.72-3.94l-0.33-1.13l-0.97-5.09l-1.2-12.87l9.17-6.1l5.5-2.8l5.5-1.99l5.47-1.26
		l1.45-0.15l4.04-0.99l2.08-0.25l6.05-1.57l5.88-2.4l5.71-3.23l5.54-4.06l0.06-0.06l28.89,6.77l3.47,1.16l1.55,17.51l0.86,4.65
		l0.46,1.63l0.49,3l0.68,2.6l1.81,12.59l-0.13,2.66l1.13,4.13l1.34,3.49l0.33,1.54l4.08,31.21l-10.6,5.04l-5.47,2.13l-5.56,1.69
		l-5.65,1.26l-0.32,0.05l-4.64,0.97l-0.71,0.2l-5.69,1.11l-5.78,0.68l-5.87,0.25l-1.16-0.04L-302.36,138.38"/>
	<path class="st4" d="M-386.78,159.65l-1.22,0.33l-4.06,0.8l-25.85-2.46l-5.27-0.8l-5.34-1.11l-5.4-1.42l-7.38-2.34l3.56-28.83
		l0.28-6.47l-0.25-6.36l-0.78-6.24l-1.31-6.13l-0.02-0.07l-1.34-6.04l-1.88-6l-2.68-6.53l-0.36-2.11l-5.52-56.2l7.33-5.52l3.9-1.5
		l6.39-2.13l6.13,3.32l8.26,5.05l4.32,3l7.26,4.44l7.11,3.72l6.96,3l20.01,6.7l0.82,0.15l24.49,14.36l1.2,12.87l0.97,5.09l0.33,1.13
		l0.72,3.94l0.43,1.52l0.62,3.55l0.52,1.91l0.92,5.5l0.36,5.62l-0.04,1.1l0.37,2.23l0.59,2.18l0.53,3.19l10.28,38.5l-14.18,6.34
		l-6.06,2.19l-6.16,1.71l-5.39,1.07l-0.85,0.23l-4.52,0.84l-1.72,0.44l-6.28,1.1l-6.5,0.63l-1.81,0.06L-386.78,159.65"/>
	<path class="st4" d="M-505,168.64l-18.38-16.22l-4.91-5.16l-4.15-5.32l-3.4-5.48l-2.64-5.64l-1.88-5.8l-0.85-4.52l-9.18-14.86
		l-3.4-4.44l-2.94-3.19l0.27-1.41l2.24-22.24l1.04-5.45l1.54-5.55l2.04-5.65l4.26-9.65l5.41-22.75l16.12-1.16l0.18-0.02l14.43-0.27
		l10.17-1.51l5.56-0.54l5.62-0.26l5.68,0.01l17.79,0.9l12.74-0.79l5.52,56.2l0.36,2.11l2.68,6.53l1.88,6l1.34,6.04l0.02,0.07
		l1.31,6.13l0.78,6.24l0.25,6.36l-0.28,6.47l-3.56,28.83l-24.45,12.37l-5.26,3l-5.19,3.32l-5.13,3.63l-1.03,0.81l-4.91-1.1
		l-6.11-1.07l-5.97-0.75l-1.4-0.12L-505,168.64"/>
	<path class="st4" d="M-155.55,175.21l1.67,5.61l4.71,10.58l2.98,25.48l-25.62,2.89l-6.1,1.32l-2.65,0.86l-3.4,0.75l-2.45,0.81
		l-3.59,0.81l-2.26,0.75l-3.78,0.86l-2.06,0.69l-3.98,0.92l-1.87,0.63l-4.17,0.98l-5.96,2.02l-5.72,2.56l-0.29-0.78l-11.41-23.85
		l-7.89-7.36l2.06-2.55l-3.2-3.72l1.79-1.97l-2.85-4.32l1.37-1.36l-2.35-4.94l0.79-0.72l-1.69-5.6l0.05-0.04l-0.88-6.29l4.04-3.2
		l4.33-10.38l3.1-16.35l0.93-11.17l3.25,0.05l4.55-0.28l7.99-1.82l5.91-0.09l5.37-0.47l5.29-0.86l2.82-0.67l4.66-0.8l4.72-0.5
		l13.84-0.57l4.74,15.19l7.54,14.68l2.18,6.24l0.89,4.57l0.6,1.82l0.69,3.89l0.79,2.51L-155.55,175.21"/>
	<path class="st4" d="M-269.3,242.04l-16.57,1.26l-5.91-0.08l-6.07-0.6l-1.25-0.23l-3.25-21.41l-3.86-7.84l-1.88-5.43l-1.15-5.59
		l0-0.01l-1.18-5.56l-0.02-0.3l-1.16-5.27l-0.05-0.59l-1.32-5.84l-14.7-39.25l25.31-6.9l3.68-0.72l1.16,0.04l5.87-0.25l5.78-0.68
		l5.69-1.11l0.71-0.2l4.64-0.97l0.32-0.05l5.65-1.26l5.56-1.69l5.47-2.13l10.6-5.04l15.34,4.79l-0.93,11.17l-3.1,16.35l-4.33,10.38
		l-4.04,3.2l0.88,6.29l-0.05,0.04l1.69,5.6l-0.79,0.72l2.35,4.94l-1.37,1.36l2.85,4.32l-1.79,1.97l3.2,3.72l-2.06,2.55l7.89,7.36
		l11.41,23.85l0.29,0.78l-13.91,10.68l-4.43,3.93l-0.67-0.3l-6.32-2.3l-6.21-1.75l-6.1-1.21l-5.98-0.66L-269.3,242.04"/>
	<path class="st4" d="M-155.55,175.21l1.67,5.61l4.71,10.58l2.98,25.48l-25.62,2.89l-6.1,1.32l-2.65,0.86l-3.4,0.75l-2.45,0.81
		l-3.59,0.81l-2.26,0.75l-3.78,0.86l-2.06,0.69l-3.98,0.92l-1.87,0.63l-4.17,0.98l-5.96,2.02l-5.72,2.56l-0.29-0.78l-11.41-23.85
		l-7.89-7.36l2.06-2.55l-3.2-3.72l1.79-1.97l-2.85-4.32l1.37-1.36l-2.35-4.94l0.79-0.72l-1.69-5.6l0.05-0.04l-0.88-6.29l4.04-3.2
		l4.33-10.38l3.1-16.35l0.93-11.17l3.25,0.05l4.55-0.28l7.99-1.82l5.91-0.09l5.37-0.47l5.29-0.86l2.82-0.67l4.66-0.8l4.72-0.5
		l13.84-0.57l4.74,15.19l7.54,14.68l2.18,6.24l0.89,4.57l0.6,1.82l0.69,3.89l0.79,2.51L-155.55,175.21"/>
	<path class="st4" d="M-269.3,242.04l-16.57,1.26l-5.91-0.08l-6.07-0.6l-1.25-0.23l-3.25-21.41l-3.86-7.84l-1.88-5.43l-1.15-5.59
		l0-0.01l-1.18-5.56l-0.02-0.3l-1.16-5.27l-0.05-0.59l-1.32-5.84l-14.7-39.25l25.31-6.9l3.68-0.72l1.16,0.04l5.87-0.25l5.78-0.68
		l5.69-1.11l0.71-0.2l4.64-0.97l0.32-0.05l5.65-1.26l5.56-1.69l5.47-2.13l10.6-5.04l15.34,4.79l-0.93,11.17l-3.1,16.35l-4.33,10.38
		l-4.04,3.2l0.88,6.29l-0.05,0.04l1.69,5.6l-0.79,0.72l2.35,4.94l-1.37,1.36l2.85,4.32l-1.79,1.97l3.2,3.72l-2.06,2.55l7.89,7.36
		l11.41,23.85l0.29,0.78l-13.91,10.68l-4.43,3.93l-0.67-0.3l-6.32-2.3l-6.21-1.75l-6.1-1.21l-5.98-0.66L-269.3,242.04"/>
	<path class="st4" d="M-359.8,260.56l-9.43-15.14l-8.07-8.69l-5.3-1.77l-0.94-5.59l-0.23-0.07l-0.99-5.61l-0.17-0.06l-1.04-5.63
		l-0.12-0.04l-1.1-5.65l-0.06-0.02l-1.16-5.67l0,0l-5.68-26.63l1.74-13.69l0.29-5.53l4.06-0.8l1.22-0.33l2.46-0.46l1.81-0.06
		l6.5-0.63l6.28-1.1l1.72-0.44l4.52-0.84l0.85-0.23l5.39-1.07l6.16-1.71l6.06-2.19l14.18-6.34l3.17,0.7l14.7,39.25l1.32,5.84
		l0.05,0.59l1.16,5.27l0.02,0.3l1.18,5.56l0,0.01l1.15,5.59l1.88,5.43l3.86,7.84l3.25,21.41l-3.87,2.6l-0.7,0.39l-14.58,5.19
		l-4.42,1.22l-1.52,0.3l-5.86,1.77l-5.74,2.34l-5.62,2.92l-1.87,1.19l-4.14-0.1l-6.15,0.4l-5.78,0.9L-359.8,260.56"/>
	<path class="st4" d="M-399.96,275.12l-22.22,6.28l-1.62-1.66l-3.52-4.09l-0.38-0.5l-8.12-19.07l-1.39-4.09l-1.38-5.35l-2.18-5.81
		l-0.22-0.44l-20.57-19.96l-5.08-4.29l-3.31-2.46l-5.38-4.51l-7.06-33.39l1.03-0.81l5.13-3.63l5.19-3.32l5.26-3l24.45-12.37
		l7.38,2.34l5.4,1.42l5.34,1.11l5.27,0.8l25.85,2.46l-0.29,5.53l-1.74,13.69l5.68,26.63l0,0l1.16,5.67l0.06,0.02l1.1,5.65l0.12,0.04
		l1.04,5.63l0.17,0.06l0.99,5.61l0.23,0.07l0.94,5.59l5.3,1.77l8.07,8.69l9.43,15.14l0.46,0.93l-6.38,3.42l-5.32,2.27l-5.48,1.77
		l-2.91,0.65l-2.66,0.83l-2.48,0.54l-3.1,0.95l-2.04,0.43l-3.54,1.05l-1.6,0.33l-3.98,1.15L-399.96,275.12"/>
	<path class="st4" d="M-359.8,260.56l-9.43-15.14l-8.07-8.69l-5.3-1.77l-0.94-5.59l-0.23-0.07l-0.99-5.61l-0.17-0.06l-1.04-5.63
		l-0.12-0.04l-1.1-5.65l-0.06-0.02l-1.16-5.67l0,0l-5.68-26.63l1.74-13.69l0.29-5.53l4.06-0.8l1.22-0.33l2.46-0.46l1.81-0.06
		l6.5-0.63l6.28-1.1l1.72-0.44l4.52-0.84l0.85-0.23l5.39-1.07l6.16-1.71l6.06-2.19l14.18-6.34l3.17,0.7l14.7,39.25l1.32,5.84
		l0.05,0.59l1.16,5.27l0.02,0.3l1.18,5.56l0,0.01l1.15,5.59l1.88,5.43l3.86,7.84l3.25,21.41l-3.87,2.6l-0.7,0.39l-14.58,5.19
		l-4.42,1.22l-1.52,0.3l-5.86,1.77l-5.74,2.34l-5.62,2.92l-1.87,1.19l-4.14-0.1l-6.15,0.4l-5.78,0.9L-359.8,260.56"/>
	<path class="st4" d="M-399.96,275.12l-22.22,6.28l-1.62-1.66l-3.52-4.09l-0.38-0.5l-8.12-19.07l-1.39-4.09l-1.38-5.35l-2.18-5.81
		l-0.22-0.44l-20.57-19.96l-5.08-4.29l-3.31-2.46l-5.38-4.51l-7.06-33.39l1.03-0.81l5.13-3.63l5.19-3.32l5.26-3l24.45-12.37
		l7.38,2.34l5.4,1.42l5.34,1.11l5.27,0.8l25.85,2.46l-0.29,5.53l-1.74,13.69l5.68,26.63l0,0l1.16,5.67l0.06,0.02l1.1,5.65l0.12,0.04
		l1.04,5.63l0.17,0.06l0.99,5.61l0.23,0.07l0.94,5.59l5.3,1.77l8.07,8.69l9.43,15.14l0.46,0.93l-6.38,3.42l-5.32,2.27l-5.48,1.77
		l-2.91,0.65l-2.66,0.83l-2.48,0.54l-3.1,0.95l-2.04,0.43l-3.54,1.05l-1.6,0.33l-3.98,1.15L-399.96,275.12"/>
	<path class="st4" d="M-551.61,286.6l-4.74-5.39l-15.78-22.02l-4.12-4.78l-4.69-4.61l-5.26-4.44l-22.15-16.23l27.78-20.59l5.41-3.41
		l5.52-2.9l5.63-2.38l5.74-1.87l5.85-1.36l1.54-0.22l6.21-1.48l6.09-2.06l5.97-2.64l31.82-17.49l1.4,0.12l5.97,0.75l6.11,1.07
		l4.91,1.1l7.06,33.39l-6.6,10.3l-2.38,4.29l-1.22,1.82l-3.11,5.48l-0.44,0.62l-3.6,6.11l-0.28,0.61l-4.39,7.1l-4.83,5.64
		l-5.27,4.18l-5.7,2.72l-3.75,0.77l-4.74,2.2l-0.75,0.19l-5.4,2.69l-5.02,3.95l-15.62,17.53l-2.21,2.18L-551.61,286.6"/>
	<path class="st4" d="M-224.77,321.29l-0.16-13.11l-0.18-2.47l-3.64-10.77l-2.41-14.7l-1.41-5.79l-1.78-5.45l-1.43-5.91l-2.36-14.72
		l4.43-3.93l13.91-10.68l5.72-2.56l5.96-2.02l4.17-0.98l1.87-0.63l3.98-0.92l2.06-0.69l3.78-0.86l2.26-0.75l3.59-0.81l2.45-0.81
		l3.4-0.75l2.65-0.86l6.1-1.32l25.62-2.89l6.67,4.34l5.3,21.28l0.47,1.39l1.1,4.16l0.16,0.44l1.28,4.59l0.11,0.53l1.63,5.53
		l2.1,5.38l2.56,5.23l0.61,1.03l1.21,4.44l11.49,31.81l-12.81,19.08l-8.9,4.16l-5.48,2.15l-5.5,1.77l-0.1,0.04l-5.59,1.81
		l-0.02,0.01l-5.57,1.81l-0.15,0.04l-5.71,1.87l-1.89,0.76l-54.72-16.71l-5.7-2.05L-224.77,321.29"/>
	<path class="st4" d="M-407.46,473.86l-2.64,0.98l-3.52,0.86l-2.53,0.94l-3.63,0.89l-2.42,0.91l-3.74,0.93l-2.31,0.87l-6.13,1.54
		l-6.34,0.84l-6.55,0.14l-13.41-1.1l-2.52-4.09l-8.01-16.02l-3-4.97l-3.45-4.83l-3.9-4.7l-4.35-4.56l-8.03-7.41l-0.6-2.63
		l-1.05-6.46l-0.64-6.58l-0.2-5.76l31.16-12.37l15.36-2.58l6.19-1.76l0.44-0.18l5.63-1.66l0.09-0.02l5.53-1.69l0.65-0.13
		l40.43-12.81l18,9.8l2.98,2.04l-6.99,17.61l-2.12,6.52l-1.59,6.36l-1.05,6.2l-0.52,6.05l0.06,23.79l-0.6,6.5l-0.49,2.71
		L-407.46,473.86"/>
	<path class="st4" d="M-282.04,349.75l-19.05,3.01l-1.21,0.13l-12.46-23.77l-8.36-9.38l-3.46-5.22l-2.54-5.52l-1.08-3.9l-0.77-1.84
		l-0.63-2.65l-1.17-3.1l-0.28-1.37l-1.48-4.4l-1.36-8.17l-7.39-23.3l1.87-1.19l5.62-2.92l5.74-2.34l5.86-1.77l1.52-0.3l4.42-1.22
		l14.58-5.19l0.7-0.39l3.87-2.6l1.25,0.23l6.07,0.6l5.91,0.08l16.57-1.26l5.87,0.11l5.98,0.66l6.1,1.21l6.21,1.75l6.32,2.3l0.67,0.3
		l2.36,14.72l1.43,5.91l1.78,5.45l1.41,5.79l2.41,14.7l3.64,10.77l0.18,2.47l0.16,13.11l-21.9,18.22l-11.19,5.95l-1.01,0.04
		l-5.94,0.6l-5.83,0.95l-5.72,1.29l-4.39,1.28L-282.04,349.75"/>
	<path class="st4" d="M-326.58,314.53l3.46,5.22l8.36,9.38l12.46,23.77l-2.86,2.2l-25.71,17.8l-4.47,3.5l-4.36,3.83l-4.26,4.17
		l-3.44,3.73l-1.09,0.34l-5.7,1.45l-5.79,1.15l-5.88,0.84l-4.12,0.37l-2.98-2.04l-18-9.8l-10.11-21.18l-5.09-6.75l-3.27-5.26
		l-2.71-5.43l-2.15-5.6l-0.93-3.37l-0.86-2.34l-0.63-2.43l-1.64-4.72l-2.03-4.59l-6.75-12.44l4.95-24.93l22.22-6.28l1.16-0.23
		l3.98-1.15l1.6-0.33l3.54-1.05l2.04-0.43l3.1-0.95l2.48-0.54l2.66-0.83l2.91-0.65l5.48-1.77l5.32-2.27l6.38-3.42l5.78-0.9l6.15-0.4
		l4.14,0.1l7.39,23.3l1.36,8.17l1.48,4.4l0.28,1.37l1.17,3.1l0.63,2.65l0.77,1.84l1.08,3.9L-326.58,314.53"/>
	<path class="st4" d="M-551.61,286.6l-4.74-5.39l-15.78-22.02l-4.12-4.78l-4.69-4.61l-5.26-4.44l-22.15-16.23l27.78-20.59l5.41-3.41
		l5.52-2.9l5.63-2.38l5.74-1.87l5.85-1.36l1.54-0.22l6.21-1.48l6.09-2.06l5.97-2.64l31.82-17.49l1.4,0.12l5.97,0.75l6.11,1.07
		l4.91,1.1l7.06,33.39l-6.6,10.3l-2.38,4.29l-1.22,1.82l-3.11,5.48l-0.44,0.62l-3.6,6.11l-0.28,0.61l-4.39,7.1l-4.83,5.64
		l-5.27,4.18l-5.7,2.72l-3.75,0.77l-4.74,2.2l-0.75,0.19l-5.4,2.69l-5.02,3.95l-15.62,17.53l-2.21,2.18L-551.61,286.6"/>
	<path class="st4" d="M-423.8,279.74l1.62,1.66l-4.95,24.93l-28.35,9.25l-1.14,0.21l-4.65,1.54l-1.33,0.25l-4.45,1.5l-1.53,0.3
		l-4.26,1.45l-1.72,0.34l-4.06,1.41l-1.92,0.39l-5.9,2.07l-5.65,2.89l-29.78,20.49l-1.92-2.22l-4.17-5.56l-3.64-5.71l-3.12-5.86
		l-2.6-6.01l-2.08-6.16l-0.55-2.21l-1.27-4.03l-0.12-0.53l-2.98-5.33l-2.7-5.99l-2.14-6.15l-0.6-2.4l-0.86-2.73l2.21-2.18
		l15.62-17.53l5.02-3.95l5.4-2.69l0.75-0.19l4.74-2.2l3.75-0.77l5.7-2.72l5.27-4.18l4.83-5.64l4.39-7.1l0.28-0.61l3.6-6.11
		l0.44-0.62l3.11-5.48l1.22-1.82l2.38-4.29l6.6-10.3l5.38,4.51l3.31,2.46l5.08,4.29l20.57,19.96l0.22,0.44l2.18,5.81l1.38,5.35
		l1.39,4.09l8.12,19.07l0.38,0.5L-423.8,279.74"/>
	<path class="st4" d="M-507.47,395.6l-2.61-6.01l-2.17-6.14l-1.33-4.81l-0.5-1.43l-1.2-4.4l-0.63-1.84l-1.07-3.99l-0.76-2.25
		l-0.94-3.58l-0.89-2.66l-1.62-6.3l-0.7-3.79l29.78-20.49l5.65-2.89l5.9-2.07l1.92-0.39l4.06-1.41l1.72-0.34l4.26-1.45l1.53-0.3
		l4.45-1.5l1.33-0.25l4.65-1.54l1.14-0.21l28.35-9.25l6.75,12.44l2.03,4.59l1.64,4.72l0.63,2.43l0.86,2.34l0.93,3.37l2.15,5.6
		l2.71,5.43l3.27,5.26l5.09,6.75l10.11,21.18l-40.43,12.81l-0.65,0.13l-5.53,1.69l-0.09,0.02l-5.63,1.66l-0.44,0.18l-6.19,1.76
		l-15.36,2.58l-31.16,12.37l-0.61-0.77l-3.91-5.63l-3.48-5.76L-507.47,395.6"/>
	<path class="st4" d="M-551.61,286.6l-4.74-5.39l-15.78-22.02l-4.12-4.78l-4.69-4.61l-5.26-4.44l-22.15-16.23l27.78-20.59l5.41-3.41
		l5.52-2.9l5.63-2.38l5.74-1.87l5.85-1.36l1.54-0.22l6.21-1.48l6.09-2.06l5.97-2.64l31.82-17.49l1.4,0.12l5.97,0.75l6.11,1.07
		l4.91,1.1l7.06,33.39l-6.6,10.3l-2.38,4.29l-1.22,1.82l-3.11,5.48l-0.44,0.62l-3.6,6.11l-0.28,0.61l-4.39,7.1l-4.83,5.64
		l-5.27,4.18l-5.7,2.72l-3.75,0.77l-4.74,2.2l-0.75,0.19l-5.4,2.69l-5.02,3.95l-15.62,17.53l-2.21,2.18L-551.61,286.6"/>
</g>
<g id="links">
	<path class="st5" d="M246.89,88.63l26.44,84.8"/>
	<path class="st5" d="M246.89,88.63l26.44,84.8"/>
	<path class="st5" d="M246.89,88.63l-45.05,101.75"/>
	<path class="st5" d="M246.89,88.63l-45.05,101.75"/>
	<path class="st5" d="M178.82,99.67l-88.48,2.81"/>
	<path class="st5" d="M178.82,99.67l23.01,90.71"/>
	<path class="st5" d="M178.82,99.67l-11.72,97.66"/>
	<path class="st5" d="M178.82,99.67l23.01,90.71"/>
	<path class="st5" d="M178.82,99.67l-11.72,97.66"/>
	<path class="st5" d="M90.34,102.48l76.77,94.85"/>
	<path class="st5" d="M90.34,102.48L67.65,210.64"/>
	<path class="st5" d="M90.34,102.48l76.77,94.85"/>
	<path class="st5" d="M90.34,102.48L67.65,210.64"/>
	<path class="st5" d="M90.34,102.48l88.48-2.81"/>
	<path class="st5" d="M90.34,102.48L67.65,210.64"/>
	<path class="st5" d="M316.17,166.64l-42.83,6.79"/>
	<path class="st5" d="M316.17,166.64L316.17,166.64"/>
	<path class="st5" d="M316.17,166.64l-42.83,6.79"/>
	<path class="st5" d="M316.17,166.64l26.24,70.3"/>
	<path class="st5" d="M273.33,173.43l42.83-6.79"/>
	<path class="st5" d="M273.33,173.43l42.83-6.79"/>
	<path class="st5" d="M273.33,173.43L273.33,173.43"/>
	<path class="st5" d="M273.33,173.43l-71.5,16.95"/>
	<path class="st5" d="M273.33,173.43l-21.14,76.4"/>
	<path class="st5" d="M273.33,173.43l-71.5,16.95"/>
	<path class="st5" d="M273.33,173.43l-26.44-84.8"/>
	<path class="st5" d="M273.33,173.43l69.07,63.51"/>
	<path class="st5" d="M316.17,166.64L316.17,166.64"/>
	<path class="st5" d="M316.17,166.64l-42.83,6.79"/>
	<path class="st5" d="M316.17,166.64l-42.83,6.79"/>
	<path class="st5" d="M316.17,166.64l26.24,70.3"/>
	<path class="st5" d="M273.33,173.43l42.83-6.79"/>
	<path class="st5" d="M273.33,173.43L273.33,173.43"/>
	<path class="st5" d="M273.33,173.43l42.83-6.79"/>
	<path class="st5" d="M273.33,173.43l-71.5,16.95"/>
	<path class="st5" d="M273.33,173.43l-21.14,76.4"/>
	<path class="st5" d="M273.33,173.43l-71.5,16.95"/>
	<path class="st5" d="M273.33,173.43l-26.44-84.8"/>
	<path class="st5" d="M273.33,173.43l69.07,63.51"/>
	<path class="st5" d="M201.84,190.37l-34.73,6.96"/>
	<path class="st5" d="M201.84,190.37l-6.15,79.78"/>
	<path class="st5" d="M201.84,190.37l71.5-16.95"/>
	<path class="st5" d="M201.84,190.37l71.5-16.95"/>
	<path class="st5" d="M201.84,190.37l50.36,59.45"/>
	<path class="st5" d="M201.84,190.37L201.84,190.37"/>
	<path class="st5" d="M201.84,190.37l-34.73,6.96"/>
	<path class="st5" d="M201.84,190.37l45.05-101.75"/>
	<path class="st5" d="M201.84,190.37l-23.01-90.71"/>
	<path class="st5" d="M167.11,197.33l-64.42,46.31"/>
	<path class="st5" d="M167.11,197.33l-76.77-94.85"/>
	<path class="st5" d="M167.11,197.33l28.58,72.82"/>
	<path class="st5" d="M167.11,197.33l34.73-6.96"/>
	<path class="st5" d="M167.11,197.33l-99.46,13.31"/>
	<path class="st5" d="M167.11,197.33l34.73-6.96"/>
	<path class="st5" d="M167.11,197.33L167.11,197.33"/>
	<path class="st5" d="M167.11,197.33l-99.46,13.31"/>
	<path class="st5" d="M167.11,197.33l11.72-97.66"/>
	<path class="st5" d="M167.11,197.33l-99.46,13.31"/>
	<path class="st5" d="M201.84,190.37l-34.73,6.96"/>
	<path class="st5" d="M201.84,190.37l71.5-16.95"/>
	<path class="st5" d="M201.84,190.37l71.5-16.95"/>
	<path class="st5" d="M201.84,190.37L201.84,190.37"/>
	<path class="st5" d="M201.84,190.37l50.36,59.45"/>
	<path class="st5" d="M201.84,190.37l-6.15,79.78"/>
	<path class="st5" d="M201.84,190.37l-34.73,6.96"/>
	<path class="st5" d="M201.84,190.37l-23.01-90.71"/>
	<path class="st5" d="M167.11,197.33l-64.42,46.31"/>
	<path class="st5" d="M167.11,197.33L167.11,197.33"/>
	<path class="st5" d="M167.11,197.33l-76.77-94.85"/>
	<path class="st5" d="M167.11,197.33l28.58,72.82"/>
	<path class="st5" d="M167.11,197.33l34.73-6.96"/>
	<path class="st5" d="M167.11,197.33l-99.46,13.31"/>
	<path class="st5" d="M167.11,197.33l34.73-6.96"/>
	<path class="st5" d="M167.11,197.33l-99.46,13.31"/>
	<path class="st5" d="M167.11,197.33l11.72-97.66l68.07-11.04l-45.05,101.75"/>
	<path class="st5" d="M167.11,197.33l-99.46,13.31"/>
	<path class="st5" d="M67.65,210.64l35.04,33"/>
	<path class="st5" d="M67.65,210.64l22.69-108.16"/>
	<path class="st5" d="M67.65,210.64l99.46-13.31"/>
	<path class="st5" d="M67.65,210.64l99.46-13.31"/>
	<path class="st5" d="M342.41,236.93l-26.24-70.3"/>
	<path class="st5" d="M342.41,236.93l-69.07-63.51"/>
	<path class="st5" d="M342.41,236.93l-26.24-70.3"/>
	<path class="st5" d="M342.41,236.93l-69.07-63.51"/>
	<path class="st5" d="M342.41,236.93l-90.21,12.89"/>
	<path class="st5" d="M147.41,363.31l-21.13-63.85"/>
	<path class="st5" d="M147.41,363.31l48.28-93.16"/>
	<path class="st5" d="M252.2,249.83l-50.36-59.45"/>
	<path class="st5" d="M252.2,249.83l21.14-76.4"/>
	<path class="st5" d="M252.2,249.83l21.14-76.4"/>
	<path class="st5" d="M252.2,249.83l-50.36-59.45"/>
	<path class="st5" d="M252.2,249.83l-56.51,20.32"/>
	<path class="st5" d="M252.2,249.83l90.21-12.89"/>
	<path class="st5" d="M195.69,270.15l-93-26.51"/>
	<path class="st5" d="M195.69,270.15l-69.41,29.31"/>
	<path class="st5" d="M195.69,270.15l56.51-20.32"/>
	<path class="st5" d="M195.69,270.15l-48.28,93.16"/>
	<path class="st5" d="M195.69,270.15l6.15-79.78"/>
	<path class="st5" d="M195.69,270.15l-28.58-72.82"/>
	<path class="st5" d="M195.69,270.15l6.15-79.78"/>
	<path class="st5" d="M195.69,270.15l-28.58-72.82"/>
	<path class="st5" d="M67.65,210.64l35.04,33"/>
	<path class="st5" d="M67.65,210.64l22.69-108.16"/>
	<path class="st5" d="M67.65,210.64l99.46-13.31"/>
	<path class="st5" d="M67.65,210.64l99.46-13.31"/>
	<path class="st5" d="M102.69,243.64l64.42-46.31"/>
	<path class="st5" d="M102.69,243.64l23.59,55.82"/>
	<path class="st5" d="M102.69,243.64l-35.04-33"/>
	<path class="st5" d="M102.69,243.64l93,26.51"/>
	<path class="st5" d="M102.69,243.64l64.42-46.31"/>
	<path class="st5" d="M102.69,243.64l-35.04-33"/>
	<path class="st5" d="M102.69,243.64l-35.04-33"/>
	<path class="st5" d="M126.28,299.46l-23.59-55.82"/>
	<path class="st5" d="M126.28,299.46l69.41-29.31"/>
	<path class="st5" d="M126.28,299.46l21.13,63.85"/>
	<path class="st5" d="M67.65,210.64l35.04,33"/>
	<path class="st5" d="M67.65,210.64l22.69-108.16"/>
	<path class="st5" d="M67.65,210.64l99.46-13.31"/>
	<path class="st5" d="M67.65,210.64l99.46-13.31"/>
	<path class="st6" d="M-299.07,79.92l34.38,110.24"/>
	<path class="st6" d="M-299.07,79.92l34.38,110.24"/>
	<path class="st6" d="M-299.07,79.92l-58.57,132.27"/>
	<path class="st6" d="M-299.07,79.92l-58.57,132.27"/>
	<path class="st6" d="M-387.55,94.28l-115.03,3.66"/>
	<path class="st6" d="M-387.55,94.28l29.92,117.92"/>
	<path class="st6" d="M-387.55,94.28l-15.23,126.96"/>
	<path class="st6" d="M-387.55,94.28l29.92,117.92"/>
	<path class="st6" d="M-387.55,94.28l-15.23,126.96"/>
	<path class="st6" d="M-502.58,97.93l99.8,123.3"/>
	<path class="st6" d="M-502.58,97.93l-29.5,140.61"/>
	<path class="st6" d="M-502.58,97.93l99.8,123.3"/>
	<path class="st6" d="M-502.58,97.93l-29.5,140.61"/>
	<path class="st6" d="M-502.58,97.93l115.03-3.66"/>
	<path class="st6" d="M-502.58,97.93l-29.5,140.61"/>
	<path class="st6" d="M-209.01,181.34l-55.68,8.83"/>
	<path class="st6" d="M-209.01,181.34L-209.01,181.34"/>
	<path class="st6" d="M-209.01,181.34l-55.68,8.83"/>
	<path class="st6" d="M-209.01,181.34l34.11,91.39"/>
	<path class="st6" d="M-264.69,190.16l55.68-8.83"/>
	<path class="st6" d="M-264.69,190.16l55.68-8.83"/>
	<path class="st6" d="M-264.69,190.16L-264.69,190.16"/>
	<path class="st6" d="M-264.69,190.16l-92.95,22.03"/>
	<path class="st6" d="M-264.69,190.16l-27.48,99.32"/>
	<path class="st6" d="M-264.69,190.16l-92.95,22.03"/>
	<path class="st6" d="M-264.69,190.16l-34.38-110.24"/>
	<path class="st6" d="M-264.69,190.16l89.8,82.56"/>
	<path class="st6" d="M-209.01,181.34L-209.01,181.34"/>
	<path class="st6" d="M-209.01,181.34l-55.68,8.83"/>
	<path class="st6" d="M-209.01,181.34l-55.68,8.83"/>
	<path class="st6" d="M-209.01,181.34l34.11,91.39"/>
	<path class="st6" d="M-264.69,190.16l55.68-8.83"/>
	<path class="st6" d="M-264.69,190.16L-264.69,190.16"/>
	<path class="st6" d="M-264.69,190.16l55.68-8.83"/>
	<path class="st6" d="M-264.69,190.16l-92.95,22.03"/>
	<path class="st6" d="M-264.69,190.16l-27.48,99.32"/>
	<path class="st6" d="M-264.69,190.16l-92.95,22.03"/>
	<path class="st6" d="M-264.69,190.16l-34.38-110.24"/>
	<path class="st6" d="M-264.69,190.16l89.8,82.56"/>
	<path class="st6" d="M-357.64,212.19l-45.15,9.04"/>
	<path class="st6" d="M-357.64,212.19l-7.99,103.71"/>
	<path class="st6" d="M-357.64,212.19l92.95-22.03"/>
	<path class="st6" d="M-357.64,212.19l92.95-22.03"/>
	<path class="st6" d="M-357.64,212.19l65.47,77.29"/>
	<path class="st6" d="M-357.64,212.19L-357.64,212.19"/>
	<path class="st6" d="M-357.64,212.19l-45.15,9.04"/>
	<path class="st6" d="M-357.64,212.19l58.57-132.27"/>
	<path class="st6" d="M-357.64,212.19l-29.92-117.92"/>
	<path class="st6" d="M-402.79,221.24l-83.74,60.21"/>
	<path class="st6" d="M-402.79,221.24l-99.8-123.3"/>
	<path class="st6" d="M-402.79,221.24l37.16,94.67"/>
	<path class="st6" d="M-402.79,221.24l45.15-9.04"/>
	<path class="st6" d="M-402.79,221.24l-129.29,17.31"/>
	<path class="st6" d="M-402.79,221.24l45.15-9.04"/>
	<path class="st6" d="M-402.79,221.24L-402.79,221.24"/>
	<path class="st6" d="M-402.79,221.24l-129.29,17.31"/>
	<path class="st6" d="M-402.79,221.24l15.23-126.96"/>
	<path class="st6" d="M-402.79,221.24l-129.29,17.31"/>
	<path class="st6" d="M-357.64,212.19l-45.15,9.04"/>
	<path class="st6" d="M-357.64,212.19l92.95-22.03"/>
	<path class="st6" d="M-357.64,212.19l92.95-22.03"/>
	<path class="st6" d="M-357.64,212.19L-357.64,212.19"/>
	<path class="st6" d="M-357.64,212.19l65.47,77.29"/>
	<path class="st6" d="M-357.64,212.19l-7.99,103.71"/>
	<path class="st6" d="M-357.64,212.19l-45.15,9.04"/>
	<path class="st6" d="M-357.64,212.19l-29.92-117.92"/>
	<path class="st6" d="M-402.79,221.24l-83.74,60.21"/>
	<path class="st6" d="M-402.79,221.24L-402.79,221.24"/>
	<path class="st6" d="M-402.79,221.24l-99.8-123.3"/>
	<path class="st6" d="M-402.79,221.24l37.16,94.67"/>
	<path class="st6" d="M-402.79,221.24l45.15-9.04"/>
	<path class="st6" d="M-402.79,221.24l-129.29,17.31"/>
	<path class="st6" d="M-402.79,221.24l45.15-9.04"/>
	<path class="st6" d="M-402.79,221.24l-129.29,17.31"/>
	<path class="st6" d="M-402.79,221.24l15.23-126.96l88.48-14.35l-58.57,132.27"/>
	<path class="st6" d="M-402.79,221.24l-129.29,17.31"/>
	<path class="st6" d="M-532.08,238.55l45.55,42.9"/>
	<path class="st6" d="M-532.08,238.55l29.5-140.61"/>
	<path class="st6" d="M-532.08,238.55l129.29-17.31"/>
	<path class="st6" d="M-532.08,238.55l129.29-17.31"/>
	<path class="st6" d="M-174.9,272.72l-34.11-91.39"/>
	<path class="st6" d="M-174.9,272.72l-89.8-82.56"/>
	<path class="st6" d="M-174.9,272.72l-34.11-91.39"/>
	<path class="st6" d="M-174.9,272.72l-89.8-82.56"/>
	<path class="st6" d="M-174.9,272.72l-117.27,16.76"/>
	<path class="st6" d="M-428.39,437.01L-455.86,354"/>
	<path class="st6" d="M-428.39,437.01l62.76-121.11"/>
	<path class="st6" d="M-292.17,289.48l-65.47-77.29"/>
	<path class="st6" d="M-292.17,289.48l27.48-99.32"/>
	<path class="st6" d="M-292.17,289.48l27.48-99.32"/>
	<path class="st6" d="M-292.17,289.48l-65.47-77.29"/>
	<path class="st6" d="M-292.17,289.48l-73.46,26.42"/>
	<path class="st6" d="M-292.17,289.48l117.27-16.76"/>
	<path class="st6" d="M-365.63,315.9l-120.9-34.46"/>
	<path class="st6" d="M-365.63,315.9l-90.23,38.1"/>
	<path class="st6" d="M-365.63,315.9l73.46-26.42"/>
	<path class="st6" d="M-365.63,315.9l-62.76,121.11"/>
	<path class="st6" d="M-365.63,315.9l7.99-103.71"/>
	<path class="st6" d="M-365.63,315.9l-37.16-94.67"/>
	<path class="st6" d="M-365.63,315.9l7.99-103.71"/>
	<path class="st6" d="M-365.63,315.9l-37.16-94.67"/>
	<path class="st6" d="M-532.08,238.55l45.55,42.9"/>
	<path class="st6" d="M-532.08,238.55l29.5-140.61"/>
	<path class="st6" d="M-532.08,238.55l129.29-17.31"/>
	<path class="st6" d="M-532.08,238.55l129.29-17.31"/>
	<path class="st6" d="M-486.53,281.44l83.74-60.21"/>
	<path class="st6" d="M-486.53,281.44l30.66,72.56"/>
	<path class="st6" d="M-486.53,281.44l-45.55-42.9"/>
	<path class="st6" d="M-486.53,281.44l120.9,34.46"/>
	<path class="st6" d="M-486.53,281.44l83.74-60.21"/>
	<path class="st6" d="M-486.53,281.44l-45.55-42.9"/>
	<path class="st6" d="M-486.53,281.44l-45.55-42.9"/>
	<path class="st6" d="M-455.86,354l-30.66-72.56"/>
	<path class="st6" d="M-455.86,354l90.23-38.1"/>
	<path class="st6" d="M-455.86,354l27.47,83.01"/>
	<path class="st6" d="M-532.08,238.55l45.55,42.9"/>
	<path class="st6" d="M-532.08,238.55l29.5-140.61"/>
	<path class="st6" d="M-532.08,238.55l129.29-17.31"/>
	<path class="st6" d="M-532.08,238.55l129.29-17.31"/>
</g>
<g id="Layer_7">
	<text transform="matrix(1 0 0 1 228.6167 392.1671)" class="st0 st1 st7">momepy</text>
</g>
</svg>
