<?xml version="1.0" encoding="utf-8"?>
<!-- Generator: Adobe Illustrator 24.2.1, SVG Export Plug-In . SVG Version: 6.00 Build 0)  -->
<svg version="1.1" id="Layer_1" xmlns="http://www.w3.org/2000/svg" xmlns:xlink="http://www.w3.org/1999/xlink" x="0px" y="0px"
	 viewBox="0 0 621 512" style="enable-background:new 0 0 621 512;" xml:space="preserve">
<style type="text/css">
	.st0{enable-background:new    ;}
	.st1{fill:#0B4C63;}
	.st2{fill:#E7EDEF;stroke:#FFFFFF;stroke-width:6;stroke-miterlimit:10;}
	.st3{fill:#E7EDEF;stroke:#FFFFFF;stroke-width:7.8;stroke-miterlimit:10;}
	.st4{fill:none;stroke:#E32E00;stroke-width:4.5;stroke-linecap:square;stroke-linejoin:round;}
	.st5{fill:none;stroke:#E32E00;stroke-width:5.85;stroke-linecap:round;stroke-linejoin:round;}
</style>
<g id="Layer_1_1_">
	<g>
		<g class="st0">
			<path class="st1" d="M144.2,422.5V433c0,1.9-0.6,3.3-1.7,4.4s-2.7,1.6-4.6,1.6s-3.5-0.5-4.5-1.6c-1.1-1.1-1.6-2.5-1.6-4.4v-10.5
				h1.9v10.6c0,1.4,0.4,2.4,1.1,3.1c0.7,0.7,1.8,1.1,3.3,1.1c1.4,0,2.4-0.4,3.2-1.1s1.1-1.8,1.1-3.1v-10.6H144.2z"/>
			<path class="st1" d="M153.8,426.3c0.5,0,1,0,1.5,0.1l-0.3,1.7c-0.5-0.1-0.9-0.2-1.3-0.2c-1,0-1.8,0.4-2.5,1.2
				c-0.7,0.8-1.1,1.8-1.1,3v6.5h-1.8v-12.2h1.5l0.2,2.3h0.1c0.5-0.8,1-1.4,1.6-1.8C152.3,426.5,153,426.3,153.8,426.3z"/>
			<path class="st1" d="M163.2,426.3c1.6,0,2.8,0.5,3.7,1.6c0.9,1.1,1.3,2.6,1.3,4.6c0,2-0.4,3.6-1.3,4.7c-0.9,1.1-2.1,1.7-3.7,1.7
				c-0.8,0-1.5-0.1-2.2-0.4c-0.7-0.3-1.2-0.7-1.7-1.4h-0.1l-0.4,1.6h-1.3v-17.3h1.8v4.2c0,0.9,0,1.8-0.1,2.5h0.1
				C160.2,427,161.5,426.3,163.2,426.3z M162.9,427.9c-1.3,0-2.2,0.4-2.7,1.1c-0.6,0.7-0.8,1.9-0.8,3.7c0,1.7,0.3,2.9,0.9,3.7
				c0.6,0.7,1.5,1.1,2.7,1.1c1.1,0,2-0.4,2.5-1.2s0.8-2,0.8-3.6c0-1.6-0.3-2.8-0.8-3.5C165,428.3,164.1,427.9,162.9,427.9z"/>
			<path class="st1" d="M179,438.7l-0.4-1.7h-0.1c-0.6,0.8-1.2,1.3-1.8,1.6s-1.4,0.4-2.3,0.4c-1.2,0-2.2-0.3-2.8-0.9s-1-1.5-1-2.7
				c0-2.5,2-3.8,5.9-3.9l2.1-0.1v-0.8c0-1-0.2-1.7-0.6-2.1c-0.4-0.5-1.1-0.7-2-0.7c-1,0-2.2,0.3-3.4,0.9l-0.6-1.4
				c0.6-0.3,1.3-0.6,2-0.8s1.4-0.3,2.2-0.3c1.5,0,2.5,0.3,3.2,1c0.7,0.6,1.1,1.7,1.1,3.1v8.3H179z M174.8,437.4
				c1.1,0,2.1-0.3,2.7-0.9c0.7-0.6,1-1.5,1-2.6v-1.1l-1.8,0.1c-1.5,0.1-2.5,0.3-3.2,0.7s-1,1-1,1.9c0,0.7,0.2,1.2,0.6,1.5
				S174.1,437.4,174.8,437.4z"/>
			<path class="st1" d="M192.5,438.7v-7.9c0-1-0.2-1.7-0.7-2.2c-0.5-0.5-1.2-0.7-2.1-0.7c-1.3,0-2.2,0.3-2.8,1s-0.9,1.8-0.9,3.4v6.4
				h-1.8v-12.2h1.5l0.3,1.7h0.1c0.4-0.6,0.9-1.1,1.6-1.4c0.7-0.3,1.4-0.5,2.3-0.5c1.5,0,2.6,0.4,3.3,1.1c0.7,0.7,1.1,1.8,1.1,3.4v8
				H192.5z"/>
			<path class="st1" d="M211.5,438.7l-5.5-14.4h-0.1c0.1,1.1,0.2,2.5,0.2,4.1v10.3h-1.7v-16.3h2.8l5.2,13.4h0.1l5.2-13.4h2.8v16.3
				h-1.9v-10.5c0-1.2,0.1-2.5,0.2-3.9h-0.1l-5.6,14.4H211.5z"/>
			<path class="st1" d="M235.2,432.6c0,2-0.5,3.5-1.5,4.7c-1,1.1-2.4,1.7-4.1,1.7c-1.1,0-2.1-0.3-2.9-0.8s-1.5-1.2-2-2.2
				c-0.5-1-0.7-2.1-0.7-3.4c0-2,0.5-3.5,1.5-4.6c1-1.1,2.4-1.7,4.1-1.7c1.7,0,3.1,0.6,4.1,1.7C234.7,429.2,235.2,430.7,235.2,432.6z
				 M225.9,432.6c0,1.6,0.3,2.7,0.9,3.6c0.6,0.8,1.5,1.2,2.7,1.2c1.2,0,2.1-0.4,2.8-1.2c0.6-0.8,0.9-2,0.9-3.6
				c0-1.6-0.3-2.7-0.9-3.5c-0.6-0.8-1.6-1.2-2.8-1.2c-1.2,0-2.1,0.4-2.7,1.2C226.2,429.9,225.9,431.1,225.9,432.6z"/>
			<path class="st1" d="M244,426.3c0.5,0,1,0,1.5,0.1l-0.3,1.7c-0.5-0.1-0.9-0.2-1.3-0.2c-1,0-1.8,0.4-2.5,1.2
				c-0.7,0.8-1.1,1.8-1.1,3v6.5h-1.8v-12.2h1.5l0.2,2.3h0.1c0.5-0.8,1-1.4,1.6-1.8C242.5,426.5,243.2,426.3,244,426.3z"/>
			<path class="st1" d="M253.4,439c-0.8,0-1.5-0.1-2.2-0.4c-0.7-0.3-1.2-0.7-1.7-1.4h-0.1c0.1,0.7,0.1,1.4,0.1,2v5h-1.8v-17.7h1.5
				l0.3,1.7h0.1c0.5-0.7,1-1.1,1.7-1.4s1.4-0.4,2.2-0.4c1.6,0,2.9,0.6,3.7,1.7c0.9,1.1,1.3,2.7,1.3,4.7c0,2-0.4,3.6-1.3,4.7
				C256.2,438.4,255,439,253.4,439z M253.1,427.9c-1.2,0-2.1,0.3-2.7,1c-0.6,0.7-0.8,1.8-0.9,3.3v0.4c0,1.7,0.3,2.9,0.9,3.7
				c0.6,0.7,1.5,1.1,2.7,1.1c1.1,0,1.9-0.4,2.5-1.3c0.6-0.9,0.9-2,0.9-3.5c0-1.5-0.3-2.7-0.9-3.5C255,428.3,254.2,427.9,253.1,427.9
				z"/>
			<path class="st1" d="M270,438.7v-7.9c0-1-0.2-1.7-0.7-2.2c-0.5-0.5-1.2-0.7-2.1-0.7c-1.3,0-2.2,0.3-2.8,1
				c-0.6,0.7-0.9,1.8-0.9,3.4v6.4h-1.8v-17.3h1.8v5.2c0,0.6,0,1.2-0.1,1.6h0.1c0.4-0.6,0.9-1,1.6-1.4c0.7-0.3,1.4-0.5,2.3-0.5
				c1.5,0,2.6,0.4,3.4,1.1c0.7,0.7,1.1,1.8,1.1,3.4v8H270z"/>
			<path class="st1" d="M286.2,432.6c0,2-0.5,3.5-1.5,4.7c-1,1.1-2.4,1.7-4.1,1.7c-1.1,0-2.1-0.3-2.9-0.8s-1.5-1.2-2-2.2
				c-0.5-1-0.7-2.1-0.7-3.4c0-2,0.5-3.5,1.5-4.6c1-1.1,2.4-1.7,4.1-1.7c1.7,0,3.1,0.6,4.1,1.7C285.7,429.2,286.2,430.7,286.2,432.6z
				 M276.9,432.6c0,1.6,0.3,2.7,0.9,3.6c0.6,0.8,1.5,1.2,2.7,1.2c1.2,0,2.1-0.4,2.8-1.2c0.6-0.8,0.9-2,0.9-3.6
				c0-1.6-0.3-2.7-0.9-3.5c-0.6-0.8-1.6-1.2-2.8-1.2c-1.2,0-2.1,0.4-2.7,1.2C277.2,429.9,276.9,431.1,276.9,432.6z"/>
			<path class="st1" d="M291.3,438.7h-1.8v-17.3h1.8V438.7z"/>
			<path class="st1" d="M305.7,432.6c0,2-0.5,3.5-1.5,4.7c-1,1.1-2.4,1.7-4.1,1.7c-1.1,0-2.1-0.3-2.9-0.8s-1.5-1.2-2-2.2
				c-0.5-1-0.7-2.1-0.7-3.4c0-2,0.5-3.5,1.5-4.6c1-1.1,2.4-1.7,4.1-1.7c1.7,0,3.1,0.6,4.1,1.7C305.2,429.2,305.7,430.7,305.7,432.6z
				 M296.4,432.6c0,1.6,0.3,2.7,0.9,3.6c0.6,0.8,1.5,1.2,2.7,1.2c1.2,0,2.1-0.4,2.8-1.2c0.6-0.8,0.9-2,0.9-3.6
				c0-1.6-0.3-2.7-0.9-3.5c-0.6-0.8-1.6-1.2-2.8-1.2c-1.2,0-2.1,0.4-2.7,1.2C296.7,429.9,296.4,431.1,296.4,432.6z"/>
			<path class="st1" d="M318.9,426.5v1.2l-2.3,0.3c0.2,0.3,0.4,0.6,0.6,1s0.2,0.9,0.2,1.4c0,1.2-0.4,2.1-1.2,2.9
				c-0.8,0.7-1.9,1.1-3.4,1.1c-0.4,0-0.7,0-1-0.1c-0.8,0.4-1.2,0.9-1.2,1.6c0,0.3,0.1,0.6,0.4,0.7s0.7,0.2,1.4,0.2h2.2
				c1.3,0,2.3,0.3,3,0.8c0.7,0.6,1.1,1.4,1.1,2.4c0,1.3-0.5,2.4-1.6,3.1s-2.7,1.1-4.7,1.1c-1.6,0-2.8-0.3-3.7-0.9
				c-0.9-0.6-1.3-1.4-1.3-2.5c0-0.7,0.2-1.4,0.7-1.9s1.1-0.9,2-1.1c-0.3-0.1-0.6-0.4-0.8-0.7s-0.3-0.6-0.3-1c0-0.4,0.1-0.8,0.4-1.2
				c0.2-0.3,0.6-0.7,1.1-1c-0.6-0.3-1.1-0.7-1.5-1.3c-0.4-0.6-0.6-1.3-0.6-2.1c0-1.3,0.4-2.4,1.2-3.1c0.8-0.7,1.9-1.1,3.4-1.1
				c0.6,0,1.2,0.1,1.7,0.2H318.9z M309.2,440.8c0,0.7,0.3,1.2,0.8,1.5s1.4,0.5,2.4,0.5c1.5,0,2.7-0.2,3.4-0.7s1.1-1.1,1.1-1.9
				c0-0.7-0.2-1.1-0.6-1.4s-1.2-0.4-2.3-0.4h-2.2c-0.8,0-1.5,0.2-2,0.6C309.4,439.5,309.2,440,309.2,440.8z M310.2,430.4
				c0,0.9,0.2,1.5,0.7,1.9c0.5,0.4,1.2,0.7,2,0.7c1.8,0,2.7-0.9,2.7-2.6c0-1.8-0.9-2.7-2.7-2.7c-0.9,0-1.5,0.2-2,0.7
				C310.4,428.8,310.2,429.5,310.2,430.4z"/>
			<path class="st1" d="M319.5,426.5h2l2.7,7c0.6,1.6,0.9,2.7,1.1,3.4h0.1c0.1-0.4,0.3-1,0.6-1.9s1.3-3.7,3-8.5h2l-5.2,13.9
				c-0.5,1.4-1.1,2.3-1.8,2.9s-1.5,0.9-2.6,0.9c-0.6,0-1.1-0.1-1.7-0.2v-1.5c0.4,0.1,0.9,0.1,1.4,0.1c1.3,0,2.2-0.7,2.7-2.1l0.7-1.7
				L319.5,426.5z"/>
			<path class="st1" d="M346.3,438.7l-5.5-14.4h-0.1c0.1,1.1,0.2,2.5,0.2,4.1v10.3h-1.7v-16.3h2.8l5.2,13.4h0.1l5.2-13.4h2.8v16.3
				h-1.9v-10.5c0-1.2,0.1-2.5,0.2-3.9h-0.1l-5.6,14.4H346.3z"/>
			<path class="st1" d="M364.5,439c-1.8,0-3.2-0.5-4.3-1.6s-1.6-2.6-1.6-4.6c0-2,0.5-3.5,1.5-4.7c1-1.2,2.3-1.7,3.9-1.7
				c1.5,0,2.7,0.5,3.6,1.5c0.9,1,1.3,2.3,1.3,4v1.2h-8.4c0,1.4,0.4,2.5,1.1,3.3c0.7,0.7,1.7,1.1,2.9,1.1c1.3,0,2.6-0.3,3.9-0.8v1.6
				c-0.7,0.3-1.3,0.5-1.9,0.6S365.4,439,364.5,439z M364,427.9c-1,0-1.8,0.3-2.3,1c-0.6,0.6-0.9,1.5-1,2.6h6.4
				c0-1.2-0.3-2.1-0.8-2.7S365,427.9,364,427.9z"/>
			<path class="st1" d="M379.7,438.7l-0.4-1.7h-0.1c-0.6,0.8-1.2,1.3-1.8,1.6s-1.4,0.4-2.3,0.4c-1.2,0-2.2-0.3-2.8-0.9
				c-0.7-0.6-1-1.5-1-2.7c0-2.5,2-3.8,5.9-3.9l2.1-0.1v-0.8c0-1-0.2-1.7-0.6-2.1c-0.4-0.5-1.1-0.7-2-0.7c-1,0-2.2,0.3-3.4,0.9
				l-0.6-1.4c0.6-0.3,1.3-0.6,2-0.8s1.4-0.3,2.2-0.3c1.5,0,2.5,0.3,3.2,1s1.1,1.7,1.1,3.1v8.3H379.7z M375.5,437.4
				c1.1,0,2.1-0.3,2.7-0.9c0.7-0.6,1-1.5,1-2.6v-1.1l-1.8,0.1c-1.5,0.1-2.5,0.3-3.2,0.7c-0.6,0.4-1,1-1,1.9c0,0.7,0.2,1.2,0.6,1.5
				S374.8,437.4,375.5,437.4z"/>
			<path class="st1" d="M392.7,435.4c0,1.1-0.4,2-1.3,2.6c-0.8,0.6-2,0.9-3.6,0.9c-1.6,0-2.9-0.3-3.8-0.8v-1.7
				c0.6,0.3,1.2,0.5,1.9,0.7s1.3,0.3,1.9,0.3c1,0,1.7-0.2,2.2-0.5c0.5-0.3,0.8-0.8,0.8-1.4c0-0.5-0.2-0.9-0.6-1.2
				c-0.4-0.3-1.2-0.7-2.4-1.2c-1.1-0.4-1.9-0.8-2.4-1.1c-0.5-0.3-0.8-0.7-1.1-1.1c-0.2-0.4-0.4-0.9-0.4-1.4c0-1,0.4-1.8,1.2-2.4
				c0.8-0.6,1.9-0.9,3.3-0.9c1.3,0,2.6,0.3,3.8,0.8l-0.7,1.5c-1.2-0.5-2.3-0.8-3.3-0.8c-0.9,0-1.5,0.1-2,0.4
				c-0.4,0.3-0.7,0.7-0.7,1.1c0,0.3,0.1,0.6,0.2,0.8c0.2,0.2,0.4,0.4,0.8,0.7s1.1,0.5,2.1,0.9c1.4,0.5,2.4,1.1,2.9,1.6
				S392.7,434.6,392.7,435.4z"/>
			<path class="st1" d="M397.4,426.5v7.9c0,1,0.2,1.7,0.7,2.2c0.5,0.5,1.2,0.7,2.1,0.7c1.3,0,2.2-0.3,2.8-1c0.6-0.7,0.9-1.8,0.9-3.4
				v-6.4h1.8v12.2h-1.5l-0.3-1.6h-0.1c-0.4,0.6-0.9,1.1-1.6,1.4c-0.7,0.3-1.4,0.5-2.3,0.5c-1.5,0-2.6-0.4-3.3-1.1
				c-0.7-0.7-1.1-1.8-1.1-3.4v-8H397.4z"/>
			<path class="st1" d="M415.3,426.3c0.5,0,1,0,1.5,0.1l-0.3,1.7c-0.5-0.1-1-0.2-1.3-0.2c-1,0-1.8,0.4-2.5,1.2s-1.1,1.8-1.1,3v6.5
				h-1.8v-12.2h1.5l0.2,2.3h0.1c0.5-0.8,1-1.4,1.6-1.8C413.8,426.5,414.5,426.3,415.3,426.3z"/>
			<path class="st1" d="M418.8,423.2c0-0.4,0.1-0.7,0.3-0.9c0.2-0.2,0.5-0.3,0.8-0.3c0.3,0,0.6,0.1,0.8,0.3s0.3,0.5,0.3,0.9
				c0,0.4-0.1,0.7-0.3,0.9s-0.5,0.3-0.8,0.3c-0.3,0-0.6-0.1-0.8-0.3C418.9,424,418.8,423.7,418.8,423.2z M420.8,438.7H419v-12.2h1.8
				V438.7z"/>
			<path class="st1" d="M433.1,438.7v-7.9c0-1-0.2-1.7-0.7-2.2c-0.5-0.5-1.2-0.7-2.1-0.7c-1.3,0-2.2,0.3-2.8,1
				c-0.6,0.7-0.9,1.8-0.9,3.4v6.4h-1.8v-12.2h1.5l0.3,1.7h0.1c0.4-0.6,0.9-1.1,1.6-1.4c0.7-0.3,1.4-0.5,2.3-0.5
				c1.5,0,2.6,0.4,3.3,1.1c0.7,0.7,1.1,1.8,1.1,3.4v8H433.1z"/>
			<path class="st1" d="M448.7,426.5v1.2l-2.3,0.3c0.2,0.3,0.4,0.6,0.6,1s0.2,0.9,0.2,1.4c0,1.2-0.4,2.1-1.2,2.9
				c-0.8,0.7-1.9,1.1-3.4,1.1c-0.4,0-0.7,0-1-0.1c-0.8,0.4-1.2,0.9-1.2,1.6c0,0.3,0.1,0.6,0.4,0.7s0.7,0.2,1.4,0.2h2.2
				c1.3,0,2.3,0.3,3,0.8c0.7,0.6,1.1,1.4,1.1,2.4c0,1.3-0.5,2.4-1.6,3.1s-2.7,1.1-4.7,1.1c-1.6,0-2.8-0.3-3.7-0.9
				c-0.9-0.6-1.3-1.4-1.3-2.5c0-0.7,0.2-1.4,0.7-1.9s1.1-0.9,2-1.1c-0.3-0.1-0.6-0.4-0.8-0.7c-0.2-0.3-0.3-0.6-0.3-1
				c0-0.4,0.1-0.8,0.4-1.2c0.2-0.3,0.6-0.7,1.1-1c-0.6-0.3-1.1-0.7-1.5-1.3c-0.4-0.6-0.6-1.3-0.6-2.1c0-1.3,0.4-2.4,1.2-3.1
				c0.8-0.7,1.9-1.1,3.4-1.1c0.6,0,1.2,0.1,1.7,0.2H448.7z M439,440.8c0,0.7,0.3,1.2,0.8,1.5c0.6,0.3,1.4,0.5,2.4,0.5
				c1.5,0,2.7-0.2,3.4-0.7c0.7-0.5,1.1-1.1,1.1-1.9c0-0.7-0.2-1.1-0.6-1.4s-1.2-0.4-2.3-0.4h-2.2c-0.8,0-1.5,0.2-2,0.6
				C439.2,439.5,439,440,439,440.8z M440,430.4c0,0.9,0.2,1.5,0.7,1.9c0.5,0.4,1.2,0.7,2,0.7c1.8,0,2.7-0.9,2.7-2.6
				c0-1.8-0.9-2.7-2.7-2.7c-0.9,0-1.5,0.2-2,0.7C440.2,428.8,440,429.5,440,430.4z"/>
			<path class="st1" d="M462.4,438.7h-1.9v-14.6h-5.2v-1.7h12.2v1.7h-5.2V438.7z"/>
			<path class="st1" d="M480.3,432.6c0,2-0.5,3.5-1.5,4.7s-2.4,1.7-4.1,1.7c-1.1,0-2.1-0.3-2.9-0.8c-0.8-0.5-1.5-1.2-2-2.2
				s-0.7-2.1-0.7-3.4c0-2,0.5-3.5,1.5-4.6c1-1.1,2.4-1.7,4.1-1.7c1.7,0,3.1,0.6,4.1,1.7S480.3,430.7,480.3,432.6z M471,432.6
				c0,1.6,0.3,2.7,0.9,3.6c0.6,0.8,1.5,1.2,2.7,1.2s2.1-0.4,2.8-1.2s0.9-2,0.9-3.6c0-1.6-0.3-2.7-0.9-3.5s-1.6-1.2-2.8-1.2
				c-1.2,0-2.1,0.4-2.7,1.2C471.3,429.9,471,431.1,471,432.6z"/>
			<path class="st1" d="M494,432.6c0,2-0.5,3.5-1.5,4.7s-2.4,1.7-4.1,1.7c-1.1,0-2.1-0.3-2.9-0.8c-0.8-0.5-1.5-1.2-2-2.2
				s-0.7-2.1-0.7-3.4c0-2,0.5-3.5,1.5-4.6c1-1.1,2.4-1.7,4.1-1.7c1.7,0,3.1,0.6,4.1,1.7S494,430.7,494,432.6z M484.7,432.6
				c0,1.6,0.3,2.7,0.9,3.6c0.6,0.8,1.5,1.2,2.7,1.2s2.1-0.4,2.8-1.2s0.9-2,0.9-3.6c0-1.6-0.3-2.7-0.9-3.5s-1.6-1.2-2.8-1.2
				c-1.2,0-2.1,0.4-2.7,1.2C485.1,429.9,484.7,431.1,484.7,432.6z"/>
			<path class="st1" d="M499.1,438.7h-1.8v-17.3h1.8V438.7z"/>
			<path class="st1" d="M504.9,432.5c0.3-0.5,0.8-1,1.5-1.8l3.9-4.2h2.2l-4.9,5.2l5.3,7h-2.2l-4.3-5.8l-1.4,1.2v4.6H503v-17.3h1.8
				v9.2C504.9,431,504.8,431.6,504.9,432.5L504.9,432.5z"/>
			<path class="st1" d="M514.8,423.2c0-0.4,0.1-0.7,0.3-0.9c0.2-0.2,0.5-0.3,0.8-0.3c0.3,0,0.6,0.1,0.8,0.3s0.3,0.5,0.3,0.9
				c0,0.4-0.1,0.7-0.3,0.9s-0.5,0.3-0.8,0.3c-0.3,0-0.6-0.1-0.8-0.3C514.9,424,514.8,423.7,514.8,423.2z M516.8,438.7H515v-12.2h1.8
				V438.7z"/>
			<path class="st1" d="M524.7,437.4c0.3,0,0.6,0,0.9-0.1c0.3,0,0.5-0.1,0.7-0.2v1.4c-0.2,0.1-0.5,0.2-0.9,0.2
				c-0.4,0.1-0.7,0.1-1.1,0.1c-2.4,0-3.5-1.2-3.5-3.7V428h-1.7v-0.9l1.7-0.8l0.8-2.6h1.1v2.8h3.5v1.4h-3.5v7.2
				c0,0.7,0.2,1.3,0.5,1.7C523.6,437.2,524.1,437.4,524.7,437.4z"/>
		</g>
	</g>
</g>
<g id="cells">
	<path class="st2" d="M244.4,133.6l-19.5,5.3l-2.4-0.5l-7.9-29.6l-0.4-2.5l-0.4-1.7l-0.3-1.7v-0.8l-0.3-4.3l-0.7-4.2L212,92
		l-0.5-2.7l-0.3-1.2l-0.6-3l-0.2-0.9l-0.7-3.9l-0.9-9.9l7.1-4.7l4.2-2.2l4.2-1.5l4.2-1l1.1-0.1l3.1-0.8l1.6-0.2l4.7-1.2l4.5-1.8
		l4.4-2.5l4.3-3.1h0.1l22.2,5.2l2.7,0.9l1.2,13.5l0.7,3.6l0.4,1.2l0.4,2.3l0.5,2l1.4,9.7l-0.1,2l0.9,3.2l1,2.7l0.2,1.2l3.1,24
		l-8.1,3.9l-4.2,1.6l-4.3,1.3l-4.4,1h-0.2l-3.6,0.8l-0.5,0.1l-4.4,0.9l-4.4,0.5l-4.5,0.2h-0.9L244.4,133.6"/>
	<path class="st2" d="M179.4,150l-0.9,0.2l-3.1,0.6l-19.9-1.9l-4.1-0.6l-4.1-0.9l-4.2-1.1l-5.7-1.8l2.7-22.2l0.2-5l-0.2-4.9
		l-0.6-4.8l-1-4.7v-0.1l-1-4.7l-1.4-4.6l-2.1-5l-0.3-1.6l-4.2-43.2l5.6-4.2l3-1.2l4.9-1.6l4.7,2.6l6.4,3.9l3.3,2.3l5.6,3.4l5.5,2.9
		l5.4,2.3l15.4,5.2l0.6,0.1l18.8,11.1l0.9,9.9l0.7,3.9l0.2,0.9l0.6,3l0.3,1.2L212,92l0.4,1.5l0.7,4.2l0.3,4.3v0.8l0.3,1.7l0.4,1.7
		l0.4,2.5l7.9,29.6l-10.9,4.9l-4.7,1.7l-4.7,1.3L198,147l-0.6,0.2l-3.5,0.6l-1.3,0.3l-4.8,0.9l-5,0.5h-1.4L179.4,150"/>
	<path class="st2" d="M88.5,156.9l-14.1-12.5l-3.8-4l-3.2-4.1l-2.6-4.2l-2-4.3l-1.5-4.5l-0.7-3.5l-7.1-11.4l-2.6-3.4l-2.3-2.4
		l0.2-1.1l1.7-17.1l0.8-4.2l1.2-4.3l1.6-4.3l3.3-7.4l4.2-17.5l12.4-1h0.1l11.1-0.2l7.8-1.2l4.3-0.4l4.3-0.2h4.4l13.7,0.7l9.8-0.6
		l4.2,43.2l0.3,1.6l2.1,5l1.4,4.6l1,4.7v0.1l1,4.7l0.6,4.8l0.2,4.9l-0.2,5l-2.7,22.2l-18.8,9.5l-4,2.3l-4,2.6l-3.9,2.8l-0.8,0.6
		l-3.8-0.9l-4.7-0.8l-4.6-0.6l-1.1-0.1L88.5,156.9"/>
	<path class="st2" d="M357.3,161.9l1.3,4.3l3.6,8.1l2.3,19.6l-19.7,2.2l-4.7,1l-2,0.7l-2.6,0.6l-1.9,0.6l-2.8,0.6l-1.7,0.6l-2.9,0.7
		l-1.6,0.5l-3.1,0.7l-1.4,0.5l-3.2,0.8l-4.6,1.6l-4.4,2l-0.2-0.6l-8.8-18.3l-6.1-5.7l1.6-2l-2.5-2.9l1.4-1.5l-2.2-3.3l1-1.1
		l-1.8-3.8l0.6-0.6l-1.3-4.3l0,0l-0.7-4.8l3.1-2.5l3.3-8l2.4-12.6l0.7-8.6h2.5l3.5-0.2l6.1-1.4l4.5-0.1l4.1-0.4l4.1-0.7l2.2-0.5
		l3.6-0.6l3.6-0.4l10.6-0.4l3.6,11.7l5.8,11.3l1.7,4.8l0.7,3.5l0.5,1.4l0.5,3l0.6,1.9L357.3,161.9"/>
	<path class="st2" d="M269.8,213.3l-12.7,1l-4.5-0.1l-4.7-0.5l-1-0.2l-2.5-16.5l-3-6l-1.4-4.2l-0.9-4.3l0,0l-0.9-4.3V178l-0.9-4.1
		v-0.5l-1-4.5L225,138.7l19.5-5.3l2.8-0.6h0.9l4.5-0.2l4.4-0.5l4.4-0.9l0.5-0.1l3.6-0.8h0.2l4.4-1l4.3-1.3l4.2-1.6l8.1-3.9l11.8,3.7
		l-0.7,8.6l-2.4,12.6l-3.3,8l-3.1,2.5l0.7,4.8l0,0l1.3,4.3l-0.6,0.6l1.8,3.8l-1,1.1l2.2,3.3l-1.4,1.5l2.5,2.9l-1.6,2l6.1,5.7
		l8.8,18.3l0.2,0.6l-10.7,8.2l-3.4,3l-0.5-0.2l-4.9-1.8l-4.8-1.4l-4.7-0.9l-4.6-0.5L269.8,213.3"/>
	<path class="st2" d="M357.3,161.9l1.3,4.3l3.6,8.1l2.3,19.6l-19.7,2.2l-4.7,1l-2,0.7l-2.6,0.6l-1.9,0.6l-2.8,0.6l-1.7,0.6l-2.9,0.7
		l-1.6,0.5l-3.1,0.7l-1.4,0.5l-3.2,0.8l-4.6,1.6l-4.4,2l-0.2-0.6l-8.8-18.3l-6.1-5.7l1.6-2l-2.5-2.9l1.4-1.5l-2.2-3.3l1-1.1
		l-1.8-3.8l0.6-0.6l-1.3-4.3l0,0l-0.7-4.8l3.1-2.5l3.3-8l2.4-12.6l0.7-8.6h2.5l3.5-0.2l6.1-1.4l4.5-0.1l4.1-0.4l4.1-0.7l2.2-0.5
		l3.6-0.6l3.6-0.4l10.6-0.4l3.6,11.7l5.8,11.3l1.7,4.8l0.7,3.5l0.5,1.4l0.5,3l0.6,1.9L357.3,161.9"/>
	<path class="st2" d="M269.8,213.3l-12.7,1l-4.5-0.1l-4.7-0.5l-1-0.2l-2.5-16.5l-3-6l-1.4-4.2l-0.9-4.3l0,0l-0.9-4.3V178l-0.9-4.1
		v-0.5l-1-4.5L225,138.7l19.5-5.3l2.8-0.6h0.9l4.5-0.2l4.4-0.5l4.4-0.9l0.5-0.1l3.6-0.8h0.2l4.4-1l4.3-1.3l4.2-1.6l8.1-3.9l11.8,3.7
		l-0.7,8.6l-2.4,12.6l-3.3,8l-3.1,2.5l0.7,4.8l0,0l1.3,4.3l-0.6,0.6l1.8,3.8l-1,1.1l2.2,3.3l-1.4,1.5l2.5,2.9l-1.6,2l6.1,5.7
		l8.8,18.3l0.2,0.6l-10.7,8.2l-3.4,3l-0.5-0.2l-4.9-1.8l-4.8-1.4l-4.7-0.9l-4.6-0.5L269.8,213.3"/>
	<path class="st2" d="M200.2,227.6l-7.3-11.6l-6.2-6.7l-4.1-1.4l-0.7-4.3l-0.2-0.1l-0.8-4.3h-0.1l-0.8-4.3h-0.1l-0.9-4.4h-0.1
		l-0.9-4.4l0,0l-4.4-20.5l1.3-10.5l0.2-4.2l3.1-0.6l0.9-0.2l1.9-0.4h1.4l5-0.5l4.8-0.9l1.3-0.3l3.5-0.6l0.6-0.2l4.1-0.8l4.7-1.3
		l4.7-1.7l10.9-4.9l2.4,0.5l11.3,30.2l1,4.5v0.5l0.9,4.1v0.2l0.9,4.3l0,0l0.9,4.3l1.4,4.2l3,6l2.5,16.5l-3,2l-0.5,0.3l-11.2,4
		l-3.4,0.9l-1.2,0.2l-4.5,1.4l-4.4,1.8l-4.3,2.2l-1.4,0.9l-3.2-0.1l-4.7,0.3l-4.4,0.7L200.2,227.6"/>
	<path class="st2" d="M169.3,238.8l-17.1,4.8l-1.2-1.3l-2.7-3.1l-0.3-0.4l-6.2-14.7l-1.1-3.1l-1.1-4.1l-1.7-4.5l-0.2-0.3l-15.8-15.3
		l-3.9-3.3l-2.6-1.9l-4.1-3.5l-5.4-25.7l0.8-0.6l3.9-2.8l4-2.6l4-2.3l18.8-9.5l5.7,1.8l4.2,1.1l4.1,0.9l4.1,0.6l19.9,1.9l-0.2,4.2
		l-1.3,10.5l4.4,20.5l0,0l0.9,4.4h0.1l0.9,4.4h0.1l0.8,4.3h0.1l0.8,4.3l0.2,0.1l0.7,4.3l4.1,1.4l6.2,6.7l7.3,11.6l0.4,0.7l-4.9,2.6
		l-4.1,1.7l-4.2,1.4l-2.2,0.5l-2,0.6l-1.9,0.4l-2.4,0.7l-1.6,0.3l-2.7,0.8l-1.2,0.2l-3.1,0.9L169.3,238.8"/>
	<path class="st2" d="M200.2,227.6l-7.3-11.6l-6.2-6.7l-4.1-1.4l-0.7-4.3l-0.2-0.1l-0.8-4.3h-0.1l-0.8-4.3h-0.1l-0.9-4.4h-0.1
		l-0.9-4.4l0,0l-4.4-20.5l1.3-10.5l0.2-4.2l3.1-0.6l0.9-0.2l1.9-0.4h1.4l5-0.5l4.8-0.9l1.3-0.3l3.5-0.6l0.6-0.2l4.1-0.8l4.7-1.3
		l4.7-1.7l10.9-4.9l2.4,0.5l11.3,30.2l1,4.5v0.5l0.9,4.1v0.2l0.9,4.3l0,0l0.9,4.3l1.4,4.2l3,6l2.5,16.5l-3,2l-0.5,0.3l-11.2,4
		l-3.4,0.9l-1.2,0.2l-4.5,1.4l-4.4,1.8l-4.3,2.2l-1.4,0.9l-3.2-0.1l-4.7,0.3l-4.4,0.7L200.2,227.6"/>
	<path class="st2" d="M169.3,238.8l-17.1,4.8l-1.2-1.3l-2.7-3.1l-0.3-0.4l-6.2-14.7l-1.1-3.1l-1.1-4.1l-1.7-4.5l-0.2-0.3l-15.8-15.3
		l-3.9-3.3l-2.6-1.9l-4.1-3.5l-5.4-25.7l0.8-0.6l3.9-2.8l4-2.6l4-2.3l18.8-9.5l5.7,1.8l4.2,1.1l4.1,0.9l4.1,0.6l19.9,1.9l-0.2,4.2
		l-1.3,10.5l4.4,20.5l0,0l0.9,4.4h0.1l0.9,4.4h0.1l0.8,4.3h0.1l0.8,4.3l0.2,0.1l0.7,4.3l4.1,1.4l6.2,6.7l7.3,11.6l0.4,0.7l-4.9,2.6
		l-4.1,1.7l-4.2,1.4l-2.2,0.5l-2,0.6l-1.9,0.4l-2.4,0.7l-1.6,0.3l-2.7,0.8l-1.2,0.2l-3.1,0.9L169.3,238.8"/>
	<path class="st2" d="M52.6,247.6l-3.7-4.1l-12.1-16.9l-3.2-3.7l-3.6-3.6l-4-3.4L9,203.4l21.4-15.8l4.2-2.6l4.2-2.2l4.3-1.8l4.4-1.4
		l4.5-1l1.2-0.2l4.8-1.1l4.7-1.6l4.6-2L91.7,160l1.1,0.1l4.6,0.6l4.7,0.8l3.8,0.9l5.4,25.7l-5.1,7.9l-1.8,3.3l-0.9,1.4l-2.4,4.2
		l-0.3,0.5l-2.8,4.7l-0.2,0.5l-3.4,5.5l-3.7,4.3l-4.1,3.2l-4.4,2.1l-2.9,0.6l-3.7,1.7l-0.6,0.1l-4.2,2.1l-3.9,3l-12,13.5l-1.7,1.7
		L52.6,247.6"/>
	<path class="st2" d="M304,274.3l-0.1-10.1l-0.1-1.9L301,254l-1.9-11.3l-1.1-4.4l-1.4-4.2l-1.1-4.6l-1.8-11.3l3.4-3l10.7-8.2l4.4-2
		l4.6-1.6l3.2-0.8l1.4-0.5l3.1-0.7l1.6-0.5l2.9-0.7l1.7-0.6l2.8-0.6l1.9-0.6l2.6-0.6l2-0.7l4.7-1l19.7-2.2l5.1,3.3l4.1,16.4l0.4,1.1
		l0.8,3.2l0.1,0.3l1,3.5l0.1,0.4l1.3,4.2l1.6,4.1l2,4l0.5,0.8l0.9,3.4l8.8,24.5l-9.8,14.7l-6.9,3.2l-4.2,1.7l-4.2,1.4h-0.1l-4.3,1.4
		l0,0l-4.3,1.4h-0.1l-4.4,1.4l-1.5,0.6L309.2,276l-4.4-1.6L304,274.3"/>
	<path class="st2" d="M163.5,391.7l-2,0.8l-2.7,0.7l-1.9,0.7l-2.8,0.7l-1.9,0.7l-2.9,0.7l-1.8,0.7l-4.7,1.2l-4.9,0.6l-5,0.1
		l-10.3-0.9l-1.9-3.1l-6.2-12.3l-2.3-3.8l-2.7-3.7l-3-3.6l-3.3-3.5L97,362l-0.5-2l-0.8-5l-0.5-5.1l-0.2-4.4l24-9.5l11.8-2l4.8-1.4
		l0.3-0.1l4.3-1.3h0.1l4.2-1.3l0.5-0.1l31.1-9.9l13.8,7.5l2.3,1.6l-5.4,13.5l-1.6,5l-1.2,4.9l-0.8,4.8l-0.4,4.6l0.1,18.3l-0.5,5
		l-0.4,2.1L163.5,391.7"/>
	<path class="st2" d="M260,296.2l-14.6,2.3l-0.9,0.1l-9.6-18.3l-6.4-7.2l-2.7-4l-1.9-4.2l-0.8-3l-0.6-1.4l-0.5-2l-1-2.5l-0.2-1.1
		l-1.1-3.4l-1-6.3l-5.7-17.9l1.4-0.9l4.3-2.2l4.4-1.8l4.5-1.4l1.2-0.2l3.4-0.9l11.2-4l0.5-0.3l3-2l1,0.2l4.7,0.5l4.5,0.1l12.7-1
		l4.5,0.1l4.6,0.5l4.7,0.9l4.8,1.4l4.9,1.8l0.5,0.2l1.8,11.3l1.1,4.6l1.4,4.2l1.1,4.4L301,254l2.8,8.3l0.1,1.9l0.1,10.1l-16.9,14
		l-8.6,4.6h-0.8l-4.6,0.5l-4.5,0.7l-4.4,1l-3.4,1L260,296.2"/>
	<path class="st2" d="M225.7,269.1l2.7,4l6.4,7.2l9.6,18.3l-2.2,1.7L222.4,314l-3.4,2.7l-3.4,3l-3.3,3.2l-2.6,2.9l-0.8,0.3l-4.4,1.1
		l-4.4,0.9l-4.5,0.6l-3.2,0.3l-2.3-1.6l-13.8-7.5l-7.8-16.3l-3.9-5.2l-2.5-4l-2.1-4.2l-1.7-4.3l-0.7-2.6l-0.7-1.8l-0.5-1.9l-1.3-3.6
		l-1.6-3.5l-5.2-9.6l3.8-19.2l17.1-4.8l0.9-0.2l3.1-0.9l1.2-0.2l2.7-0.8l1.6-0.3l2.4-0.7l1.9-0.4l2-0.6l2.2-0.5l4.2-1.4l4.1-1.7
		l4.9-2.6l4.4-0.7l4.7-0.3l3.2,0.1l5.7,17.9l1,6.3l1.1,3.4l0.2,1.1l0.9,2.4l0.5,2l0.6,1.4l0.8,3L225.7,269.1"/>
	<path class="st2" d="M52.6,247.6l-3.7-4.1l-12.1-16.9l-3.2-3.7l-3.6-3.6l-4-3.4L9,203.4l21.4-15.8l4.2-2.6l4.2-2.2l4.3-1.8l4.4-1.4
		l4.5-1l1.2-0.2l4.8-1.1l4.7-1.6l4.6-2L91.7,160l1.1,0.1l4.6,0.6l4.7,0.8l3.8,0.9l5.4,25.7l-5.1,7.9l-1.8,3.3l-0.9,1.4l-2.4,4.2
		l-0.3,0.5l-2.8,4.7l-0.2,0.5l-3.4,5.5l-3.7,4.3l-4.1,3.2l-4.4,2.1l-2.9,0.6l-3.7,1.7l-0.6,0.1l-4.2,2.1l-3.9,3l-12,13.5l-1.7,1.7
		L52.6,247.6"/>
	<path class="st2" d="M150.9,242.3l1.2,1.3l-3.8,19.2l-21.8,7.1l-0.9,0.2l-3.6,1.2l-1,0.2l-3.4,1.1l-1.2,0.2l-3.3,1.1l-1.3,0.3
		l-3.1,1.1l-1.5,0.3l-4.5,1.6l-4.3,2.2l-22.9,15.8l-1.5-1.7l-3.2-4.3l-2.8-4.4l-2.4-4.5l-2-4.6L62,271l-0.4-1.7l-1-3.1l-0.1-0.4
		l-2.3-4.1l-2.1-4.6l-1.6-4.7l-0.5-1.9l-0.7-2.1l1.7-1.7l12-13.5l3.9-3l4.2-2.1l0.6-0.1l3.7-1.7l2.9-0.6l4.4-2.1l4.1-3.2l3.7-4.3
		l3.4-5.5L98,210l2.8-4.7l0.3-0.5l2.4-4.2l0.9-1.4l1.8-3.3l5.1-7.9l4.1,3.5l2.6,1.9l3.9,3.3l15.8,15.4l0.2,0.3l1.7,4.5l1.1,4.1
		l1.1,3.1l6.2,14.7l0.3,0.4L150.9,242.3"/>
	<path class="st2" d="M86.6,331.5l-2-4.6l-1.7-4.7l-1-3.7l-0.4-1.1l-0.9-3.4l-0.5-1.4l-0.8-3.1l-0.6-1.7L78,305l-0.7-2l-1.2-4.8
		l-0.5-2.9l22.9-15.8l4.3-2.2l4.5-1.6l1.5-0.3l3.1-1.1l1.3-0.3l3.3-1.1l1.2-0.2l3.4-1.1l1-0.2l3.6-1.2l0.9-0.2l21.8-7.1l5.2,9.6
		l1.6,3.5l1.3,3.6l0.5,1.9l0.7,1.8l0.7,2.6l1.7,4.3l2.1,4.2l2.5,4l3.9,5.2l7.8,16.3l-31.1,9.9l-0.5,0.1l-4.2,1.3h-0.1l-4.3,1.3
		l-0.3,0.1l-4.8,1.4l-11.8,2l-24,9.5l-0.5-0.6l-3-4.3L89,336L86.6,331.5"/>
	<path class="st2" d="M52.6,247.6l-3.7-4.1l-12.1-16.9l-3.2-3.7l-3.6-3.6l-4-3.4L9,203.4l21.4-15.8l4.2-2.6l4.2-2.2l4.3-1.8l4.4-1.4
		l4.5-1l1.2-0.2l4.8-1.1l4.7-1.6l4.6-2L91.7,160l1.1,0.1l4.6,0.6l4.7,0.8l3.8,0.9l5.4,25.7l-5.1,7.9l-1.8,3.3l-0.9,1.4l-2.4,4.2
		l-0.3,0.5l-2.8,4.7l-0.2,0.5l-3.4,5.5l-3.7,4.3l-4.1,3.2l-4.4,2.1l-2.9,0.6l-3.7,1.7l-0.6,0.1l-4.2,2.1l-3.9,3l-12,13.5l-1.7,1.7
		L52.6,247.6"/>
	<path class="st3" d="M-302.4,138.4l-25.3,6.9l-3.2-0.7l-10.3-38.5l-0.5-3.2l-0.6-2.2l-0.4-2.2v-1.1l-0.4-5.6l-0.9-5.5l-0.5-1.9
		l-0.6-3.5l-0.4-1.5l-0.7-3.9l-0.3-1.1l-1-5.1l-1.2-12.9l9.2-6.1l5.5-2.8l5.5-2l5.5-1.3l1.5-0.2l4-1l2.1-0.2l6-1.6l5.9-2.4l5.7-3.2
		l5.5-4.1l0.1-0.1l28.9,6.8l3.5,1.2l1.5,17.5l0.9,4.7l0.5,1.6l0.5,3l0.7,2.6l1.8,12.6l-0.1,2.7l1.1,4.1l1.3,3.5l0.3,1.5l4.1,31.2
		l-10.6,5l-5.5,2.1l-5.6,1.7l-5.6,1.3l-0.3,0.1l-4.6,1l-0.7,0.2l-5.7,1.1l-5.8,0.7l-5.9,0.2h-1.2L-302.4,138.4"/>
	<path class="st3" d="M-386.8,159.6l-1.2,0.3l-4.1,0.8l-25.9-2.5l-5.3-0.8l-5.3-1.1l-5.4-1.4l-7.4-2.3l3.6-28.8l0.3-6.5l-0.2-6.4
		l-0.8-6.2l-1.3-6.1v-0.1l-1.3-6l-1.9-6l-2.7-6.5l-0.4-2.1l-5.5-56.2l7.3-5.5l3.9-1.5l6.4-2.1l6.1,3.3l8.3,5l4.3,3l7.3,4.4l7.1,3.7
		l7,3l20,6.7l0.8,0.2l24.5,14.4l1.2,12.9l1,5.1l0.3,1.1l0.7,3.9l0.4,1.5l0.6,3.6l0.5,1.9l0.9,5.5l0.4,5.6v1.1l0.4,2.2l0.6,2.2
		l0.5,3.2l10.3,38.5l-14.2,6.3l-6.1,2.2l-6.2,1.7l-5.4,1.1l-0.9,0.2l-4.5,0.8l-1.7,0.4l-6.3,1.1l-6.5,0.6l-1.8,0.1L-386.8,159.6"/>
	<path class="st3" d="M-505,168.6l-18.4-16.2l-4.9-5.2l-4.2-5.3l-3.4-5.5l-2.6-5.6l-1.9-5.8l-0.8-4.5l-9.2-14.9l-3.4-4.4l-2.9-3.2
		l0.3-1.4l2.2-22.2l1-5.4l1.5-5.5l2-5.7l4.3-9.6l5.4-22.8l16.1-1.2h0.2l14.4-0.3l10.2-1.5l5.6-0.5l5.6-0.3h5.7l17.8,0.9l12.7-0.8
		l5.5,56.2l0.4,2.1l2.7,6.5l1.9,6l1.3,6v0.1l1.3,6.1l0.8,6.2l0.2,6.4l-0.3,6.5l-3.6,28.8L-466,165l-5.3,3l-5.2,3.3l-5.1,3.6l-1,0.8
		l-4.9-1.1l-6.1-1.1l-6-0.8l-1.4-0.1L-505,168.6"/>
	<path class="st3" d="M-155.6,175.2l1.7,5.6l4.7,10.6l3,25.5l-25.6,2.9l-6.1,1.3l-2.6,0.9l-3.4,0.8l-2.4,0.8l-3.6,0.8l-2.3,0.8
		l-3.8,0.9l-2.1,0.7l-4,0.9l-1.9,0.6l-4.2,1l-6,2l-5.7,2.6l-0.3-0.8l-11.4-23.9l-7.9-7.4l2.1-2.6l-3.2-3.7l1.8-2l-2.9-4.3l1.4-1.4
		l-2.4-4.9l0.8-0.7l-1.7-5.6h0.1l-0.9-6.3l4-3.2l4.3-10.4l3.1-16.4l0.9-11.2l3.2,0.1l4.6-0.3l8-1.8l5.9-0.1l5.4-0.5l5.3-0.9l2.8-0.7
		l4.7-0.8l4.7-0.5l13.8-0.6l4.7,15.2l7.5,14.7l2.2,6.2l0.9,4.6l0.6,1.8l0.7,3.9l0.8,2.5L-155.6,175.2"/>
	<path class="st3" d="M-269.3,242l-16.6,1.3l-5.9-0.1l-6.1-0.6l-1.2-0.2l-3.2-21.4l-3.9-7.8l-1.9-5.4l-1.1-5.6l0,0l-1.2-5.6v-0.3
		l-1.2-5.3v-0.6l-1.3-5.8l-14.7-39.2l25.3-6.9l3.7-0.7h1.2l5.9-0.2l5.8-0.7l5.7-1.1l0.7-0.2l4.6-1l0.3-0.1l5.6-1.3l5.6-1.7l5.5-2.1
		l10.6-5l15.3,4.8l-0.9,11.2l-3.1,16.4l-4.3,10.4l-4,3.2l0.9,6.3h-0.1l1.7,5.6l-0.8,0.7l2.4,4.9l-1.4,1.4l2.9,4.3l-1.8,2l3.2,3.7
		l-2.1,2.6l7.9,7.4l11.4,23.9l0.3,0.8l-13.9,10.7l-4.4,3.9l-0.7-0.3l-6.3-2.3l-6.2-1.8l-6.1-1.2l-6-0.7L-269.3,242"/>
	<path class="st3" d="M-155.6,175.2l1.7,5.6l4.7,10.6l3,25.5l-25.6,2.9l-6.1,1.3l-2.6,0.9l-3.4,0.8l-2.4,0.8l-3.6,0.8l-2.3,0.8
		l-3.8,0.9l-2.1,0.7l-4,0.9l-1.9,0.6l-4.2,1l-6,2l-5.7,2.6l-0.3-0.8l-11.4-23.9l-7.9-7.4l2.1-2.6l-3.2-3.7l1.8-2l-2.9-4.3l1.4-1.4
		l-2.4-4.9l0.8-0.7l-1.7-5.6h0.1l-0.9-6.3l4-3.2l4.3-10.4l3.1-16.4l0.9-11.2l3.2,0.1l4.6-0.3l8-1.8l5.9-0.1l5.4-0.5l5.3-0.9l2.8-0.7
		l4.7-0.8l4.7-0.5l13.8-0.6l4.7,15.2l7.5,14.7l2.2,6.2l0.9,4.6l0.6,1.8l0.7,3.9l0.8,2.5L-155.6,175.2"/>
	<path class="st3" d="M-269.3,242l-16.6,1.3l-5.9-0.1l-6.1-0.6l-1.2-0.2l-3.2-21.4l-3.9-7.8l-1.9-5.4l-1.1-5.6l0,0l-1.2-5.6v-0.3
		l-1.2-5.3v-0.6l-1.3-5.8l-14.7-39.2l25.3-6.9l3.7-0.7h1.2l5.9-0.2l5.8-0.7l5.7-1.1l0.7-0.2l4.6-1l0.3-0.1l5.6-1.3l5.6-1.7l5.5-2.1
		l10.6-5l15.3,4.8l-0.9,11.2l-3.1,16.4l-4.3,10.4l-4,3.2l0.9,6.3h-0.1l1.7,5.6l-0.8,0.7l2.4,4.9l-1.4,1.4l2.9,4.3l-1.8,2l3.2,3.7
		l-2.1,2.6l7.9,7.4l11.4,23.9l0.3,0.8l-13.9,10.7l-4.4,3.9l-0.7-0.3l-6.3-2.3l-6.2-1.8l-6.1-1.2l-6-0.7L-269.3,242"/>
	<path class="st3" d="M-359.8,260.6l-9.4-15.1l-8.1-8.7l-5.3-1.8l-0.9-5.6l-0.2-0.1l-1-5.6l-0.2-0.1l-1-5.6h-0.1l-1.1-5.6h-0.1
		l-1.2-5.7l0,0l-5.7-26.6l1.7-13.7l0.3-5.5l4.1-0.8l1.2-0.3l2.5-0.5l1.8-0.1l6.5-0.6l6.3-1.1l1.7-0.4l4.5-0.8l0.9-0.2l5.4-1.1
		l6.2-1.7l6.1-2.2l14.2-6.3l3.2,0.7l14.7,39.2l1.3,5.8v0.6l1.2,5.3v0.3l1.2,5.6l0,0l1.1,5.6l1.9,5.4l3.9,7.8l3.2,21.4l-3.9,2.6
		l-0.7,0.4l-14.6,5.2l-4.4,1.2l-1.5,0.3l-5.9,1.8l-5.7,2.3l-5.6,2.9l-1.9,1.2l-4.1-0.1l-6.1,0.4l-5.8,0.9L-359.8,260.6"/>
	<path class="st3" d="M-400,275.1l-22.2,6.3l-1.6-1.7l-3.5-4.1l-0.4-0.5l-8.1-19.1l-1.4-4.1l-1.4-5.4l-2.2-5.8l-0.2-0.4l-20.6-20
		l-5.1-4.3l-3.3-2.5l-5.4-4.5l-7.1-33.4l1-0.8l5.1-3.6l5.2-3.3l5.3-3l24.5-12.4l7.4,2.3l5.4,1.4l5.3,1.1l5.3,0.8l25.9,2.5l-0.3,5.5
		l-1.7,13.7l5.7,26.6l0,0l1.2,5.7h0.1l1.1,5.6h0.1l1,5.6l0.2,0.1l1,5.6l0.2,0.1l0.9,5.6l5.3,1.8l8.1,8.7l9.4,15.1l0.5,0.9l-6.4,3.4
		l-5.3,2.3l-5.5,1.8l-2.9,0.6l-2.7,0.8l-2.5,0.5l-3.1,1l-2,0.4l-3.5,1l-1.6,0.3l-4,1.1L-400,275.1"/>
	<path class="st3" d="M-359.8,260.6l-9.4-15.1l-8.1-8.7l-5.3-1.8l-0.9-5.6l-0.2-0.1l-1-5.6l-0.2-0.1l-1-5.6h-0.1l-1.1-5.6h-0.1
		l-1.2-5.7l0,0l-5.7-26.6l1.7-13.7l0.3-5.5l4.1-0.8l1.2-0.3l2.5-0.5l1.8-0.1l6.5-0.6l6.3-1.1l1.7-0.4l4.5-0.8l0.9-0.2l5.4-1.1
		l6.2-1.7l6.1-2.2l14.2-6.3l3.2,0.7l14.7,39.2l1.3,5.8v0.6l1.2,5.3v0.3l1.2,5.6l0,0l1.1,5.6l1.9,5.4l3.9,7.8l3.2,21.4l-3.9,2.6
		l-0.7,0.4l-14.6,5.2l-4.4,1.2l-1.5,0.3l-5.9,1.8l-5.7,2.3l-5.6,2.9l-1.9,1.2l-4.1-0.1l-6.1,0.4l-5.8,0.9L-359.8,260.6"/>
	<path class="st3" d="M-400,275.1l-22.2,6.3l-1.6-1.7l-3.5-4.1l-0.4-0.5l-8.1-19.1l-1.4-4.1l-1.4-5.4l-2.2-5.8l-0.2-0.4l-20.6-20
		l-5.1-4.3l-3.3-2.5l-5.4-4.5l-7.1-33.4l1-0.8l5.1-3.6l5.2-3.3l5.3-3l24.5-12.4l7.4,2.3l5.4,1.4l5.3,1.1l5.3,0.8l25.9,2.5l-0.3,5.5
		l-1.7,13.7l5.7,26.6l0,0l1.2,5.7h0.1l1.1,5.6h0.1l1,5.6l0.2,0.1l1,5.6l0.2,0.1l0.9,5.6l5.3,1.8l8.1,8.7l9.4,15.1l0.5,0.9l-6.4,3.4
		l-5.3,2.3l-5.5,1.8l-2.9,0.6l-2.7,0.8l-2.5,0.5l-3.1,1l-2,0.4l-3.5,1l-1.6,0.3l-4,1.1L-400,275.1"/>
	<path class="st3" d="M-551.6,286.6l-4.7-5.4l-15.8-22l-4.1-4.8l-4.7-4.6l-5.3-4.4l-22.2-16.2l27.8-20.6l5.4-3.4l5.5-2.9l5.6-2.4
		l5.7-1.9l5.8-1.4l1.5-0.2l6.2-1.5l6.1-2.1l6-2.6l31.8-17.5l1.4,0.1l6,0.8l6.1,1.1l4.9,1.1l7.1,33.4l-6.6,10.3l-2.4,4.3l-1.2,1.8
		l-3.1,5.5l-0.4,0.6l-3.6,6.1l-0.3,0.6l-4.4,7.1l-4.8,5.6l-5.3,4.2l-5.7,2.7l-3.8,0.8l-4.7,2.2l-0.8,0.2l-5.4,2.7l-5,4l-15.6,17.5
		l-2.2,2.2L-551.6,286.6"/>
	<path class="st3" d="M-224.8,321.3l-0.2-13.1l-0.2-2.5l-3.6-10.8l-2.4-14.7l-1.4-5.8l-1.8-5.5l-1.4-5.9l-2.4-14.7l4.4-3.9
		l13.9-10.7l5.7-2.6l6-2l4.2-1l1.9-0.6l4-0.9l2.1-0.7l3.8-0.9l2.3-0.8l3.6-0.8l2.4-0.8l3.4-0.8l2.6-0.9l6.1-1.3l25.6-2.9l6.7,4.3
		l5.3,21.3l0.5,1.4l1.1,4.2l0.2,0.4l1.3,4.6l0.1,0.5l1.6,5.5l2.1,5.4l2.6,5.2l0.6,1l1.2,4.4l11.5,31.8l-12.8,19.1l-8.9,4.2l-5.5,2.1
		l-5.5,1.8h-0.1l-5.6,1.8l0,0l-5.6,1.8h-0.1l-5.7,1.9l-1.9,0.8l-54.7-16.7l-5.7-2L-224.8,321.3"/>
	<path class="st3" d="M-407.5,473.9l-2.6,1l-3.5,0.9l-2.5,0.9l-3.6,0.9l-2.4,0.9l-3.7,0.9l-2.3,0.9l-6.1,1.5l-6.3,0.8l-6.5,0.1
		l-13.4-1.1l-2.5-4.1l-8-16l-3-5l-3.5-4.8l-3.9-4.7l-4.4-4.6l-8-7.4l-0.6-2.6l-1-6.5l-0.6-6.6l-0.2-5.8l31.2-12.4l15.4-2.6l6.2-1.8
		l0.4-0.2l5.6-1.7h0.1l5.5-1.7l0.6-0.1l40.4-12.8l18,9.8l3,2l-7,17.6l-2.1,6.5l-1.6,6.4l-1,6.2l-0.5,6l0.1,23.8l-0.6,6.5l-0.5,2.7
		L-407.5,473.9"/>
	<path class="st3" d="M-282,349.8l-19,3l-1.2,0.1l-12.5-23.8l-8.4-9.4l-3.5-5.2l-2.5-5.5l-1.1-3.9l-0.8-1.8l-0.6-2.6l-1.2-3.1
		l-0.3-1.4l-1.5-4.4l-1.4-8.2l-7.4-23.3l1.9-1.2l5.6-2.9l5.7-2.3l5.9-1.8l1.5-0.3l4.4-1.2l14.6-5.2l0.7-0.4l3.9-2.6l1.2,0.2l6.1,0.6
		l5.9,0.1l16.6-1.3l5.9,0.1l6,0.7l6.1,1.2l6.2,1.8l6.3,2.3l0.7,0.3l2.4,14.7l1.4,5.9l1.8,5.5l1.4,5.8l2.4,14.7l3.6,10.8l0.2,2.5
		l0.2,13.1l-21.9,18.2l-11.2,6h-1l-5.9,0.6l-5.8,1l-5.7,1.3l-4.4,1.3L-282,349.8"/>
	<path class="st3" d="M-326.6,314.5l3.5,5.2l8.4,9.4l12.5,23.8l-2.9,2.2l-25.7,17.8l-4.5,3.5l-4.4,3.8l-4.3,4.2l-3.4,3.7l-1.1,0.3
		l-5.7,1.5l-5.8,1.1l-5.9,0.8l-4.1,0.4l-3-2l-18-9.8l-10.1-21.2l-5.1-6.8l-3.3-5.3l-2.7-5.4l-2.1-5.6l-0.9-3.4l-0.9-2.3l-0.6-2.4
		l-1.6-4.7l-2-4.6l-6.8-12.4l5-24.9l22.2-6.3l1.2-0.2l4-1.1l1.6-0.3l3.5-1l2-0.4l3.1-1l2.5-0.5l2.7-0.8l2.9-0.6l5.5-1.8l5.3-2.3
		l6.4-3.4l5.8-0.9l6.1-0.4l4.1,0.1l7.4,23.3l1.4,8.2l1.5,4.4l0.3,1.4l1.2,3.1l0.6,2.6l0.8,1.8l1.1,3.9L-326.6,314.5"/>
	<path class="st3" d="M-551.6,286.6l-4.7-5.4l-15.8-22l-4.1-4.8l-4.7-4.6l-5.3-4.4l-22.2-16.2l27.8-20.6l5.4-3.4l5.5-2.9l5.6-2.4
		l5.7-1.9l5.8-1.4l1.5-0.2l6.2-1.5l6.1-2.1l6-2.6l31.8-17.5l1.4,0.1l6,0.8l6.1,1.1l4.9,1.1l7.1,33.4l-6.6,10.3l-2.4,4.3l-1.2,1.8
		l-3.1,5.5l-0.4,0.6l-3.6,6.1l-0.3,0.6l-4.4,7.1l-4.8,5.6l-5.3,4.2l-5.7,2.7l-3.8,0.8l-4.7,2.2l-0.8,0.2l-5.4,2.7l-5,4l-15.6,17.5
		l-2.2,2.2L-551.6,286.6"/>
	<path class="st3" d="M-423.8,279.7l1.6,1.7l-5,24.9l-28.4,9.2l-1.1,0.2l-4.6,1.5l-1.3,0.2l-4.5,1.5l-1.5,0.3l-4.3,1.5l-1.7,0.3
		l-4.1,1.4l-1.9,0.4l-5.9,2.1l-5.6,2.9l-29.8,20.5l-1.9-2.2l-4.2-5.6l-3.6-5.7l-3.1-5.9l-2.6-6l-2.1-6.2l-0.5-2.2l-1.3-4l-0.1-0.5
		l-3-5.3l-2.7-6l-2.1-6.1l-0.6-2.4l-0.9-2.7l2.2-2.2l15.6-17.5l5-4l5.4-2.7l0.8-0.2l4.7-2.2l3.8-0.8l5.7-2.7l5.3-4.2l4.8-5.6
		l4.4-7.1l0.3-0.6l3.6-6.1l0.4-0.6l3.1-5.5l1.2-1.8l2.4-4.3l6.6-10.3l5.4,4.5l3.3,2.5l5.1,4.3l20.6,20l0.2,0.4l2.2,5.8l1.4,5.4
		l1.4,4.1l8.1,19.1l0.4,0.5L-423.8,279.7"/>
	<path class="st3" d="M-507.5,395.6l-2.6-6l-2.2-6.1l-1.3-4.8l-0.5-1.4l-1.2-4.4l-0.6-1.8l-1.1-4l-0.8-2.2l-0.9-3.6l-0.9-2.7
		l-1.6-6.3l-0.7-3.8l29.8-20.5l5.6-2.9l5.9-2.1l1.9-0.4l4.1-1.4l1.7-0.3l4.3-1.5l1.5-0.3l4.5-1.5l1.3-0.2l4.6-1.5l1.1-0.2l28.4-9.2
		l6.8,12.4l2,4.6l1.6,4.7l0.6,2.4l0.9,2.3l0.9,3.4l2.1,5.6l2.7,5.4l3.3,5.3l5.1,6.8l10.1,21.2l-40.4,12.8l-0.6,0.1l-5.5,1.7h-0.1
		l-5.6,1.7l-0.4,0.2l-6.2,1.8l-15.4,2.6l-31.2,12.4l-0.6-0.8l-3.9-5.6l-3.5-5.8L-507.5,395.6"/>
	<path class="st3" d="M-551.6,286.6l-4.7-5.4l-15.8-22l-4.1-4.8l-4.7-4.6l-5.3-4.4l-22.2-16.2l27.8-20.6l5.4-3.4l5.5-2.9l5.6-2.4
		l5.7-1.9l5.8-1.4l1.5-0.2l6.2-1.5l6.1-2.1l6-2.6l31.8-17.5l1.4,0.1l6,0.8l6.1,1.1l4.9,1.1l7.1,33.4l-6.6,10.3l-2.4,4.3l-1.2,1.8
		l-3.1,5.5l-0.4,0.6l-3.6,6.1l-0.3,0.6l-4.4,7.1l-4.8,5.6l-5.3,4.2l-5.7,2.7l-3.8,0.8l-4.7,2.2l-0.8,0.2l-5.4,2.7l-5,4l-15.6,17.5
		l-2.2,2.2L-551.6,286.6"/>
</g>
<path class="st4" d="M246.9,88.6l26.4,84.8"/>
<path class="st4" d="M246.9,88.6l26.4,84.8"/>
<path class="st4" d="M246.9,88.6l-45.1,101.8"/>
<path class="st4" d="M246.9,88.6l-45.1,101.8"/>
<path class="st4" d="M178.8,99.7l-88.5,2.8"/>
<path class="st4" d="M178.8,99.7l23,90.7"/>
<path class="st4" d="M178.8,99.7l-11.7,97.7"/>
<path class="st4" d="M178.8,99.7l23,90.7"/>
<path class="st4" d="M178.8,99.7l-11.7,97.7"/>
<path class="st4" d="M90.3,102.5l76.8,94.9"/>
<path class="st4" d="M90.3,102.5L67.7,210.6"/>
<path class="st4" d="M90.3,102.5l76.8,94.9"/>
<path class="st4" d="M90.3,102.5L67.7,210.6"/>
<path class="st4" d="M90.3,102.5l88.5-2.8"/>
<path class="st4" d="M90.3,102.5L67.7,210.6"/>
<path class="st4" d="M316.2,166.6l-42.8,6.8"/>
<path class="st4" d="M316.2,166.6L316.2,166.6"/>
<path class="st4" d="M316.2,166.6l-42.8,6.8"/>
<path class="st4" d="M316.2,166.6l26.2,70.3"/>
<path class="st4" d="M273.3,173.4l42.8-6.8"/>
<path class="st4" d="M273.3,173.4l42.8-6.8"/>
<path class="st4" d="M273.3,173.4L273.3,173.4"/>
<path class="st4" d="M273.3,173.4l-71.5,16.9"/>
<path class="st4" d="M273.3,173.4l-21.1,76.4"/>
<path class="st4" d="M273.3,173.4l-71.5,16.9"/>
<path class="st4" d="M273.3,173.4l-26.4-84.8"/>
<path class="st4" d="M273.3,173.4l69.1,63.5"/>
<path class="st4" d="M316.2,166.6L316.2,166.6"/>
<path class="st4" d="M316.2,166.6l-42.8,6.8"/>
<path class="st4" d="M316.2,166.6l-42.8,6.8"/>
<path class="st4" d="M316.2,166.6l26.2,70.3"/>
<path class="st4" d="M273.3,173.4l42.8-6.8"/>
<path class="st4" d="M273.3,173.4L273.3,173.4"/>
<path class="st4" d="M273.3,173.4l42.8-6.8"/>
<path class="st4" d="M273.3,173.4l-71.5,16.9"/>
<path class="st4" d="M273.3,173.4l-21.1,76.4"/>
<path class="st4" d="M273.3,173.4l-71.5,16.9"/>
<path class="st4" d="M273.3,173.4l-26.4-84.8"/>
<path class="st4" d="M273.3,173.4l69.1,63.5"/>
<path class="st4" d="M201.8,190.4l-34.7,7"/>
<path class="st4" d="M201.8,190.4l-6.1,79.8"/>
<path class="st4" d="M201.8,190.4l71.5-16.9"/>
<path class="st4" d="M201.8,190.4l71.5-16.9"/>
<path class="st4" d="M201.8,190.4l50.4,59.4"/>
<path class="st4" d="M201.8,190.4L201.8,190.4"/>
<path class="st4" d="M201.8,190.4l-34.7,7"/>
<path class="st4" d="M201.8,190.4l45.1-101.8"/>
<path class="st4" d="M201.8,190.4l-23-90.7"/>
<path class="st4" d="M167.1,197.3l-64.4,46.3"/>
<path class="st4" d="M167.1,197.3l-76.8-94.9"/>
<path class="st4" d="M167.1,197.3l28.6,72.8"/>
<path class="st4" d="M167.1,197.3l34.7-7"/>
<path class="st4" d="M167.1,197.3l-99.5,13.3"/>
<path class="st4" d="M167.1,197.3l34.7-7"/>
<path class="st4" d="M167.1,197.3L167.1,197.3"/>
<path class="st4" d="M167.1,197.3l-99.5,13.3"/>
<path class="st4" d="M167.1,197.3l11.7-97.7"/>
<path class="st4" d="M167.1,197.3l-99.5,13.3"/>
<path class="st4" d="M201.8,190.4l-34.7,7"/>
<path class="st4" d="M201.8,190.4l71.5-16.9"/>
<path class="st4" d="M201.8,190.4l71.5-16.9"/>
<path class="st4" d="M201.8,190.4L201.8,190.4"/>
<path class="st4" d="M201.8,190.4l50.4,59.4"/>
<path class="st4" d="M201.8,190.4l-6.1,79.8"/>
<path class="st4" d="M201.8,190.4l-34.7,7"/>
<path class="st4" d="M201.8,190.4l-23-90.7"/>
<path class="st4" d="M167.1,197.3l-64.4,46.3"/>
<path class="st4" d="M167.1,197.3L167.1,197.3"/>
<path class="st4" d="M167.1,197.3l-76.8-94.9"/>
<path class="st4" d="M167.1,197.3l28.6,72.8"/>
<path class="st4" d="M167.1,197.3l34.7-7"/>
<path class="st4" d="M167.1,197.3l-99.5,13.3"/>
<path class="st4" d="M167.1,197.3l34.7-7"/>
<path class="st4" d="M167.1,197.3l-99.5,13.3"/>
<path class="st4" d="M167.1,197.3l11.7-97.7l68.1-11l-45.1,101.8"/>
<path class="st4" d="M167.1,197.3l-99.5,13.3"/>
<path class="st4" d="M67.7,210.6l35,33"/>
<path class="st4" d="M67.7,210.6l22.7-108.2"/>
<path class="st4" d="M67.7,210.6l99.5-13.3"/>
<path class="st4" d="M67.7,210.6l99.5-13.3"/>
<path class="st4" d="M342.4,236.9l-26.2-70.3"/>
<path class="st4" d="M342.4,236.9l-69.1-63.5"/>
<path class="st4" d="M342.4,236.9l-26.2-70.3"/>
<path class="st4" d="M342.4,236.9l-69.1-63.5"/>
<path class="st4" d="M342.4,236.9l-90.2,12.9"/>
<path class="st4" d="M147.4,363.3l-21.1-63.9"/>
<path class="st4" d="M147.4,363.3l48.3-93.2"/>
<path class="st4" d="M252.2,249.8l-50.4-59.4"/>
<path class="st4" d="M252.2,249.8l21.1-76.4"/>
<path class="st4" d="M252.2,249.8l21.1-76.4"/>
<path class="st4" d="M252.2,249.8l-50.4-59.4"/>
<path class="st4" d="M252.2,249.8l-56.5,20.3"/>
<path class="st4" d="M252.2,249.8l90.2-12.9"/>
<path class="st4" d="M195.7,270.1l-93-26.5"/>
<path class="st4" d="M195.7,270.1l-69.4,29.3"/>
<path class="st4" d="M195.7,270.1l56.5-20.3"/>
<path class="st4" d="M195.7,270.1l-48.3,93.2"/>
<path class="st4" d="M195.7,270.1l6.1-79.8"/>
<path class="st4" d="M195.7,270.1l-28.6-72.8"/>
<path class="st4" d="M195.7,270.1l6.1-79.8"/>
<path class="st4" d="M195.7,270.1l-28.6-72.8"/>
<path class="st4" d="M67.7,210.6l35,33"/>
<path class="st4" d="M67.7,210.6l22.7-108.2"/>
<path class="st4" d="M67.7,210.6l99.5-13.3"/>
<path class="st4" d="M67.7,210.6l99.5-13.3"/>
<path class="st4" d="M102.7,243.6l64.4-46.3"/>
<path class="st4" d="M102.7,243.6l23.6,55.8"/>
<path class="st4" d="M102.7,243.6l-35-33"/>
<path class="st4" d="M102.7,243.6l93,26.5"/>
<path class="st4" d="M102.7,243.6l64.4-46.3"/>
<path class="st4" d="M102.7,243.6l-35-33"/>
<path class="st4" d="M102.7,243.6l-35-33"/>
<path class="st4" d="M126.3,299.5l-23.6-55.8"/>
<path class="st4" d="M126.3,299.5l69.4-29.3"/>
<path class="st4" d="M126.3,299.5l21.1,63.9"/>
<path class="st4" d="M67.7,210.6l35,33"/>
<path class="st4" d="M67.7,210.6l22.7-108.2"/>
<path class="st4" d="M67.7,210.6l99.5-13.3"/>
<path class="st4" d="M67.7,210.6l99.5-13.3"/>
<path class="st5" d="M-299.1,79.9l34.4,110.2"/>
<path class="st5" d="M-299.1,79.9l34.4,110.2"/>
<path class="st5" d="M-299.1,79.9l-58.6,132.3"/>
<path class="st5" d="M-299.1,79.9l-58.6,132.3"/>
<path class="st5" d="M-387.5,94.3l-115,3.7"/>
<path class="st5" d="M-387.5,94.3l29.9,117.9"/>
<path class="st5" d="M-387.5,94.3l-15.2,127"/>
<path class="st5" d="M-387.5,94.3l29.9,117.9"/>
<path class="st5" d="M-387.5,94.3l-15.2,127"/>
<path class="st5" d="M-502.6,97.9l99.8,123.3"/>
<path class="st5" d="M-502.6,97.9l-29.5,140.6"/>
<path class="st5" d="M-502.6,97.9l99.8,123.3"/>
<path class="st5" d="M-502.6,97.9l-29.5,140.6"/>
<path class="st5" d="M-502.6,97.9l115-3.7"/>
<path class="st5" d="M-502.6,97.9l-29.5,140.6"/>
<path class="st5" d="M-209,181.3l-55.7,8.8"/>
<path class="st5" d="M-209,181.3L-209,181.3"/>
<path class="st5" d="M-209,181.3l-55.7,8.8"/>
<path class="st5" d="M-209,181.3l34.1,91.4"/>
<path class="st5" d="M-264.7,190.2l55.7-8.8"/>
<path class="st5" d="M-264.7,190.2l55.7-8.8"/>
<path class="st5" d="M-264.7,190.2L-264.7,190.2"/>
<path class="st5" d="M-264.7,190.2l-93,22"/>
<path class="st5" d="M-264.7,190.2l-27.5,99.3"/>
<path class="st5" d="M-264.7,190.2l-93,22"/>
<path class="st5" d="M-264.7,190.2L-299.1,80"/>
<path class="st5" d="M-264.7,190.2l89.8,82.6"/>
<path class="st5" d="M-209,181.3L-209,181.3"/>
<path class="st5" d="M-209,181.3l-55.7,8.8"/>
<path class="st5" d="M-209,181.3l-55.7,8.8"/>
<path class="st5" d="M-209,181.3l34.1,91.4"/>
<path class="st5" d="M-264.7,190.2l55.7-8.8"/>
<path class="st5" d="M-264.7,190.2L-264.7,190.2"/>
<path class="st5" d="M-264.7,190.2l55.7-8.8"/>
<path class="st5" d="M-264.7,190.2l-93,22"/>
<path class="st5" d="M-264.7,190.2l-27.5,99.3"/>
<path class="st5" d="M-264.7,190.2l-93,22"/>
<path class="st5" d="M-264.7,190.2L-299.1,80"/>
<path class="st5" d="M-264.7,190.2l89.8,82.6"/>
<path class="st5" d="M-357.6,212.2l-45.1,9"/>
<path class="st5" d="M-357.6,212.2l-8,103.7"/>
<path class="st5" d="M-357.6,212.2l93-22"/>
<path class="st5" d="M-357.6,212.2l93-22"/>
<path class="st5" d="M-357.6,212.2l65.5,77.3"/>
<path class="st5" d="M-357.6,212.2L-357.6,212.2"/>
<path class="st5" d="M-357.6,212.2l-45.1,9"/>
<path class="st5" d="M-357.6,212.2L-299,79.9"/>
<path class="st5" d="M-357.6,212.2l-29.9-117.9"/>
<path class="st5" d="M-402.8,221.2l-83.7,60.2"/>
<path class="st5" d="M-402.8,221.2l-99.8-123.3"/>
<path class="st5" d="M-402.8,221.2l37.2,94.7"/>
<path class="st5" d="M-402.8,221.2l45.1-9"/>
<path class="st5" d="M-402.8,221.2l-129.3,17.3"/>
<path class="st5" d="M-402.8,221.2l45.1-9"/>
<path class="st5" d="M-402.8,221.2L-402.8,221.2"/>
<path class="st5" d="M-402.8,221.2l-129.3,17.3"/>
<path class="st5" d="M-402.8,221.2l15.2-127"/>
<path class="st5" d="M-402.8,221.2l-129.3,17.3"/>
<path class="st5" d="M-357.6,212.2l-45.1,9"/>
<path class="st5" d="M-357.6,212.2l93-22"/>
<path class="st5" d="M-357.6,212.2l93-22"/>
<path class="st5" d="M-357.6,212.2L-357.6,212.2"/>
<path class="st5" d="M-357.6,212.2l65.5,77.3"/>
<path class="st5" d="M-357.6,212.2l-8,103.7"/>
<path class="st5" d="M-357.6,212.2l-45.1,9"/>
<path class="st5" d="M-357.6,212.2l-29.9-117.9"/>
<path class="st5" d="M-402.8,221.2l-83.7,60.2"/>
<path class="st5" d="M-402.8,221.2L-402.8,221.2"/>
<path class="st5" d="M-402.8,221.2l-99.8-123.3"/>
<path class="st5" d="M-402.8,221.2l37.2,94.7"/>
<path class="st5" d="M-402.8,221.2l45.1-9"/>
<path class="st5" d="M-402.8,221.2l-129.3,17.3"/>
<path class="st5" d="M-402.8,221.2l45.1-9"/>
<path class="st5" d="M-402.8,221.2l-129.3,17.3"/>
<path class="st5" d="M-402.8,221.2l15.2-127l88.5-14.3l-58.6,132.3"/>
<path class="st5" d="M-402.8,221.2l-129.3,17.3"/>
<path class="st5" d="M-532.1,238.6l45.5,42.9"/>
<path class="st5" d="M-532.1,238.6L-502.6,98"/>
<path class="st5" d="M-532.1,238.6l129.3-17.3"/>
<path class="st5" d="M-532.1,238.6l129.3-17.3"/>
<path class="st5" d="M-174.9,272.7l-34.1-91.4"/>
<path class="st5" d="M-174.9,272.7l-89.8-82.6"/>
<path class="st5" d="M-174.9,272.7l-34.1-91.4"/>
<path class="st5" d="M-174.9,272.7l-89.8-82.6"/>
<path class="st5" d="M-174.9,272.7l-117.3,16.8"/>
<path class="st5" d="M-428.4,437l-27.5-83"/>
<path class="st5" d="M-428.4,437l62.8-121.1"/>
<path class="st5" d="M-292.2,289.5l-65.5-77.3"/>
<path class="st5" d="M-292.2,289.5l27.5-99.3"/>
<path class="st5" d="M-292.2,289.5l27.5-99.3"/>
<path class="st5" d="M-292.2,289.5l-65.5-77.3"/>
<path class="st5" d="M-292.2,289.5l-73.5,26.4"/>
<path class="st5" d="M-292.2,289.5l117.3-16.8"/>
<path class="st5" d="M-365.6,315.9l-120.9-34.5"/>
<path class="st5" d="M-365.6,315.9l-90.2,38.1"/>
<path class="st5" d="M-365.6,315.9l73.5-26.4"/>
<path class="st5" d="M-365.6,315.9L-428.4,437"/>
<path class="st5" d="M-365.6,315.9l8-103.7"/>
<path class="st5" d="M-365.6,315.9l-37.2-94.7"/>
<path class="st5" d="M-365.6,315.9l8-103.7"/>
<path class="st5" d="M-365.6,315.9l-37.2-94.7"/>
<path class="st5" d="M-532.1,238.6l45.5,42.9"/>
<path class="st5" d="M-532.1,238.6L-502.6,98"/>
<path class="st5" d="M-532.1,238.6l129.3-17.3"/>
<path class="st5" d="M-532.1,238.6l129.3-17.3"/>
<path class="st5" d="M-486.5,281.4l83.7-60.2"/>
<path class="st5" d="M-486.5,281.4l30.7,72.6"/>
<path class="st5" d="M-486.5,281.4l-45.6-42.9"/>
<path class="st5" d="M-486.5,281.4l120.9,34.5"/>
<path class="st5" d="M-486.5,281.4l83.7-60.2"/>
<path class="st5" d="M-486.5,281.4l-45.6-42.9"/>
<path class="st5" d="M-486.5,281.4l-45.6-42.9"/>
<path class="st5" d="M-455.9,354l-30.7-72.6"/>
<path class="st5" d="M-455.9,354l90.2-38.1"/>
<path class="st5" d="M-455.9,354l27.5,83"/>
<path class="st5" d="M-532.1,238.6l45.5,42.9"/>
<path class="st5" d="M-532.1,238.6L-502.6,98"/>
<path class="st5" d="M-532.1,238.6l129.3-17.3"/>
<path class="st5" d="M-532.1,238.6l129.3-17.3"/>
<g id="Layer_7">
	<g class="st0">
		<path class="st1" d="M283.9,392.2v-25.1c0-3.1-0.7-5.4-2-6.9c-1.3-1.5-3.4-2.3-6.1-2.3c-3.6,0-6.3,1-8.1,3.1
			c-1.7,2.1-2.6,5.3-2.6,9.6v21.5h-5.8v-25.1c0-3.1-0.7-5.4-2-6.9c-1.3-1.5-3.4-2.3-6.2-2.3c-3.7,0-6.3,1.1-8,3.3
			c-1.7,2.2-2.5,5.8-2.5,10.8v20.2h-5.8v-38.5h4.7l0.9,5.3h0.3c1.1-1.9,2.7-3.3,4.7-4.4s4.2-1.6,6.7-1.6c6,0,10,2.2,11.8,6.5h0.3
			c1.1-2,2.8-3.6,5-4.8s4.7-1.8,7.5-1.8c4.4,0,7.6,1.1,9.8,3.4c2.2,2.2,3.3,5.8,3.3,10.7v25.1H283.9z"/>
		<path class="st1" d="M335,372.9c0,6.3-1.6,11.2-4.7,14.7s-7.5,5.3-13.1,5.3c-3.4,0-6.5-0.8-9.2-2.4s-4.7-3.9-6.2-7
			c-1.5-3-2.2-6.6-2.2-10.6c0-6.3,1.6-11.2,4.7-14.7c3.1-3.5,7.5-5.3,13.1-5.3c5.4,0,9.7,1.8,12.8,5.4
			C333.4,361.9,335,366.7,335,372.9z M305.7,372.9c0,4.9,1,8.7,3,11.2s4.9,3.9,8.7,3.9c3.8,0,6.7-1.3,8.7-3.8c2-2.6,3-6.3,3-11.3
			c0-4.9-1-8.6-3-11.2c-2-2.5-4.9-3.8-8.8-3.8c-3.8,0-6.7,1.3-8.6,3.8C306.7,364.2,305.7,367.9,305.7,372.9z"/>
		<path class="st1" d="M394.4,392.2v-25.1c0-3.1-0.7-5.4-2-6.9c-1.3-1.5-3.4-2.3-6.1-2.3c-3.6,0-6.3,1-8.1,3.1
			c-1.7,2.1-2.6,5.3-2.6,9.6v21.5h-5.8v-25.1c0-3.1-0.7-5.4-2-6.9c-1.3-1.5-3.4-2.3-6.2-2.3c-3.7,0-6.3,1.1-8,3.3
			c-1.7,2.2-2.5,5.8-2.5,10.8v20.2h-5.8v-38.5h4.7l0.9,5.3h0.3c1.1-1.9,2.7-3.3,4.7-4.4s4.2-1.6,6.7-1.6c6,0,10,2.2,11.8,6.5h0.3
			c1.1-2,2.8-3.6,5-4.8s4.7-1.8,7.5-1.8c4.4,0,7.6,1.1,9.8,3.4c2.2,2.2,3.3,5.8,3.3,10.7v25.1H394.4z"/>
		<path class="st1" d="M428.5,392.9c-5.7,0-10.2-1.7-13.5-5.2c-3.3-3.5-4.9-8.3-4.9-14.4c0-6.2,1.5-11.1,4.6-14.8s7.2-5.5,12.3-5.5
			c4.8,0,8.6,1.6,11.5,4.8s4.2,7.4,4.2,12.6v3.7h-26.5c0.1,4.5,1.3,8,3.4,10.3c2.2,2.3,5.2,3.5,9.2,3.5c4.1,0,8.2-0.9,12.3-2.6v5.2
			c-2.1,0.9-4,1.5-5.9,1.9C433.3,392.7,431.1,392.9,428.5,392.9z M426.9,357.8c-3.1,0-5.6,1-7.4,3c-1.8,2-2.9,4.8-3.3,8.4h20.1
			c0-3.7-0.8-6.5-2.5-8.5C432.3,358.8,430,357.8,426.9,357.8z"/>
		<path class="st1" d="M470.6,392.9c-2.5,0-4.8-0.5-6.9-1.4s-3.8-2.3-5.2-4.3H458c0.3,2.2,0.4,4.4,0.4,6.4v15.9h-5.8v-55.8h4.7
			l0.8,5.3h0.3c1.5-2.1,3.2-3.6,5.2-4.6c2-0.9,4.3-1.4,6.9-1.4c5.1,0,9.1,1.7,11.8,5.2s4.2,8.4,4.2,14.7c0,6.3-1.4,11.2-4.2,14.7
			C479.5,391.1,475.6,392.9,470.6,392.9z M469.7,357.9c-3.9,0-6.8,1.1-8.5,3.3s-2.7,5.6-2.7,10.4v1.3c0,5.4,0.9,9.3,2.7,11.6
			c1.8,2.3,4.7,3.5,8.7,3.5c3.3,0,5.9-1.3,7.8-4c1.9-2.7,2.8-6.4,2.8-11.1c0-4.8-0.9-8.5-2.8-11.1
			C475.8,359.2,473.1,357.9,469.7,357.9z"/>
		<path class="st1" d="M490.6,353.6h6.3l8.4,22c1.9,5,3,8.6,3.4,10.9h0.3c0.3-1.2,0.9-3.2,1.9-6.1c1-2.9,4.2-11.8,9.5-26.7h6.3
			l-16.6,43.9c-1.6,4.3-3.6,7.4-5.7,9.2c-2.2,1.8-4.9,2.7-8.1,2.7c-1.8,0-3.5-0.2-5.3-0.6v-4.7c1.3,0.3,2.7,0.4,4.3,0.4
			c4,0,6.9-2.2,8.6-6.8l2.1-5.5L490.6,353.6z"/>
	</g>
</g>
<path class="st2" d="M975.7,132.8l-19.5,5.3l-2.4-0.5l-7.9-29.6l-0.4-2.5l-0.5-1.7l-0.3-1.7v-0.8l-0.3-4.3l-0.7-4.2l-0.4-1.5
	l-0.5-2.7l-0.3-1.2l-0.5-3l-0.2-0.9l-0.7-3.9l-0.9-9.9l7.1-4.7l4.2-2.2l4.2-1.5l4.2-1l1.1-0.1l3.1-0.8l1.6-0.2l4.7-1.2l4.5-1.8
	l4.4-2.5l4.3-3.1l0,0l22.2,5.2l2.7,0.9l1.2,13.5l0.7,3.6l0.3,1.2l0.4,2.3l0.5,2l1.4,9.7l-0.1,2l0.9,3.2l1,2.7l0.2,1.2l3.1,24
	l-8.2,3.9l-4.2,1.6l-4.3,1.3l-4.3,1h-0.2l-3.6,0.8l-0.5,0.1l-4.4,0.9l-4.4,0.5l-4.5,0.2h-0.9L975.7,132.8"/>
<path class="st2" d="M910.7,149.1l-0.9,0.2l-3.1,0.6l-19.9-1.9l-4.1-0.6l-4.1-0.9l-4.2-1.1l-5.7-1.8l2.7-22.2l0.2-5l-0.2-4.9
	l-0.6-4.8l-1-4.7v-0.1l-1-4.7l-1.4-4.6l-2.1-5L865,86l-4.2-43l5.6-4.2l3-1.2l4.9-1.6l4.7,2.6l6.4,3.9l3.3,2.3l5.6,3.4l5.5,2.9
	l5.4,2.3l15.4,5.2l0.6,0.1L940,69.6l0.9,9.9l0.7,3.9l0.2,0.9l0.5,3l0.3,1.2l0.5,2.7l0.4,1.5l0.7,4.2l0.3,4.3v0.8l0.3,1.7l0.5,1.7
	l0.4,2.5l7.9,29.6l-10.9,4.9l-4.7,1.7l-4.7,1.3l-4.2,0.8l-0.6,0.2L925,147l-1.3,0.3l-4.8,0.9l-5,0.5h-1.4L910.7,149.1"/>
<path class="st2" d="M819.8,156.1l-14.1-12.5l-3.8-4l-3.2-4.1l-2.6-4.2l-2-4.3l-1.5-4.5l-0.7-3.5l-7.1-11.4l-2.6-3.4l-2.3-2.4
	l0.2-1.1l1.7-17.1l0.8-4.2l1.2-4.3l1.6-4.3l3.3-7.4l4.2-17.5l12.4-0.9h0.1l11.1-0.2l7.8-1.2l4.3-0.4l4.3-0.2h4.4l13.7,0.7l9.8-0.6
	l4.2,43.2l0.3,1.6l2.1,5l1.5,4.6l1,4.7v0.1l1,4.7l0.6,4.8l0.2,4.9l-0.2,5l-2.7,22.2l-18.8,9.5l-4,2.3l-4,2.6l-3.9,2.8l-0.8,0.6
	l-3.8-0.9l-4.7-0.8l-4.6-0.6l-1.1-0.1L819.8,156.1"/>
<path class="st2" d="M1088.6,161.1l1.3,4.3l3.6,8.1l2.3,19.6l-19.7,2.2l-4.7,1l-2,0.7l-2.6,0.6l-1.9,0.6l-2.8,0.6l-1.7,0.6l-2.9,0.7
	l-1.6,0.5l-3.1,0.7l-1.4,0.5l-3.2,0.8l-4.6,1.6l-4.4,2l-0.2-0.6l-8.8-18.3l-6.1-5.7l1.6-2l-2.5-2.9l1.4-1.5l-2.2-3.3l1-1.1l-1.8-3.8
	l0.6-0.6l-1.3-4.3l0,0l-0.7-4.8l3.1-2.5l3.3-8l2.4-12.6l0.7-8.6h2.5l3.5-0.2l6.2-1.4l4.6-0.1l4.1-0.4l4.1-0.7l2.2-0.5l3.6-0.6
	l3.6-0.4l10.6-0.4l3.6,11.7l5.8,11.3l1.7,4.8l0.7,3.5l0.5,1.4l0.5,3l0.6,1.9L1088.6,161.1"/>
<path class="st2" d="M1001.1,212.5l-12.7,1l-4.5-0.1l-4.7-0.5l-1-0.2l-2.5-16.5l-3-6l-1.4-4.2l-0.9-4.3l0,0l-0.9-4.3v-0.2l-0.9-4.1
	v-0.5l-1-4.5l-11.3-30.2l19.5-5.3l2.8-0.6h0.9l4.5-0.2l4.4-0.5l4.4-0.9l0.5-0.1l3.6-0.8h0.2l4.4-1l4.3-1.3l4.2-1.6l8.1-3.9l11.8,3.7
	l-0.7,8.6l-2.4,12.6l-3.3,8l-3.1,2.5l0.7,4.8l0,0l1.3,4.3l-0.6,0.6l1.8,3.8l-1,1.1l2.2,3.3l-1.4,1.5l2.5,2.9l-1.6,2l6.1,5.7
	l8.8,18.3l0.2,0.6l-10.7,8.2l-3.4,3l-0.5-0.2l-4.9-1.8l-4.8-1.4l-4.7-0.9l-4.6-0.5L1001.1,212.5"/>
<path class="st2" d="M1088.6,161.1l1.3,4.3l3.6,8.1l2.3,19.6l-19.7,2.2l-4.7,1l-2,0.7l-2.6,0.6l-1.9,0.6l-2.8,0.6l-1.7,0.6l-2.9,0.7
	l-1.6,0.5l-3.1,0.7l-1.4,0.5l-3.2,0.8l-4.6,1.6l-4.4,2l-0.2-0.6l-8.8-18.3l-6.1-5.7l1.6-2l-2.5-2.9l1.4-1.5l-2.2-3.3l1-1.1l-1.8-3.8
	l0.6-0.6l-1.3-4.3l0,0l-0.7-4.8l3.1-2.5l3.3-8l2.4-12.6l0.7-8.6h2.5l3.5-0.2l6.2-1.4l4.6-0.1l4.1-0.4l4.1-0.7l2.2-0.5l3.6-0.6
	l3.6-0.4l10.6-0.4l3.6,11.7l5.8,11.3l1.7,4.8l0.7,3.5l0.5,1.4l0.5,3l0.6,1.9L1088.6,161.1"/>
<path class="st2" d="M1001.1,212.5l-12.7,1l-4.5-0.1l-4.7-0.5l-1-0.2l-2.5-16.5l-3-6l-1.4-4.2l-0.9-4.3l0,0l-0.9-4.3v-0.2l-0.9-4.1
	v-0.5l-1-4.5l-11.3-30.2l19.5-5.3l2.8-0.6h0.9l4.5-0.2l4.4-0.5l4.4-0.9l0.5-0.1l3.6-0.8h0.2l4.4-1l4.3-1.3l4.2-1.6l8.1-3.9l11.8,3.7
	l-0.7,8.6l-2.4,12.6l-3.3,8l-3.1,2.5l0.7,4.8l0,0l1.3,4.3l-0.6,0.6l1.8,3.8l-1,1.1l2.2,3.3l-1.4,1.5l2.5,2.9l-1.6,2l6.1,5.7
	l8.8,18.3l0.2,0.6l-10.7,8.2l-3.4,3l-0.5-0.2l-4.9-1.8l-4.8-1.4l-4.7-0.9l-4.6-0.5L1001.1,212.5"/>
<path class="st2" d="M931.5,226.8l-7.3-11.6l-6.2-6.7l-4.1-1.4l-0.7-4.3l-0.2-0.1l-0.8-4.3h-0.1l-0.8-4.3h-0.1l-0.8-4.4h-0.1
	l-0.9-4.4l0,0l-4.4-20.5l1.3-10.5l0.2-4.2l3.1-0.6l0.9-0.2l1.9-0.4h1.4l5-0.5l4.8-0.9l1.3-0.3l3.5-0.6l0.7-0.2l4.1-0.8l4.7-1.3
	l4.7-1.7l10.9-4.9l2.4,0.5l11.3,30.2l1,4.5v0.5l0.9,4.1v0.2l0.9,4.3l0,0l0.9,4.3l1.4,4.2l3,6l2.5,16.5l-3,2l-0.5,0.3l-11.2,4
	L960,220l-1.2,0.2l-4.5,1.4l-4.4,1.8l-4.3,2.2l-1.4,0.9l-3.2-0.1l-4.7,0.3l-4.4,0.7L931.5,226.8"/>
<path class="st2" d="M900.6,238l-17.1,4.8l-1.2-1.3l-2.7-3.1l-0.3-0.4l-6.2-14.7l-1.1-3.1l-1.1-4.1l-1.7-4.5l-0.2-0.3L853.2,196
	l-3.9-3.3l-2.5-1.9l-4.1-3.5l-5.4-25.7l0.8-0.6l3.9-2.8l4-2.6l4-2.3l18.8-9.5l5.7,1.8l4.2,1.1l4.1,0.9l4.1,0.6l19.9,1.9l-0.2,4.2
	l-1.3,10.5l4.4,20.5l0,0l0.9,4.4l0,0l0.9,4.4h0.1l0.8,4.3h0.1l0.8,4.3l0.2,0.1l0.7,4.3l4.1,1.4l6.2,6.7l7.3,11.6l0.4,0.7l-4.9,2.6
	l-4.1,1.7l-4.2,1.4l-2.2,0.5l-2,0.6l-1.9,0.4l-2.4,0.7l-1.6,0.3l-2.7,0.8l-1.2,0.2l-3.1,0.9L900.6,238"/>
<path class="st2" d="M931.5,226.8l-7.3-11.6l-6.2-6.7l-4.1-1.4l-0.7-4.3l-0.2-0.1l-0.8-4.3h-0.1l-0.8-4.3h-0.1l-0.8-4.4h-0.1
	l-0.9-4.4l0,0l-4.4-20.5l1.3-10.5l0.2-4.2l3.1-0.6l0.9-0.2l1.9-0.4h1.4l5-0.5l4.8-0.9l1.3-0.3l3.5-0.6l0.7-0.2l4.1-0.8l4.7-1.3
	l4.7-1.7l10.9-4.9l2.4,0.5l11.3,30.2l1,4.5v0.5l0.9,4.1v0.2l0.9,4.3l0,0l0.9,4.3l1.4,4.2l3,6l2.5,16.5l-3,2l-0.5,0.3l-11.2,4
	L960,220l-1.2,0.2l-4.5,1.4l-4.4,1.8l-4.3,2.2l-1.4,0.9l-3.2-0.1l-4.7,0.3l-4.4,0.7L931.5,226.8"/>
<path class="st2" d="M900.6,238l-17.1,4.8l-1.2-1.3l-2.7-3.1l-0.3-0.4l-6.2-14.7l-1.1-3.1l-1.1-4.1l-1.7-4.5l-0.2-0.3L853.2,196
	l-3.9-3.3l-2.5-1.9l-4.1-3.5l-5.4-25.7l0.8-0.6l3.9-2.8l4-2.6l4-2.3l18.8-9.5l5.7,1.8l4.2,1.1l4.1,0.9l4.1,0.6l19.9,1.9l-0.2,4.2
	l-1.3,10.5l4.4,20.5l0,0l0.9,4.4l0,0l0.9,4.4h0.1l0.8,4.3h0.1l0.8,4.3l0.2,0.1l0.7,4.3l4.1,1.4l6.2,6.7l7.3,11.6l0.4,0.7l-4.9,2.6
	l-4.1,1.7l-4.2,1.4l-2.2,0.5l-2,0.6l-1.9,0.4l-2.4,0.7l-1.6,0.3l-2.7,0.8l-1.2,0.2l-3.1,0.9L900.6,238"/>
<path class="st2" d="M783.9,246.8l-3.6-4.1l-12.1-16.9L765,222l-3.6-3.6l-4-3.4l-17-12.5l21.4-15.8l4.2-2.6l4.2-2.2l4.3-1.8l4.4-1.4
	l4.5-1l1.2-0.2l4.8-1.1l4.7-1.6l4.6-2l24.5-13.5l1.1,0.1l4.6,0.6l4.7,0.8l3.8,0.9l5.4,25.7l-5.1,7.9l-1.8,3.3L835,200l-2.4,4.2
	l-0.3,0.5l-2.8,4.7l-0.2,0.5l-3.4,5.5l-3.7,4.3l-4,3.2l-4.4,2.1l-2.9,0.6l-3.6,1.7l-0.6,0.1l-4.2,2.1l-3.9,3l-12,13.5l-1.7,1.7
	L783.9,246.8"/>
<path class="st2" d="M1035.3,273.5l-0.1-10.1l-0.1-1.9l-2.8-8.3l-1.8-11.3l-1.1-4.4l-1.4-4.2l-1.1-4.6l-1.8-11.3l3.4-3l10.7-8.2
	l4.4-2l4.6-1.6l3.2-0.8l1.4-0.5l3.1-0.7l1.6-0.5l2.9-0.7l1.7-0.6l2.8-0.6l1.9-0.6l2.6-0.6l2-0.7l4.7-1l19.7-2.2l5.1,3.3l4.1,16.4
	l0.4,1.1l0.8,3.2l0.1,0.3l1,3.5l0.1,0.4l1.3,4.2l1.6,4.1l2,4l0.5,0.8l0.9,3.4l8.8,24.5l-9.8,14.7l-6.8,3.2l-4.2,1.7l-4.2,1.4h-0.1
	l-4.3,1.4l0,0l-4.3,1.4h-0.1l-4.4,1.4l-1.5,0.6l-42.1-12.9l-4.4-1.6L1035.3,273.5"/>
<path class="st2" d="M894.8,390.8l-2,0.8l-2.7,0.7l-2,0.7l-2.8,0.7l-1.9,0.7l-2.9,0.7l-1.8,0.7L874,397l-4.9,0.6l-5,0.1l-10.3-0.9
	l-1.9-3.1l-6.2-12.3l-2.3-3.8l-2.7-3.7l-3-3.6l-3.3-3.5l-6.2-5.7l-0.5-2l-0.8-5l-0.5-5.1l-0.2-4.4l24-9.5l11.8-2l4.8-1.4l0.3-0.1
	l4.3-1.3h0.1l4.2-1.3l0.5-0.1l31.1-9.9l13.8,7.5l2.3,1.6l-5.4,13.5l-1.6,5l-1.2,4.9l-0.8,4.8l-0.4,4.6v18.3l-0.5,5l-0.4,2.1
	L894.8,390.8"/>
<path class="st2" d="M991.3,295.4l-14.6,2.3l-0.9,0.1l-9.6-18.3l-6.4-7.2l-2.7-4l-2-4.2l-0.8-3l-0.6-1.4l-0.5-2l-0.9-2.4l-0.2-1.1
	l-1.1-3.4l-1-6.3l-5.7-17.9l1.4-0.9l4.3-2.2l4.4-1.8l4.5-1.4l1.2-0.2l3.4-0.9l11.2-4l0.5-0.3l3-2l1,0.2l4.7,0.5l4.5,0.1l12.7-1
	l4.5,0.1l4.6,0.5l4.7,0.9l4.8,1.4l4.9,1.8l0.5,0.2l1.8,11.3l1.1,4.6l1.4,4.2l1.1,4.4l1.8,11.3l2.8,8.3l0.1,1.9l0.1,10.1l-16.8,14
	l-8.6,4.6h-0.8l-4.6,0.5l-4.5,0.7l-4.4,1l-3.4,1L991.3,295.4"/>
<path class="st2" d="M957,268.3l2.7,4l6.4,7.2l9.6,18.3l-2.2,1.7l-19.8,13.7l-3.4,2.7l-3.4,3l-3.3,3.2L941,325l-0.8,0.3l-4.4,1.1
	l-4.4,0.9l-4.5,0.6l-3.2,0.3l-2.3-1.6l-13.8-7.5l-7.8-16.3l-3.9-5.2l-2.5-4l-2.1-4.2l-1.7-4.3l-0.7-2.6l-0.7-1.8l-0.5-1.9l-1.3-3.6
	l-1.6-3.5l-5.2-9.6l3.8-19.2l17.1-4.8l0.9-0.2l3.1-0.9l1.2-0.2l2.7-0.8l1.6-0.3l2.4-0.7l1.9-0.4l2-0.6l2.2-0.5l4.2-1.4l4.1-1.7
	l4.9-2.6l4.4-0.7l4.7-0.3l3.2,0.1l5.7,17.9l1,6.3l1.1,3.4l0.2,1.1l0.9,2.4l0.5,2l0.6,1.4l0.8,3L957,268.3"/>
<path class="st2" d="M783.9,246.8l-3.6-4.1l-12.1-16.9L765,222l-3.6-3.6l-4-3.4l-17-12.5l21.4-15.8l4.2-2.6l4.2-2.2l4.3-1.8l4.4-1.4
	l4.5-1l1.2-0.2l4.8-1.1l4.7-1.6l4.6-2l24.5-13.5l1.1,0.1l4.6,0.6l4.7,0.8l3.8,0.9l5.4,25.7l-5.1,7.9l-1.8,3.3L835,200l-2.4,4.2
	l-0.3,0.5l-2.8,4.7l-0.2,0.5l-3.4,5.5l-3.7,4.3l-4,3.2l-4.4,2.1l-2.9,0.6l-3.6,1.7l-0.6,0.1l-4.2,2.1l-3.9,3l-12,13.5l-1.7,1.7
	L783.9,246.8"/>
<path class="st2" d="M882.2,241.5l1.2,1.3l-3.8,19.2l-21.8,7.1l-0.9,0.2l-3.6,1.2l-1,0.2l-3.4,1.1l-1.2,0.2l-3.3,1.1l-1.3,0.3
	l-3.1,1.1l-1.5,0.3l-4.5,1.6l-4.3,2.2l-22.9,15.8l-1.5-1.7l-3.2-4.3l-2.8-4.4l-2.4-4.5l-2-4.6l-1.6-4.7l-0.4-1.7l-1-3.1l-0.1-0.4
	l-2.3-4.1l-2.1-4.6l-1.6-4.7l-0.5-1.9l-0.7-2.1l1.7-1.7l12-13.5l3.9-3l4.1-2.1l0.6-0.1l3.7-1.7l2.9-0.6l4.4-2.1l4.1-3.2l3.7-4.3
	l3.4-5.5l0.2-0.5l2.8-4.7l0.3-0.5l2.4-4.2l0.9-1.4l1.8-3.3l5.1-7.9l4.1,3.5l2.5,1.9l3.9,3.3l15.8,15.4l0.2,0.3l1.7,4.5l1.1,4.1
	l1.1,3.1l6.2,14.7l0.3,0.4L882.2,241.5"/>
<path class="st2" d="M817.9,330.6l-2-4.6l-1.7-4.7l-1-3.7l-0.4-1.1l-0.9-3.4l-0.5-1.4l-0.8-3.1l-0.6-1.7l-0.7-2.8l-0.7-2l-1.2-4.8
	l-0.5-2.9l22.9-15.8l4.3-2.2l4.5-1.6l1.5-0.3l3.1-1.1l1.3-0.3l3.3-1.1l1.2-0.2l3.4-1.1l1-0.2l3.6-1.2l0.9-0.2l21.8-7.1l5.2,9.6
	l1.6,3.5l1.3,3.6l0.5,1.9l0.7,1.8l0.7,2.6l1.7,4.3l2.1,4.2l2.5,4l3.9,5.2l7.8,16.3l-31.1,9.9L876,329l-4.2,1.3h-0.1l-4.3,1.3
	l-0.3,0.1l-4.8,1.4l-11.8,2l-24,9.5L826,344l-3-4.3l-2.7-4.4L817.9,330.6"/>
<path class="st2" d="M783.9,246.8l-3.6-4.1l-12.1-16.9L765,222l-3.6-3.6l-4-3.4l-17-12.5l21.4-15.8l4.2-2.6l4.2-2.2l4.3-1.8l4.4-1.4
	l4.5-1l1.2-0.2l4.8-1.1l4.7-1.6l4.6-2l24.5-13.5l1.1,0.1l4.6,0.6l4.7,0.8l3.8,0.9l5.4,25.7l-5.1,7.9l-1.8,3.3L835,200l-2.4,4.2
	l-0.3,0.5l-2.8,4.7l-0.2,0.5l-3.4,5.5l-3.7,4.3l-4,3.2l-4.4,2.1l-2.9,0.6l-3.6,1.7l-0.6,0.1l-4.2,2.1l-3.9,3l-12,13.5l-1.7,1.7
	L783.9,246.8"/>
<path class="st4" d="M978.2,87.8l26.4,84.8"/>
<path class="st4" d="M978.2,87.8l26.4,84.8"/>
<path class="st4" d="M978.2,87.8l-45,101.8"/>
<path class="st4" d="M978.2,87.8l-45,101.8"/>
<path class="st4" d="M910.1,98.9l-88.5,2.8"/>
<path class="st4" d="M910.1,98.9l23,90.7"/>
<path class="st4" d="M910.1,98.9l-11.7,97.7"/>
<path class="st4" d="M910.1,98.9l23,90.7"/>
<path class="st4" d="M910.1,98.9l-11.7,97.7"/>
<path class="st4" d="M821.6,101.7l76.8,94.8"/>
<path class="st4" d="M821.6,101.7L799,209.8"/>
<path class="st4" d="M821.6,101.7l76.8,94.8"/>
<path class="st4" d="M821.6,101.7L799,209.8"/>
<path class="st4" d="M821.6,101.7l88.5-2.8"/>
<path class="st4" d="M821.6,101.7L799,209.8"/>
<path class="st4" d="M1047.5,165.8l-42.8,6.8"/>
<path class="st4" d="M1047.5,165.8L1047.5,165.8"/>
<path class="st4" d="M1047.5,165.8l-42.8,6.8"/>
<path class="st4" d="M1047.5,165.8l26.2,70.3"/>
<path class="st4" d="M1004.6,172.6l42.8-6.8"/>
<path class="st4" d="M1004.6,172.6l42.8-6.8"/>
<path class="st4" d="M1004.6,172.6L1004.6,172.6"/>
<path class="st4" d="M1004.6,172.6l-71.5,16.9"/>
<path class="st4" d="M1004.6,172.6L983.5,249"/>
<path class="st4" d="M1004.6,172.6l-71.5,16.9"/>
<path class="st4" d="M1004.6,172.6l-26.4-84.8"/>
<path class="st4" d="M1004.6,172.6l69.1,63.5"/>
<path class="st4" d="M1047.5,165.8L1047.5,165.8"/>
<path class="st4" d="M1047.5,165.8l-42.8,6.8"/>
<path class="st4" d="M1047.5,165.8l-42.8,6.8"/>
<path class="st4" d="M1047.5,165.8l26.2,70.3"/>
<path class="st4" d="M1004.6,172.6l42.8-6.8"/>
<path class="st4" d="M1004.6,172.6L1004.6,172.6"/>
<path class="st4" d="M1004.6,172.6l42.8-6.8"/>
<path class="st4" d="M1004.6,172.6l-71.5,16.9"/>
<path class="st4" d="M1004.6,172.6L983.5,249"/>
<path class="st4" d="M1004.6,172.6l-71.5,16.9"/>
<path class="st4" d="M1004.6,172.6l-26.4-84.8"/>
<path class="st4" d="M1004.6,172.6l69.1,63.5"/>
<path class="st4" d="M933.1,189.6l-34.7,7"/>
<path class="st4" d="M933.1,189.6l-6.2,79.8"/>
<path class="st4" d="M933.1,189.6l71.5-16.9"/>
<path class="st4" d="M933.1,189.6l71.5-16.9"/>
<path class="st4" d="M933.1,189.6l50.4,59.4"/>
<path class="st4" d="M933.1,189.6L933.1,189.6"/>
<path class="st4" d="M933.1,189.6l-34.7,7"/>
<path class="st4" d="M933.1,189.6l45-101.8"/>
<path class="st4" d="M933.1,189.6l-23-90.7"/>
<path class="st4" d="M898.4,196.5L834,242.8"/>
<path class="st4" d="M898.4,196.5l-76.8-94.8"/>
<path class="st4" d="M898.4,196.5l28.6,72.8"/>
<path class="st4" d="M898.4,196.5l34.7-7"/>
<path class="st4" d="M898.4,196.5L799,209.8"/>
<path class="st4" d="M898.4,196.5l34.7-7"/>
<path class="st4" d="M898.4,196.5L898.4,196.5"/>
<path class="st4" d="M898.4,196.5L799,209.8"/>
<path class="st4" d="M898.4,196.5l11.7-97.7"/>
<path class="st4" d="M898.4,196.5L799,209.8"/>
<path class="st4" d="M933.1,189.6l-34.7,7"/>
<path class="st4" d="M933.1,189.6l71.5-16.9"/>
<path class="st4" d="M933.1,189.6l71.5-16.9"/>
<path class="st4" d="M933.1,189.6L933.1,189.6"/>
<path class="st4" d="M933.1,189.6l50.4,59.4"/>
<path class="st4" d="M933.1,189.6l-6.2,79.8"/>
<path class="st4" d="M933.1,189.6l-34.7,7"/>
<path class="st4" d="M933.1,189.6l-23-90.7"/>
<path class="st4" d="M898.4,196.5L834,242.8"/>
<path class="st4" d="M898.4,196.5L898.4,196.5"/>
<path class="st4" d="M898.4,196.5l-76.8-94.8"/>
<path class="st4" d="M898.4,196.5l28.6,72.8"/>
<path class="st4" d="M898.4,196.5l34.7-7"/>
<path class="st4" d="M898.4,196.5L799,209.8"/>
<path class="st4" d="M898.4,196.5l34.7-7"/>
<path class="st4" d="M898.4,196.5L799,209.8"/>
<path class="st4" d="M898.4,196.5l11.7-97.7l68.1-11l-45,101.8"/>
<path class="st4" d="M898.4,196.5L799,209.8"/>
<path class="st4" d="M799,209.8l35,33"/>
<path class="st4" d="M799,209.8l22.7-108.2"/>
<path class="st4" d="M799,209.8l99.5-13.3"/>
<path class="st4" d="M799,209.8l99.5-13.3"/>
<path class="st4" d="M1073.7,236.1l-26.2-70.3"/>
<path class="st4" d="M1073.7,236.1l-69.1-63.5"/>
<path class="st4" d="M1073.7,236.1l-26.2-70.3"/>
<path class="st4" d="M1073.7,236.1l-69.1-63.5"/>
<path class="st4" d="M1073.7,236.1L983.5,249"/>
<path class="st4" d="M878.7,362.5l-21.1-63.9"/>
<path class="st4" d="M878.7,362.5l48.3-93.2"/>
<path class="st4" d="M983.5,249l-50.4-59.4"/>
<path class="st4" d="M983.5,249l21.1-76.4"/>
<path class="st4" d="M983.5,249l21.1-76.4"/>
<path class="st4" d="M983.5,249l-50.4-59.4"/>
<path class="st4" d="M983.5,249L927,269.3"/>
<path class="st4" d="M983.5,249l90.2-12.9"/>
<path class="st4" d="M927,269.3l-93-26.5"/>
<path class="st4" d="M927,269.3l-69.4,29.3"/>
<path class="st4" d="M927,269.3l56.5-20.3"/>
<path class="st4" d="M927,269.3l-48.3,93.2"/>
<path class="st4" d="M927,269.3l6.2-79.8"/>
<path class="st4" d="M927,269.3l-28.6-72.8"/>
<path class="st4" d="M927,269.3l6.2-79.8"/>
<path class="st4" d="M927,269.3l-28.6-72.8"/>
<path class="st4" d="M799,209.8l35,33"/>
<path class="st4" d="M799,209.8l22.7-108.2"/>
<path class="st4" d="M799,209.8l99.5-13.3"/>
<path class="st4" d="M799,209.8l99.5-13.3"/>
<path class="st4" d="M834,242.8l64.4-46.3"/>
<path class="st4" d="M834,242.8l23.6,55.8"/>
<path class="st4" d="M834,242.8l-35-33"/>
<path class="st4" d="M834,242.8l93,26.5"/>
<path class="st4" d="M834,242.8l64.4-46.3"/>
<path class="st4" d="M834,242.8l-35-33"/>
<path class="st4" d="M834,242.8l-35-33"/>
<path class="st4" d="M857.6,298.6L834,242.8"/>
<path class="st4" d="M857.6,298.6l69.4-29.3"/>
<path class="st4" d="M857.6,298.6l21.1,63.9"/>
<path class="st4" d="M799,209.8l35,33"/>
<path class="st4" d="M799,209.8l22.7-108.2"/>
<path class="st4" d="M799,209.8l99.5-13.3"/>
<path class="st4" d="M799,209.8l99.5-13.3"/>
<g>
	<g id="Layer_1_2_">
		<g>
			<text transform="matrix(1 0 0 1 971.1642 378.4889)" class="st1" style="font-family:'OpenSans'; font-size:57.4072px;">Urban Morphology Measuring Toolkit</text>
		</g>
	</g>
	<g id="Layer_7_1_">
		<text transform="matrix(1 0 0 1 1220.4259 261.151)" class="st1" style="font-family:'OpenSans'; font-size:181.4101px;">momepy</text>
	</g>
</g>
</svg>
